<svg width="32" height="32" viewBox="0 0 32 32" fill="none" xmlns="http://www.w3.org/2000/svg">
<g id="icon/eraser">
<path id="Vector" d="M28.1249 10.05L22.9499 4.87501C22.3873 4.31244 21.6243 3.9964 20.8287 3.9964C20.0331 3.9964 19.2701 4.31244 18.7074 4.87501L3.87495 19.7075C3.31238 20.2701 2.99634 21.0331 2.99634 21.8288C2.99634 22.6244 3.31238 23.3874 3.87495 23.95L7.63245 27.7075C7.72568 27.8006 7.83641 27.8744 7.95825 27.9246C8.0801 27.9748 8.21067 28.0004 8.34245 28H26.9999C27.2652 28 27.5195 27.8947 27.7071 27.7071C27.8946 27.5196 27.9999 27.2652 27.9999 27C27.9999 26.7348 27.8946 26.4804 27.7071 26.2929C27.5195 26.1054 27.2652 26 26.9999 26H16.4124L28.1249 14.2925C28.6875 13.7299 29.0036 12.9669 29.0036 12.1713C29.0036 11.3756 28.6875 10.6126 28.1249 10.05ZM13.5849 26H8.7562L5.2912 22.535C5.1038 22.3475 4.99854 22.0932 4.99854 21.8281C4.99854 21.563 5.1038 21.3088 5.2912 21.1213L11.9999 14.4138L18.5862 21L13.5849 26ZM26.7099 12.875L19.9999 19.5863L13.4137 13L20.1249 6.29251C20.2178 6.19953 20.3281 6.12577 20.4495 6.07545C20.5709 6.02512 20.701 5.99922 20.8324 5.99922C20.9639 5.99922 21.094 6.02512 21.2154 6.07545C21.3368 6.12577 21.4471 6.19953 21.5399 6.29251L26.7124 11.465C26.8998 11.6525 27.0051 11.9068 27.0051 12.1719C27.0051 12.437 26.8998 12.6912 26.7124 12.8788L26.7099 12.875Z" fill="#343330"/>
</g>
</svg>
