<svg width="32" height="32" viewBox="0 0 32 32" fill="none" xmlns="http://www.w3.org/2000/svg">
<g id="icon/ice.cream">
<path id="Vector" d="M26 12.1713V12C26 9.34784 24.9464 6.8043 23.0711 4.92893C21.1957 3.05357 18.6522 2 16 2C13.3478 2 10.8043 3.05357 8.92894 4.92893C7.05357 6.8043 6 9.34784 6 12V12.1713C5.33256 12.407 4.76997 12.8711 4.41171 13.4816C4.05345 14.0921 3.9226 14.8096 4.04229 15.5073C4.16198 16.2049 4.52451 16.8378 5.06577 17.294C5.60703 17.7501 6.29216 18.0002 7 18H7.41125L14.2638 29.9925C14.4387 30.2985 14.6915 30.5529 14.9964 30.7297C15.3013 30.9066 15.6475 30.9998 16 30.9998C16.3525 30.9998 16.6987 30.9066 17.0037 30.7297C17.3086 30.5529 17.5613 30.2985 17.7363 29.9925L24.5888 18H25C25.7079 18.0002 26.393 17.7501 26.9342 17.294C27.4755 16.8378 27.838 16.2049 27.9577 15.5073C28.0774 14.8096 27.9466 14.0921 27.5883 13.4816C27.23 12.8711 26.6674 12.407 26 12.1713ZM9.71375 18H12.1338L17.21 26.8825L16 29L9.71375 18ZM16.8488 18L19.5675 22.7575L18.3613 24.8675L14.4375 18H16.8488ZM20.7238 20.7425L19.1513 18H22.2863L20.7238 20.7425ZM25 16H7C6.73479 16 6.48043 15.8946 6.2929 15.7071C6.10536 15.5196 6 15.2652 6 15C6 14.7348 6.10536 14.4804 6.2929 14.2929C6.48043 14.1054 6.73479 14 7 14C7.26522 14 7.51957 13.8946 7.70711 13.7071C7.89465 13.5196 8 13.2652 8 13V12C8 9.87827 8.84286 7.84344 10.3432 6.34315C11.8434 4.84285 13.8783 4 16 4C18.1217 4 20.1566 4.84285 21.6569 6.34315C23.1572 7.84344 24 9.87827 24 12V13C24 13.2652 24.1054 13.5196 24.2929 13.7071C24.4804 13.8946 24.7348 14 25 14C25.2652 14 25.5196 14.1054 25.7071 14.2929C25.8946 14.4804 26 14.7348 26 15C26 15.2652 25.8946 15.5196 25.7071 15.7071C25.5196 15.8946 25.2652 16 25 16Z" fill="#343330"/>
</g>
</svg>
