<svg width="32" height="32" viewBox="0 0 32 32" fill="none" xmlns="http://www.w3.org/2000/svg">
<g id="icon/shield.slash">
<path id="Vector" d="M6.74 4.32743C6.58962 4.16251 6.38839 4.05265 6.16835 4.01531C5.94831 3.97798 5.72211 4.01533 5.52575 4.12141C5.32939 4.2275 5.17416 4.39622 5.08478 4.60073C4.9954 4.80523 4.97699 5.03376 5.0325 5.24993C4.71976 5.42279 4.45904 5.67628 4.27746 5.98405C4.09588 6.29181 4.00007 6.6426 4 6.99993V13.9999C4 20.5899 7.19 24.5837 9.86625 26.7737C12.7487 29.1312 15.6163 29.9324 15.7413 29.9649C15.9131 30.0117 16.0944 30.0117 16.2663 29.9649C16.4363 29.9187 20.175 28.8674 23.4025 25.6249L25.2638 27.6724C25.3516 27.7714 25.4582 27.852 25.5774 27.9095C25.6965 27.967 25.826 28.0003 25.9581 28.0074C26.0902 28.0145 26.2225 27.9953 26.3471 27.9509C26.4718 27.9065 26.5864 27.8379 26.6844 27.7489C26.7823 27.6599 26.8616 27.5523 26.9176 27.4324C26.9737 27.3126 27.0054 27.1828 27.0109 27.0505C27.0165 26.9183 26.9957 26.7863 26.9498 26.6622C26.904 26.5381 26.8339 26.4243 26.7437 26.3274L6.74 4.32743ZM15.9987 27.9524C14.2305 27.3343 12.584 26.4117 11.1337 25.2262C7.7275 22.4387 6 18.6624 6 13.9999V6.99993H6.46375L22.0513 24.1437C20.3439 25.8492 18.2762 27.1507 16 27.9524H15.9987ZM28 6.99993V13.9999C28 16.5724 27.5138 18.9512 26.555 21.0737C26.4458 21.3154 26.245 21.5037 25.9969 21.5974C25.7487 21.691 25.4736 21.6823 25.2319 21.5731C24.9902 21.4638 24.8018 21.2631 24.7082 21.0149C24.6145 20.7668 24.6233 20.4916 24.7325 20.2499C25.5737 18.3887 26 16.2862 26 13.9999V6.99993H12.315C12.0498 6.99993 11.7954 6.89457 11.6079 6.70704C11.4204 6.5195 11.315 6.26515 11.315 5.99993C11.315 5.73471 11.4204 5.48036 11.6079 5.29282C11.7954 5.10529 12.0498 4.99993 12.315 4.99993H26C26.5304 4.99993 27.0391 5.21064 27.4142 5.58572C27.7893 5.96079 28 6.4695 28 6.99993Z" fill="#343330"/>
</g>
</svg>
