<svg width="32" height="32" viewBox="0 0 32 32" fill="none" xmlns="http://www.w3.org/2000/svg">
<g id="icon/vector.two">
<path id="Vector" d="M28.7075 24.7076L24.7075 28.7076C24.5199 28.8952 24.2654 29.0006 24 29.0006C23.7346 29.0006 23.4801 28.8952 23.2925 28.7076C23.1049 28.5199 22.9994 28.2654 22.9994 28.0001C22.9994 27.7347 23.1049 27.4802 23.2925 27.2926L25.5863 25.0001H10C9.73478 25.0001 9.48043 24.8947 9.29289 24.7072C9.10536 24.5196 9 24.2653 9 24.0001V7.4138L6.7075 9.70755C6.51986 9.8952 6.26536 10.0006 6 10.0006C5.73464 10.0006 5.48014 9.89519 5.2925 9.70755C5.10486 9.51991 4.99944 9.26542 4.99944 9.00005C4.99944 8.73469 5.10486 8.48019 5.2925 8.29255L9.2925 4.29255C9.38537 4.19958 9.49566 4.12582 9.61706 4.07549C9.73846 4.02517 9.86858 3.99927 10 3.99927C10.1314 3.99927 10.2615 4.02517 10.3829 4.07549C10.5043 4.12582 10.6146 4.19958 10.7075 4.29255L14.7075 8.29255C14.8951 8.48019 15.0006 8.73469 15.0006 9.00005C15.0006 9.26542 14.8951 9.51991 14.7075 9.70755C14.5199 9.8952 14.2654 10.0006 14 10.0006C13.7346 10.0006 13.4801 9.8952 13.2925 9.70755L11 7.4138V23.0001H25.5863L23.2925 20.7076C23.1049 20.5199 22.9994 20.2654 22.9994 20.0001C22.9994 19.7347 23.1049 19.4802 23.2925 19.2926C23.4801 19.1049 23.7346 18.9995 24 18.9995C24.2654 18.9995 24.5199 19.1049 24.7075 19.2926L28.7075 23.2926C28.8005 23.3854 28.8742 23.4957 28.9246 23.6171C28.9749 23.7385 29.0008 23.8686 29.0008 24.0001C29.0008 24.1315 28.9749 24.2616 28.9246 24.383C28.8742 24.5044 28.8005 24.6147 28.7075 24.7076Z" fill="#343330"/>
</g>
</svg>
