<svg width="32" height="32" viewBox="0 0 32 32" fill="none" xmlns="http://www.w3.org/2000/svg">
<g id="icon/approximate.equals">
<path id="Vector" d="M27.77 19.1575C27.9395 19.3607 28.0215 19.6229 27.9981 19.8865C27.9746 20.15 27.8477 20.3936 27.645 20.5638C25.475 22.3613 23.5375 23 21.77 23C19.4475 23 17.4175 21.8988 15.5288 20.875C12.36 19.1563 9.62378 17.6713 5.64503 20.9675C5.54474 21.0564 5.42761 21.1242 5.3006 21.167C5.17358 21.2097 5.03927 21.2265 4.90565 21.2163C4.77202 21.2061 4.64181 21.1692 4.52274 21.1076C4.40368 21.0461 4.29819 20.9613 4.21255 20.8583C4.1269 20.7552 4.06285 20.6359 4.02419 20.5076C3.98554 20.3793 3.97307 20.2445 3.98753 20.1113C4.00198 19.9781 4.04307 19.8491 4.10835 19.7321C4.17363 19.615 4.26177 19.5123 4.36753 19.43C9.38878 15.2713 13.1575 17.315 16.4838 19.12C19.6525 20.8388 22.3888 22.3225 26.3675 19.0263C26.5713 18.8587 26.8331 18.7784 27.0958 18.803C27.3585 18.8276 27.6009 18.955 27.77 19.1575ZM5.64503 12.975C9.62378 9.67875 12.36 11.1625 15.5288 12.8813C17.4175 13.9063 19.4475 15.0063 21.77 15.0063C23.5375 15.0063 25.475 14.3675 27.645 12.57C27.7508 12.4877 27.8389 12.385 27.9042 12.2679C27.9695 12.1509 28.0106 12.0219 28.025 11.8887C28.0395 11.7555 28.027 11.6207 27.9884 11.4924C27.9497 11.3641 27.8857 11.2448 27.8 11.1417C27.7144 11.0387 27.6089 10.9539 27.4898 10.8924C27.3707 10.8309 27.2405 10.7939 27.1069 10.7837C26.9733 10.7735 26.839 10.7903 26.712 10.833C26.5849 10.8758 26.4678 10.9436 26.3675 11.0325C22.3888 14.3288 19.6525 12.8438 16.4838 11.125C13.1575 9.32125 9.38878 7.27625 4.36753 11.435C4.17974 11.6084 4.06549 11.8472 4.04824 12.1022C4.03099 12.3572 4.11205 12.6092 4.27477 12.8063C4.43749 13.0034 4.66952 13.1307 4.92319 13.1621C5.17687 13.1935 5.43293 13.1265 5.63878 12.975H5.64503Z" fill="#343330"/>
</g>
</svg>
