<svg width="32" height="32" viewBox="0 0 32 32" fill="none" xmlns="http://www.w3.org/2000/svg">
<g id="icon/arrow.fat.line.down">
<path id="Vector" d="M28.9237 16.6175C28.8481 16.4348 28.72 16.2786 28.5555 16.1686C28.3911 16.0587 28.1978 16 28 16H23V9C23 8.73478 22.8946 8.48043 22.7071 8.29289C22.5196 8.10536 22.2652 8 22 8H9.99999C9.73478 8 9.48042 8.10536 9.29289 8.29289C9.10535 8.48043 8.99999 8.73478 8.99999 9V16H3.99999C3.8021 15.9998 3.60861 16.0584 3.44401 16.1683C3.27942 16.2782 3.15112 16.4344 3.07537 16.6172C2.99962 16.8 2.97981 17.0012 3.01846 17.1953C3.05712 17.3894 3.15248 17.5676 3.29249 17.7075L15.2925 29.7075C15.3854 29.8005 15.4957 29.8742 15.6171 29.9246C15.7385 29.9749 15.8686 30.0008 16 30.0008C16.1314 30.0008 16.2615 29.9749 16.3829 29.9246C16.5043 29.8742 16.6146 29.8005 16.7075 29.7075L28.7075 17.7075C28.8473 17.5676 28.9425 17.3893 28.981 17.1953C29.0195 17.0013 28.9995 16.8002 28.9237 16.6175ZM16 27.5863L6.41374 18H9.99999C10.2652 18 10.5196 17.8946 10.7071 17.7071C10.8946 17.5196 11 17.2652 11 17V10H21V17C21 17.2652 21.1054 17.5196 21.2929 17.7071C21.4804 17.8946 21.7348 18 22 18H25.5862L16 27.5863ZM8.99999 5C8.99999 4.73478 9.10535 4.48043 9.29289 4.29289C9.48042 4.10536 9.73478 4 9.99999 4H22C22.2652 4 22.5196 4.10536 22.7071 4.29289C22.8946 4.48043 23 4.73478 23 5C23 5.26522 22.8946 5.51957 22.7071 5.70711C22.5196 5.89464 22.2652 6 22 6H9.99999C9.73478 6 9.48042 5.89464 9.29289 5.70711C9.10535 5.51957 8.99999 5.26522 8.99999 5Z" fill="#343330"/>
</g>
</svg>
