<svg width="32" height="32" viewBox="0 0 32 32" fill="none" xmlns="http://www.w3.org/2000/svg">
<g id="icon/airplane.in.flight">
<path id="Vector" d="M27.9999 27C27.9999 27.2652 27.8945 27.5196 27.707 27.7071C27.5195 27.8946 27.2651 28 26.9999 28H8.9999C8.73468 28 8.48033 27.8946 8.29279 27.7071C8.10526 27.5196 7.9999 27.2652 7.9999 27C7.9999 26.7348 8.10526 26.4804 8.29279 26.2929C8.48033 26.1054 8.73468 26 8.9999 26H26.9999C27.2651 26 27.5195 26.1054 27.707 26.2929C27.8945 26.4804 27.9999 26.7348 27.9999 27ZM30.9999 17V20C30.9999 20.2652 30.8945 20.5196 30.707 20.7071C30.5195 20.8946 30.2651 21 29.9999 21H7.63365C6.55712 21.0049 5.5081 20.6601 4.64447 20.0174C3.78083 19.3747 3.1493 18.4689 2.8449 17.4363L1.08615 11.575C0.996546 11.2765 0.977944 10.9612 1.03183 10.6542C1.08571 10.3473 1.21058 10.0571 1.39649 9.80699C1.58239 9.55685 1.82418 9.35362 2.10257 9.21351C2.38096 9.0734 2.68824 9.00028 2.9999 9H3.9999C4.26476 9.00012 4.51876 9.10532 4.70615 9.2925L7.4149 12H10.2261L9.10115 8.6325C9.00089 8.33175 8.97356 8.01147 9.02142 7.69807C9.06928 7.38468 9.19096 7.08715 9.37641 6.83003C9.56187 6.57291 9.80579 6.36356 10.0881 6.21924C10.3703 6.07492 10.6829 5.99978 10.9999 6H11.9999C12.1313 5.9999 12.2614 6.02568 12.3827 6.07586C12.5041 6.12605 12.6145 6.19967 12.7074 6.2925L18.4149 12H25.9999C27.326 12 28.5978 12.5268 29.5354 13.4645C30.4731 14.4021 30.9999 15.6739 30.9999 17ZM28.9999 17C28.9999 16.2044 28.6838 15.4413 28.1212 14.8787C27.5586 14.3161 26.7955 14 25.9999 14H17.9999C17.735 13.9999 17.481 13.8947 17.2936 13.7075L11.5861 8H10.9999L12.5611 12.6838C12.6112 12.834 12.6249 12.994 12.6011 13.1505C12.5772 13.3071 12.5166 13.4557 12.4241 13.5842C12.3316 13.7127 12.2098 13.8175 12.0689 13.8897C11.928 13.962 11.772 13.9998 11.6136 14H6.9999C6.86854 14.0001 6.73844 13.9743 6.61705 13.9241C6.49565 13.8739 6.38534 13.8003 6.2924 13.7075L3.58615 11H2.9999L4.75865 16.8625C4.94151 17.4822 5.32075 18.0257 5.83927 18.4113C6.35779 18.7968 6.98753 19.0034 7.63365 19H28.9999V17Z" fill="#343330"/>
</g>
</svg>
