<svg width="32" height="32" viewBox="0 0 32 32" fill="none" xmlns="http://www.w3.org/2000/svg">
<g id="icon/chat.slash">
<path id="Vector" d="M6.73997 4.32746C6.65216 4.22847 6.54556 4.14789 6.42637 4.0904C6.30718 4.03291 6.17777 3.99964 6.04563 3.99253C5.91349 3.98542 5.78125 4.00461 5.65659 4.04899C5.53192 4.09336 5.41729 4.16204 5.31936 4.25104C5.22143 4.34003 5.14214 4.44759 5.08608 4.56746C5.03002 4.68732 4.99831 4.81713 4.99278 4.94934C4.98726 5.08156 5.00803 5.21356 5.0539 5.33769C5.09976 5.46181 5.16981 5.5756 5.25997 5.67246L5.55747 5.99996H4.99997C4.46954 5.99996 3.96083 6.21068 3.58576 6.58575C3.21069 6.96082 2.99997 7.46953 2.99997 7.99996V28C2.99771 28.3812 3.10548 28.7549 3.31035 29.0764C3.51522 29.3979 3.80849 29.6535 4.15497 29.8125C4.41975 29.9354 4.70805 29.9994 4.99997 30C5.46981 29.9986 5.92405 29.8312 6.28247 29.5275L6.29247 29.5187L10.375 26H23.74L25.26 27.6725C25.3478 27.7715 25.4544 27.852 25.5736 27.9095C25.6928 27.967 25.8222 28.0003 25.9543 28.0074C26.0865 28.0145 26.2187 27.9953 26.3434 27.9509C26.468 27.9066 26.5827 27.8379 26.6806 27.7489C26.7785 27.6599 26.8578 27.5523 26.9139 27.4325C26.9699 27.3126 27.0016 27.1828 27.0072 27.0506C27.0127 26.9184 26.9919 26.7864 26.9461 26.6622C26.9002 26.5381 26.8301 26.4243 26.74 26.3275L6.73997 4.32746ZM9.99997 24C9.75986 24.0001 9.52781 24.0866 9.34622 24.2437L4.99997 28V7.99996H7.37497L21.9212 24H9.99997ZM29 7.99996V23.25C29 23.5152 28.8946 23.7695 28.7071 23.9571C28.5195 24.1446 28.2652 24.25 28 24.25C27.7348 24.25 27.4804 24.1446 27.2929 23.9571C27.1053 23.7695 27 23.5152 27 23.25V7.99996H13.2237C12.9585 7.99996 12.7042 7.8946 12.5166 7.70707C12.3291 7.51953 12.2237 7.26518 12.2237 6.99996C12.2237 6.73475 12.3291 6.48039 12.5166 6.29286C12.7042 6.10532 12.9585 5.99996 13.2237 5.99996H27C27.5304 5.99996 28.0391 6.21068 28.4142 6.58575C28.7893 6.96082 29 7.46953 29 7.99996Z" fill="#343330"/>
</g>
</svg>
