<svg width="32" height="32" viewBox="0 0 32 32" fill="none" xmlns="http://www.w3.org/2000/svg">
<g id="icon/pentagon">
<path id="Vector" d="M28.1949 10.945L17.2049 2.40627L17.1824 2.38877C16.84 2.13601 16.4256 1.99963 15.9999 1.99963C15.5743 1.99963 15.1599 2.13601 14.8174 2.38877L14.7949 2.40627L3.80494 10.945C3.47223 11.193 3.2249 11.5384 3.09723 11.9333C2.96957 12.3281 2.9679 12.7529 3.09244 13.1488L7.09244 26.5913L7.09994 26.6125C7.22837 27.0155 7.48171 27.3672 7.82329 27.6166C8.16487 27.8661 8.57697 28.0004 8.99994 28H22.9999C23.4235 28.0012 23.8365 27.8672 24.1788 27.6177C24.5212 27.3682 24.7751 27.0161 24.9037 26.6125L24.9112 26.5913L28.9112 13.1488C29.0353 12.7525 29.0331 12.3275 28.9047 11.9326C28.7764 11.5377 28.5283 11.1925 28.1949 10.945ZM26.9924 12.57L22.9999 26H8.99994L4.99994 12.57L4.99244 12.5488L5.01494 12.5313L15.9999 4.00002L26.9774 12.5288L26.9999 12.5463L26.9924 12.57Z" fill="#343330"/>
</g>
</svg>
