<svg width="32" height="32" viewBox="0 0 32 32" fill="none" xmlns="http://www.w3.org/2000/svg">
<g id="icon/ny.times.logo">
<path id="Vector" d="M21.5 17C21.7967 17 22.0867 17.088 22.3334 17.2528C22.58 17.4176 22.7723 17.6519 22.8858 17.926C22.9993 18.2001 23.0291 18.5017 22.9712 18.7926C22.9133 19.0836 22.7704 19.3509 22.5607 19.5607C22.3509 19.7704 22.0836 19.9133 21.7926 19.9712C21.5017 20.0291 21.2001 19.9993 20.926 19.8858C20.6519 19.7723 20.4176 19.58 20.2528 19.3334C20.088 19.0867 20 18.7967 20 18.5C20 18.1022 20.158 17.7206 20.4393 17.4393C20.7206 17.158 21.1022 17 21.5 17ZM23.0775 12.9062L14.8638 9.07375C12.7487 9.34192 10.7978 10.3527 9.35883 11.9258C7.91989 13.4989 7.08657 15.532 7.0075 17.6625L15.53 13.1175C15.6824 13.0364 15.8531 12.9961 16.0257 13.0005C16.1982 13.0049 16.3667 13.054 16.5147 13.1428C16.6627 13.2316 16.7852 13.3573 16.8702 13.5075C16.9553 13.6577 17 13.8274 17 14V26.9438C18.7366 26.7557 20.3804 26.0638 21.7287 24.9533C23.0771 23.8428 24.0713 22.3621 24.5888 20.6938C24.6691 20.4403 24.8469 20.2292 25.083 20.1068C25.319 19.9844 25.5941 19.9609 25.8475 20.0413C26.1009 20.1216 26.3121 20.2994 26.4344 20.5355C26.5568 20.7715 26.5804 21.0466 26.5 21.3C26.0339 22.7712 25.2635 24.1279 24.2388 25.2819C23.2141 26.4358 21.958 27.3613 20.5523 27.998C19.1465 28.6348 17.6224 28.9686 16.0792 28.9778C14.536 28.987 13.0081 28.6714 11.5948 28.0514C10.1815 27.4315 8.9145 26.5211 7.8761 25.3794C6.8377 24.2378 6.05116 22.8904 5.56758 21.4248C5.084 19.9593 4.91422 18.4084 5.06926 16.8729C5.22431 15.3374 5.70071 13.8518 6.4675 12.5125C5.56607 12.0549 4.845 11.307 4.42051 10.3895C3.99603 9.47196 3.89286 8.43824 4.12765 7.45493C4.36243 6.47161 4.92148 5.596 5.71469 4.96923C6.50789 4.34246 7.48905 4.00104 8.5 4C8.64597 4.00024 8.79013 4.03223 8.9225 4.09375L23.7038 10.9913C24.346 10.9374 24.9426 10.6376 25.3691 10.1544C25.7956 9.67121 26.019 9.04198 25.9928 8.39803C25.9665 7.75407 25.6925 7.14514 25.228 6.69833C24.7636 6.25151 24.1445 6.00133 23.5 6C23.2348 6 22.9804 5.89464 22.7929 5.70711C22.6054 5.51957 22.5 5.26522 22.5 5C22.5 4.73478 22.6054 4.48043 22.7929 4.29289C22.9804 4.10536 23.2348 4 23.5 4C24.6935 4 25.8381 4.47411 26.682 5.31802C27.5259 6.16193 28 7.30653 28 8.5C28 9.69347 27.5259 10.8381 26.682 11.682C25.8381 12.5259 24.6935 13 23.5 13C23.354 12.9998 23.2099 12.9678 23.0775 12.9062ZM11 25.4788V17.8L7.18875 19.8325C7.67218 22.1405 9.0403 24.1673 11 25.4788ZM15 15.6663L13 16.7337V26.4837C13.6467 26.7135 14.3178 26.8674 15 26.9425V15.6663ZM12.0162 7.75L8.29625 6.00875C7.72894 6.05649 7.19491 6.29644 6.78248 6.6889C6.37006 7.08137 6.10394 7.60285 6.02815 8.1671C5.95235 8.73135 6.07141 9.30458 6.36564 9.79197C6.65987 10.2794 7.11165 10.6517 7.64625 10.8475C7.72125 10.7587 7.79625 10.67 7.87625 10.5837C9.01954 9.33288 10.4364 8.36307 12.0162 7.75Z" fill="#343330"/>
</g>
</svg>
