<svg width="32" height="32" viewBox="0 0 32 32" fill="none" xmlns="http://www.w3.org/2000/svg">
<g id="icon/less.than">
<path id="Vector" d="M25.9037 25.4275C25.8475 25.5463 25.7685 25.6529 25.6711 25.7411C25.5738 25.8294 25.4599 25.8976 25.3362 25.9418C25.2124 25.9861 25.0812 26.0055 24.9499 25.9989C24.8186 25.9924 24.69 25.96 24.5712 25.9037L5.57121 16.9037C5.4001 16.8227 5.25551 16.6947 5.15426 16.5348C5.05302 16.3748 4.99927 16.1893 4.99927 16C4.99927 15.8107 5.05302 15.6252 5.15426 15.4652C5.25551 15.3052 5.4001 15.1773 5.57121 15.0962L24.5712 6.09625C24.6899 6.04003 24.8185 6.00773 24.9496 6.0012C25.0808 5.99468 25.212 6.01405 25.3357 6.05822C25.4593 6.10239 25.5731 6.17048 25.6705 6.25861C25.7678 6.34674 25.8469 6.45319 25.9031 6.57187C25.9593 6.69055 25.9916 6.81915 25.9981 6.95031C26.0046 7.08147 25.9853 7.21264 25.9411 7.33631C25.8969 7.45999 25.8289 7.57376 25.7407 7.67112C25.6526 7.76848 25.5461 7.84753 25.4275 7.90375L8.33621 16L25.4275 24.0962C25.6671 24.2097 25.8519 24.4136 25.9412 24.6633C26.0305 24.9129 26.017 25.1878 25.9037 25.4275Z" fill="#343330"/>
</g>
</svg>
