<svg width="32" height="32" viewBox="0 0 32 32" fill="none" xmlns="http://www.w3.org/2000/svg">
<g id="icon/arrows.out.cardinal">
<path id="Vector" d="M11.2925 7.70755C11.1995 7.61468 11.1258 7.50439 11.0754 7.38299C11.0251 7.2616 10.9992 7.13147 10.9992 7.00005C10.9992 6.86864 11.0251 6.73851 11.0754 6.61711C11.1258 6.49572 11.1995 6.38543 11.2925 6.29255L15.2925 2.29255C15.3854 2.19958 15.4957 2.12582 15.6171 2.07549C15.7385 2.02517 15.8686 1.99927 16 1.99927C16.1314 1.99927 16.2615 2.02517 16.3829 2.07549C16.5043 2.12582 16.6146 2.19958 16.7075 2.29255L20.7075 6.29255C20.8951 6.4802 21.0005 6.73469 21.0005 7.00005C21.0005 7.26542 20.8951 7.51991 20.7075 7.70755C20.5199 7.8952 20.2654 8.00061 20 8.00061C19.7346 8.00061 19.4801 7.8952 19.2925 7.70755L17 5.4138V12.0001C17 12.2653 16.8946 12.5196 16.7071 12.7072C16.5196 12.8947 16.2652 13.0001 16 13.0001C15.7348 13.0001 15.4804 12.8947 15.2929 12.7072C15.1054 12.5196 15 12.2653 15 12.0001V5.4138L12.7075 7.70755C12.6146 7.80053 12.5043 7.87429 12.3829 7.92461C12.2615 7.97494 12.1314 8.00084 12 8.00084C11.8686 8.00084 11.7385 7.97494 11.6171 7.92461C11.4957 7.87429 11.3854 7.80053 11.2925 7.70755ZM19.2925 24.2926L17 26.5863V20.0001C17 19.7348 16.8946 19.4805 16.7071 19.2929C16.5196 19.1054 16.2652 19.0001 16 19.0001C15.7348 19.0001 15.4804 19.1054 15.2929 19.2929C15.1054 19.4805 15 19.7348 15 20.0001V26.5863L12.7075 24.2926C12.5199 24.1049 12.2654 23.9995 12 23.9995C11.7346 23.9995 11.4801 24.1049 11.2925 24.2926C11.1049 24.4802 10.9994 24.7347 10.9994 25.0001C10.9994 25.2654 11.1049 25.5199 11.2925 25.7076L15.2925 29.7076C15.3854 29.8005 15.4957 29.8743 15.6171 29.9246C15.7385 29.9749 15.8686 30.0008 16 30.0008C16.1314 30.0008 16.2615 29.9749 16.3829 29.9246C16.5043 29.8743 16.6146 29.8005 16.7075 29.7076L20.7075 25.7076C20.8951 25.5199 21.0005 25.2654 21.0005 25.0001C21.0005 24.7347 20.8951 24.4802 20.7075 24.2926C20.5199 24.1049 20.2654 23.9995 20 23.9995C19.7346 23.9995 19.4801 24.1049 19.2925 24.2926ZM29.7075 15.2926L25.7075 11.2926C25.5199 11.1049 25.2654 10.9995 25 10.9995C24.7346 10.9995 24.4801 11.1049 24.2925 11.2926C24.1049 11.4802 23.9994 11.7347 23.9994 12.0001C23.9994 12.2654 24.1049 12.5199 24.2925 12.7076L26.5862 15.0001H20C19.7348 15.0001 19.4804 15.1054 19.2929 15.2929C19.1053 15.4805 19 15.7348 19 16.0001C19 16.2653 19.1053 16.5196 19.2929 16.7072C19.4804 16.8947 19.7348 17.0001 20 17.0001H26.5862L24.2925 19.2926C24.1049 19.4802 23.9994 19.7347 23.9994 20.0001C23.9994 20.2654 24.1049 20.5199 24.2925 20.7076C24.4801 20.8952 24.7346 21.0006 25 21.0006C25.2654 21.0006 25.5199 20.8952 25.7075 20.7076L29.7075 16.7076C29.8005 16.6147 29.8742 16.5044 29.9246 16.383C29.9749 16.2616 30.0008 16.1315 30.0008 16.0001C30.0008 15.8686 29.9749 15.7385 29.9246 15.6171C29.8742 15.4957 29.8005 15.3854 29.7075 15.2926ZM5.41374 17.0001H12C12.2652 17.0001 12.5196 16.8947 12.7071 16.7072C12.8946 16.5196 13 16.2653 13 16.0001C13 15.7348 12.8946 15.4805 12.7071 15.2929C12.5196 15.1054 12.2652 15.0001 12 15.0001H5.41374L7.70749 12.7076C7.89513 12.5199 8.00055 12.2654 8.00055 12.0001C8.00055 11.7347 7.89513 11.4802 7.70749 11.2926C7.51985 11.1049 7.26536 10.9995 6.99999 10.9995C6.73463 10.9995 6.48013 11.1049 6.29249 11.2926L2.29249 15.2926C2.19952 15.3854 2.12576 15.4957 2.07543 15.6171C2.02511 15.7385 1.99921 15.8686 1.99921 16.0001C1.99921 16.1315 2.02511 16.2616 2.07543 16.383C2.12576 16.5044 2.19952 16.6147 2.29249 16.7076L6.29249 20.7076C6.48013 20.8952 6.73463 21.0006 6.99999 21.0006C7.26536 21.0006 7.51985 20.8952 7.70749 20.7076C7.89513 20.5199 8.00055 20.2654 8.00055 20.0001C8.00055 19.7347 7.89513 19.4802 7.70749 19.2926L5.41374 17.0001Z" fill="#343330"/>
</g>
</svg>
