<svg width="32" height="32" viewBox="0 0 32 32" fill="none" xmlns="http://www.w3.org/2000/svg">
<g id="icon/arrow.fat.line.up">
<path id="Vector" d="M28.7075 14.2925L16.7075 2.29249C16.6146 2.19952 16.5043 2.12576 16.3829 2.07543C16.2615 2.02511 16.1314 1.99921 16 1.99921C15.8686 1.99921 15.7385 2.02511 15.6171 2.07543C15.4957 2.12576 15.3854 2.19952 15.2925 2.29249L3.2925 14.2925C3.15249 14.4323 3.05712 14.6106 3.01847 14.8047C2.97982 14.9988 2.99963 15.2 3.07538 15.3828C3.15113 15.5656 3.27943 15.7218 3.44402 15.8317C3.60861 15.9416 3.80211 16.0001 4 16H9V23C9 23.2652 9.10536 23.5196 9.2929 23.7071C9.48043 23.8946 9.73479 24 10 24H22C22.2652 24 22.5196 23.8946 22.7071 23.7071C22.8946 23.5196 23 23.2652 23 23V16H28C28.1979 16.0001 28.3914 15.9416 28.556 15.8317C28.7206 15.7218 28.8489 15.5656 28.9246 15.3828C29.0004 15.2 29.0202 14.9988 28.9815 14.8047C28.9429 14.6106 28.8475 14.4323 28.7075 14.2925ZM22 14C21.7348 14 21.4804 14.1054 21.2929 14.2929C21.1054 14.4804 21 14.7348 21 15V22H11V15C11 14.7348 10.8946 14.4804 10.7071 14.2929C10.5196 14.1054 10.2652 14 10 14H6.41375L16 4.41374L25.5863 14H22ZM23 27C23 27.2652 22.8946 27.5196 22.7071 27.7071C22.5196 27.8946 22.2652 28 22 28H10C9.73479 28 9.48043 27.8946 9.2929 27.7071C9.10536 27.5196 9 27.2652 9 27C9 26.7348 9.10536 26.4804 9.2929 26.2929C9.48043 26.1053 9.73479 26 10 26H22C22.2652 26 22.5196 26.1053 22.7071 26.2929C22.8946 26.4804 23 26.7348 23 27Z" fill="#343330"/>
</g>
</svg>
