<svg width="32" height="32" viewBox="0 0 32 32" fill="none" xmlns="http://www.w3.org/2000/svg">
<g id="icon/baseball.helmet">
<path id="Vector" d="M11 16C10.3078 16 9.63108 16.2053 9.05551 16.5899C8.47994 16.9744 8.03134 17.5211 7.76643 18.1606C7.50152 18.8001 7.43221 19.5039 7.56726 20.1828C7.70231 20.8617 8.03565 21.4854 8.52513 21.9749C9.01462 22.4644 9.63826 22.7977 10.3172 22.9327C10.9961 23.0678 11.6999 22.9985 12.3394 22.7336C12.9789 22.4687 13.5256 22.0201 13.9102 21.4445C14.2947 20.8689 14.5 20.1922 14.5 19.5C14.5 18.5717 14.1313 17.6815 13.4749 17.0251C12.8185 16.3687 11.9283 16 11 16ZM11 21C10.7033 21 10.4133 20.912 10.1667 20.7472C9.91998 20.5824 9.72772 20.3481 9.61419 20.074C9.50066 19.7999 9.47095 19.4983 9.52883 19.2074C9.58671 18.9164 9.72957 18.6491 9.93935 18.4393C10.1491 18.2296 10.4164 18.0867 10.7074 18.0288C10.9983 17.9709 11.2999 18.0006 11.574 18.1142C11.8481 18.2277 12.0824 18.42 12.2472 18.6666C12.412 18.9133 12.5 19.2033 12.5 19.5C12.5 19.8978 12.342 20.2793 12.0607 20.5607C11.7794 20.842 11.3978 21 11 21ZM31 15H27.9625C27.7072 11.6462 26.162 8.52187 23.6515 6.28346C21.141 4.04505 17.8607 2.86679 14.4996 2.99624C11.1386 3.1257 7.95863 4.55279 5.62774 6.97768C3.29686 9.40257 1.99654 12.6365 2.00001 16V19C2.00265 21.3861 2.95172 23.6738 4.63897 25.361C6.32622 27.0483 8.61387 27.9973 11 28H16C18.3861 27.9973 20.6738 27.0483 22.361 25.361C24.0483 23.6738 24.9974 21.3861 25 19V17H31C31.2652 17 31.5196 16.8946 31.7071 16.7071C31.8947 16.5196 32 16.2652 32 16C32 15.7348 31.8947 15.4804 31.7071 15.2929C31.5196 15.1054 31.2652 15 31 15ZM23 19C22.9982 20.736 22.352 22.4096 21.1867 23.6964C20.0213 24.9832 18.4199 25.7916 16.6925 25.965C17.7262 25.1223 18.5594 24.0601 19.1315 22.8554C19.7036 21.6506 20.0003 20.3337 20 19V17H23V19ZM19 15C18.7348 15 18.4804 15.1054 18.2929 15.2929C18.1054 15.4804 18 15.7348 18 16V19C18 20.8565 17.2625 22.637 15.9498 23.9497C14.637 25.2625 12.8565 26 11 26C9.14349 26 7.36301 25.2625 6.05026 23.9497C4.7375 22.637 4.00001 20.8565 4.00001 19V16C3.99845 13.1682 5.08903 10.4449 7.04475 8.39697C9.00047 6.34902 11.6707 5.13418 14.4995 5.00534C17.3283 4.87649 20.0979 5.84356 22.2317 7.70524C24.3655 9.56693 25.6991 12.1798 25.955 15H19Z" fill="#343330"/>
</g>
</svg>
