<svg width="32" height="32" viewBox="0 0 32 32" fill="none" xmlns="http://www.w3.org/2000/svg">
<g id="icon/reddit.logo">
<path id="Vector" d="M31 13C30.9998 12.2334 30.7794 11.4831 30.365 10.8383C29.9506 10.1934 29.3596 9.68126 28.6624 9.3627C27.9652 9.04413 27.1912 8.93259 26.4324 9.04136C25.6737 9.15012 24.9621 9.47461 24.3825 9.9762C22.2888 8.8637 19.7875 8.1912 17.175 8.03495L17.8238 4.1387L20.0388 4.4787C20.1511 5.17741 20.5069 5.8139 21.0432 6.27567C21.5795 6.73744 22.2617 6.99477 22.9694 7.00216C23.677 7.00955 24.3645 6.76653 24.9103 6.31606C25.4561 5.86559 25.8251 5.23667 25.952 4.54046C26.079 3.84425 25.9557 3.12557 25.604 2.51146C25.2523 1.89734 24.6949 1.42732 24.0301 1.18448C23.3654 0.941634 22.6363 0.941598 21.9715 1.18438C21.3068 1.42716 20.7493 1.89712 20.3975 2.5112L17.1475 2.0112C16.8875 1.97111 16.6222 2.0351 16.409 2.18929C16.1959 2.34348 16.0521 2.57546 16.0088 2.83495L15.15 8.01995C12.42 8.13745 9.7975 8.81745 7.6175 9.9762C6.82138 9.30366 5.79422 8.96839 4.75463 9.04175C3.71505 9.11511 2.74514 9.59131 2.05136 10.369C1.35758 11.1467 0.994701 12.1644 1.03997 13.2056C1.08525 14.2468 1.53509 15.2292 2.29375 15.9437C2.09932 16.6118 2.00043 17.3041 2 18C2 20.7412 3.5 23.2937 6.23875 25.1862C8.86 27 12.3263 28 16 28C19.6738 28 23.14 27 25.7613 25.1862C28.5 23.2937 30 20.7412 30 18C29.9996 17.3041 29.9007 16.6118 29.7063 15.9437C30.1129 15.5685 30.4377 15.1134 30.6603 14.6068C30.8829 14.1003 30.9985 13.5532 31 13ZM23 2.99995C23.1978 2.99995 23.3911 3.0586 23.5556 3.16848C23.72 3.27836 23.8482 3.43454 23.9239 3.61727C23.9996 3.8 24.0194 4.00106 23.9808 4.19504C23.9422 4.38902 23.847 4.56721 23.7071 4.70706C23.5673 4.84691 23.3891 4.94215 23.1951 4.98074C23.0011 5.01932 22.8 4.99952 22.6173 4.92383C22.4346 4.84815 22.2784 4.71997 22.1685 4.55552C22.0587 4.39107 22 4.19773 22 3.99995C22 3.73474 22.1054 3.48038 22.2929 3.29285C22.4804 3.10531 22.7348 2.99995 23 2.99995ZM28.0163 14.7225C27.8081 14.8458 27.6517 15.0404 27.5761 15.2703C27.5004 15.5001 27.5107 15.7496 27.605 15.9725C27.8648 16.6169 27.9988 17.3051 28 18C28 20.0662 26.8013 22.0337 24.625 23.5412C22.3338 25.125 19.2713 26 16 26C12.7288 26 9.66625 25.125 7.375 23.5412C5.19875 22.0337 4 20.0662 4 18C4.00168 17.3074 4.13487 16.6215 4.3925 15.9787C4.48701 15.7561 4.49767 15.5069 4.42252 15.2771C4.34737 15.0472 4.19149 14.8524 3.98375 14.7287C3.72938 14.577 3.51187 14.3708 3.34691 14.1248C3.18196 13.8789 3.07368 13.5994 3.02991 13.3065C2.98613 13.0136 3.00795 12.7146 3.09379 12.4312C3.17962 12.1477 3.32733 11.8869 3.52624 11.6675C3.72516 11.4481 3.97031 11.2756 4.24401 11.1625C4.5177 11.0494 4.8131 10.9984 5.10887 11.0134C5.40464 11.0283 5.69341 11.1088 5.9543 11.2489C6.2152 11.389 6.44172 11.5854 6.6175 11.8237C6.76259 12.023 6.97618 12.1617 7.21727 12.2131C7.45836 12.2646 7.70995 12.2252 7.92375 12.1025L7.96875 12.075C10.1813 10.7375 13.0313 9.99995 16 9.99995C18.9663 9.99995 21.8163 10.7375 24.0288 12.075L24.0813 12.1062C24.2948 12.2264 24.5449 12.264 24.7844 12.2119C25.0238 12.1599 25.2357 12.0217 25.38 11.8237C25.5547 11.5834 25.7808 11.385 26.0418 11.243C26.3028 11.101 26.5921 11.0189 26.8888 11.0028C27.1855 10.9866 27.4821 11.0367 27.7569 11.1495C28.0318 11.2623 28.2781 11.435 28.4779 11.6549C28.6777 11.8748 28.826 12.1364 28.912 12.4208C28.998 12.7052 29.0196 13.0052 28.9751 13.299C28.9307 13.5928 28.8213 13.873 28.655 14.1192C28.4887 14.3654 28.2697 14.5715 28.0138 14.7225H28.0163ZM11 18C10.6044 18 10.2178 17.8827 9.88886 17.6629C9.55997 17.4431 9.30362 17.1308 9.15225 16.7653C9.00087 16.3999 8.96126 15.9977 9.03843 15.6098C9.1156 15.2218 9.30609 14.8654 9.58579 14.5857C9.8655 14.306 10.2219 14.1156 10.6098 14.0384C10.9978 13.9612 11.3999 14.0008 11.7654 14.1522C12.1308 14.3036 12.4432 14.5599 12.6629 14.8888C12.8827 15.2177 13 15.6044 13 16C13 16.5304 12.7893 17.0391 12.4142 17.4142C12.0391 17.7892 11.5304 18 11 18ZM23 16C23 16.3955 22.8827 16.7822 22.6629 17.1111C22.4432 17.44 22.1308 17.6963 21.7654 17.8477C21.3999 17.9991 20.9978 18.0387 20.6098 17.9615C20.2219 17.8844 19.8655 17.6939 19.5858 17.4142C19.3061 17.1345 19.1156 16.7781 19.0384 16.3901C18.9613 16.0022 19.0009 15.6 19.1522 15.2346C19.3036 14.8691 19.56 14.5568 19.8889 14.337C20.2178 14.1173 20.6044 14 21 14C21.5304 14 22.0391 14.2107 22.4142 14.5857C22.7893 14.9608 23 15.4695 23 16ZM20.8838 21.5312C20.9454 21.6472 20.9835 21.7743 20.996 21.9051C21.0085 22.0359 20.9951 22.1678 20.9565 22.2934C20.918 22.4191 20.8551 22.5358 20.7714 22.6371C20.6877 22.7384 20.5848 22.8222 20.4688 22.8837C19.0927 23.615 17.5583 23.9974 16 23.9974C14.4417 23.9974 12.9073 23.615 11.5313 22.8837C11.4152 22.8221 11.3124 22.7383 11.2287 22.637C11.1451 22.5358 11.0822 22.419 11.0436 22.2934C11.0051 22.1678 10.9917 22.0359 11.0041 21.9051C11.0166 21.7743 11.0547 21.6473 11.1163 21.5312C11.1778 21.4151 11.2616 21.3124 11.3629 21.2287C11.4642 21.145 11.581 21.0821 11.7066 21.0436C11.8321 21.0051 11.9641 20.9916 12.0949 21.0041C12.2257 21.0166 12.3527 21.0546 12.4688 21.1162C13.556 21.6942 14.7686 21.9965 16 21.9965C17.2314 21.9965 18.444 21.6942 19.5313 21.1162C19.6473 21.0546 19.7743 21.0165 19.9051 21.004C20.0359 20.9915 20.1679 21.0049 20.2935 21.0434C20.4191 21.082 20.5359 21.1449 20.6372 21.2286C20.7384 21.3123 20.8222 21.4151 20.8838 21.5312Z" fill="#343330"/>
</g>
</svg>
