<svg width="32" height="32" viewBox="0 0 32 32" fill="none" xmlns="http://www.w3.org/2000/svg">
<g id="icon/hands.praying">
<path id="Vector" d="M29.4151 22.5L24.8851 17.9688L20.3276 2.93253C20.1981 2.50438 19.9649 2.11478 19.6489 1.79824C19.3328 1.4817 18.9436 1.248 18.5156 1.11783C18.0877 0.987666 17.6342 0.965053 17.1954 1.052C16.7566 1.13894 16.3461 1.33276 16.0001 1.61628C15.6541 1.33276 15.2435 1.13894 14.8047 1.052C14.366 0.965053 13.9125 0.987666 13.4845 1.11783C13.0566 1.248 12.6673 1.4817 12.3513 1.79824C12.0352 2.11478 11.8021 2.50438 11.6726 2.93253L7.11508 17.97L2.58508 22.5C2.21029 22.8751 1.99976 23.3836 1.99976 23.9138C1.99976 24.444 2.21029 24.9525 2.58508 25.3275L6.67133 29.4138C6.85705 29.5995 7.07755 29.7469 7.32023 29.8474C7.56291 29.948 7.82302 29.9997 8.0857 29.9997C8.34839 29.9997 8.6085 29.948 8.85118 29.8474C9.09386 29.7469 9.31436 29.5995 9.50008 29.4138L15.5351 23.375C15.7024 23.2073 15.8578 23.0281 16.0001 22.8388C16.1424 23.0281 16.2978 23.2073 16.4651 23.375L22.5001 29.415C22.6858 29.6008 22.9063 29.7482 23.149 29.8487C23.3917 29.9492 23.6518 30.001 23.9145 30.001C24.1771 30.001 24.4372 29.9492 24.6799 29.8487C24.9226 29.7482 25.1431 29.6008 25.3288 29.415L29.4151 25.3288C29.6008 25.1431 29.7482 24.9226 29.8487 24.6799C29.9493 24.4372 30.001 24.1771 30.001 23.9144C30.001 23.6517 29.9493 23.3916 29.8487 23.1489C29.7482 22.9063 29.6008 22.6858 29.4151 22.5ZM8.08508 28L4.00008 23.915L5.58633 22.3288L9.67258 26.415L8.08508 28ZM15.0001 19.8438C15.0021 20.2383 14.9258 20.6292 14.7756 20.994C14.6254 21.3587 14.4043 21.6901 14.1251 21.9688L11.0851 25L7.00008 20.915L8.70633 19.2075C8.82277 19.0911 8.90865 18.9477 8.95633 18.79L13.5813 3.51253C13.6282 3.34253 13.7357 3.19556 13.8835 3.09931C14.0313 3.00306 14.2091 2.96418 14.3836 2.99001C14.558 3.01583 14.717 3.10457 14.8306 3.2395C14.9441 3.37443 15.0044 3.54623 15.0001 3.72253V19.8438ZM17.8751 21.9688C17.5959 21.6901 17.3748 21.3587 17.2246 20.994C17.0744 20.6292 16.9981 20.2383 17.0001 19.8438V3.71878C17.0001 3.54559 17.0624 3.37818 17.1755 3.24704C17.2886 3.1159 17.4451 3.02976 17.6164 3.00431C17.7877 2.97886 17.9625 3.0158 18.1089 3.1084C18.2552 3.20099 18.3634 3.34308 18.4138 3.50878L23.0388 18.7863C23.0865 18.9439 23.1724 19.0873 23.2888 19.2038L25.1001 21.015L20.9251 25.015L17.8751 21.9688ZM23.9151 28L22.3451 26.4288L26.5188 22.4288L28.0001 23.915L23.9151 28Z" fill="#343330"/>
</g>
</svg>
