<svg width="32" height="32" viewBox="0 0 32 32" fill="none" xmlns="http://www.w3.org/2000/svg">
<g id="icon/phone.outgoing">
<path id="Vector" d="M18.2925 13.7076C18.1995 13.6147 18.1258 13.5044 18.0755 13.383C18.0251 13.2616 17.9992 13.1315 17.9992 13.0001C17.9992 12.8686 18.0251 12.7385 18.0755 12.6171C18.1258 12.4957 18.1995 12.3854 18.2925 12.2926L22.5863 8.00005H20C19.7348 8.00005 19.4804 7.8947 19.2929 7.70716C19.1054 7.51962 19 7.26527 19 7.00005C19 6.73484 19.1054 6.48048 19.2929 6.29295C19.4804 6.10541 19.7348 6.00005 20 6.00005H25C25.2652 6.00005 25.5196 6.10541 25.7071 6.29295C25.8947 6.48048 26 6.73484 26 7.00005V12.0001C26 12.2653 25.8947 12.5196 25.7071 12.7072C25.5196 12.8947 25.2652 13.0001 25 13.0001C24.7348 13.0001 24.4804 12.8947 24.2929 12.7072C24.1054 12.5196 24 12.2653 24 12.0001V9.4138L19.7075 13.7076C19.6146 13.8005 19.5044 13.8743 19.383 13.9246C19.2616 13.9749 19.1314 14.0008 19 14.0008C18.8686 14.0008 18.7385 13.9749 18.6171 13.9246C18.4957 13.8743 18.3854 13.8005 18.2925 13.7076ZM27.985 22.8851C27.7621 24.5788 26.9303 26.1336 25.6449 27.2589C24.3595 28.3842 22.7084 29.0031 21 29.0001C11.075 29.0001 3.00001 20.9251 3.00001 11.0001C2.99695 9.29167 3.61587 7.64058 4.74118 6.35517C5.86649 5.06976 7.42122 4.23794 9.11501 4.01505C9.54318 3.96266 9.97682 4.0501 10.3512 4.26434C10.7256 4.47857 11.0207 4.80812 11.1925 5.2038L13.8325 11.0988V11.1138C13.9639 11.4169 14.0181 11.7478 13.9904 12.0769C13.9627 12.406 13.8539 12.7232 13.6738 13.0001C13.6513 13.0338 13.6275 13.0651 13.6025 13.0963L11 16.1813C11.9363 18.0838 13.9263 20.0563 15.8538 20.9951L18.8963 18.4063C18.9261 18.3812 18.9574 18.3578 18.99 18.3363C19.2663 18.1511 19.5846 18.038 19.9159 18.0074C20.2471 17.9769 20.5807 18.0298 20.8863 18.1613L20.9025 18.1688L26.7913 20.8076C27.1879 20.9785 27.5185 21.2733 27.7337 21.6478C27.9489 22.0222 28.037 22.4563 27.985 22.8851ZM26 22.6351C26 22.6351 25.9913 22.6351 25.9863 22.6351L20.1113 20.0026L17.0675 22.5926C17.038 22.6176 17.0071 22.6409 16.975 22.6626C16.6872 22.8546 16.3545 22.9686 16.0094 22.9936C15.6644 23.0186 15.3187 22.9536 15.0063 22.8051C12.665 21.6738 10.3313 19.3576 9.19876 17.0413C9.0488 16.7311 8.9815 16.3875 9.0034 16.0436C9.0253 15.6998 9.13565 15.3675 9.32376 15.0788C9.34496 15.0449 9.36879 15.0127 9.39501 14.9826L12 11.8938L9.37501 6.0188C9.37452 6.01382 9.37452 6.00879 9.37501 6.0038C8.16283 6.16193 7.04986 6.75651 6.24453 7.6762C5.43919 8.59589 4.99674 9.77761 5.00001 11.0001C5.00464 15.2421 6.69184 19.3091 9.69142 22.3086C12.691 25.3082 16.758 26.9954 21 27.0001C22.2217 27.0042 23.4031 26.5633 24.3233 25.7598C25.2436 24.9562 25.8396 23.8449 26 22.6338V22.6351Z" fill="#343330"/>
</g>
</svg>
