<svg width="32" height="32" viewBox="0 0 32 32" fill="none" xmlns="http://www.w3.org/2000/svg">
<g id="icon/diamond">
<path id="Vector" d="M29.4161 14.59L17.4099 2.5825C17.0352 2.21 16.5283 2.00092 15.9999 2.00092C15.4715 2.00092 14.9646 2.21 14.5899 2.5825L2.58989 14.59C2.21738 14.9647 2.0083 15.4716 2.0083 16C2.0083 16.5284 2.21738 17.0353 2.58989 17.41L14.5961 29.4175C14.9709 29.79 15.4778 29.9991 16.0061 29.9991C16.5345 29.9991 17.0414 29.79 17.4161 29.4175L29.4224 17.41C29.7949 17.0353 30.004 16.5284 30.004 16C30.004 15.4716 29.7949 14.9647 29.4224 14.59H29.4161ZM15.9999 28L3.99989 16L15.9999 4L27.9999 16L15.9999 28Z" fill="#343330"/>
</g>
</svg>
