<svg width="32" height="32" viewBox="0 0 32 32" fill="none" xmlns="http://www.w3.org/2000/svg">
<g id="icon/device.mobile.slash">
<path id="Vector" d="M26.7398 26.3275L6.73976 4.3275C6.65194 4.22851 6.54535 4.14793 6.42616 4.09044C6.30697 4.03294 6.17756 3.99968 6.04542 3.99257C5.91328 3.98546 5.78104 4.00465 5.65637 4.04902C5.53171 4.0934 5.41708 4.16208 5.31915 4.25107C5.22122 4.34007 5.14193 4.44762 5.08587 4.56749C5.02981 4.68736 4.99809 4.81717 4.99257 4.94938C4.98705 5.0816 5.00782 5.2136 5.05369 5.33772C5.09955 5.46185 5.1696 5.57564 5.25976 5.6725L6.99976 7.58625V27C6.99976 27.7956 7.31583 28.5587 7.87844 29.1213C8.44105 29.6839 9.20411 30 9.99976 30H21.9998C22.7327 29.9998 23.4403 29.7313 23.9888 29.2452C24.5374 28.759 24.889 28.0889 24.9773 27.3612L25.2598 27.6725C25.3476 27.7715 25.4542 27.8521 25.5734 27.9096C25.6926 27.9671 25.822 28.0003 25.9541 28.0074C26.0862 28.0145 26.2185 27.9953 26.3432 27.951C26.4678 27.9066 26.5824 27.8379 26.6804 27.7489C26.7783 27.6599 26.8576 27.5524 26.9137 27.4325C26.9697 27.3126 27.0014 27.1828 27.007 27.0506C27.0125 26.9184 26.9917 26.7864 26.9458 26.6623C26.9 26.5381 26.8299 26.4244 26.7398 26.3275ZM22.9998 27C22.9998 27.2652 22.8944 27.5196 22.7069 27.7071C22.5193 27.8946 22.265 28 21.9998 28H9.99976C9.73455 28 9.48019 27.8946 9.29266 27.7071C9.10512 27.5196 8.99976 27.2652 8.99976 27V9.78625L22.9998 25.1863V27ZM8.58726 3C8.58726 2.73478 8.69262 2.48043 8.88016 2.29289C9.06769 2.10536 9.32205 2 9.58726 2H21.9998C22.7954 2 23.5585 2.31607 24.1211 2.87868C24.6837 3.44129 24.9998 4.20435 24.9998 5V18.8538C24.9998 19.119 24.8944 19.3733 24.7069 19.5609C24.5193 19.7484 24.265 19.8538 23.9998 19.8538C23.7345 19.8538 23.4802 19.7484 23.2927 19.5609C23.1051 19.3733 22.9998 19.119 22.9998 18.8538V5C22.9998 4.73478 22.8944 4.48043 22.7069 4.29289C22.5193 4.10536 22.265 4 21.9998 4H9.58726C9.32205 4 9.06769 3.89464 8.88016 3.70711C8.69262 3.51957 8.58726 3.26522 8.58726 3Z" fill="#343330"/>
</g>
</svg>
