<svg width="32" height="32" viewBox="0 0 32 32" fill="none" xmlns="http://www.w3.org/2000/svg">
<g id="icon/google.play.logo">
<path id="Vector" d="M29.9775 14.2737L9 2.26998C8.69419 2.09165 8.34651 1.99768 7.9925 1.99768C7.63849 1.99768 7.29082 2.09165 6.985 2.26998C6.6837 2.44275 6.43372 2.69247 6.26064 2.99359C6.08757 3.29472 5.99762 3.63642 6 3.98373V28.0162C5.99901 28.3632 6.09013 28.7042 6.26407 29.0044C6.438 29.3046 6.68851 29.5533 6.99 29.725C7.29582 29.9033 7.64349 29.9973 7.9975 29.9973C8.35151 29.9973 8.69919 29.9033 9.005 29.725L29.9775 17.725C30.287 17.5553 30.5451 17.3055 30.725 17.0018C30.9048 16.6981 30.9997 16.3517 30.9997 15.9987C30.9997 15.6458 30.9048 15.2993 30.725 14.9956C30.5451 14.6919 30.287 14.4422 29.9775 14.2725V14.2737ZM8 26.5837V5.41623L18.5863 16L8 26.5837ZM20 17.4137L22.365 19.7787L11.3025 26.1112L20 17.4137ZM11.3 5.88748L22.3662 12.2212L20 14.5862L11.3 5.88748ZM24.1637 18.75L21.4137 16L24.1637 13.25L28.9675 16L24.1637 18.75Z" fill="#343330"/>
</g>
</svg>
