<svg width="32" height="32" viewBox="0 0 32 32" fill="none" xmlns="http://www.w3.org/2000/svg">
<g id="icon/number.six">
<path id="Vector" d="M16.0001 13C15.3394 13.0003 14.682 13.0941 14.0476 13.2787L17.8751 6.49123C18.0052 6.25916 18.0378 5.98491 17.9657 5.72881C17.8936 5.4727 17.7228 5.25572 17.4907 5.1256C17.2586 4.99548 16.9844 4.96288 16.7283 5.03496C16.4722 5.10704 16.2552 5.27791 16.1251 5.50998L9.93134 16.51C9.16333 17.8453 8.85723 19.3966 9.06048 20.9236C9.26372 22.4505 9.96496 23.8678 11.0555 24.9557C12.1461 26.0436 13.565 26.7414 15.0924 26.941C16.6199 27.1405 18.1705 26.8307 19.5039 26.0595C20.8374 25.2882 21.8792 24.0987 22.4679 22.6752C23.0566 21.2518 23.1593 19.6738 22.7602 18.186C22.361 16.6983 21.4822 15.3837 20.26 14.4461C19.0378 13.5084 17.5405 13.0002 16.0001 13ZM16.0001 25C15.0112 25 14.0445 24.7067 13.2222 24.1573C12.4 23.6079 11.7591 22.827 11.3807 21.9134C11.0023 20.9998 10.9032 19.9944 11.0962 19.0245C11.2891 18.0546 11.7653 17.1637 12.4646 16.4644C13.1638 15.7652 14.0547 15.289 15.0246 15.0961C15.9945 14.9031 16.9999 15.0021 17.9135 15.3806C18.8271 15.759 19.608 16.3999 20.1574 17.2221C20.7068 18.0444 21.0001 19.0111 21.0001 20C21.0001 21.3261 20.4733 22.5978 19.5356 23.5355C18.5979 24.4732 17.3262 25 16.0001 25Z" fill="#343330"/>
</g>
</svg>
