<svg width="32" height="32" viewBox="0 0 32 32" fill="none" xmlns="http://www.w3.org/2000/svg">
<g id="icon/diamonds.four">
<path id="Vector" d="M15.2926 13.7075C15.3854 13.8005 15.4957 13.8742 15.6171 13.9246C15.7385 13.9749 15.8686 14.0008 16.0001 14.0008C16.1315 14.0008 16.2616 13.9749 16.383 13.9246C16.5044 13.8742 16.6147 13.8005 16.7076 13.7075L21.7076 8.70749C21.8005 8.61462 21.8743 8.50433 21.9246 8.38293C21.9749 8.26154 22.0008 8.13141 22.0008 7.99999C22.0008 7.86858 21.9749 7.73845 21.9246 7.61705C21.8743 7.49566 21.8005 7.38537 21.7076 7.29249L16.7076 2.29249C16.6147 2.19952 16.5044 2.12576 16.383 2.07543C16.2616 2.02511 16.1315 1.99921 16.0001 1.99921C15.8686 1.99921 15.7385 2.02511 15.6171 2.07543C15.4957 2.12576 15.3854 2.19952 15.2926 2.29249L10.2926 7.29249C10.1996 7.38537 10.1258 7.49566 10.0755 7.61705C10.0252 7.73845 9.99927 7.86858 9.99927 7.99999C9.99927 8.13141 10.0252 8.26154 10.0755 8.38293C10.1258 8.50433 10.1996 8.61462 10.2926 8.70749L15.2926 13.7075ZM16.0001 4.41374L19.5863 7.99999L16.0001 11.5862L12.4138 7.99999L16.0001 4.41374ZM16.7076 18.2887C16.6147 18.1958 16.5044 18.122 16.383 18.0717C16.2616 18.0214 16.1315 17.9955 16.0001 17.9955C15.8686 17.9955 15.7385 18.0214 15.6171 18.0717C15.4957 18.122 15.3854 18.1958 15.2926 18.2887L10.2926 23.2887C10.1996 23.3816 10.1258 23.4919 10.0755 23.6133C10.0252 23.7347 9.99927 23.8648 9.99927 23.9962C9.99927 24.1277 10.0252 24.2578 10.0755 24.3792C10.1258 24.5006 10.1996 24.6109 10.2926 24.7037L15.2926 29.7037C15.3854 29.7967 15.4957 29.8705 15.6171 29.9208C15.7385 29.9711 15.8686 29.997 16.0001 29.997C16.1315 29.997 16.2616 29.9711 16.383 29.9208C16.5044 29.8705 16.6147 29.7967 16.7076 29.7037L21.7076 24.7037C21.8005 24.6109 21.8743 24.5006 21.9246 24.3792C21.9749 24.2578 22.0008 24.1277 22.0008 23.9962C22.0008 23.8648 21.9749 23.7347 21.9246 23.6133C21.8743 23.4919 21.8005 23.3816 21.7076 23.2887L16.7076 18.2887ZM16.0001 27.5862L12.4138 24L16.0001 20.4137L19.5863 24L16.0001 27.5862ZM29.7076 15.2925L24.7076 10.2925C24.6147 10.1995 24.5044 10.1258 24.383 10.0754C24.2616 10.0251 24.1315 9.99921 24.0001 9.99921C23.8686 9.99921 23.7385 10.0251 23.6171 10.0754C23.4957 10.1258 23.3854 10.1995 23.2926 10.2925L18.2926 15.2925C18.1996 15.3854 18.1258 15.4957 18.0755 15.6171C18.0252 15.7385 17.9993 15.8686 17.9993 16C17.9993 16.1314 18.0252 16.2615 18.0755 16.3829C18.1258 16.5043 18.1996 16.6146 18.2926 16.7075L23.2926 21.7075C23.3854 21.8005 23.4957 21.8742 23.6171 21.9246C23.7385 21.9749 23.8686 22.0008 24.0001 22.0008C24.1315 22.0008 24.2616 21.9749 24.383 21.9246C24.5044 21.8742 24.6147 21.8005 24.7076 21.7075L29.7076 16.7075C29.8005 16.6146 29.8743 16.5043 29.9246 16.3829C29.9749 16.2615 30.0008 16.1314 30.0008 16C30.0008 15.8686 29.9749 15.7385 29.9246 15.6171C29.8743 15.4957 29.8005 15.3854 29.7076 15.2925ZM24.0001 19.5862L20.4138 16L24.0001 12.4137L27.5863 16L24.0001 19.5862ZM13.7076 15.2925L8.70755 10.2925C8.61468 10.1995 8.50439 10.1258 8.38299 10.0754C8.2616 10.0251 8.13147 9.99921 8.00005 9.99921C7.86864 9.99921 7.73851 10.0251 7.61711 10.0754C7.49572 10.1258 7.38543 10.1995 7.29255 10.2925L2.29255 15.2925C2.19958 15.3854 2.12582 15.4957 2.07549 15.6171C2.02517 15.7385 1.99927 15.8686 1.99927 16C1.99927 16.1314 2.02517 16.2615 2.07549 16.3829C2.12582 16.5043 2.19958 16.6146 2.29255 16.7075L7.29255 21.7075C7.38543 21.8005 7.49572 21.8742 7.61711 21.9246C7.73851 21.9749 7.86864 22.0008 8.00005 22.0008C8.13147 22.0008 8.2616 21.9749 8.38299 21.9246C8.50439 21.8742 8.61468 21.8005 8.70755 21.7075L13.7076 16.7075C13.8005 16.6146 13.8743 16.5043 13.9246 16.3829C13.9749 16.2615 14.0008 16.1314 14.0008 16C14.0008 15.8686 13.9749 15.7385 13.9246 15.6171C13.8743 15.4957 13.8005 15.3854 13.7076 15.2925ZM8.00005 19.5862L4.4138 16L8.00005 12.4137L11.5863 16L8.00005 19.5862Z" fill="#343330"/>
</g>
</svg>
