<svg width="32" height="32" viewBox="0 0 32 32" fill="none" xmlns="http://www.w3.org/2000/svg">
<g id="icon/git.merge">
<path id="Vector" d="M26.0001 14C25.1361 14.0015 24.2958 14.2823 23.6044 14.8004C22.9131 15.3185 22.4078 16.0462 22.1638 16.875L16.8876 16.125C16.647 16.091 16.4271 15.9706 16.2688 15.7863L11.8038 10.5688C12.6392 10.1454 13.2995 9.44227 13.6697 8.582C14.0399 7.72172 14.0965 6.75882 13.8297 5.86109C13.5628 4.96337 12.9894 4.18774 12.2094 3.66939C11.4293 3.15103 10.4922 2.92282 9.56116 3.02451C8.63014 3.12621 7.76433 3.55136 7.1146 4.22588C6.46488 4.90041 6.07243 5.78153 6.00567 6.7157C5.9389 7.64986 6.20204 8.57784 6.74923 9.33791C7.29642 10.098 8.09297 10.642 9.00006 10.875V21.125C8.0574 21.3684 7.23587 21.9473 6.68946 22.753C6.14304 23.5588 5.90926 24.5362 6.03194 25.502C6.15461 26.4678 6.62532 27.3558 7.35582 27.9993C8.08633 28.6429 9.02648 28.998 10.0001 28.998C10.9736 28.998 11.9138 28.6429 12.6443 27.9993C13.3748 27.3558 13.8455 26.4678 13.9682 25.502C14.0908 24.5362 13.8571 23.5588 13.3107 22.753C12.7642 21.9473 11.9427 21.3684 11.0001 21.125V12.7038L14.7501 17.0788C15.224 17.6317 15.8829 17.9933 16.6038 18.0963L22.1038 18.8813C22.2698 19.6163 22.6401 20.2895 23.172 20.8233C23.7039 21.3571 24.3757 21.7298 25.1102 21.8985C25.8446 22.0672 26.6117 22.025 27.3232 21.7767C28.0347 21.5285 28.6616 21.0843 29.1317 20.4954C29.6018 19.9064 29.896 19.1967 29.9804 18.4479C30.0647 17.699 29.9359 16.9416 29.6086 16.2628C29.2813 15.584 28.769 15.0115 28.1306 14.6112C27.4921 14.2108 26.7536 13.999 26.0001 14ZM8.00006 7.00002C8.00006 6.60446 8.11736 6.21778 8.33712 5.88888C8.55688 5.55998 8.86924 5.30364 9.23469 5.15226C9.60014 5.00089 10.0023 4.96128 10.3902 5.03845C10.7782 5.11562 11.1346 5.3061 11.4143 5.58581C11.694 5.86551 11.8845 6.22188 11.9616 6.60984C12.0388 6.9978 11.9992 7.39994 11.8478 7.76539C11.6964 8.13084 11.4401 8.4432 11.1112 8.66296C10.7823 8.88272 10.3956 9.00002 10.0001 9.00002C9.46962 9.00002 8.96092 8.78931 8.58584 8.41424C8.21077 8.03916 8.00006 7.53045 8.00006 7.00002ZM12.0001 25C12.0001 25.3956 11.8828 25.7823 11.663 26.1112C11.4432 26.4401 11.1309 26.6964 10.7654 26.8478C10.4 26.9992 9.99784 27.0388 9.60988 26.9616C9.22191 26.8844 8.86555 26.6939 8.58584 26.4142C8.30614 26.1345 8.11566 25.7782 8.03849 25.3902C7.96132 25.0022 8.00092 24.6001 8.1523 24.2347C8.30367 23.8692 8.56002 23.5568 8.88892 23.3371C9.21781 23.1173 9.60449 23 10.0001 23C10.5305 23 11.0392 23.2107 11.4143 23.5858C11.7893 23.9609 12.0001 24.4696 12.0001 25ZM26.0001 20C25.6045 20 25.2178 19.8827 24.8889 19.663C24.56 19.4432 24.3037 19.1308 24.1523 18.7654C24.0009 18.3999 23.9613 17.9978 24.0385 17.6098C24.1157 17.2219 24.3061 16.8655 24.5858 16.5858C24.8655 16.3061 25.2219 16.1156 25.6099 16.0385C25.9978 15.9613 26.4 16.0009 26.7654 16.1523C27.1309 16.3036 27.4432 16.56 27.663 16.8889C27.8828 17.2178 28.0001 17.6045 28.0001 18C28.0001 18.5305 27.7893 19.0392 27.4143 19.4142C27.0392 19.7893 26.5305 20 26.0001 20Z" fill="#343330"/>
</g>
</svg>
