<svg width="32" height="32" viewBox="0 0 32 32" fill="none" xmlns="http://www.w3.org/2000/svg">
<g id="icon/user.circle.dashed">
<path id="Vector" d="M12.0326 4.62501C11.9676 4.36894 12.0066 4.09757 12.141 3.87016C12.2755 3.64275 12.4944 3.47777 12.7501 3.41126C14.8819 2.86145 17.1183 2.86145 19.2501 3.41126C19.4862 3.47171 19.6921 3.61632 19.8291 3.81791C19.9661 4.0195 20.0248 4.26418 19.9941 4.50598C19.9634 4.74778 19.8454 4.97003 19.6624 5.13098C19.4793 5.29193 19.2438 5.38048 19.0001 5.38001C18.9157 5.37956 18.8317 5.36865 18.7501 5.3475C16.9463 4.88178 15.0538 4.88178 13.2501 5.3475C13.1227 5.38015 12.9901 5.38736 12.8599 5.3687C12.7298 5.35005 12.6046 5.3059 12.4915 5.23879C12.3784 5.17168 12.2796 5.08292 12.2009 4.9776C12.1221 4.87228 12.065 4.75246 12.0326 4.62501ZM4.16883 13.75C4.29539 13.7852 4.42764 13.795 4.55802 13.7791C4.6884 13.7631 4.81435 13.7216 4.92869 13.6569C5.04303 13.5923 5.14351 13.5057 5.22439 13.4022C5.30527 13.2987 5.36497 13.1803 5.40008 13.0538C5.89831 11.2592 6.84462 9.62081 8.15008 8.2925C8.32099 8.1008 8.41159 7.85068 8.4031 7.59398C8.39461 7.33729 8.28768 7.0937 8.10447 6.9137C7.92126 6.73371 7.67582 6.6311 7.41902 6.62716C7.16221 6.62321 6.91373 6.71822 6.72508 6.8925C5.18281 8.46198 4.06451 10.3975 3.47508 12.5175C3.43969 12.644 3.42957 12.7762 3.44528 12.9066C3.461 13.037 3.50224 13.163 3.56666 13.2775C3.63109 13.3919 3.71742 13.4925 3.82074 13.5736C3.92406 13.6547 4.04234 13.7146 4.16883 13.75ZM18.7501 26.6525C16.9463 27.1182 15.0538 27.1182 13.2501 26.6525C12.9949 26.5908 12.7256 26.6318 12.5005 26.7669C12.2753 26.902 12.1123 27.1202 12.0467 27.3744C11.981 27.6287 12.018 27.8985 12.1496 28.1257C12.2812 28.3529 12.4969 28.5192 12.7501 28.5888C14.8819 29.1386 17.1183 29.1386 19.2501 28.5888C19.5033 28.5192 19.719 28.3529 19.8506 28.1257C19.9822 27.8985 20.0192 27.6287 19.9535 27.3744C19.8879 27.1202 19.7249 26.902 19.4997 26.7669C19.2745 26.6318 19.0053 26.5908 18.7501 26.6525ZM26.6001 13.0563C26.671 13.3119 26.8406 13.5288 27.0715 13.6594C27.3024 13.79 27.5757 13.8235 27.8313 13.7525C28.0869 13.6816 28.3039 13.512 28.4345 13.2811C28.565 13.0502 28.5985 12.7769 28.5276 12.5213C27.9377 10.4014 26.8195 8.46599 25.2776 6.89625C25.1864 6.79892 25.0768 6.72079 24.955 6.66647C24.8332 6.61215 24.7018 6.58274 24.5685 6.57996C24.4352 6.57718 24.3026 6.60109 24.1787 6.65028C24.0548 6.69947 23.9419 6.77296 23.8468 6.86641C23.7517 6.95986 23.6762 7.07139 23.6248 7.19444C23.5734 7.31749 23.5472 7.44957 23.5476 7.58291C23.548 7.71626 23.5751 7.84817 23.6273 7.97089C23.6794 8.09361 23.7556 8.20466 23.8513 8.2975C25.1544 9.62625 26.0996 11.2634 26.5988 13.0563H26.6001ZM28.5301 19.48C27.8685 21.8652 26.5377 24.011 24.6951 25.6638C24.5811 25.7666 24.445 25.8419 24.2973 25.8837C24.1495 25.9255 23.9941 25.9327 23.8432 25.9047C23.6922 25.8768 23.5497 25.8145 23.4267 25.7227C23.3037 25.6308 23.2035 25.5118 23.1338 25.375C22.4651 24.0575 21.4446 22.9509 20.1854 22.1779C18.9262 21.4049 17.4776 20.9957 16.0001 20.9957C14.5226 20.9957 13.0739 21.4049 11.8147 22.1779C10.5556 22.9509 9.53504 24.0575 8.86633 25.375C8.79677 25.5117 8.69669 25.6306 8.57383 25.7224C8.45098 25.8143 8.30864 25.8766 8.15784 25.9047C8.00703 25.9327 7.8518 25.9257 7.70414 25.8841C7.55649 25.8426 7.42037 25.7676 7.30633 25.665C5.46363 24.0113 4.13287 21.8647 3.47133 19.4788C3.40055 19.2232 3.43421 18.9499 3.5649 18.7191C3.69559 18.4883 3.9126 18.3189 4.1682 18.2481C4.42381 18.1774 4.69706 18.211 4.92784 18.3417C5.15863 18.4724 5.32805 18.6894 5.39883 18.945C5.84614 20.561 6.6587 22.0527 7.77383 23.305C8.88959 21.6867 10.4598 20.4353 12.2863 19.7088C11.3062 18.9372 10.591 17.8795 10.24 16.6825C9.88903 15.4856 9.91981 14.2091 10.3281 13.0305C10.7363 11.8518 11.5017 10.8298 12.5178 10.1064C13.534 9.38297 14.7503 8.99424 15.9976 8.99424C17.2449 8.99424 18.4612 9.38297 19.4773 10.1064C20.4934 10.8298 21.2589 11.8518 21.6671 13.0305C22.0753 14.2091 22.1061 15.4856 21.7552 16.6825C21.4042 17.8795 20.6889 18.9372 19.7088 19.7088C21.5353 20.4353 23.1056 21.6867 24.2213 23.305C25.3365 22.0527 26.149 20.561 26.5963 18.945C26.6315 18.8184 26.6912 18.7 26.7721 18.5966C26.8529 18.4931 26.9534 18.4065 27.0678 18.3419C27.1821 18.2772 27.308 18.2357 27.4384 18.2197C27.5688 18.2038 27.701 18.2136 27.8276 18.2488C27.9541 18.2839 28.0725 18.3436 28.176 18.4245C28.2795 18.5054 28.3661 18.6058 28.4307 18.7202C28.4954 18.8345 28.5369 18.9605 28.5528 19.0908C28.5688 19.2212 28.559 19.3534 28.5238 19.48H28.5301ZM16.0001 19C16.7912 19 17.5646 18.7654 18.2224 18.3259C18.8802 17.8864 19.3928 17.2616 19.6956 16.5307C19.9983 15.7998 20.0776 14.9956 19.9232 14.2196C19.7689 13.4437 19.3879 12.731 18.8285 12.1716C18.2691 11.6122 17.5564 11.2312 16.7804 11.0769C16.0045 10.9225 15.2002 11.0017 14.4693 11.3045C13.7384 11.6072 13.1137 12.1199 12.6742 12.7777C12.2347 13.4355 12.0001 14.2089 12.0001 15C12.0001 16.0609 12.4215 17.0783 13.1717 17.8284C13.9218 18.5786 14.9392 19 16.0001 19Z" fill="#343330"/>
</g>
</svg>
