<svg width="32" height="32" viewBox="0 0 32 32" fill="none" xmlns="http://www.w3.org/2000/svg">
<g id="icon/arrows.vertical">
<path id="Vector" d="M20.7075 24.2926C20.8005 24.3854 20.8742 24.4957 20.9246 24.6171C20.9749 24.7385 21.0008 24.8686 21.0008 25.0001C21.0008 25.1315 20.9749 25.2616 20.9246 25.383C20.8742 25.5044 20.8005 25.6147 20.7075 25.7076L16.7075 29.7076C16.6146 29.8005 16.5043 29.8743 16.3829 29.9246C16.2615 29.9749 16.1314 30.0008 16 30.0008C15.8686 30.0008 15.7385 29.9749 15.6171 29.9246C15.4957 29.8743 15.3854 29.8005 15.2925 29.7076L11.2925 25.7076C11.1049 25.5199 10.9995 25.2654 10.9995 25.0001C10.9995 24.7347 11.1049 24.4802 11.2925 24.2926C11.4801 24.1049 11.7346 23.9995 12 23.9995C12.2654 23.9995 12.5199 24.1049 12.7075 24.2926L15 26.5863V5.4138L12.7075 7.70755C12.5199 7.8952 12.2654 8.00061 12 8.00061C11.7346 8.00061 11.4801 7.8952 11.2925 7.70755C11.1049 7.51991 10.9995 7.26542 10.9995 7.00005C10.9995 6.73469 11.1049 6.4802 11.2925 6.29255L15.2925 2.29255C15.3854 2.19958 15.4957 2.12582 15.6171 2.07549C15.7385 2.02517 15.8686 1.99927 16 1.99927C16.1314 1.99927 16.2615 2.02517 16.3829 2.07549C16.5043 2.12582 16.6146 2.19958 16.7075 2.29255L20.7075 6.29255C20.8951 6.4802 21.0006 6.73469 21.0006 7.00005C21.0006 7.26542 20.8951 7.51991 20.7075 7.70755C20.5199 7.8952 20.2654 8.00061 20 8.00061C19.7346 8.00061 19.4801 7.8952 19.2925 7.70755L17 5.4138V26.5863L19.2925 24.2926C19.3854 24.1996 19.4957 24.1258 19.6171 24.0755C19.7385 24.0252 19.8686 23.9993 20 23.9993C20.1314 23.9993 20.2615 24.0252 20.3829 24.0755C20.5043 24.1258 20.6146 24.1996 20.7075 24.2926Z" fill="#343330"/>
</g>
</svg>
