<svg width="32" height="32" viewBox="0 0 32 32" fill="none" xmlns="http://www.w3.org/2000/svg">
<g id="icon/caret.line.right">
<path id="Vector" d="M18.7075 15.2924C18.8005 15.3853 18.8742 15.4956 18.9246 15.617C18.9749 15.7384 19.0008 15.8685 19.0008 15.9999C19.0008 16.1314 18.9749 16.2615 18.9246 16.3829C18.8742 16.5043 18.8005 16.6146 18.7075 16.7074L8.70751 26.7074C8.51987 26.8951 8.26537 27.0005 8.00001 27.0005C7.73464 27.0005 7.48015 26.8951 7.29251 26.7074C7.10487 26.5198 6.99945 26.2653 6.99945 25.9999C6.99945 25.7346 7.10487 25.4801 7.29251 25.2924L16.5863 15.9999L7.29251 6.70745C7.10487 6.5198 6.99945 6.26531 6.99945 5.99995C6.99945 5.73458 7.10487 5.48009 7.29251 5.29245C7.48015 5.1048 7.73464 4.99939 8.00001 4.99939C8.26537 4.99939 8.51987 5.1048 8.70751 5.29245L18.7075 15.2924ZM23 4.99995C22.7348 4.99995 22.4804 5.1053 22.2929 5.29284C22.1054 5.48038 22 5.73473 22 5.99995V25.9999C22 26.2652 22.1054 26.5195 22.2929 26.7071C22.4804 26.8946 22.7348 26.9999 23 26.9999C23.2652 26.9999 23.5196 26.8946 23.7071 26.7071C23.8947 26.5195 24 26.2652 24 25.9999V5.99995C24 5.73473 23.8947 5.48038 23.7071 5.29284C23.5196 5.1053 23.2652 4.99995 23 4.99995Z" fill="#343330"/>
</g>
</svg>
