<svg width="32" height="32" viewBox="0 0 32 32" fill="none" xmlns="http://www.w3.org/2000/svg">
<g id="icon/anchor">
<path id="Vector" d="M27 17.0001C26.7348 17.0001 26.4804 17.1054 26.2929 17.293C26.1054 17.4805 26 17.7348 26 18.0001C26 21.0863 24.2787 21.7051 21.2375 22.5351C19.8175 22.9226 18.2225 23.3601 17 24.3276V16.0001H21C21.2652 16.0001 21.5196 15.8947 21.7071 15.7072C21.8946 15.5196 22 15.2653 22 15.0001C22 14.7348 21.8946 14.4805 21.7071 14.293C21.5196 14.1054 21.2652 14.0001 21 14.0001H17V10.8751C17.9427 10.6317 18.7642 10.0528 19.3106 9.24705C19.857 8.44127 20.0908 7.46387 19.9681 6.49806C19.8454 5.53224 19.3747 4.64433 18.6442 4.00074C17.9137 3.35715 16.9736 3.00208 16 3.00208C15.0264 3.00208 14.0863 3.35715 13.3558 4.00074C12.6253 4.64433 12.1546 5.53224 12.0319 6.49806C11.9092 7.46387 12.143 8.44127 12.6894 9.24705C13.2358 10.0528 14.0573 10.6317 15 10.8751V14.0001H11C10.7348 14.0001 10.4804 14.1054 10.2929 14.293C10.1054 14.4805 10 14.7348 10 15.0001C10 15.2653 10.1054 15.5196 10.2929 15.7072C10.4804 15.8947 10.7348 16.0001 11 16.0001H15V24.3276C13.7775 23.3601 12.1825 22.9226 10.7625 22.5351C7.72125 21.7051 6 21.0863 6 18.0001C6 17.7348 5.89464 17.4805 5.70711 17.293C5.51957 17.1054 5.26522 17.0001 5 17.0001C4.73478 17.0001 4.48043 17.1054 4.29289 17.293C4.10536 17.4805 4 17.7348 4 18.0001C4 22.7638 7.45875 23.7076 10.2375 24.4651C13.2788 25.2951 15 25.9138 15 29.0001C15 29.2653 15.1054 29.5196 15.2929 29.7072C15.4804 29.8947 15.7348 30.0001 16 30.0001C16.2652 30.0001 16.5196 29.8947 16.7071 29.7072C16.8946 29.5196 17 29.2653 17 29.0001C17 25.9138 18.7213 25.2951 21.7625 24.4651C24.5413 23.7076 28 22.7638 28 18.0001C28 17.7348 27.8946 17.4805 27.7071 17.293C27.5196 17.1054 27.2652 17.0001 27 17.0001ZM14 7.00006C14 6.6045 14.1173 6.21782 14.3371 5.88892C14.5568 5.56002 14.8692 5.30367 15.2346 5.1523C15.6001 5.00092 16.0022 4.96132 16.3902 5.03849C16.7781 5.11566 17.1345 5.30614 17.4142 5.58584C17.6939 5.86555 17.8844 6.22192 17.9616 6.60988C18.0387 6.99784 17.9991 7.39997 17.8478 7.76543C17.6964 8.13088 17.44 8.44323 17.1111 8.663C16.7822 8.88276 16.3956 9.00006 16 9.00006C15.4696 9.00006 14.9609 8.78934 14.5858 8.41427C14.2107 8.0392 14 7.53049 14 7.00006Z" fill="#343330"/>
</g>
</svg>
