<svg width="32" height="32" viewBox="0 0 32 32" fill="none" xmlns="http://www.w3.org/2000/svg">
<g id="icon/tag.chevron">
<path id="Vector" d="M30.8325 15.445L25.125 6.89C24.9427 6.61673 24.6958 6.39258 24.4063 6.23735C24.1168 6.08213 23.7935 6.00061 23.465 6H3.99998C3.81889 5.99988 3.64117 6.04894 3.48579 6.14193C3.33041 6.23493 3.20319 6.36837 3.11772 6.52801C3.03225 6.68766 2.99174 6.86752 3.0005 7.04839C3.00926 7.22927 3.06698 7.40436 3.16748 7.555L8.79873 16L3.17373 24.445C3.07352 24.5952 3.01584 24.7697 3.00682 24.9501C2.9978 25.1304 3.03777 25.3098 3.12249 25.4692C3.20721 25.6287 3.33352 25.7622 3.48802 25.8557C3.64251 25.9491 3.81942 25.999 3.99998 26H23.465C23.7935 25.9994 24.1168 25.9179 24.4063 25.7626C24.6958 25.6074 24.9427 25.3833 25.125 25.11L30.8287 16.555C30.9389 16.391 30.9981 16.1981 30.9988 16.0006C30.9994 15.803 30.9416 15.6097 30.8325 15.445ZM23.465 24H5.87498L10.8387 16.555C10.9484 16.3907 11.0069 16.1975 11.0069 16C11.0069 15.8025 10.9484 15.6093 10.8387 15.445L5.87498 8H23.465L28.7987 16L23.465 24Z" fill="#343330"/>
</g>
</svg>
