<svg width="32" height="32" viewBox="0 0 32 32" fill="none" xmlns="http://www.w3.org/2000/svg">
<g id="icon/radio">
<path id="Vector" d="M13 20.9999C13 21.2652 12.8946 21.5195 12.7071 21.7071C12.5196 21.8946 12.2652 21.9999 12 21.9999H8C7.73478 21.9999 7.48043 21.8946 7.29289 21.7071C7.10536 21.5195 7 21.2652 7 20.9999C7 20.7347 7.10536 20.4804 7.29289 20.2928C7.48043 20.1053 7.73478 19.9999 8 19.9999H12C12.2652 19.9999 12.5196 20.1053 12.7071 20.2928C12.8946 20.4804 13 20.7347 13 20.9999ZM12 15.9999H8C7.73478 15.9999 7.48043 16.1053 7.29289 16.2928C7.10536 16.4804 7 16.7347 7 16.9999C7 17.2652 7.10536 17.5195 7.29289 17.7071C7.48043 17.8946 7.73478 17.9999 8 17.9999H12C12.2652 17.9999 12.5196 17.8946 12.7071 17.7071C12.8946 17.5195 13 17.2652 13 16.9999C13 16.7347 12.8946 16.4804 12.7071 16.2928C12.5196 16.1053 12.2652 15.9999 12 15.9999ZM12 11.9999H8C7.73478 11.9999 7.48043 12.1053 7.29289 12.2928C7.10536 12.4804 7 12.7347 7 12.9999C7 13.2652 7.10536 13.5195 7.29289 13.7071C7.48043 13.8946 7.73478 13.9999 8 13.9999H12C12.2652 13.9999 12.5196 13.8946 12.7071 13.7071C12.8946 13.5195 13 13.2652 13 12.9999C13 12.7347 12.8946 12.4804 12.7071 12.2928C12.5196 12.1053 12.2652 11.9999 12 11.9999ZM29 9.99995V23.9999C29 24.5304 28.7893 25.0391 28.4142 25.4142C28.0391 25.7892 27.5304 25.9999 27 25.9999H5C4.46957 25.9999 3.96086 25.7892 3.58579 25.4142C3.21071 25.0391 3 24.5304 3 23.9999V8.99995C3.00006 8.78496 3.0694 8.57572 3.19774 8.40325C3.32608 8.23078 3.50659 8.10426 3.7125 8.04245L23.7125 2.04245C23.8383 2.00469 23.9704 1.99209 24.101 2.00536C24.2317 2.01863 24.3585 2.05751 24.4742 2.11978C24.5899 2.18206 24.6921 2.2665 24.7752 2.3683C24.8582 2.4701 24.9204 2.58725 24.9581 2.71307C24.9959 2.8389 25.0085 2.97092 24.9952 3.10162C24.9819 3.23231 24.9431 3.35911 24.8808 3.47478C24.8185 3.59044 24.7341 3.69271 24.6323 3.77574C24.5305 3.85878 24.4133 3.92094 24.2875 3.9587L10.8138 7.99995H27C27.5304 7.99995 28.0391 8.21066 28.4142 8.58574C28.7893 8.96081 29 9.46952 29 9.99995ZM27 23.9999V9.99995H5V23.9999H27ZM25 16.9999C25 17.9889 24.7068 18.9556 24.1573 19.7778C23.6079 20.6 22.827 21.2409 21.9134 21.6193C20.9998 21.9978 19.9945 22.0968 19.0245 21.9039C18.0546 21.7109 17.1637 21.2347 16.4645 20.5355C15.7652 19.8362 15.289 18.9453 15.0961 17.9754C14.9031 17.0055 15.0022 16.0002 15.3806 15.0865C15.759 14.1729 16.3999 13.392 17.2221 12.8426C18.0444 12.2932 19.0111 11.9999 20 11.9999C21.3261 11.9999 22.5979 12.5267 23.5355 13.4644C24.4732 14.4021 25 15.6739 25 16.9999ZM23 16.9999C23 16.4066 22.8241 15.8266 22.4944 15.3332C22.1648 14.8399 21.6962 14.4554 21.1481 14.2283C20.5999 14.0012 19.9967 13.9418 19.4147 14.0576C18.8328 14.1733 18.2982 14.4591 17.8787 14.8786C17.4591 15.2982 17.1734 15.8327 17.0576 16.4147C16.9419 16.9966 17.0013 17.5998 17.2284 18.148C17.4554 18.6962 17.8399 19.1647 18.3333 19.4944C18.8266 19.824 19.4067 19.9999 20 19.9999C20.7956 19.9999 21.5587 19.6839 22.1213 19.1213C22.6839 18.5587 23 17.7956 23 16.9999Z" fill="#343330"/>
</g>
</svg>
