<svg width="32" height="32" viewBox="0 0 32 32" fill="none" xmlns="http://www.w3.org/2000/svg">
<g id="icon/text.indent">
<path id="Vector" d="M28.0001 15.9999C28.0001 16.2652 27.8947 16.5195 27.7072 16.7071C27.5196 16.8946 27.2653 16.9999 27.0001 16.9999H14.0001C13.7348 16.9999 13.4805 16.8946 13.2929 16.7071C13.1054 16.5195 13.0001 16.2652 13.0001 15.9999C13.0001 15.7347 13.1054 15.4804 13.2929 15.2928C13.4805 15.1053 13.7348 14.9999 14.0001 14.9999H27.0001C27.2653 14.9999 27.5196 15.1053 27.7072 15.2928C27.8947 15.4804 28.0001 15.7347 28.0001 15.9999ZM14.0001 8.99995H27.0001C27.2653 8.99995 27.5196 8.89459 27.7072 8.70705C27.8947 8.51952 28.0001 8.26516 28.0001 7.99995C28.0001 7.73473 27.8947 7.48038 27.7072 7.29284C27.5196 7.1053 27.2653 6.99995 27.0001 6.99995H14.0001C13.7348 6.99995 13.4805 7.1053 13.2929 7.29284C13.1054 7.48038 13.0001 7.73473 13.0001 7.99995C13.0001 8.26516 13.1054 8.51952 13.2929 8.70705C13.4805 8.89459 13.7348 8.99995 14.0001 8.99995ZM27.0001 22.9999H5.00005C4.73484 22.9999 4.48048 23.1053 4.29295 23.2928C4.10541 23.4804 4.00005 23.7347 4.00005 23.9999C4.00005 24.2652 4.10541 24.5195 4.29295 24.7071C4.48048 24.8946 4.73484 24.9999 5.00005 24.9999H27.0001C27.2653 24.9999 27.5196 24.8946 27.7072 24.7071C27.8947 24.5195 28.0001 24.2652 28.0001 23.9999C28.0001 23.7347 27.8947 23.4804 27.7072 23.2928C27.5196 23.1053 27.2653 22.9999 27.0001 22.9999ZM4.29255 17.7074C4.38543 17.8004 4.49572 17.8742 4.61711 17.9245C4.73851 17.9748 4.86864 18.0007 5.00005 18.0007C5.13147 18.0007 5.2616 17.9748 5.38299 17.9245C5.50439 17.8742 5.61468 17.8004 5.70755 17.7074L10.7076 12.7074C10.8005 12.6146 10.8743 12.5043 10.9246 12.3829C10.9749 12.2615 11.0008 12.1314 11.0008 11.9999C11.0008 11.8685 10.9749 11.7384 10.9246 11.617C10.8743 11.4956 10.8005 11.3853 10.7076 11.2924L5.70755 6.29245C5.51991 6.1048 5.26542 5.99939 5.00005 5.99939C4.73469 5.99939 4.48019 6.1048 4.29255 6.29245C4.10491 6.48009 3.9995 6.73458 3.9995 6.99995C3.9995 7.26531 4.10491 7.5198 4.29255 7.70745L8.5863 11.9999L4.29255 16.2924C4.19958 16.3853 4.12582 16.4956 4.07549 16.617C4.02517 16.7384 3.99927 16.8685 3.99927 16.9999C3.99927 17.1314 4.02517 17.2615 4.07549 17.3829C4.12582 17.5043 4.19958 17.6146 4.29255 17.7074Z" fill="#343330"/>
</g>
</svg>
