<svg width="32" height="32" viewBox="0 0 32 32" fill="none" xmlns="http://www.w3.org/2000/svg">
<g id="icon/gitlab.logo.simple">
<path id="Vector" d="M28.7687 14.6375L26.2812 5.12499C26.2021 4.81604 26.026 4.54058 25.7789 4.33897C25.5318 4.13736 25.2266 4.02022 24.9081 4.0047C24.5895 3.98919 24.2744 4.07612 24.0088 4.25276C23.7433 4.42939 23.5413 4.68645 23.4325 4.98624L21.2225 11H10.7775L8.56749 4.98374C8.45845 4.68399 8.25625 4.42707 7.99054 4.25062C7.72482 4.07418 7.40957 3.9875 7.091 4.0033C6.77243 4.01909 6.4673 4.13653 6.22034 4.33839C5.97339 4.54026 5.7976 4.81593 5.71874 5.12499L3.23124 14.6375C2.86385 16.0374 2.93005 17.5159 3.42109 18.8774C3.91212 20.2389 4.80486 21.4193 5.98124 22.2625L15.14 28.7325C15.3912 28.9099 15.6912 29.0051 15.9987 29.0051C16.3063 29.0051 16.6063 28.9099 16.8575 28.7325L26.0162 22.2625C27.1931 21.4196 28.0863 20.2394 28.5778 18.8779C29.0693 17.5163 29.1359 16.0377 28.7687 14.6375ZM24.8637 20.625L16 26.8862L7.13624 20.625C6.29214 20.018 5.65204 19.1693 5.30053 18.1908C4.94901 17.2124 4.90262 16.1503 5.16749 15.145L7.24999 7.18749L9.14124 12.345C9.21186 12.5371 9.33975 12.703 9.50763 12.8201C9.67551 12.9372 9.87529 13 10.08 13H21.92C22.1247 13 22.3245 12.9372 22.4924 12.8201C22.6602 12.703 22.7881 12.5371 22.8587 12.345L24.75 7.18749L26.8287 15.1437C27.0943 16.1489 27.0486 17.211 26.6978 18.1896C26.3469 19.1683 25.7074 20.0175 24.8637 20.625Z" fill="#343330"/>
</g>
</svg>
