<svg width="32" height="32" viewBox="0 0 32 32" fill="none" xmlns="http://www.w3.org/2000/svg">
<g id="icon/ladder">
<path id="Vector" d="M26.94 26.6575L20.5638 9.125L21.7 6H23C23.2652 6 23.5196 5.89464 23.7071 5.70711C23.8947 5.51957 24 5.26522 24 5C24 4.73478 23.8947 4.48043 23.7071 4.29289C23.5196 4.10536 23.2652 4 23 4H11C10.7348 4 10.4804 4.10536 10.2929 4.29289C10.1054 4.48043 10 4.73478 10 5C10 5.26522 10.1054 5.51957 10.2929 5.70711C10.4804 5.89464 10.7348 6 11 6H11.5725L4.06001 26.6575C4.015 26.781 3.99479 26.9122 4.00053 27.0435C4.00627 27.1749 4.03785 27.3038 4.09346 27.4229C4.14907 27.542 4.22762 27.649 4.32462 27.7377C4.42162 27.8265 4.53517 27.8952 4.65876 27.94C4.76824 27.9794 4.88366 27.9997 5.00001 28C5.20537 28 5.40576 27.9368 5.57394 27.8189C5.74211 27.7011 5.86993 27.5343 5.94001 27.3412L7.15501 24H13.03L12.0625 26.6575C12.0175 26.781 11.9973 26.9122 12.003 27.0435C12.0088 27.1749 12.0403 27.3038 12.096 27.4229C12.1516 27.542 12.2301 27.649 12.3271 27.7377C12.4241 27.8265 12.5377 27.8952 12.6613 27.94C12.7699 27.9791 12.8845 27.9994 13 28C13.2054 28 13.4058 27.9368 13.5739 27.8189C13.7421 27.7011 13.8699 27.5343 13.94 27.3412L16.25 21H22.75L25.0563 27.3412C25.1266 27.5349 25.2549 27.7021 25.4239 27.82C25.5928 27.9379 25.794 28.0008 26 28C26.1164 27.9997 26.2318 27.9794 26.3413 27.94C26.4648 27.8952 26.5784 27.8265 26.6754 27.7377C26.7724 27.649 26.8509 27.542 26.9066 27.4229C26.9622 27.3038 26.9937 27.1749 26.9995 27.0435C27.0052 26.9122 26.985 26.781 26.94 26.6575ZM15.94 16H10.065L11.5188 12H17.3938L15.94 16ZM19.5763 6L18.1175 10H12.25L13.7 6H19.5763ZM7.88251 22L9.33751 18H15.2125L13.75 22H7.88251ZM16.9725 19L19.5 12.0513L22.0263 19H16.9725Z" fill="#343330"/>
</g>
</svg>
