<svg width="32" height="32" viewBox="0 0 32 32" fill="none" xmlns="http://www.w3.org/2000/svg">
<g id="icon/angular.logo">
<path id="Vector" d="M28.385 8.07746L16.385 3.07746C16.2631 3.02609 16.1322 2.99963 16 2.99963C15.8678 2.99963 15.7369 3.02609 15.615 3.07746L3.615 8.07746C3.41198 8.16214 3.24255 8.31141 3.13295 8.50214C3.02335 8.69286 2.97969 8.91441 3.00875 9.13245L5.00875 24.1325C5.03026 24.2943 5.09106 24.4484 5.18584 24.5813C5.28063 24.7142 5.40651 24.8219 5.5525 24.895L15.5525 29.895C15.6914 29.9645 15.8446 30.0007 16 30.0007C16.1554 30.0007 16.3086 29.9645 16.4475 29.895L26.4475 24.895C26.5935 24.8219 26.7194 24.7142 26.8141 24.5813C26.9089 24.4484 26.9697 24.2943 26.9912 24.1325L28.9912 9.13245C29.0203 8.91441 28.9766 8.69286 28.867 8.50214C28.7574 8.31141 28.588 8.16214 28.385 8.07746ZM25.0787 23.3425L16 27.8825L6.92125 23.3425L5.0925 9.62496L16 5.08371L26.9075 9.62496L25.0787 23.3425ZM15.125 10.515L10.125 19.515C10.0613 19.6299 10.0209 19.7562 10.006 19.8867C9.99113 20.0173 10.0021 20.1494 10.0383 20.2757C10.0745 20.402 10.1353 20.5199 10.2171 20.6227C10.2989 20.7256 10.4001 20.8113 10.515 20.875C10.6299 20.9386 10.7562 20.9791 10.8868 20.994C11.0173 21.0088 11.1495 20.9978 11.2758 20.9616C11.4021 20.9254 11.52 20.8647 11.6228 20.7829C11.7256 20.7011 11.8113 20.5999 11.875 20.485L13.25 18H18.75L20.125 20.485C20.1887 20.5999 20.2744 20.7011 20.3772 20.7829C20.48 20.8647 20.5979 20.9254 20.7242 20.9616C20.8505 20.9978 20.9827 21.0088 21.1132 20.994C21.2438 20.9791 21.3701 20.9386 21.485 20.875C21.5999 20.8113 21.7011 20.7256 21.7829 20.6227C21.8647 20.5199 21.9254 20.402 21.9617 20.2757C21.9979 20.1494 22.0089 20.0173 21.994 19.8867C21.9791 19.7562 21.9387 19.6299 21.875 19.515L16.875 10.515C16.7885 10.3587 16.6618 10.2284 16.5079 10.1376C16.354 10.0469 16.1786 9.99908 16 9.99908C15.8214 9.99908 15.646 10.0469 15.4921 10.1376C15.3382 10.2284 15.2115 10.3587 15.125 10.515ZM17.6337 16H14.3662L16 13.0587L17.6337 16Z" fill="#343330"/>
</g>
</svg>
