<svg width="32" height="32" viewBox="0 0 32 32" fill="none" xmlns="http://www.w3.org/2000/svg">
<g id="icon/lightning.slash">
<path id="Vector" d="M6.73976 4.32749C6.65194 4.2285 6.54535 4.14792 6.42616 4.09043C6.30697 4.03294 6.17756 3.99967 6.04542 3.99256C5.91328 3.98545 5.78104 4.00464 5.65637 4.04902C5.53171 4.09339 5.41708 4.16207 5.31915 4.25106C5.22122 4.34006 5.14193 4.44761 5.08587 4.56748C5.02981 4.68735 4.99809 4.81716 4.99257 4.94937C4.98705 5.08159 5.00782 5.21359 5.05369 5.33771C5.09955 5.46184 5.1696 5.57563 5.25976 5.67249L10.166 11.07L5.26851 16.32C5.15481 16.4398 5.07255 16.5859 5.02909 16.7453C4.98563 16.9046 4.98233 17.0723 5.01947 17.2332C5.05661 17.3942 5.13305 17.5434 5.24194 17.6676C5.35084 17.7918 5.4888 17.8871 5.64351 17.945L12.8473 20.6462L11.0198 29.8037C10.9783 30.0167 11.0072 30.2374 11.1021 30.4325C11.197 30.6276 11.3529 30.7866 11.546 30.8853C11.7392 30.9841 11.9593 31.0174 12.1731 30.9801C12.3868 30.9429 12.5827 30.8371 12.731 30.6787L20.4635 22.3937L25.2598 27.6687C25.3476 27.7677 25.4542 27.8483 25.5734 27.9058C25.6926 27.9633 25.822 27.9966 25.9541 28.0037C26.0862 28.0108 26.2185 27.9916 26.3432 27.9472C26.4678 27.9028 26.5824 27.8342 26.6804 27.7452C26.7783 27.6562 26.8576 27.5486 26.9137 27.4287C26.9697 27.3089 27.0014 27.1791 27.007 27.0469C27.0125 26.9146 26.9917 26.7826 26.9458 26.6585C26.9 26.5344 26.8299 26.4206 26.7398 26.3237L6.73976 4.32749ZM13.671 26.75L14.9798 20.2025C15.0266 19.9703 14.9895 19.729 14.875 19.5216C14.7606 19.3142 14.5762 19.1541 14.3548 19.07L7.74976 16.5887L11.5148 12.555L19.1123 20.9125L13.671 26.75ZM13.5823 8.87499C13.4862 8.78538 13.4087 8.67772 13.3543 8.55817C13.2999 8.43861 13.2695 8.3095 13.265 8.17822C13.2605 8.04693 13.2818 7.91603 13.3279 7.79301C13.374 7.66999 13.4439 7.55725 13.5335 7.46124L19.2685 1.31624C19.4169 1.15791 19.6127 1.05213 19.8265 1.01486C20.0402 0.977594 20.2603 1.01086 20.4535 1.10964C20.6467 1.20842 20.8025 1.36736 20.8974 1.56247C20.9924 1.75758 21.0213 1.97827 20.9798 2.19124L19.1473 11.3625L26.351 14.0637C26.5046 14.122 26.6414 14.2172 26.7495 14.3409C26.8575 14.4646 26.9334 14.613 26.9705 14.773C27.0076 14.9331 27.0047 15.0997 26.962 15.2583C26.9194 15.417 26.8383 15.5626 26.726 15.6825L23.9385 18.6687C23.7564 18.8572 23.5075 18.9666 23.2454 18.9734C22.9834 18.9803 22.7292 18.8839 22.5375 18.7052C22.3458 18.5264 22.2319 18.2795 22.2204 18.0176C22.2089 17.7558 22.3007 17.4999 22.476 17.305L24.2498 15.4112L17.6498 12.9362C17.4283 12.8521 17.244 12.6921 17.1295 12.4847C17.015 12.2773 16.9779 12.036 17.0248 11.8037L18.3335 5.25624L14.9998 8.82749C14.91 8.92402 14.8021 9.00186 14.6821 9.05652C14.5622 9.11119 14.4326 9.1416 14.3009 9.14602C14.1692 9.15043 14.0378 9.12876 13.9145 9.08224C13.7912 9.03573 13.6783 8.9653 13.5823 8.87499Z" fill="#343330"/>
</g>
</svg>
