<svg width="32" height="32" viewBox="0 0 32 32" fill="none" xmlns="http://www.w3.org/2000/svg">
<g id="icon/line.segments">
<path id="Vector" d="M29.83 4.17C29.4586 3.79847 29.0176 3.50375 28.5322 3.30268C28.0469 3.1016 27.5266 2.99811 27.0013 2.99811C26.4759 2.99811 25.9557 3.1016 25.4703 3.30268C24.985 3.50375 24.544 3.79847 24.1725 4.17C23.801 4.54145 23.5063 4.98245 23.3052 5.46781C23.1041 5.95317 23.0006 6.47339 23.0006 6.99875C23.0006 7.52412 23.1041 8.04434 23.3052 8.5297C23.5063 9.01506 23.801 9.45606 24.1725 9.8275C24.2088 9.86375 24.2475 9.89875 24.285 9.93375L20.9563 16.1163C19.9414 15.8688 18.8701 16.0257 17.9688 16.5538L15.4463 14.0313C15.9425 13.1925 16.1155 12.2014 15.9327 11.2441C15.7499 10.2868 15.2238 9.42918 14.4534 8.83232C13.683 8.23545 12.7211 7.9404 11.7485 8.00258C10.7759 8.06476 9.85945 8.47989 9.17128 9.17C8.79975 9.54145 8.50503 9.98245 8.30395 10.4678C8.10288 10.9532 7.99939 11.4734 7.99939 11.9988C7.99939 12.5241 8.10288 13.0443 8.30395 13.5297C8.50503 14.0151 8.79975 14.4561 9.17128 14.8275C9.20753 14.8638 9.24503 14.8988 9.28253 14.9338L5.95378 21.1175C5.28561 20.953 4.58631 20.9637 3.92348 21.1486C3.26066 21.3334 2.65671 21.686 2.17003 22.1725C1.61071 22.732 1.22984 23.4447 1.07557 24.2206C0.921306 24.9965 1.00057 25.8007 1.30335 26.5316C1.60613 27.2624 2.11882 27.8871 2.77659 28.3265C3.43437 28.766 4.20769 29.0006 4.99878 29.0006C5.78987 29.0006 6.56319 28.766 7.22097 28.3265C7.87874 27.8871 8.39143 27.2624 8.69421 26.5316C8.99699 25.8007 9.07626 24.9965 8.92199 24.2206C8.76772 23.4447 8.38685 22.732 7.82753 22.1725C7.79128 22.1363 7.75253 22.1013 7.71503 22.0663L11.0438 15.8838C11.3568 15.9604 11.6778 15.9994 12 16C12.7142 16.0009 13.4155 15.8105 14.0313 15.4488L16.5538 17.9713C16.174 18.6158 15.9826 19.3539 16.0013 20.1017C16.0199 20.8495 16.248 21.5771 16.6594 22.2019C17.0708 22.8267 17.6492 23.3235 18.3289 23.636C19.0086 23.9486 19.7622 24.0643 20.5043 23.9699C21.2464 23.8756 21.9472 23.5751 22.5271 23.1025C23.107 22.6299 23.5427 22.0041 23.7848 21.2963C24.0269 20.5885 24.0656 19.827 23.8966 19.0983C23.7276 18.3695 23.3577 17.7028 22.8288 17.1738C22.7925 17.1375 22.755 17.1025 22.7175 17.0675L26.0463 10.885C26.3585 10.9611 26.6787 10.9997 27 11C27.791 10.9999 28.5642 10.7653 29.2218 10.3258C29.8795 9.88636 30.3921 9.26179 30.6948 8.53106C30.9976 7.80034 31.0769 6.99626 30.9227 6.22046C30.7686 5.44466 30.3879 4.73198 29.8288 4.1725L29.83 4.17ZM6.41253 26.4163C6.03725 26.7914 5.52832 27.002 4.99771 27.0019C4.4671 27.0018 3.95827 26.7909 3.58316 26.4156C3.20804 26.0403 2.99737 25.5314 2.99749 25.0008C2.9976 24.4702 3.2085 23.9614 3.58378 23.5863C3.7696 23.4005 3.99019 23.2532 4.23294 23.1527C4.4757 23.0522 4.73587 23.0005 4.9986 23.0006C5.26133 23.0006 5.52148 23.0524 5.76419 23.153C6.0069 23.2536 6.22742 23.4011 6.41316 23.5869C6.59889 23.7727 6.74621 23.9933 6.8467 24.236C6.94719 24.4788 6.99888 24.739 6.99883 25.0017C6.99877 25.2644 6.94696 25.5246 6.84636 25.7673C6.74577 26.01 6.59835 26.2305 6.41253 26.4163ZM10.585 13.4163C10.3993 13.2305 10.2519 13.01 10.1514 12.7674C10.0508 12.5247 9.99908 12.2646 9.99908 12.0019C9.99908 11.7392 10.0508 11.4791 10.1514 11.2364C10.2519 10.9937 10.3993 10.7732 10.585 10.5875C10.8648 10.3078 11.2211 10.1174 11.6091 10.0403C11.997 9.96314 12.3991 10.0028 12.7646 10.1542C13.13 10.3056 13.4423 10.5619 13.6621 10.8908C13.8818 11.2197 13.9991 11.6063 13.9991 12.0019C13.9991 12.3974 13.8818 12.7841 13.6621 13.113C13.4423 13.4419 13.13 13.6982 12.7646 13.8496C12.3991 14.001 11.997 14.0406 11.6091 13.9635C11.2211 13.8863 10.8648 13.6959 10.585 13.4163ZM21.415 21.4163C21.0399 21.7914 20.5311 22.0021 20.0007 22.0021C19.4702 22.0021 18.9614 21.7914 18.5863 21.4163C18.2112 21.0411 18.0004 20.5324 18.0004 20.0019C18.0004 19.4714 18.2112 18.9626 18.5863 18.5875C18.9614 18.2124 19.4702 18.0016 20.0007 18.0016C20.5311 18.0016 21.0399 18.2124 21.415 18.5875C21.7901 18.9626 22.0009 19.4714 22.0009 20.0019C22.0009 20.5324 21.7901 21.0411 21.415 21.4163ZM28.415 8.41625C28.0394 8.7912 27.5302 9.00158 26.9995 9.00112C26.4688 9.00065 25.96 8.78937 25.585 8.41375C25.2101 8.03814 24.9997 7.52896 25.0002 6.99824C25.0006 6.46751 25.2119 5.9587 25.5875 5.58375C25.7733 5.39802 25.9939 5.2507 26.2367 5.15021C26.4794 5.04972 26.7396 4.99803 27.0023 4.99808C27.2651 4.99814 27.5252 5.04995 27.7679 5.15054C28.0106 5.25114 28.2312 5.39856 28.4169 5.58438C28.6026 5.7702 28.75 5.99078 28.8505 6.23354C28.9509 6.47629 29.0026 6.73646 29.0026 6.9992C29.0025 7.26193 28.9507 7.52208 28.8501 7.76479C28.7495 8.0075 28.6021 8.22801 28.4163 8.41375L28.415 8.41625Z" fill="#343330"/>
</g>
</svg>
