<svg width="32" height="32" viewBox="0 0 32 32" fill="none" xmlns="http://www.w3.org/2000/svg">
<g id="icon/arrow.elbow.left.up">
<path id="Vector" d="M30 24C30 24.2652 29.8947 24.5196 29.7071 24.7071C29.5196 24.8946 29.2652 25 29 25H11C10.7348 25 10.4804 24.8946 10.2929 24.7071C10.1054 24.5196 10 24.2652 10 24V8.41374L5.70751 12.7075C5.51987 12.8951 5.26537 13.0005 5.00001 13.0005C4.73464 13.0005 4.48015 12.8951 4.29251 12.7075C4.10487 12.5199 3.99945 12.2654 3.99945 12C3.99945 11.7346 4.10487 11.4801 4.29251 11.2925L10.2925 5.29249C10.3854 5.19952 10.4957 5.12576 10.6171 5.07543C10.7385 5.02511 10.8686 4.99921 11 4.99921C11.1314 4.99921 11.2615 5.02511 11.3829 5.07543C11.5043 5.12576 11.6146 5.19952 11.7075 5.29249L17.7075 11.2925C17.8004 11.3854 17.8741 11.4957 17.9244 11.6171C17.9747 11.7385 18.0006 11.8686 18.0006 12C18.0006 12.1314 17.9747 12.2615 17.9244 12.3829C17.8741 12.5043 17.8004 12.6146 17.7075 12.7075C17.6146 12.8004 17.5043 12.8741 17.3829 12.9244C17.2615 12.9747 17.1314 13.0005 17 13.0005C16.8686 13.0005 16.7385 12.9747 16.6171 12.9244C16.4957 12.8741 16.3854 12.8004 16.2925 12.7075L12 8.41374V23H29C29.2652 23 29.5196 23.1053 29.7071 23.2929C29.8947 23.4804 30 23.7348 30 24Z" fill="#343330"/>
</g>
</svg>
