<svg width="32" height="32" viewBox="0 0 32 32" fill="none" xmlns="http://www.w3.org/2000/svg">
<g id="icon/text.superscript">
<path id="Vector" d="M31.0001 18.0001C31.0001 18.2653 30.8947 18.5196 30.7072 18.7072C30.5196 18.8947 30.2653 19.0001 30.0001 19.0001H24.0001C23.8144 19.0001 23.6323 18.9483 23.4743 18.8507C23.3164 18.7531 23.1887 18.6134 23.1057 18.4473C23.0226 18.2812 22.9874 18.0952 23.0041 17.9102C23.0208 17.7253 23.0887 17.5486 23.2001 17.4001L28.5963 10.2063C28.7691 9.97604 28.8902 9.71119 28.9512 9.42984C29.0122 9.1485 29.0118 8.8573 28.9499 8.57614C28.888 8.29498 28.7662 8.03049 28.5927 7.80075C28.4193 7.571 28.1982 7.38141 27.9447 7.24494C27.6913 7.10846 27.4113 7.02832 27.124 7.00998C26.8367 6.99164 26.5488 7.03555 26.2801 7.13869C26.0113 7.24183 25.768 7.40178 25.5667 7.60761C25.3654 7.81344 25.2109 8.06029 25.1138 8.33131C25.0701 8.45516 25.0024 8.56918 24.9146 8.66687C24.8267 8.76455 24.7205 8.84398 24.602 8.90062C24.4835 8.95727 24.355 8.99002 24.2239 8.997C24.0927 9.00398 23.9614 8.98505 23.8376 8.9413C23.7137 8.89756 23.5997 8.82985 23.502 8.74203C23.4043 8.65422 23.3249 8.54803 23.2683 8.42952C23.2116 8.311 23.1789 8.1825 23.1719 8.05133C23.1649 7.92016 23.1838 7.78891 23.2276 7.66505C23.4202 7.12171 23.728 6.62642 24.1299 6.21311C24.5317 5.7998 25.0182 5.47824 25.5559 5.27046C26.0937 5.06267 26.6699 4.97357 27.2453 5.00926C27.8207 5.04495 28.3815 5.20458 28.8895 5.47723C29.3974 5.74987 29.8404 6.12909 30.1881 6.58889C30.5358 7.0487 30.7801 7.57823 30.9041 8.14121C31.0281 8.7042 31.0289 9.28733 30.9065 9.85067C30.7842 10.414 30.5415 10.9442 30.1951 11.4051L26.0001 17.0001H30.0001C30.2653 17.0001 30.5196 17.1054 30.7072 17.2929C30.8947 17.4805 31.0001 17.7348 31.0001 18.0001ZM18.6551 9.25005C18.5559 9.16391 18.4407 9.09815 18.316 9.05655C18.1914 9.01495 18.0598 8.99832 17.9287 9.00761C17.7977 9.01689 17.6697 9.05192 17.5522 9.11068C17.4347 9.16944 17.3299 9.25078 17.2438 9.35006L11.5001 15.9738L5.75633 9.3488C5.57703 9.17236 5.33783 9.06998 5.0864 9.06206C4.83497 9.05414 4.58979 9.14127 4.39975 9.30608C4.20971 9.47089 4.08876 9.70127 4.06102 9.95129C4.03328 10.2013 4.10078 10.4526 4.25008 10.6551L10.1763 17.5001L4.25008 24.3451C4.16406 24.4444 4.09845 24.5596 4.05699 24.6843C4.01552 24.809 3.99902 24.9406 4.00842 25.0716C4.01783 25.2027 4.05295 25.3306 4.11178 25.4481C4.17062 25.5656 4.25202 25.6703 4.35133 25.7563C4.5519 25.93 4.81326 26.0169 5.07792 25.998C5.20897 25.9886 5.33688 25.9534 5.45435 25.8946C5.57183 25.8358 5.67656 25.7544 5.76258 25.6551L11.5126 19.0301L17.2563 25.6551C17.43 25.8556 17.6763 25.979 17.941 25.998C18.2056 26.0169 18.467 25.93 18.6676 25.7563C18.8681 25.5826 18.9915 25.3363 19.0105 25.0716C19.0295 24.807 18.9425 24.5456 18.7688 24.3451L12.8238 17.5001L18.7563 10.6551C18.9282 10.4549 19.014 10.1949 18.9951 9.9317C18.9761 9.66853 18.8539 9.42352 18.6551 9.25005Z" fill="#343330"/>
</g>
</svg>
