<svg width="32" height="32" viewBox="0 0 32 32" fill="none" xmlns="http://www.w3.org/2000/svg">
<g id="icon/caret.circle.double.right">
<path id="Vector" d="M25.1925 6.80754C22.7545 4.36953 19.4479 2.99988 16 2.99988C12.5521 2.99988 9.24551 4.36953 6.80751 6.80754C4.3695 9.24554 2.99985 12.5522 2.99985 16C2.99985 19.4479 4.3695 22.7545 6.80751 25.1925C9.24551 27.6305 12.5521 29.0002 16 29.0002C19.4479 29.0002 22.7545 27.6305 25.1925 25.1925C27.6305 22.7545 29.0002 19.4479 29.0002 16C29.0002 12.5522 27.6305 9.24554 25.1925 6.80754ZM23.7788 23.7788C22.2403 25.317 20.2803 26.3645 18.1466 26.7888C16.0128 27.2131 13.8012 26.9952 11.7913 26.1626C9.78137 25.3299 8.0635 23.92 6.85488 22.1111C5.64625 20.3022 5.00116 18.1756 5.00116 16C5.00116 13.8245 5.64625 11.6978 6.85488 9.88893C8.0635 8.08003 9.78137 6.67013 11.7913 5.83752C13.8012 5.00491 16.0128 4.78697 18.1466 5.21128C20.2803 5.63558 22.2403 6.68307 23.7788 8.22129C25.8386 10.286 26.9955 13.0835 26.9955 16C26.9955 18.9166 25.8386 21.7141 23.7788 23.7788ZM15.7075 15.2925C15.8005 15.3854 15.8742 15.4957 15.9246 15.6171C15.9749 15.7385 16.0008 15.8686 16.0008 16C16.0008 16.1315 15.9749 16.2616 15.9246 16.383C15.8742 16.5044 15.8005 16.6147 15.7075 16.7075L11.7075 20.7075C11.6146 20.8004 11.5043 20.8741 11.3829 20.9244C11.2615 20.9747 11.1314 21.0006 11 21.0006C10.8686 21.0006 10.7385 20.9747 10.6171 20.9244C10.4957 20.8741 10.3854 20.8004 10.2925 20.7075C10.1996 20.6146 10.1259 20.5043 10.0756 20.3829C10.0253 20.2615 9.99945 20.1314 9.99945 20C9.99945 19.8686 10.0253 19.7385 10.0756 19.6171C10.1259 19.4957 10.1996 19.3854 10.2925 19.2925L13.5863 16L10.2925 12.7075C10.1049 12.5199 9.99945 12.2654 9.99945 12C9.99945 11.7347 10.1049 11.4802 10.2925 11.2925C10.4801 11.1049 10.7346 10.9995 11 10.9995C11.2654 10.9995 11.5199 11.1049 11.7075 11.2925L15.7075 15.2925ZM22.7075 15.2925C22.8005 15.3854 22.8742 15.4957 22.9246 15.6171C22.9749 15.7385 23.0008 15.8686 23.0008 16C23.0008 16.1315 22.9749 16.2616 22.9246 16.383C22.8742 16.5044 22.8005 16.6147 22.7075 16.7075L18.7075 20.7075C18.5199 20.8952 18.2654 21.0006 18 21.0006C17.7346 21.0006 17.4801 20.8952 17.2925 20.7075C17.1049 20.5199 16.9994 20.2654 16.9994 20C16.9994 19.7347 17.1049 19.4802 17.2925 19.2925L20.5863 16L17.2925 12.7075C17.1049 12.5199 16.9994 12.2654 16.9994 12C16.9994 11.7347 17.1049 11.4802 17.2925 11.2925C17.4801 11.1049 17.7346 10.9995 18 10.9995C18.2654 10.9995 18.5199 11.1049 18.7075 11.2925L22.7075 15.2925Z" fill="#343330"/>
</g>
</svg>
