<svg width="32" height="32" viewBox="0 0 32 32" fill="none" xmlns="http://www.w3.org/2000/svg">
<g id="icon/infinity">
<path id="Vector" d="M30.9999 16C31 17.3845 30.5895 18.738 29.8204 19.8892C29.0512 21.0405 27.9579 21.9378 26.6788 22.4676C25.3996 22.9975 23.9921 23.1361 22.6342 22.866C21.2762 22.5958 20.0289 21.9291 19.0499 20.95L19.0087 20.9062L11.5149 12.4437C10.8133 11.7504 9.92235 11.28 8.95406 11.0918C7.98577 10.9036 6.98345 11.0061 6.07325 11.3862C5.16304 11.7664 4.38562 12.4073 3.8388 13.2282C3.29199 14.0492 3.00023 15.0136 3.00023 16C3.00023 16.9864 3.29199 17.9508 3.8388 18.7717C4.38562 19.5927 5.16304 20.2336 6.07325 20.6137C6.98345 20.9939 7.98577 21.0963 8.95406 20.9082C9.92235 20.72 10.8133 20.2496 11.5149 19.5562L12.5799 18.3537C12.667 18.2552 12.7726 18.1749 12.8908 18.1172C13.0089 18.0595 13.1373 18.0257 13.2685 18.0176C13.3997 18.0096 13.5312 18.0274 13.6556 18.0702C13.7799 18.113 13.8946 18.1798 13.993 18.2669C14.0915 18.3539 14.1719 18.4596 14.2296 18.5777C14.2873 18.6959 14.3211 18.8242 14.3292 18.9554C14.3372 19.0867 14.3194 19.2182 14.2766 19.3425C14.2338 19.4668 14.167 19.5815 14.0799 19.68L12.9937 20.9062L12.9524 20.95C11.9734 21.9289 10.7261 22.5955 9.3683 22.8655C8.01045 23.1356 6.60302 22.9969 5.32398 22.4671C4.04494 21.9372 2.95173 21.04 2.18259 19.8889C1.41345 18.7378 1.00293 17.3844 1.00293 16C1.00293 14.6156 1.41345 13.2622 2.18259 12.1111C2.95173 10.9599 4.04494 10.0627 5.32398 9.5329C6.60302 9.00307 8.01045 8.8644 9.3683 9.13444C10.7261 9.40448 11.9734 10.0711 12.9524 11.05L12.9937 11.0937L20.4874 19.5562C21.189 20.2496 22.08 20.72 23.0483 20.9082C24.0166 21.0963 25.0189 20.9939 25.9291 20.6137C26.8393 20.2336 27.6167 19.5927 28.1635 18.7717C28.7104 17.9508 29.0021 16.9864 29.0021 16C29.0021 15.0136 28.7104 14.0492 28.1635 13.2282C27.6167 12.4073 26.8393 11.7664 25.9291 11.3862C25.0189 11.0061 24.0166 10.9036 23.0483 11.0918C22.08 11.28 21.189 11.7504 20.4874 12.4437L19.4224 13.6462C19.2466 13.8452 18.9989 13.9661 18.7339 13.9823C18.4688 13.9986 18.2082 13.909 18.0093 13.7331C17.8104 13.5572 17.6895 13.3096 17.6732 13.0445C17.6569 12.7795 17.7466 12.5189 17.9224 12.32L19.0087 11.0937L19.0499 11.05C20.0289 10.0709 21.2762 9.40415 22.6342 9.13401C23.9921 8.86388 25.3996 9.0025 26.6788 9.53236C27.9579 10.0622 29.0512 10.9595 29.8204 12.1107C30.5895 13.262 31 14.6154 30.9999 16Z" fill="#343330"/>
</g>
</svg>
