<svg width="32" height="32" viewBox="0 0 32 32" fill="none" xmlns="http://www.w3.org/2000/svg">
<g id="icon/pentagram">
<path id="Vector" d="M29.8975 11.3813C29.7714 10.9779 29.5188 10.6257 29.177 10.377C28.8353 10.1282 28.4226 9.99607 28 10H20.375L17.9037 2.40752C17.7791 2.00036 17.5273 1.64386 17.1852 1.39035C16.8431 1.13684 16.4287 0.999664 16.0029 0.998965C15.5771 0.998266 15.1623 1.13408 14.8193 1.38646C14.4764 1.63885 14.2234 1.99452 14.0975 2.40127L11.6325 10H3.99997C3.57614 9.99889 3.1629 10.1324 2.81989 10.3814C2.47687 10.6303 2.22181 10.9818 2.0915 11.3851C1.96119 11.7884 1.96238 12.2227 2.09488 12.6253C2.22738 13.0279 2.48435 13.3779 2.82872 13.625L9.01122 18.0725L6.64372 25.375C6.50891 25.7766 6.50725 26.211 6.63899 26.6137C6.77073 27.0163 7.02883 27.3657 7.37497 27.61C7.7142 27.862 8.12553 27.998 8.54809 27.998C8.97065 27.998 9.38199 27.862 9.72122 27.61L16 23.0938L22.2787 27.61C22.6203 27.858 23.0317 27.9915 23.4538 27.9915C23.876 27.9914 24.2873 27.8578 24.6288 27.6098C24.9704 27.3617 25.2247 27.0119 25.3554 26.6105C25.486 26.2091 25.4863 25.7766 25.3562 25.375L22.9812 18.0675L29.1675 13.6163C29.5135 13.372 29.7715 13.0225 29.903 12.6198C30.0346 12.2171 30.0326 11.7828 29.8975 11.3813ZM16 3.01877L18.265 10H13.735L16 3.01877ZM3.99997 12H10.9837L9.66247 16.07L3.99997 12ZM8.54247 26L10.7162 19.3013L14.2837 21.8688L8.54247 26ZM11.3637 17.3038L13.0862 12H18.9137L20.6325 17.2975L16 20.625L11.3637 17.3038ZM23.45 26L17.7125 21.875L21.28 19.3075L23.45 26ZM22.3337 16.0775L21.0162 12H28L22.3337 16.0775Z" fill="#343330"/>
</g>
</svg>
