<svg width="32" height="32" viewBox="0 0 32 32" fill="none" xmlns="http://www.w3.org/2000/svg">
<g id="icon/wechat.logo">
<path id="Vector" d="M18 17.5C18 17.7966 17.912 18.0866 17.7472 18.3333C17.5824 18.58 17.3481 18.7722 17.074 18.8858C16.7999 18.9993 16.4983 19.029 16.2074 18.9711C15.9164 18.9133 15.6491 18.7704 15.4393 18.5606C15.2296 18.3508 15.0867 18.0836 15.0288 17.7926C14.9709 17.5016 15.0007 17.2 15.1142 16.9259C15.2277 16.6518 15.42 16.4176 15.6666 16.2527C15.9133 16.0879 16.2033 16 16.5 16C16.8978 16 17.2794 16.158 17.5607 16.4393C17.842 16.7206 18 17.1021 18 17.5ZM23.5 16C23.2033 16 22.9133 16.0879 22.6666 16.2527C22.42 16.4176 22.2277 16.6518 22.1142 16.9259C22.0007 17.2 21.9709 17.5016 22.0288 17.7926C22.0867 18.0836 22.2296 18.3508 22.4393 18.5606C22.6491 18.7704 22.9164 18.9133 23.2074 18.9711C23.4983 19.029 23.7999 18.9993 24.074 18.8858C24.3481 18.7722 24.5824 18.58 24.7472 18.3333C24.912 18.0866 25 17.7966 25 17.5C25 17.1021 24.842 16.7206 24.5607 16.4393C24.2794 16.158 23.8978 16 23.5 16ZM29.9175 26.4337C30.0191 26.7785 30.0259 27.1443 29.9372 27.4927C29.8484 27.841 29.6675 28.159 29.4133 28.4132C29.1591 28.6674 28.8411 28.8484 28.4927 28.9371C28.1444 29.0259 27.7786 29.0191 27.4338 28.9175L24.345 28.0087C23.1273 28.596 21.8032 28.9303 20.4527 28.9913C19.1022 29.0524 17.7534 28.839 16.4877 28.3641C15.222 27.8892 14.0657 27.1625 13.0888 26.2281C12.1118 25.2936 11.3345 24.1708 10.8038 22.9275C9.71029 22.7989 8.64603 22.4883 7.655 22.0087L4.56625 22.9175C4.22144 23.0191 3.85561 23.0259 3.50726 22.9371C3.15891 22.8484 2.84092 22.6674 2.58673 22.4132C2.33255 22.159 2.15157 21.841 2.06283 21.4927C1.9741 21.1443 1.9809 20.7785 2.0825 20.4337L2.99125 17.345C2.42131 16.1458 2.09589 14.8451 2.03395 13.5188C1.97202 12.1925 2.17482 10.8672 2.63053 9.62013C3.08624 8.37306 3.78573 7.22922 4.68818 6.25535C5.59064 5.28148 6.678 4.49707 7.88683 3.94789C9.09565 3.39871 10.4017 3.09575 11.7289 3.0567C13.056 3.01764 14.3777 3.24326 15.6167 3.7204C16.8558 4.19754 17.9874 4.91664 18.9455 5.83575C19.9037 6.75487 20.6692 7.85559 21.1975 9.0737C22.777 9.26404 24.2883 9.82849 25.6059 10.7202C26.9234 11.6119 28.0092 12.805 28.7731 14.2006C29.5369 15.5962 29.9568 17.1538 29.9978 18.7443C30.0388 20.3347 29.6997 21.9119 29.0088 23.345L29.9175 26.4337ZM10.1625 20.7875C9.91517 19.4328 9.95051 18.0416 10.2663 16.7012C10.5821 15.3609 11.1715 14.1002 11.9976 12.9984C12.8237 11.8967 13.8685 10.9775 15.0667 10.2987C16.2648 9.61985 17.5903 9.19599 18.96 9.0537C18.4531 8.13338 17.7699 7.32192 16.9494 6.66563C16.1289 6.00935 15.1871 5.52111 14.1779 5.22878C12.1398 4.63839 9.95055 4.88184 8.09188 5.90558C6.23321 6.92931 4.85734 8.64947 4.26695 10.6876C3.67656 12.7258 3.92002 14.915 4.94375 16.7737C5.06687 17.0038 5.09513 17.273 5.0225 17.5237L4 21L7.47 19.9787C7.7207 19.9061 7.98986 19.9343 8.22 20.0575C8.83274 20.3848 9.48583 20.6302 10.1625 20.7875ZM27.0563 22.7737C27.9609 21.0819 28.2274 19.1214 27.8073 17.2495C27.3872 15.3777 26.3084 13.7191 24.7676 12.5761C23.2268 11.4332 21.3265 10.882 19.4133 11.0231C17.5 11.1641 15.7012 11.988 14.3446 13.3446C12.9881 14.7011 12.1642 16.5 12.0231 18.4132C11.8821 20.3265 12.4333 22.2267 13.5762 23.7675C14.7191 25.3083 16.3777 26.3871 18.2496 26.8072C20.1215 27.2274 22.082 26.9608 23.7738 26.0562C24.0039 25.9331 24.2731 25.9048 24.5238 25.9775L28 27L26.9788 23.53C26.904 23.2775 26.9319 23.0058 27.0563 22.7737Z" fill="#343330"/>
</g>
</svg>
