<svg width="32" height="32" viewBox="0 0 32 32" fill="none" xmlns="http://www.w3.org/2000/svg">
<g id="icon/line.segment">
<path id="Vector" d="M26.8301 5.17002C26.1419 4.47991 25.2254 4.06478 24.2528 4.0026C23.2802 3.94042 22.3184 4.23547 21.5479 4.83233C20.7775 5.4292 20.2515 6.28681 20.0686 7.2441C19.8858 8.20139 20.0588 9.19249 20.5551 10.0313L10.0313 20.555C9.26688 20.1056 8.37498 19.9224 7.4953 20.0342C6.61562 20.1459 5.79785 20.5463 5.17006 21.1725C4.64123 21.7016 4.27138 22.3685 4.10251 23.0972C3.93364 23.826 3.97253 24.5875 4.21475 25.2953C4.45697 26.0031 4.89281 26.6288 5.47278 27.1013C6.05275 27.5738 6.75361 27.8742 7.49574 27.9683C8.23787 28.0625 8.99153 27.9467 9.67114 27.634C10.3507 27.3213 10.929 26.8243 11.3404 26.1995C11.7517 25.5746 11.9795 24.847 11.998 24.0991C12.0166 23.3513 11.825 22.6132 11.4451 21.9688L21.9688 11.445C22.8076 11.9413 23.7987 12.1143 24.756 11.9314C25.7133 11.7486 26.5709 11.2226 27.1677 10.4521C27.7646 9.68169 28.0597 8.71985 27.9975 7.74724C27.9353 6.77463 27.5202 5.85819 26.8301 5.17002ZM9.41381 25.42C9.03852 25.7953 8.52953 26.0061 7.99881 26.0061C7.46808 26.0061 6.95909 25.7953 6.58381 25.42C6.20852 25.0447 5.99769 24.5357 5.99769 24.005C5.99769 23.4743 6.20852 22.9653 6.58381 22.59C6.76953 22.4043 6.99003 22.2569 7.23271 22.1564C7.47539 22.0558 7.7355 22.0041 7.99818 22.0041C8.26086 22.0041 8.52097 22.0558 8.76365 22.1564C9.00633 22.2569 9.22683 22.4043 9.41256 22.59C9.78713 22.9648 9.99764 23.473 9.99788 24.0029C9.99811 24.5328 9.78805 25.0411 9.41381 25.4163V25.42ZM25.4138 9.42002C25.1341 9.69968 24.7777 9.89012 24.3898 9.96725C24.0018 10.0444 23.5997 10.0048 23.2343 9.85336C22.8689 9.70197 22.5565 9.44563 22.3368 9.11674C22.117 8.78785 21.9998 8.40119 21.9998 8.00565C21.9998 7.6101 22.117 7.22344 22.3368 6.89455C22.5565 6.56567 22.8689 6.30932 23.2343 6.15793C23.5997 6.00654 24.0018 5.96691 24.3898 6.04404C24.7777 6.12118 25.1341 6.31161 25.4138 6.59127C25.787 6.96572 25.9968 7.4727 25.9973 8.00138C25.9977 8.53006 25.7889 9.03741 25.4163 9.41252L25.4138 9.42002Z" fill="#343330"/>
</g>
</svg>
