<svg width="32" height="32" viewBox="0 0 32 32" fill="none" xmlns="http://www.w3.org/2000/svg">
<g id="icon/guitar">
<path id="Vector" d="M31.2075 5.79249L26.2075 0.792492C26.0199 0.605017 25.7654 0.499761 25.5002 0.499878C25.235 0.499995 24.9806 0.605477 24.7931 0.793117C24.6057 0.980758 24.5004 1.23519 24.5005 1.50043C24.5006 1.76568 24.6061 2.02002 24.7938 2.20749L25.0863 2.49999L17.565 10.02C14.7163 8.53749 11.5263 8.66124 9.59377 10.5925C9.08378 11.1047 8.68429 11.716 8.42002 12.3887C8.33886 12.5711 8.20646 12.726 8.03891 12.8345C7.87136 12.943 7.67589 13.0005 7.47627 13C5.65252 13.0612 4.06877 13.715 2.89502 14.8887C1.38502 16.4025 0.750017 18.575 1.09252 21.0087C1.42502 23.3375 2.63377 25.6437 4.50002 27.5C6.36627 29.3562 8.66752 30.57 11 30.9025C11.418 30.965 11.8399 30.9975 12.2625 31C14.1775 31 15.8663 30.3462 17.1075 29.105C18.2813 27.9312 18.935 26.3475 18.9963 24.5237C18.9961 24.3237 19.0541 24.1279 19.1633 23.9603C19.2725 23.7928 19.4282 23.6606 19.6113 23.58C20.2842 23.3162 20.8957 22.9166 21.4075 22.4062C23.3388 20.4737 23.4625 17.2812 21.98 14.435L29.5 6.91374L29.7925 7.20624C29.8853 7.29915 29.9956 7.37287 30.1169 7.42318C30.2382 7.4735 30.3682 7.49942 30.4996 7.49948C30.6309 7.49954 30.761 7.47373 30.8823 7.42352C31.0037 7.37331 31.114 7.2997 31.2069 7.20687C31.2998 7.11404 31.3735 7.00382 31.4238 6.8825C31.4741 6.76119 31.5001 6.63115 31.5001 6.49981C31.5002 6.36847 31.4744 6.23841 31.4242 6.11705C31.374 5.99569 31.3003 5.8854 31.2075 5.79249ZM20 20.9912C19.6813 21.3086 19.3004 21.5567 18.8813 21.72C18.3366 21.9444 17.8691 22.3228 17.5361 22.8088C17.2031 23.2947 17.019 23.8673 17.0063 24.4562C16.9613 25.7637 16.5063 26.8825 15.7025 27.6912C14.6475 28.745 13.0775 29.185 11.2825 28.9275C9.37502 28.6562 7.46627 27.6487 5.90877 26.0912C4.35127 24.5337 3.34377 22.625 3.07252 20.7262C2.82252 18.93 3.25502 17.3612 4.30877 16.3062C5.11752 15.5 6.23627 15.0462 7.54377 15C8.13283 14.9876 8.70549 14.8036 9.19153 14.4706C9.67756 14.1375 10.0559 13.6699 10.28 13.125C10.4425 12.7036 10.6907 12.3206 11.0088 12C11.695 11.3137 12.6338 10.9837 13.6813 10.9837C14.5053 10.9969 15.3184 11.175 16.0725 11.5075L13.5625 14.0237C12.8132 14.1062 12.1025 14.3988 11.5123 14.8677C10.922 15.3365 10.4763 15.9626 10.2264 16.6738C9.97657 17.385 9.93275 18.1523 10.1 18.8873C10.2673 19.6223 10.6388 20.2951 11.1719 20.8281C11.7049 21.3612 12.3777 21.7327 13.1127 21.9C13.8477 22.0673 14.615 22.0234 15.3262 21.7736C16.0374 21.5237 16.6635 21.078 17.1324 20.4877C17.6012 19.8975 17.8938 19.1868 17.9763 18.4375L20.4863 15.9275C21.3013 17.8387 21.1838 19.8012 20 20.9912ZM18.7 13.3062C18.9642 13.572 19.2118 13.8538 19.4413 14.15L17.5138 16.0775C17.1461 15.4098 16.5964 14.8602 15.9288 14.4925L17.8563 12.5637C18.1504 12.7939 18.4301 13.0418 18.6938 13.3062H18.7ZM14 16C14.5304 16 15.0392 16.2107 15.4142 16.5858C15.7893 16.9609 16 17.4696 16 18C16 18.3956 15.8827 18.7822 15.663 19.1111C15.4432 19.44 15.1308 19.6964 14.7654 19.8478C14.3999 19.9991 13.9978 20.0387 13.6098 19.9616C13.2219 19.8844 12.8655 19.6939 12.5858 19.4142C12.3061 19.1345 12.1156 18.7781 12.0384 18.3902C11.9613 18.0022 12.0009 17.6001 12.1523 17.2346C12.3036 16.8692 12.56 16.5568 12.8889 16.3371C13.2178 16.1173 13.6045 16 14 16ZM20.1063 11.8937C19.841 11.6295 19.5623 11.3792 19.2713 11.1437L22 8.41374L23.5863 9.99999L20.8575 12.7275C20.6221 12.4364 20.3717 12.1577 20.1075 11.8925L20.1063 11.8937ZM25 8.58499L23.415 6.99999L26.5 3.91374L28.0863 5.49999L25 8.58499ZM11.7075 24.2912C11.8004 24.3841 11.8741 24.4943 11.9245 24.6156C11.9748 24.7369 12.0007 24.867 12.0008 24.9983C12.0008 25.1296 11.975 25.2597 11.9248 25.3811C11.8746 25.5024 11.801 25.6127 11.7081 25.7056C11.6153 25.7985 11.5051 25.8722 11.3838 25.9226C11.2625 25.9729 11.1324 25.9988 11.0011 25.9989C10.8697 25.9989 10.7397 25.9731 10.6183 25.9229C10.497 25.8727 10.3867 25.7991 10.2938 25.7062L6.29377 21.7062C6.10629 21.5186 6.00104 21.2642 6.00115 20.9989C6.00127 20.7337 6.10675 20.4793 6.29439 20.2919C6.48203 20.1044 6.73646 19.9991 7.00171 19.9993C7.26696 19.9994 7.52129 20.1049 7.70877 20.2925L11.7075 24.2912Z" fill="#343330"/>
</g>
</svg>
