<svg width="32" height="32" viewBox="0 0 32 32" fill="none" xmlns="http://www.w3.org/2000/svg">
<g id="icon/caret.line.up">
<path id="Vector" d="M26.7075 24.7075C26.6146 24.8005 26.5043 24.8742 26.3829 24.9246C26.2615 24.9749 26.1314 25.0008 26 25.0008C25.8686 25.0008 25.7385 24.9749 25.6171 24.9246C25.4957 24.8742 25.3854 24.8005 25.2925 24.7075L16 15.4137L6.70751 24.7075C6.51987 24.8951 6.26537 25.0006 6.00001 25.0006C5.73464 25.0006 5.48015 24.8951 5.29251 24.7075C5.10487 24.5199 4.99945 24.2654 4.99945 24C4.99945 23.7346 5.10487 23.4801 5.29251 23.2925L15.2925 13.2925C15.3854 13.1995 15.4957 13.1258 15.6171 13.0754C15.7385 13.0251 15.8686 12.9992 16 12.9992C16.1314 12.9992 16.2615 13.0251 16.3829 13.0754C16.5043 13.1258 16.6146 13.1995 16.7075 13.2925L26.7075 23.2925C26.8005 23.3854 26.8742 23.4957 26.9246 23.6171C26.9749 23.7385 27.0008 23.8686 27.0008 24C27.0008 24.1314 26.9749 24.2615 26.9246 24.3829C26.8742 24.5043 26.8005 24.6146 26.7075 24.7075ZM6.00001 10H26C26.2652 10 26.5196 9.89464 26.7071 9.70711C26.8947 9.51957 27 9.26522 27 9C27 8.73478 26.8947 8.48043 26.7071 8.29289C26.5196 8.10536 26.2652 8 26 8H6.00001C5.73479 8 5.48044 8.10536 5.2929 8.29289C5.10536 8.48043 5.00001 8.73478 5.00001 9C5.00001 9.26522 5.10536 9.51957 5.2929 9.70711C5.48044 9.89464 5.73479 10 6.00001 10Z" fill="#343330"/>
</g>
</svg>
