<svg width="32" height="32" viewBox="0 0 32 32" fill="none" xmlns="http://www.w3.org/2000/svg">
<g id="icon/airplane.landing">
<path id="Vector" d="M32 27C32 27.2652 31.8946 27.5196 31.7071 27.7071C31.5196 27.8947 31.2652 28 31 28H13C12.7348 28 12.4804 27.8947 12.2929 27.7071C12.1054 27.5196 12 27.2652 12 27C12 26.7348 12.1054 26.4805 12.2929 26.2929C12.4804 26.1054 12.7348 26 13 26H31C31.2652 26 31.5196 26.1054 31.7071 26.2929C31.8946 26.4805 32 26.7348 32 27ZM28.73 23.9625L6.65125 17.78C5.60193 17.4835 4.67784 16.8531 4.01898 15.9842C3.36012 15.1154 3.0024 14.0554 3 12.965V6.00003C2.99998 5.68311 3.07527 5.37072 3.21967 5.08861C3.36407 4.80649 3.57344 4.56274 3.83054 4.37742C4.08763 4.19211 4.38509 4.07055 4.69838 4.02275C5.01168 3.97496 5.33185 4.0023 5.6325 4.10253L6.31625 4.33003C6.45965 4.37768 6.59039 4.45721 6.69864 4.56265C6.80689 4.66808 6.88984 4.79668 6.94125 4.93878L8.26625 8.61003L12 9.67378V6.00003C12 5.68311 12.0753 5.37072 12.2197 5.08861C12.3641 4.80649 12.5734 4.56274 12.8305 4.37742C13.0876 4.19211 13.3851 4.07055 13.6984 4.02275C14.0117 3.97496 14.3318 4.0023 14.6325 4.10253L15.3162 4.33003C15.4516 4.37512 15.5757 4.44865 15.6802 4.54567C15.7848 4.64269 15.8674 4.76095 15.9225 4.89253L18.735 11.5963L26.34 13.7213C27.3915 14.0166 28.3178 14.6469 28.9784 15.5166C29.639 16.3864 29.9977 17.4479 30 18.54V23C29.9999 23.1544 29.9642 23.3066 29.8955 23.4448C29.8268 23.583 29.727 23.7034 29.604 23.7966C29.481 23.8899 29.3381 23.9534 29.1865 23.9821C29.0348 24.0109 28.8786 24.0042 28.73 23.9625ZM28 18.54C27.9983 17.8846 27.7827 17.2477 27.3861 16.7259C26.9895 16.2041 26.4335 15.8259 25.8025 15.6488L17.7313 13.3988C17.5859 13.3583 17.4515 13.2854 17.3383 13.1856C17.2251 13.0858 17.1359 12.9617 17.0775 12.8225L14.25 6.08378L14 6.00003V11C14.0001 11.1548 13.9643 11.3074 13.8954 11.446C13.8265 11.5846 13.7263 11.7053 13.6029 11.7986C13.4794 11.8919 13.336 11.9552 13.1839 11.9837C13.0317 12.0121 12.8751 12.0049 12.7262 11.9625L7.22625 10.395C7.07354 10.3513 6.93345 10.2717 6.81759 10.1631C6.70173 10.0544 6.61343 9.91964 6.56 9.77003L5.22375 6.07378L5 6.00003V12.965C5.00162 13.6194 5.21637 14.2555 5.61174 14.7769C6.00711 15.2984 6.56159 15.6768 7.19125 15.855L28 21.6813V18.54Z" fill="#343330"/>
</g>
</svg>
