<svg width="32" height="32" viewBox="0 0 32 32" fill="none" xmlns="http://www.w3.org/2000/svg">
<g id="icon/arrow.elbow.left.down">
<path id="Vector" d="M30 9C30 9.26522 29.8947 9.51957 29.7071 9.70711C29.5196 9.89464 29.2652 10 29 10H12V24.5863L16.2925 20.2925C16.4801 20.1049 16.7346 19.9994 17 19.9994C17.2654 19.9994 17.5199 20.1049 17.7075 20.2925C17.8951 20.4801 18.0006 20.7346 18.0006 21C18.0006 21.2654 17.8951 21.5199 17.7075 21.7075L11.7075 27.7075C11.6146 27.8005 11.5043 27.8742 11.3829 27.9246C11.2615 27.9749 11.1314 28.0008 11 28.0008C10.8686 28.0008 10.7385 27.9749 10.6171 27.9246C10.4957 27.8742 10.3854 27.8005 10.2925 27.7075L4.29251 21.7075C4.1996 21.6146 4.1259 21.5043 4.07561 21.3829C4.02533 21.2615 3.99945 21.1314 3.99945 21C3.99945 20.8686 4.02533 20.7385 4.07561 20.6171C4.1259 20.4957 4.1996 20.3854 4.29251 20.2925C4.48015 20.1049 4.73464 19.9994 5.00001 19.9994C5.1314 19.9994 5.26151 20.0253 5.3829 20.0756C5.5043 20.1259 5.6146 20.1996 5.70751 20.2925L10 24.5863V9C10 8.73478 10.1054 8.48043 10.2929 8.29289C10.4804 8.10536 10.7348 8 11 8H29C29.2652 8 29.5196 8.10536 29.7071 8.29289C29.8947 8.48043 30 8.73478 30 9Z" fill="#343330"/>
</g>
</svg>
