<svg width="32" height="32" viewBox="0 0 32 32" fill="none" xmlns="http://www.w3.org/2000/svg">
<g id="icon/wifi.low">
<path id="Vector" d="M17.4999 25.5C17.4999 25.7966 17.4119 26.0867 17.2471 26.3333C17.0822 26.58 16.848 26.7723 16.5739 26.8858C16.2998 26.9993 15.9982 27.029 15.7072 26.9711C15.4163 26.9133 15.149 26.7704 14.9392 26.5606C14.7294 26.3509 14.5866 26.0836 14.5287 25.7926C14.4708 25.5016 14.5005 25.2 14.614 24.9259C14.7276 24.6519 14.9198 24.4176 15.1665 24.2528C15.4132 24.0879 15.7032 24 15.9999 24C16.3977 24 16.7792 24.158 17.0605 24.4393C17.3418 24.7206 17.4999 25.1021 17.4999 25.5ZM21.5886 19.8162C19.9643 18.6357 18.0079 17.9999 15.9999 17.9999C13.9919 17.9999 12.0354 18.6357 10.4111 19.8162C10.1966 19.9724 10.0529 20.2073 10.0117 20.4694C9.97043 20.7315 10.035 20.9992 10.1911 21.2137C10.3473 21.4282 10.5822 21.5719 10.8443 21.6132C11.1064 21.6544 11.3741 21.5899 11.5886 21.4337C12.8705 20.5014 14.4148 19.9993 15.9999 19.9993C17.5849 19.9993 19.1292 20.5014 20.4111 21.4337C20.5173 21.511 20.6377 21.5667 20.7654 21.5975C20.8931 21.6283 21.0257 21.6336 21.1554 21.6132C21.2852 21.5927 21.4097 21.5469 21.5218 21.4784C21.6338 21.4099 21.7313 21.3199 21.8086 21.2137C21.8859 21.1075 21.9416 20.9871 21.9724 20.8594C22.0031 20.7317 22.0085 20.5992 21.988 20.4694C21.9676 20.3396 21.9218 20.2152 21.8533 20.1031C21.7848 19.991 21.6948 19.8935 21.5886 19.8162Z" fill="#343330"/>
</g>
</svg>
