<svg width="32" height="32" viewBox="0 0 32 32" fill="none" xmlns="http://www.w3.org/2000/svg">
<g id="icon/rewind">
<path id="Vector" d="M27.9712 7.24995C27.6576 7.07849 27.3037 6.99419 26.9465 7.00584C26.5893 7.01749 26.2417 7.12466 25.9399 7.3162L15.9999 13.6425V8.97995C15.9985 8.62391 15.9015 8.27478 15.7191 7.96902C15.5366 7.66327 15.2755 7.41209 14.9628 7.24172C14.6502 7.07135 14.2975 6.98804 13.9417 7.00048C13.5859 7.01292 13.2399 7.12066 12.9399 7.31245L1.91618 14.3325C1.63532 14.5107 1.40403 14.757 1.24378 15.0485C1.08353 15.34 0.999512 15.6673 0.999512 16C0.999512 16.3326 1.08353 16.6599 1.24378 16.9514C1.40403 17.2429 1.63532 17.4892 1.91618 17.6675L12.9399 24.6875C13.2399 24.8792 13.5859 24.987 13.9417 24.9994C14.2975 25.0119 14.6502 24.9286 14.9628 24.7582C15.2755 24.5878 15.5366 24.3366 15.7191 24.0309C15.9015 23.7251 15.9985 23.376 15.9999 23.02V18.3575L25.9399 24.6875C26.2399 24.8792 26.5859 24.987 26.9417 24.9994C27.2975 25.0119 27.6502 24.9286 27.9628 24.7582C28.2755 24.5878 28.5366 24.3366 28.7191 24.0309C28.9015 23.7251 28.9985 23.376 28.9999 23.02V8.97995C28.9989 8.62593 28.9029 8.27867 28.722 7.97438C28.541 7.67009 28.2817 7.41992 27.9712 7.24995ZM13.9999 22.9912L3.02243 16L13.9999 9.00745V22.9912ZM26.9999 22.9912L16.0224 16L26.9999 9.00745V22.9912Z" fill="#343330"/>
</g>
</svg>
