<svg width="32" height="32" viewBox="0 0 32 32" fill="none" xmlns="http://www.w3.org/2000/svg">
<g id="icon/code.block">
<path id="Vector" d="M7.29255 12.7074L3.29255 8.70745C3.19958 8.61457 3.12582 8.50428 3.07549 8.38289C3.02517 8.26149 2.99927 8.13136 2.99927 7.99995C2.99927 7.86853 3.02517 7.7384 3.07549 7.61701C3.12582 7.49561 3.19958 7.38532 3.29255 7.29245L7.29255 3.29245C7.48019 3.1048 7.73469 2.99939 8.00005 2.99939C8.26542 2.99939 8.51991 3.1048 8.70755 3.29245C8.8952 3.48009 9.00061 3.73458 9.00061 3.99995C9.00061 4.26531 8.8952 4.5198 8.70755 4.70745L5.4138 7.99995L8.70755 11.2924C8.8952 11.4801 9.00061 11.7346 9.00061 11.9999C9.00061 12.2653 8.89519 12.5198 8.70755 12.7074C8.51991 12.8951 8.26542 13.0005 8.00005 13.0005C7.73469 13.0005 7.48019 12.8951 7.29255 12.7074ZM12.2926 12.7074C12.3854 12.8004 12.4957 12.8742 12.6171 12.9245C12.7385 12.9748 12.8686 13.0007 13.0001 13.0007C13.1315 13.0007 13.2616 12.9748 13.383 12.9245C13.5044 12.8742 13.6147 12.8004 13.7076 12.7074L17.7076 8.70745C17.8005 8.61457 17.8743 8.50428 17.9246 8.38289C17.9749 8.26149 18.0008 8.13136 18.0008 7.99995C18.0008 7.86853 17.9749 7.7384 17.9246 7.61701C17.8743 7.49561 17.8005 7.38532 17.7076 7.29245L13.7076 3.29245C13.5199 3.1048 13.2654 2.99939 13.0001 2.99939C12.7347 2.99939 12.4802 3.1048 12.2926 3.29245C12.1049 3.48009 11.9995 3.73458 11.9995 3.99995C11.9995 4.26531 12.1049 4.5198 12.2926 4.70745L15.5863 7.99995L12.2926 11.2924C12.1996 11.3853 12.1258 11.4956 12.0755 11.617C12.0252 11.7384 11.9993 11.8685 11.9993 11.9999C11.9993 12.1314 12.0252 12.2615 12.0755 12.3829C12.1258 12.5043 12.1996 12.6146 12.2926 12.7074ZM25.0001 4.99995H22.0001C21.7348 4.99995 21.4805 5.1053 21.2929 5.29284C21.1054 5.48038 21.0001 5.73473 21.0001 5.99995C21.0001 6.26516 21.1054 6.51952 21.2929 6.70705C21.4805 6.89459 21.7348 6.99995 22.0001 6.99995H25.0001V24.9999H7.00005V16.9999C7.00005 16.7347 6.8947 16.4804 6.70716 16.2928C6.51962 16.1053 6.26527 15.9999 6.00005 15.9999C5.73484 15.9999 5.48048 16.1053 5.29295 16.2928C5.10541 16.4804 5.00005 16.7347 5.00005 16.9999V24.9999C5.00005 25.5304 5.21077 26.0391 5.58584 26.4142C5.96091 26.7892 6.46962 26.9999 7.00005 26.9999H25.0001C25.5305 26.9999 26.0392 26.7892 26.4143 26.4142C26.7893 26.0391 27.0001 25.5304 27.0001 24.9999V6.99995C27.0001 6.46951 26.7893 5.9608 26.4143 5.58573C26.0392 5.21066 25.5305 4.99995 25.0001 4.99995Z" fill="#343330"/>
</g>
</svg>
