<svg width="32" height="32" viewBox="0 0 32 32" fill="none" xmlns="http://www.w3.org/2000/svg">
<g id="icon/aperture">
<path id="Vector" d="M25.1924 6.80754C22.7544 4.36953 19.4478 2.99988 15.9999 2.99988C12.5521 2.99988 9.24542 4.36953 6.80741 6.80754C4.36941 9.24554 2.99976 12.5522 2.99976 16C2.99976 19.4479 4.36941 22.7545 6.80741 25.1925C9.24542 27.6305 12.5521 29.0002 15.9999 29.0002C19.4478 29.0002 22.7544 27.6305 25.1924 25.1925C27.6304 22.7545 29.0001 19.4479 29.0001 16C29.0001 12.5522 27.6304 9.24554 25.1924 6.80754ZM23.7787 8.22254C24.2914 8.7375 24.752 9.30192 25.1537 9.90754L20.9437 14.875L17.4537 5.09754C19.8497 5.41053 22.0743 6.5096 23.7787 8.22254ZM19.4487 16.625L17.1787 19.2963L13.7299 18.6713L12.5512 15.375L14.8212 12.7038L18.2699 13.3288L19.4487 16.625ZM8.22116 8.22254C10.1097 6.32369 12.6304 5.18525 15.3037 5.02379L17.4924 11.1488L7.28741 9.29004C7.57538 8.91449 7.88727 8.55791 8.22116 8.22254ZM5.83116 20.1925C5.23775 18.7434 4.95907 17.1847 5.01359 15.6198C5.06811 14.0548 5.45459 12.5193 6.14741 11.115L12.5487 12.2838L5.83116 20.1925ZM8.22116 23.7775C7.70841 23.2626 7.24783 22.6982 6.84616 22.0925L11.0562 17.125L14.5462 26.8975C12.1507 26.5859 9.92627 25.4886 8.22116 23.7775ZM23.7787 23.7775C21.8901 25.6764 19.3694 26.8148 16.6962 26.9763L14.5074 20.8513L24.7124 22.715C24.4243 23.0889 24.1124 23.4438 23.7787 23.7775ZM19.4512 19.7163L26.1687 11.8075C26.7621 13.2566 27.0408 14.8153 26.9862 16.3803C26.9317 17.9452 26.5452 19.4807 25.8524 20.885L19.4512 19.7163Z" fill="#343330"/>
</g>
</svg>
