<svg width="32" height="32" viewBox="0 0 32 32" fill="none" xmlns="http://www.w3.org/2000/svg">
<g id="icon/lectern">
<path id="Vector" d="M30.7875 15.105L25.7875 5.10501C25.6224 4.77237 25.3674 4.4926 25.0515 4.29732C24.7356 4.10204 24.3714 3.99905 24 4.00001H8.00003C7.62865 3.99905 7.26442 4.10204 6.94853 4.29732C6.63264 4.4926 6.37769 4.77237 6.21253 5.10501L1.21253 15.105C1.05999 15.4098 0.987892 15.7486 1.00309 16.0892C1.01828 16.4297 1.12026 16.7607 1.29935 17.0507C1.47843 17.3408 1.72868 17.5802 2.02633 17.7464C2.32398 17.9125 2.65915 17.9998 3.00003 18H15V26H12C11.7348 26 11.4805 26.1054 11.2929 26.2929C11.1054 26.4804 11 26.7348 11 27C11 27.2652 11.1054 27.5196 11.2929 27.7071C11.4805 27.8946 11.7348 28 12 28H20C20.2652 28 20.5196 27.8946 20.7071 27.7071C20.8947 27.5196 21 27.2652 21 27C21 26.7348 20.8947 26.4804 20.7071 26.2929C20.5196 26.1054 20.2652 26 20 26H17V18H29C29.341 18 29.6763 17.9129 29.9742 17.7468C30.272 17.5808 30.5224 17.3414 30.7016 17.0513C30.8809 16.7612 30.983 16.4301 30.9982 16.0895C31.0135 15.7488 30.9414 15.4099 30.7888 15.105H30.7875ZM3.00003 16L8.00003 6.00001H24L29 16H3.00003ZM24 13C24 13.2652 23.8947 13.5196 23.7071 13.7071C23.5196 13.8946 23.2652 14 23 14H9.00003C8.73482 14 8.48046 13.8946 8.29292 13.7071C8.10539 13.5196 8.00003 13.2652 8.00003 13C8.00003 12.7348 8.10539 12.4804 8.29292 12.2929C8.48046 12.1054 8.73482 12 9.00003 12H23C23.2652 12 23.5196 12.1054 23.7071 12.2929C23.8947 12.4804 24 12.7348 24 13Z" fill="#343330"/>
</g>
</svg>
