<svg width="32" height="32" viewBox="0 0 32 32" fill="none" xmlns="http://www.w3.org/2000/svg">
<g id="icon/caret.double.up">
<path id="Vector" d="M26.7075 24.2926C26.8004 24.3855 26.8741 24.4958 26.9244 24.6172C26.9747 24.7386 27.0006 24.8687 27.0006 25.0001C27.0006 25.1314 26.9747 25.2616 26.9244 25.3829C26.8741 25.5043 26.8004 25.6146 26.7075 25.7076C26.6146 25.8005 26.5043 25.8742 26.3829 25.9244C26.2615 25.9747 26.1314 26.0006 26 26.0006C25.8686 26.0006 25.7385 25.9747 25.6171 25.9244C25.4957 25.8742 25.3854 25.8005 25.2925 25.7076L16 16.4138L6.70751 25.7076C6.51987 25.8952 6.26537 26.0006 6.00001 26.0006C5.73464 26.0006 5.48015 25.8952 5.29251 25.7076C5.10487 25.5199 4.99945 25.2654 4.99945 25.0001C4.99945 24.7347 5.10487 24.4802 5.29251 24.2926L15.2925 14.2926C15.3854 14.1996 15.4957 14.1258 15.6171 14.0755C15.7385 14.0252 15.8686 13.9993 16 13.9993C16.1314 13.9993 16.2615 14.0252 16.3829 14.0755C16.5043 14.1258 16.6146 14.1996 16.7075 14.2926L26.7075 24.2926ZM6.70751 15.7076L16 6.4138L25.2925 15.7076C25.3854 15.8005 25.4957 15.8742 25.6171 15.9244C25.7385 15.9747 25.8686 16.0006 26 16.0006C26.1314 16.0006 26.2615 15.9747 26.3829 15.9244C26.5043 15.8742 26.6146 15.8005 26.7075 15.7076C26.8004 15.6146 26.8741 15.5043 26.9244 15.383C26.9747 15.2616 27.0006 15.1314 27.0006 15.0001C27.0006 14.8687 26.9747 14.7386 26.9244 14.6172C26.8741 14.4958 26.8004 14.3855 26.7075 14.2926L16.7075 4.29255C16.6146 4.19958 16.5043 4.12582 16.3829 4.07549C16.2615 4.02517 16.1314 3.99927 16 3.99927C15.8686 3.99927 15.7385 4.02517 15.6171 4.07549C15.4957 4.12582 15.3854 4.19958 15.2925 4.29255L5.29251 14.2926C5.10487 14.4802 4.99945 14.7347 4.99945 15.0001C4.99945 15.2654 5.10487 15.5199 5.29251 15.7076C5.48015 15.8952 5.73464 16.0006 6.00001 16.0006C6.26537 16.0006 6.51987 15.8952 6.70751 15.7076Z" fill="#343330"/>
</g>
</svg>
