<svg width="32" height="32" viewBox="0 0 32 32" fill="none" xmlns="http://www.w3.org/2000/svg">
<g id="icon/arrows.out.line.horizontal">
<path id="Vector" d="M17 5V27C17 27.2652 16.8946 27.5196 16.7071 27.7071C16.5196 27.8946 16.2652 28 16 28C15.7348 28 15.4804 27.8946 15.2929 27.7071C15.1054 27.5196 15 27.2652 15 27V5C15 4.73478 15.1054 4.48043 15.2929 4.29289C15.4804 4.10536 15.7348 4 16 4C16.2652 4 16.5196 4.10536 16.7071 4.29289C16.8946 4.48043 17 4.73478 17 5ZM12 15H4.41374L6.70749 12.7075C6.89513 12.5199 7.00055 12.2654 7.00055 12C7.00055 11.7346 6.89513 11.4801 6.70749 11.2925C6.51985 11.1049 6.26536 10.9994 5.99999 10.9994C5.73463 10.9994 5.48013 11.1049 5.29249 11.2925L1.29249 15.2925C1.19952 15.3854 1.12576 15.4957 1.07543 15.6171C1.02511 15.7385 0.999207 15.8686 0.999207 16C0.999207 16.1314 1.02511 16.2615 1.07543 16.3829C1.12576 16.5043 1.19952 16.6146 1.29249 16.7075L5.29249 20.7075C5.48013 20.8951 5.73463 21.0006 5.99999 21.0006C6.26536 21.0006 6.51985 20.8951 6.70749 20.7075C6.89513 20.5199 7.00055 20.2654 7.00055 20C7.00055 19.7346 6.89513 19.4801 6.70749 19.2925L4.41374 17H12C12.2652 17 12.5196 16.8946 12.7071 16.7071C12.8946 16.5196 13 16.2652 13 16C13 15.7348 12.8946 15.4804 12.7071 15.2929C12.5196 15.1054 12.2652 15 12 15ZM30.7075 15.2925L26.7075 11.2925C26.5199 11.1049 26.2654 10.9994 26 10.9994C25.7346 10.9994 25.4801 11.1049 25.2925 11.2925C25.1049 11.4801 24.9994 11.7346 24.9994 12C24.9994 12.2654 25.1049 12.5199 25.2925 12.7075L27.5862 15H20C19.7348 15 19.4804 15.1054 19.2929 15.2929C19.1053 15.4804 19 15.7348 19 16C19 16.2652 19.1053 16.5196 19.2929 16.7071C19.4804 16.8946 19.7348 17 20 17H27.5862L25.2925 19.2925C25.1049 19.4801 24.9994 19.7346 24.9994 20C24.9994 20.2654 25.1049 20.5199 25.2925 20.7075C25.4801 20.8951 25.7346 21.0006 26 21.0006C26.2654 21.0006 26.5199 20.8951 26.7075 20.7075L30.7075 16.7075C30.8005 16.6146 30.8742 16.5043 30.9246 16.3829C30.9749 16.2615 31.0008 16.1314 31.0008 16C31.0008 15.8686 30.9749 15.7385 30.9246 15.6171C30.8742 15.4957 30.8005 15.3854 30.7075 15.2925Z" fill="#343330"/>
</g>
</svg>
