<svg width="32" height="32" viewBox="0 0 32 32" fill="none" xmlns="http://www.w3.org/2000/svg">
<g id="icon/onigiri">
<path id="Vector" d="M28.9413 18.3213L21.96 6.33255L21.9463 6.3088C21.3181 5.29749 20.4424 4.4631 19.4019 3.88453C18.3614 3.30596 17.1905 3.00232 16 3.00232C14.8095 3.00232 13.6386 3.30596 12.5981 3.88453C11.5577 4.4631 10.6819 5.29749 10.0538 6.3088L10.04 6.33255L3.05876 18.3213C2.40385 19.3815 2.04385 20.5973 2.01592 21.8432C1.98799 23.089 2.29315 24.3197 2.89989 25.4082C3.50663 26.4967 4.39295 27.4035 5.4673 28.0349C6.54165 28.6664 7.76509 28.9995 9.01126 29H22.9888C24.2349 28.9995 25.4584 28.6664 26.5327 28.0349C27.6071 27.4035 28.4934 26.4967 29.1001 25.4082C29.7069 24.3197 30.012 23.089 29.9841 21.8432C29.9562 20.5973 29.5962 19.3815 28.9413 18.3213ZM20 27H12V21H20V27ZM27.3575 24.4313C26.9295 25.2144 26.2972 25.8668 25.528 26.3191C24.7587 26.7715 23.8811 27.0068 22.9888 27H22V21C22 20.4696 21.7893 19.9609 21.4142 19.5858C21.0392 19.2108 20.5304 19 20 19H12C11.4696 19 10.9609 19.2108 10.5858 19.5858C10.2107 19.9609 10 20.4696 10 21V27H9.01126C8.11999 27.0003 7.24484 26.7623 6.47644 26.3107C5.70804 25.8592 5.07432 25.2104 4.64088 24.4316C4.20745 23.6528 3.99006 22.7723 4.01122 21.8813C4.03239 20.9903 4.29134 20.1211 4.76126 19.3638C4.76632 19.3557 4.77091 19.3474 4.77501 19.3388L11.7563 7.3513C12.2057 6.63217 12.8307 6.03917 13.5724 5.62807C14.3141 5.21697 15.1482 5.00128 15.9963 5.00128C16.8443 5.00128 17.6784 5.21697 18.4201 5.62807C19.1618 6.03917 19.7868 6.63217 20.2363 7.3513L27.2175 19.3388C27.2216 19.3474 27.2262 19.3557 27.2313 19.3638C27.7082 20.1183 27.9717 20.988 27.9937 21.8803C28.0157 22.7726 27.7954 23.6542 27.3563 24.4313H27.3575Z" fill="#343330"/>
</g>
</svg>
