<svg width="32" height="32" viewBox="0 0 32 32" fill="none" xmlns="http://www.w3.org/2000/svg">
<g id="icon/vector.three">
<path id="Vector" d="M29.7075 17.7076L25.7075 21.7076C25.5199 21.8952 25.2654 22.0006 25 22.0006C24.7346 22.0006 24.4801 21.8952 24.2925 21.7076C24.1049 21.5199 23.9994 21.2654 23.9994 21.0001C23.9994 20.7347 24.1049 20.4802 24.2925 20.2926L26.5863 18.0001H15.4137L8.41375 25.0001H12C12.2652 25.0001 12.5196 25.1054 12.7071 25.2929C12.8946 25.4805 13 25.7348 13 26.0001C13 26.2653 12.8946 26.5196 12.7071 26.7072C12.5196 26.8947 12.2652 27.0001 12 27.0001H6C5.73478 27.0001 5.48043 26.8947 5.29289 26.7072C5.10536 26.5196 5 26.2653 5 26.0001V20.0001C5 19.7348 5.10536 19.4805 5.29289 19.2929C5.48043 19.1054 5.73478 19.0001 6 19.0001C6.26522 19.0001 6.51957 19.1054 6.70711 19.2929C6.89464 19.4805 7 19.7348 7 20.0001V23.5863L14 16.5863V5.4138L11.7075 7.70755C11.5199 7.8952 11.2654 8.00061 11 8.00061C10.7346 8.00061 10.4801 7.8952 10.2925 7.70755C10.1049 7.51991 9.99944 7.26542 9.99944 7.00005C9.99944 6.73469 10.1049 6.4802 10.2925 6.29255L14.2925 2.29255C14.3854 2.19958 14.4957 2.12582 14.6171 2.07549C14.7385 2.02517 14.8686 1.99927 15 1.99927C15.1314 1.99927 15.2615 2.02517 15.3829 2.07549C15.5043 2.12582 15.6146 2.19958 15.7075 2.29255L19.7075 6.29255C19.8951 6.4802 20.0006 6.73469 20.0006 7.00005C20.0006 7.26542 19.8951 7.51991 19.7075 7.70755C19.5199 7.8952 19.2654 8.00061 19 8.00061C18.7346 8.00061 18.4801 7.89519 18.2925 7.70755L16 5.4138V16.0001H26.5863L24.2925 13.7076C24.1049 13.5199 23.9994 13.2654 23.9994 13.0001C23.9994 12.7347 24.1049 12.4802 24.2925 12.2926C24.4801 12.1049 24.7346 11.9995 25 11.9995C25.2654 11.9995 25.5199 12.1049 25.7075 12.2926L29.7075 16.2926C29.8005 16.3854 29.8742 16.4957 29.9246 16.6171C29.9749 16.7385 30.0008 16.8686 30.0008 17.0001C30.0008 17.1315 29.9749 17.2616 29.9246 17.383C29.8742 17.5044 29.8005 17.6147 29.7075 17.7076Z" fill="#343330"/>
</g>
</svg>
