<svg width="32" height="32" viewBox="0 0 32 32" fill="none" xmlns="http://www.w3.org/2000/svg">
<g id="icon/arrow.up">
<path id="Vector" d="M25.7075 14.7075C25.6146 14.8005 25.5043 14.8742 25.3829 14.9246C25.2615 14.9749 25.1314 15.0008 25 15.0008C24.8686 15.0008 24.7385 14.9749 24.6171 14.9246C24.4957 14.8742 24.3854 14.8005 24.2925 14.7075L17 7.41374V27C17 27.2652 16.8947 27.5196 16.7071 27.7071C16.5196 27.8946 16.2652 28 16 28C15.7348 28 15.4804 27.8946 15.2929 27.7071C15.1054 27.5196 15 27.2652 15 27V7.41374L7.70751 14.7075C7.51987 14.8951 7.26537 15.0005 7.00001 15.0005C6.73464 15.0005 6.48015 14.8951 6.29251 14.7075C6.10487 14.5199 5.99945 14.2654 5.99945 14C5.99945 13.7346 6.10487 13.4801 6.29251 13.2925L15.2925 4.29249C15.3854 4.19952 15.4957 4.12576 15.6171 4.07543C15.7385 4.02511 15.8686 3.99921 16 3.99921C16.1314 3.99921 16.2615 4.02511 16.3829 4.07543C16.5043 4.12576 16.6146 4.19952 16.7075 4.29249L25.7075 13.2925C25.8005 13.3854 25.8742 13.4957 25.9246 13.6171C25.9749 13.7385 26.0008 13.8686 26.0008 14C26.0008 14.1314 25.9749 14.2615 25.9246 14.3829C25.8742 14.5043 25.8005 14.6146 25.7075 14.7075Z" fill="#343330"/>
</g>
</svg>
