<svg width="32" height="32" viewBox="0 0 32 32" fill="none" xmlns="http://www.w3.org/2000/svg">
<g id="icon/arrow.uleft.down">
<path id="Vector" d="M26 11V22C26 22.2652 25.8947 22.5196 25.7071 22.7071C25.5196 22.8946 25.2652 23 25 23C24.7348 23 24.4804 22.8946 24.2929 22.7071C24.1054 22.5196 24 22.2652 24 22V11C24 9.4087 23.3679 7.88258 22.2426 6.75736C21.1174 5.63214 19.5913 5 18 5C16.4087 5 14.8826 5.63214 13.7574 6.75736C12.6321 7.88258 12 9.4087 12 11V25.5863L16.2925 21.2925C16.4801 21.1049 16.7346 20.9994 17 20.9994C17.2654 20.9994 17.5199 21.1049 17.7075 21.2925C17.8951 21.4801 18.0006 21.7346 18.0006 22C18.0006 22.2654 17.8951 22.5199 17.7075 22.7075L11.7075 28.7075C11.6146 28.8005 11.5043 28.8742 11.3829 28.9246C11.2615 28.9749 11.1314 29.0008 11 29.0008C10.8686 29.0008 10.7385 28.9749 10.6171 28.9246C10.4957 28.8742 10.3854 28.8005 10.2925 28.7075L4.29251 22.7075C4.1996 22.6146 4.1259 22.5043 4.07561 22.3829C4.02533 22.2615 3.99945 22.1314 3.99945 22C3.99945 21.8686 4.02533 21.7385 4.07561 21.6171C4.1259 21.4957 4.1996 21.3854 4.29251 21.2925C4.48015 21.1049 4.73464 20.9994 5.00001 20.9994C5.1314 20.9994 5.26151 21.0253 5.3829 21.0756C5.5043 21.1259 5.6146 21.1996 5.70751 21.2925L10 25.5863V11C10 8.87827 10.8429 6.84344 12.3432 5.34315C13.8434 3.84285 15.8783 3 18 3C20.1217 3 22.1566 3.84285 23.6569 5.34315C25.1572 6.84344 26 8.87827 26 11Z" fill="#343330"/>
</g>
</svg>
