<svg width="32" height="32" viewBox="0 0 32 32" fill="none" xmlns="http://www.w3.org/2000/svg">
<g id="icon/pinterest.logo">
<path id="Vector" d="M28 14C28 16.8212 27.0125 19.4 25.2213 21.2637C23.5488 23 21.2813 24 19 24C16.765 24 15.2725 23.2675 14.3213 22.5L12.9738 28.2275C12.9224 28.4472 12.7983 28.6431 12.6215 28.7834C12.4447 28.9236 12.2257 29 12 29C11.9226 28.9999 11.8454 28.9911 11.77 28.9737C11.6417 28.9443 11.5204 28.8897 11.4132 28.8133C11.306 28.7369 11.2149 28.64 11.1452 28.5283C11.0755 28.4165 11.0286 28.2921 11.0071 28.1622C10.9856 28.0323 10.99 27.8994 11.02 27.7712L15.02 10.7712C15.0807 10.513 15.2414 10.2894 15.467 10.1497C15.6925 10.0099 15.9642 9.96554 16.2225 10.0262C16.4808 10.0869 16.7043 10.2477 16.844 10.4732C16.9838 10.6987 17.0282 10.9705 16.9675 11.2287L14.855 20.2037C15.25 20.75 16.4125 22 19 22C22.4413 22 26 19.0075 26 14C25.9995 12.6198 25.6815 11.2582 25.0707 10.0206C24.4599 8.78291 23.5727 7.7023 22.4776 6.8623C21.3825 6.0223 20.1088 5.44542 18.7552 5.17627C17.4015 4.90711 16.004 4.95289 14.6709 5.31006C13.3377 5.66724 12.1046 6.32624 11.0668 7.23611C10.029 8.14597 9.21439 9.28234 8.68591 10.5573C8.15744 11.8323 7.92928 13.2118 8.01907 14.589C8.10886 15.9662 8.5142 17.3044 9.20375 18.5C9.32814 18.729 9.35817 18.9976 9.28744 19.2485C9.21672 19.4994 9.05084 19.7127 8.82513 19.8431C8.59942 19.9735 8.33173 20.0105 8.07907 19.9465C7.82642 19.8824 7.60877 19.7222 7.4725 19.5C6.62929 18.0387 6.13348 16.4031 6.02343 14.7196C5.91338 13.0362 6.19203 11.3499 6.83783 9.79135C7.48362 8.23278 8.47927 6.84363 9.74775 5.73135C11.0162 4.61908 12.5236 3.81347 14.1531 3.37685C15.7827 2.94023 17.4909 2.88429 19.1456 3.21336C20.8003 3.54243 22.3571 4.24769 23.6956 5.27459C25.0341 6.3015 26.1185 7.62253 26.8649 9.13551C27.6113 10.6485 27.9997 12.3129 28 14Z" fill="#343330"/>
</g>
</svg>
