<svg width="32" height="32" viewBox="0 0 32 32" fill="none" xmlns="http://www.w3.org/2000/svg">
<g id="icon/grains.slash">
<path id="Vector" d="M6.74001 4.32745C6.65219 4.22846 6.5456 4.14788 6.42641 4.09039C6.30722 4.03289 6.1778 3.99963 6.04566 3.99252C5.91352 3.98541 5.78129 4.0046 5.65662 4.04897C5.53195 4.09335 5.41733 4.16202 5.3194 4.25102C5.22146 4.34002 5.14217 4.44757 5.08611 4.56744C5.03005 4.68731 4.99834 4.81712 4.99282 4.94933C4.98729 5.08155 5.00806 5.21355 5.05393 5.33767C5.09979 5.4618 5.16984 5.57559 5.26001 5.67245L6.47626 7.0112C6.31792 7.0037 6.15917 6.99995 6.00001 6.99995C5.73479 6.99995 5.48044 7.10531 5.2929 7.29284C5.10536 7.48038 5.00001 7.73473 5.00001 7.99995V18C5.00332 20.9163 6.1633 23.7123 8.22549 25.7745C10.2877 27.8367 13.0836 28.9966 16 29C18.8563 29.0022 21.6009 27.891 23.6513 25.9025L25.26 27.6725C25.3478 27.7714 25.4544 27.852 25.5736 27.9095C25.6928 27.967 25.8222 28.0003 25.9544 28.0074C26.0865 28.0145 26.2187 27.9953 26.3434 27.9509C26.4681 27.9065 26.5827 27.8379 26.6806 27.7489C26.7786 27.6599 26.8578 27.5523 26.9139 27.4325C26.97 27.3126 27.0017 27.1828 27.0072 27.0506C27.0127 26.9184 26.992 26.7864 26.9461 26.6622C26.9002 26.5381 26.8302 26.4243 26.74 26.3274L6.74001 4.32745ZM17.0363 18.625C16.6352 19.1898 16.2882 19.7912 16 20.4212C15.1921 18.6616 13.9349 17.1459 12.3549 16.0268C10.7749 14.9076 8.92797 14.2245 7.00001 14.0462V9.05495C7.55879 9.11732 8.11041 9.23241 8.64751 9.3987L17.0363 18.625ZM15 26.945C12.8009 26.6963 10.7701 25.6472 9.29474 23.9976C7.81937 22.3479 7.00257 20.2131 7.00001 18V16.0549C9.19914 16.3036 11.2299 17.3527 12.7053 19.0023C14.1806 20.652 14.9974 22.7868 15 25V26.945ZM17 26.945V25C17.0008 23.2805 17.4935 21.5972 18.42 20.1487L22.305 24.4225C20.8694 25.8342 19.0011 26.7225 17 26.945ZM27 18C27.0005 18.9882 26.8681 19.972 26.6063 20.9249C26.5482 21.1361 26.4225 21.3223 26.2484 21.4551C26.0743 21.5879 25.8615 21.6598 25.6425 21.66C25.5521 21.6608 25.4621 21.649 25.375 21.625C25.1195 21.5546 24.9023 21.3856 24.7713 21.1552C24.6403 20.9248 24.6061 20.6518 24.6763 20.3962C24.8907 19.6155 24.9995 18.8096 25 18V16.0537C23.9296 16.1705 22.8894 16.481 21.93 16.9699C21.8125 17.0341 21.6834 17.0741 21.5502 17.0874C21.417 17.1008 21.2824 17.0872 21.1546 17.0476C21.0267 17.008 20.9081 16.9431 20.8057 16.8568C20.7034 16.7705 20.6194 16.6645 20.5588 16.5451C20.4982 16.4257 20.4622 16.2954 20.4529 16.1619C20.4436 16.0283 20.4612 15.8943 20.5047 15.7677C20.5482 15.641 20.6166 15.5245 20.706 15.4248C20.7954 15.3251 20.9039 15.2444 21.025 15.1874C22.2643 14.5548 23.6139 14.1669 25 14.0449V9.0562C23.7538 9.19791 22.5506 9.59737 21.4671 10.2292C20.3836 10.861 19.4434 11.7114 18.7063 12.7262C18.6292 12.8329 18.5319 12.9234 18.4198 12.9925C18.3078 13.0615 18.1832 13.1079 18.0533 13.1288C17.9234 13.1498 17.7906 13.1449 17.6625 13.1146C17.5344 13.0842 17.4136 13.0289 17.3069 12.9518C17.2002 12.8748 17.1097 12.7774 17.0406 12.6654C16.9715 12.5534 16.9252 12.4288 16.9042 12.2989C16.8833 12.1689 16.8881 12.0361 16.9185 11.9081C16.9489 11.78 17.0042 11.6591 17.0813 11.5524C17.9288 10.3851 18.9974 9.39555 20.2263 8.63995C19.0775 6.22495 16.9313 4.71745 16 4.14995C14.9026 4.82537 13.916 5.6661 13.075 6.64245C12.9916 6.74695 12.888 6.83365 12.7705 6.89743C12.653 6.96122 12.5239 7.00078 12.3908 7.01379C12.2577 7.0268 12.1234 7.01298 11.9957 6.97317C11.8681 6.93335 11.7497 6.86833 11.6476 6.78197C11.5455 6.6956 11.4618 6.58964 11.4014 6.47035C11.341 6.35106 11.3051 6.22087 11.2959 6.08747C11.2867 5.95408 11.3043 5.82019 11.3477 5.69372C11.3912 5.56726 11.4595 5.45079 11.5488 5.3512C12.6701 4.03033 14.0263 2.92843 15.5488 2.1012C15.6877 2.03168 15.8409 1.99548 15.9963 1.99548C16.1516 1.99548 16.3048 2.03168 16.4438 2.1012C16.6088 2.1837 20.2275 4.02995 22.0175 7.74495C23.2874 7.25192 24.6378 6.99929 26 6.99995C26.2652 6.99995 26.5196 7.10531 26.7071 7.29284C26.8947 7.48038 27 7.73473 27 7.99995V18Z" fill="#343330"/>
</g>
</svg>
