<svg width="32" height="32" viewBox="0 0 32 32" fill="none" xmlns="http://www.w3.org/2000/svg">
<g id="icon/scribble.loop">
<path id="Vector" d="M31.7412 19.3288C31.5762 19.1463 28.73 16.0513 24.1162 14.2587C23.9012 11.9563 23.0587 9.8625 21.69 8.26875C19.8587 6.125 17.1975 5 14 5C7.55995 5 3.3612 10.7725 3.1862 11.0188C3.04295 11.2346 2.98906 11.4976 3.03588 11.7524C3.08269 12.0072 3.22655 12.2339 3.43717 12.3847C3.64779 12.5356 3.90872 12.5988 4.16502 12.561C4.42131 12.5233 4.65297 12.3876 4.8112 12.1825C4.84995 12.1312 8.6012 7 14 7C16.5962 7 18.7325 7.88875 20.1762 9.57125C21.1037 10.6512 21.7312 12.0325 22.01 13.5712C20.5619 13.1931 19.0716 13.0012 17.575 13C14.3175 13 11.5837 13.8513 9.66745 15.4613C7.97245 16.8863 6.99995 18.875 6.99995 20.9062C6.99224 21.6952 7.14155 22.4778 7.4392 23.2086C7.73685 23.9393 8.17689 24.6035 8.7337 25.1625C9.9412 26.365 11.6162 27 13.575 27C20.0512 27 23.7225 21.7337 24.1362 16.4475C26.422 17.4636 28.499 18.8959 30.2612 20.6712C30.3494 20.7686 30.4558 20.8476 30.5745 20.9038C30.6932 20.96 30.8218 20.9923 30.953 20.9988C31.0841 21.0053 31.2153 20.9859 31.3389 20.9417C31.4626 20.8975 31.5764 20.8294 31.6737 20.7412C31.771 20.6531 31.8501 20.5466 31.9063 20.4279C31.9625 20.3093 31.9947 20.1807 32.0012 20.0495C32.0077 19.9183 31.9883 19.7872 31.9442 19.6635C31.9 19.5398 31.8319 19.4261 31.7437 19.3288H31.7412ZM19.9337 22.0338C18.83 23.3862 16.8325 25 13.575 25C10.415 25 8.99995 22.9438 8.99995 20.9062C8.99995 18.0612 11.6837 15 17.575 15C19.1344 15.0047 20.6842 15.244 22.1725 15.71C22.1162 18.055 21.3075 20.3475 19.9337 22.0338Z" fill="#343330"/>
</g>
</svg>
