<svg width="32" height="32" viewBox="0 0 32 32" fill="none" xmlns="http://www.w3.org/2000/svg">
<g id="icon/cable.car">
<path id="Vector" d="M30.9837 3.82381C30.9368 3.56297 30.7883 3.33142 30.5708 3.18001C30.3533 3.0286 30.0845 2.96972 29.8237 3.01631L1.82366 8.01631C1.57838 8.06107 1.35866 8.19584 1.2076 8.3942C1.05654 8.59257 0.985034 8.84021 1.0071 9.08856C1.02917 9.33692 1.14321 9.56807 1.32688 9.73669C1.51055 9.90531 1.75058 9.99924 1.99991 10.0001C2.05939 9.99998 2.11876 9.99496 2.17741 9.98506L14.9999 7.69381V12.0001H7.99991C6.93905 12.0001 5.92163 12.4215 5.17148 13.1716C4.42134 13.9218 3.99991 14.9392 3.99991 16.0001V24.0001C3.99991 25.0609 4.42134 26.0783 5.17148 26.8285C5.92163 27.5786 6.93905 28.0001 7.99991 28.0001H23.9999C25.0608 28.0001 26.0782 27.5786 26.8283 26.8285C27.5785 26.0783 27.9999 25.0609 27.9999 24.0001V16.0001C27.9999 14.9392 27.5785 13.9218 26.8283 13.1716C26.0782 12.4215 25.0608 12.0001 23.9999 12.0001H16.9999V7.33756L30.1749 4.98506C30.3043 4.96199 30.4279 4.91364 30.5386 4.84278C30.6493 4.77192 30.7449 4.67993 30.82 4.57208C30.8951 4.46423 30.9482 4.34263 30.9763 4.21423C31.0044 4.08584 31.0069 3.95317 30.9837 3.82381ZM12.9999 20.0001V14.0001H18.9999V20.0001H12.9999ZM7.99991 14.0001H10.9999V20.0001H5.99991V16.0001C5.99991 15.4696 6.21062 14.9609 6.5857 14.5858C6.96077 14.2108 7.46948 14.0001 7.99991 14.0001ZM23.9999 26.0001H7.99991C7.46948 26.0001 6.96077 25.7893 6.5857 25.4143C6.21062 25.0392 5.99991 24.5305 5.99991 24.0001V22.0001H25.9999V24.0001C25.9999 24.5305 25.7892 25.0392 25.4141 25.4143C25.0391 25.7893 24.5303 26.0001 23.9999 26.0001ZM25.9999 16.0001V20.0001H20.9999V14.0001H23.9999C24.5303 14.0001 25.0391 14.2108 25.4141 14.5858C25.7892 14.9609 25.9999 15.4696 25.9999 16.0001Z" fill="#343330"/>
</g>
</svg>
