<svg width="32" height="32" viewBox="0 0 32 32" fill="none" xmlns="http://www.w3.org/2000/svg">
<g id="icon/wifi.slash">
<path id="Vector" d="M26.74 26.3275C26.8301 26.4243 26.9002 26.5381 26.946 26.6622C26.9919 26.7864 27.0127 26.9184 27.0072 27.0506C27.0016 27.1828 26.9699 27.3126 26.9139 27.4325C26.8578 27.5523 26.7785 27.6599 26.6806 27.7489C26.5827 27.8379 26.468 27.9066 26.3434 27.9509C26.2187 27.9953 26.0865 28.0145 25.9543 28.0074C25.8222 28.0003 25.6928 27.967 25.5736 27.9095C25.4544 27.852 25.3478 27.7715 25.26 27.6725L18.76 20.5287C17.5845 20.0623 16.3102 19.9007 15.0555 20.059C13.8009 20.2172 12.6066 20.6901 11.5837 21.4337C11.4778 21.5138 11.3569 21.5719 11.2283 21.6048C11.0996 21.6377 10.9657 21.6446 10.8343 21.6251C10.703 21.6057 10.5768 21.5603 10.4632 21.4915C10.3495 21.4228 10.2507 21.3321 10.1726 21.2248C10.0944 21.1174 10.0383 20.9956 10.0077 20.8664C9.97711 20.7371 9.97255 20.6031 9.99431 20.4721C10.0161 20.3411 10.0637 20.2157 10.1344 20.1033C10.2051 19.991 10.2975 19.8938 10.4062 19.8175C12.0293 18.6307 13.9893 17.9939 16 18C16.16 18 16.3187 18 16.4775 18.0125L13.1125 14.3112C11.1094 14.7507 9.23273 15.6407 7.62497 16.9137C7.52187 16.9958 7.40355 17.0567 7.27683 17.093C7.1501 17.1292 7.01746 17.14 6.88654 17.1248C6.75563 17.1096 6.629 17.0686 6.51397 17.0043C6.39893 16.94 6.29774 16.8535 6.21622 16.75C6.0514 16.5427 5.97555 16.2784 6.00531 16.0153C6.03507 15.7521 6.16801 15.5115 6.37497 15.3462C7.92485 14.1203 9.69441 13.2014 11.5887 12.6387L8.67122 9.42496C6.8504 10.1645 5.15233 11.176 3.63497 12.425C3.5332 12.5084 3.41599 12.5709 3.29005 12.609C3.16411 12.6471 3.03191 12.66 2.90098 12.647C2.77004 12.634 2.64296 12.5953 2.52697 12.5332C2.41098 12.4711 2.30836 12.3867 2.22497 12.285C2.14158 12.1832 2.07905 12.066 2.04096 11.94C2.00287 11.8141 1.98995 11.6819 2.00295 11.551C2.0292 11.2865 2.15943 11.0434 2.36497 10.875C3.85095 9.65508 5.49396 8.64019 7.24997 7.85746L5.25997 5.67246C5.1698 5.5756 5.09976 5.46181 5.05389 5.33769C5.00803 5.21356 4.98725 5.08156 4.99278 4.94934C4.9983 4.81713 5.03001 4.68732 5.08607 4.56746C5.14213 4.44759 5.22143 4.34003 5.31936 4.25104C5.41729 4.16204 5.53191 4.09336 5.65658 4.04899C5.78125 4.00461 5.91349 3.98542 6.04563 3.99253C6.17777 3.99964 6.30718 4.03291 6.42637 4.0904C6.54556 4.14789 6.65215 4.22847 6.73997 4.32746L26.74 26.3275ZM16 24C15.7033 24 15.4133 24.0879 15.1666 24.2528C14.9199 24.4176 14.7277 24.6518 14.6142 24.9259C14.5006 25.2 14.4709 25.5016 14.5288 25.7926C14.5867 26.0836 14.7295 26.3508 14.9393 26.5606C15.1491 26.7704 15.4164 26.9133 15.7073 26.9711C15.9983 27.029 16.2999 26.9993 16.574 26.8858C16.8481 26.7722 17.0824 26.58 17.2472 26.3333C17.412 26.0866 17.5 25.7966 17.5 25.5C17.5 25.1021 17.3419 24.7206 17.0606 24.4393C16.7793 24.158 16.3978 24 16 24ZM29.635 10.875C27.3674 9.01787 24.7446 7.64316 21.9272 6.83501C19.1099 6.02685 16.1572 5.80225 13.25 6.17496C13.1173 6.1885 12.9888 6.22842 12.8718 6.29237C12.7548 6.35632 12.6518 6.44301 12.5688 6.54735C12.4859 6.65169 12.4246 6.77157 12.3886 6.89993C12.3526 7.0283 12.3427 7.16256 12.3594 7.29483C12.376 7.42709 12.419 7.55469 12.4857 7.67012C12.5524 7.78554 12.6415 7.88647 12.7478 7.96696C12.854 8.04745 12.9753 8.10587 13.1045 8.1388C13.2337 8.17173 13.3681 8.1785 13.5 8.15871C14.3291 8.05306 15.1641 8.00003 16 7.99996C20.5084 8.00243 24.8771 9.56452 28.365 12.4212C28.57 12.5896 28.8336 12.6697 29.0976 12.6438C29.3617 12.6179 29.6047 12.4881 29.7731 12.2831C29.9415 12.078 30.0216 11.8145 29.9957 11.5504C29.9698 11.2863 29.84 11.0434 29.635 10.875ZM24.375 16.9137C24.4779 16.9953 24.5959 17.0558 24.7222 17.0918C24.8485 17.1278 24.9807 17.1386 25.1111 17.1235C25.2416 17.1084 25.3678 17.0678 25.4826 17.0039C25.5973 16.94 25.6984 16.8541 25.78 16.7512C25.8616 16.6483 25.9221 16.5303 25.9581 16.404C25.9941 16.2777 26.0048 16.1455 25.9897 16.0151C25.9747 15.8846 25.934 15.7584 25.8701 15.6436C25.8063 15.5288 25.7204 15.4278 25.6175 15.3462C23.7262 13.8495 21.5123 12.8138 19.1512 12.3212C19.0213 12.2913 18.8867 12.2877 18.7553 12.3106C18.624 12.3336 18.4985 12.3825 18.3863 12.4546C18.2742 12.5267 18.1776 12.6205 18.1022 12.7305C18.0268 12.8405 17.9742 12.9645 17.9475 13.0951C17.9207 13.2257 17.9203 13.3604 17.9464 13.4911C17.9724 13.6219 18.0244 13.7462 18.0992 13.8566C18.1739 13.967 18.27 14.0613 18.3818 14.134C18.4936 14.2067 18.6187 14.2563 18.75 14.28C20.804 14.7093 22.7299 15.611 24.375 16.9137Z" fill="#343330"/>
</g>
</svg>
