<svg width="32" height="32" viewBox="0 0 32 32" fill="none" xmlns="http://www.w3.org/2000/svg">
<g id="icon/arrow.fat.up">
<path id="Vector" d="M28.7075 14.2925L16.7075 2.29249C16.6146 2.19952 16.5043 2.12576 16.3829 2.07543C16.2615 2.02511 16.1314 1.99921 16 1.99921C15.8686 1.99921 15.7385 2.02511 15.6171 2.07543C15.4957 2.12576 15.3854 2.19952 15.2925 2.29249L3.29249 14.2925C3.15248 14.4323 3.05712 14.6106 3.01846 14.8047C2.97981 14.9988 2.99962 15.2 3.07537 15.3828C3.15112 15.5656 3.27942 15.7218 3.44401 15.8317C3.60861 15.9416 3.8021 16.0001 3.99999 16H8.99999V26C8.99999 26.5304 9.21071 27.0391 9.58578 27.4142C9.96085 27.7893 10.4696 28 11 28H21C21.5304 28 22.0391 27.7893 22.4142 27.4142C22.7893 27.0391 23 26.5304 23 26V16H28C28.1979 16.0001 28.3914 15.9416 28.556 15.8317C28.7206 15.7218 28.8489 15.5656 28.9246 15.3828C29.0004 15.2 29.0202 14.9988 28.9815 14.8047C28.9429 14.6106 28.8475 14.4323 28.7075 14.2925ZM22 14C21.7348 14 21.4804 14.1054 21.2929 14.2929C21.1054 14.4804 21 14.7348 21 15V26H11V15C11 14.7348 10.8946 14.4804 10.7071 14.2929C10.5196 14.1054 10.2652 14 9.99999 14H6.41374L16 4.41374L25.5862 14H22Z" fill="#343330"/>
</g>
</svg>
