<svg width="32" height="32" viewBox="0 0 32 32" fill="none" xmlns="http://www.w3.org/2000/svg">
<g id="icon/cherries">
<path id="Vector" d="M22 8.99999C21.6759 9.0003 21.3521 9.01825 21.03 9.05374C20.3271 7.85218 19.4113 6.78859 18.3275 5.91499C13.5975 2.09874 7.13124 2.97124 6.85874 3.00999C6.6581 3.03844 6.47084 3.12719 6.32176 3.26446C6.17269 3.40174 6.06884 3.58107 6.02397 3.77869C5.97911 3.97631 5.99534 4.1829 6.07053 4.37109C6.14572 4.55928 6.27631 4.72018 6.44499 4.83249C8.63249 6.28999 9.63374 8.70749 10.0512 11.05C8.59386 11.202 7.19565 11.7076 5.97806 12.5228C4.76048 13.338 3.76035 14.4382 3.06456 15.7278C2.36877 17.0173 1.99836 18.4573 1.98551 19.9225C1.97267 21.3877 2.31777 22.8339 2.99084 24.1355C3.66391 25.437 4.6446 26.5546 5.8477 27.391C7.05081 28.2274 8.43994 28.7575 9.89443 28.9351C11.3489 29.1126 12.8248 28.9324 14.1938 28.41C15.5628 27.8876 16.7835 27.0389 17.75 25.9375C18.9562 26.5822 20.2935 26.9434 21.6603 26.9939C23.0271 27.0443 24.3874 26.7826 25.6379 26.2285C26.8883 25.6745 27.9961 24.8428 28.877 23.7965C29.7578 22.7502 30.3887 21.517 30.7216 20.1904C31.0544 18.8638 31.0806 17.4788 30.798 16.1406C30.5154 14.8024 29.9316 13.5462 29.0908 12.4674C28.2501 11.3887 27.1745 10.5157 25.9458 9.91489C24.7171 9.31407 23.3677 9.00118 22 8.99999ZM9.49999 4.92124C11.5837 5.01124 14.655 5.51874 17.08 7.48124C17.803 8.06804 18.4349 8.7589 18.955 9.53124C17.5221 10.0478 16.2432 10.9186 15.2375 12.0625C14.2577 11.5357 13.1881 11.1965 12.0837 11.0625C11.6925 8.57374 10.82 6.49999 9.49999 4.92124ZM11 27C9.20651 26.9991 7.48179 26.3098 6.18167 25.0744C4.88156 23.8389 4.10523 22.1516 4.01287 20.3605C3.92051 18.5694 4.51916 16.8111 5.6853 15.4485C6.85144 14.0859 8.49611 13.2229 10.28 13.0375C10.3527 14.3336 10.3109 15.6337 10.155 16.9225C9.20749 16.7437 8.73624 16.3162 8.71124 16.2975C8.61833 16.2046 8.50803 16.1309 8.38664 16.0806C8.26525 16.0303 8.13514 16.0044 8.00374 16.0044C7.87235 16.0044 7.74224 16.0303 7.62085 16.0806C7.49945 16.1309 7.38915 16.2046 7.29624 16.2975C7.20333 16.3904 7.12963 16.5007 7.07935 16.6221C7.02907 16.7435 7.00319 16.8736 7.00319 17.005C7.00319 17.1364 7.02907 17.2665 7.07935 17.3879C7.12963 17.5093 7.20333 17.6196 7.29624 17.7125C7.42499 17.8387 8.64999 19 10.99 19H11.0212C13.3537 18.9937 14.575 17.84 14.7075 17.7087C14.8004 17.6158 14.8741 17.5055 14.9244 17.3841C14.9747 17.2627 15.0006 17.1326 15.0006 17.0012C15.0006 16.8698 14.9747 16.7397 14.9244 16.6183C14.8741 16.4969 14.8004 16.3866 14.7075 16.2937C14.6146 16.2008 14.5043 16.1271 14.3829 16.0768C14.2615 16.0266 14.1314 16.0007 14 16.0007C13.8686 16.0007 13.7385 16.0266 13.6171 16.0768C13.4957 16.1271 13.3854 16.2008 13.2925 16.2937C12.9671 16.5606 12.5854 16.7503 12.1762 16.8487C12.3123 15.6124 12.3511 14.3674 12.2925 13.125C14.0014 13.4523 15.5271 14.4043 16.5722 15.7953C17.6174 17.1864 18.107 18.9169 17.9456 20.6493C17.7842 22.3817 16.9834 23.992 15.6993 25.1661C14.4152 26.3402 12.7399 26.994 11 27ZM18.125 14.5137C17.76 14.04 17.3488 13.6037 16.8975 13.2112C17.7264 12.3291 18.7693 11.6763 19.925 11.3162C20.3974 12.4502 20.7168 13.6418 20.875 14.86C20.1137 14.66 19.73 14.3137 19.7087 14.2925C19.5993 14.1825 19.4658 14.0996 19.3188 14.0501C19.1718 14.0006 19.0152 13.9861 18.8616 14.0075C18.708 14.029 18.5614 14.0859 18.4336 14.1738C18.3058 14.2616 18.2001 14.378 18.125 14.5137ZM22 25C20.9299 25.0013 19.8739 24.7562 18.9137 24.2837C19.5696 23.0746 19.9389 21.7309 19.9931 20.3564C20.0473 18.9819 19.7849 17.6133 19.2262 16.3562C20.0725 16.7863 21.0095 17.0071 21.9587 17H22C24.3462 17 25.575 15.84 25.7075 15.7075C25.8004 15.6146 25.8741 15.5043 25.9244 15.3829C25.9747 15.2615 26.0006 15.1314 26.0006 15C26.0006 14.8686 25.9747 14.7385 25.9244 14.6171C25.8741 14.4957 25.8004 14.3854 25.7075 14.2925C25.6146 14.1996 25.5043 14.1259 25.3829 14.0756C25.2615 14.0253 25.1314 13.9994 25 13.9994C24.8686 13.9994 24.7385 14.0253 24.6171 14.0756C24.4957 14.1259 24.3854 14.1996 24.2925 14.2925C24.2687 14.3162 23.8125 14.7287 22.8987 14.9175C22.7482 13.5782 22.4338 12.2626 21.9625 11H22C23.8565 11 25.637 11.7375 26.9497 13.0502C28.2625 14.363 29 16.1435 29 18C29 19.8565 28.2625 21.637 26.9497 22.9497C25.637 24.2625 23.8565 25 22 25Z" fill="#343330"/>
</g>
</svg>
