<svg width="32" height="32" viewBox="0 0 32 32" fill="none" xmlns="http://www.w3.org/2000/svg">
<g id="icon/fediverse.logo">
<path id="Vector" d="M26.5 12C26.05 11.9977 25.6039 12.0826 25.1862 12.25L21.375 7.49255C21.6883 7.04132 21.891 6.52269 21.9666 5.97861C22.0423 5.43453 21.9888 4.88027 21.8106 4.36068C21.6323 3.84109 21.3343 3.37075 20.9405 2.98772C20.5468 2.60468 20.0684 2.3197 19.5441 2.15583C19.0198 1.99196 18.4643 1.9538 17.9225 2.04443C17.3807 2.13507 16.8679 2.35196 16.4254 2.67756C15.983 3.00316 15.6234 3.42832 15.3758 3.91866C15.1282 4.40899 14.9994 4.95073 15 5.50005C14.9999 5.62279 15.0062 5.74545 15.0187 5.86755L9.21 8.28755C8.86009 7.85837 8.41333 7.51833 7.90645 7.29539C7.39957 7.07244 6.84702 6.97295 6.2942 7.00509C5.74139 7.03722 5.20409 7.20007 4.72645 7.48024C4.24881 7.76042 3.84447 8.14992 3.54664 8.61676C3.24882 9.0836 3.06601 9.61444 3.01324 10.1657C2.96047 10.7169 3.03925 11.2728 3.2431 11.7876C3.44695 12.3025 3.77005 12.7616 4.18586 13.1273C4.60167 13.493 5.09832 13.7549 5.635 13.8913L5.86625 19.6888C5.33635 19.8697 4.85759 20.1752 4.47018 20.5794C4.08276 20.9837 3.798 21.475 3.6398 22.0122C3.48159 22.5493 3.45456 23.1165 3.56099 23.6662C3.66741 24.216 3.90417 24.7322 4.25139 25.1714C4.59861 25.6107 5.04616 25.9603 5.55646 26.1908C6.06676 26.4213 6.62491 26.5259 7.18404 26.4961C7.74318 26.4662 8.28699 26.3026 8.7698 26.019C9.25261 25.7354 9.66034 25.3401 9.95875 24.8663L16 26.5588C16.0085 27.1217 16.1526 27.6743 16.4202 28.1697C16.6879 28.665 17.071 29.0885 17.5372 29.4042C18.0034 29.7198 18.5388 29.9184 19.0981 29.983C19.6574 30.0475 20.224 29.9763 20.7499 29.7751C21.2757 29.574 21.7453 29.249 22.1188 28.8277C22.4922 28.4064 22.7585 27.9012 22.8951 27.355C23.0316 26.8088 23.0344 26.2377 22.9032 25.6902C22.772 25.1427 22.5106 24.635 22.1412 24.21L25.5425 18.8663C26.0239 19.0033 26.5291 19.0355 27.024 18.9607C27.5189 18.8859 27.992 18.7058 28.4114 18.4326C28.8308 18.1593 29.1867 17.7993 29.4551 17.3768C29.7235 16.9543 29.8981 16.4792 29.9673 15.9834C30.0364 15.4877 29.9984 14.9829 29.8558 14.5031C29.7132 14.0233 29.4694 13.5797 29.1408 13.2021C28.8122 12.8246 28.4064 12.5219 27.9508 12.3145C27.4953 12.1072 27.0005 11.9999 26.5 12ZM19.5 23H19.3887L17.3662 16.9338L23.1975 16.6563C23.3449 17.0694 23.5688 17.4511 23.8575 17.7813L20.4562 23.125C20.1448 23.0395 19.823 22.9974 19.5 23ZM7.865 19.6088L7.63375 13.8113C8.10518 13.6489 8.53648 13.3877 8.89875 13.045L14.215 16.125L9.0325 20.1525C8.68032 19.9006 8.28445 19.7163 7.865 19.6088ZM18.6962 9.00005C19.08 8.97909 19.4576 8.89461 19.8137 8.75005L23.625 13.5075C23.3819 13.8566 23.2048 14.2472 23.1025 14.66L17.2812 14.9375L18.6962 9.00005ZM10.2612 21.7313L15.5 17.6575L17.4925 23.6363C17.1131 23.9038 16.7902 24.2437 16.5425 24.6363L10.5 22.9413C10.4927 22.527 10.4118 22.1173 10.2612 21.7313ZM18.5 4.00005C18.7967 4.00005 19.0867 4.08802 19.3334 4.25284C19.58 4.41767 19.7723 4.65193 19.8858 4.92602C19.9993 5.20011 20.0291 5.50171 19.9712 5.79268C19.9133 6.08365 19.7704 6.35093 19.5607 6.56071C19.3509 6.77049 19.0836 6.91335 18.7926 6.97123C18.5017 7.0291 18.2001 6.9994 17.926 6.88587C17.6519 6.77234 17.4176 6.58008 17.2528 6.3334C17.088 6.08673 17 5.79672 17 5.50005C17 5.10222 17.158 4.72069 17.4393 4.43939C17.7206 4.15808 18.1022 4.00005 18.5 4.00005ZM15.79 7.71255C16.0587 8.04007 16.3838 8.31693 16.75 8.53005L15.3375 14.4613L9.90375 11.315C9.96768 11.0481 9.99999 10.7745 10 10.5C10.0001 10.3773 9.99379 10.2546 9.98125 10.1325L15.79 7.71255ZM5 10.5C5 10.2034 5.08797 9.91337 5.25279 9.66669C5.41762 9.42002 5.65188 9.22776 5.92597 9.11423C6.20006 9.0007 6.50166 8.97099 6.79263 9.02887C7.0836 9.08675 7.35088 9.22961 7.56066 9.43939C7.77044 9.64917 7.9133 9.91644 7.97118 10.2074C8.02905 10.4984 7.99935 10.8 7.88582 11.0741C7.77229 11.3482 7.58003 11.5824 7.33335 11.7473C7.08668 11.9121 6.79667 12 6.5 12C6.10217 12 5.72064 11.842 5.43934 11.5607C5.15803 11.2794 5 10.8979 5 10.5ZM7 24.5C6.70333 24.5 6.41332 24.4121 6.16664 24.2473C5.91997 24.0824 5.72771 23.8482 5.61418 23.5741C5.50065 23.3 5.47094 22.9984 5.52882 22.7074C5.5867 22.4164 5.72956 22.1492 5.93934 21.9394C6.14912 21.7296 6.41639 21.5867 6.70736 21.5289C6.99833 21.471 7.29993 21.5007 7.57402 21.6142C7.84811 21.7278 8.08238 21.92 8.2472 22.1667C8.41202 22.4134 8.5 22.7034 8.5 23C8.5 23.3979 8.34196 23.7794 8.06066 24.0607C7.77935 24.342 7.39782 24.5 7 24.5ZM19.5 28C19.2033 28 18.9133 27.9121 18.6666 27.7473C18.42 27.5824 18.2277 27.3482 18.1142 27.0741C18.0006 26.8 17.9709 26.4984 18.0288 26.2074C18.0867 25.9164 18.2296 25.6492 18.4393 25.4394C18.6491 25.2296 18.9164 25.0867 19.2074 25.0289C19.4983 24.971 19.7999 25.0007 20.074 25.1142C20.3481 25.2278 20.5824 25.42 20.7472 25.6667C20.912 25.9134 21 26.2034 21 26.5C21 26.8979 20.842 27.2794 20.5607 27.5607C20.2794 27.842 19.8978 28 19.5 28ZM26.5 17C26.2033 17 25.9133 16.9121 25.6666 16.7473C25.42 16.5824 25.2277 16.3482 25.1142 16.0741C25.0006 15.8 24.9709 15.4984 25.0288 15.2074C25.0867 14.9164 25.2296 14.6492 25.4393 14.4394C25.6491 14.2296 25.9164 14.0867 26.2074 14.0289C26.4983 13.971 26.7999 14.0007 27.074 14.1142C27.3481 14.2278 27.5824 14.42 27.7472 14.6667C27.912 14.9134 28 15.2034 28 15.5C28 15.8979 27.842 16.2794 27.5607 16.5607C27.2794 16.842 26.8978 17 26.5 17Z" fill="#343330"/>
</g>
</svg>
