<svg width="32" height="32" viewBox="0 0 32 32" fill="none" xmlns="http://www.w3.org/2000/svg">
<g id="icon/chat.teardrop.slash">
<path id="Vector" d="M6.74003 4.32744C6.65221 4.22845 6.54562 4.14787 6.42643 4.09038C6.30724 4.03289 6.17783 3.99962 6.04569 3.99251C5.91355 3.9854 5.78131 4.00459 5.65664 4.04897C5.53197 4.09334 5.41735 4.16202 5.31942 4.25102C5.22149 4.34002 5.14219 4.44757 5.08613 4.56744C5.03007 4.68731 4.99836 4.81711 4.99284 4.94933C4.98732 5.08154 5.00809 5.21354 5.05395 5.33767C5.09982 5.46179 5.16987 5.57558 5.26003 5.67244L6.90753 7.48494C5.02326 9.73 3.99341 12.569 4.00003 15.4999V25.9999C4.00003 26.5304 4.21075 27.0391 4.58582 27.4142C4.96089 27.7892 5.4696 27.9999 6.00003 27.9999H16.5C19.0222 27.9967 21.4848 27.233 23.5663 25.8087L25.26 27.6724C25.3479 27.7714 25.4544 27.852 25.5736 27.9095C25.6928 27.967 25.8222 28.0003 25.9544 28.0074C26.0865 28.0145 26.2188 27.9953 26.3434 27.9509C26.4681 27.9065 26.5827 27.8379 26.6806 27.7489C26.7786 27.6599 26.8579 27.5523 26.9139 27.4324C26.97 27.3126 27.0017 27.1828 27.0072 27.0506C27.0127 26.9183 26.992 26.7863 26.9461 26.6622C26.9002 26.5381 26.8302 26.4243 26.74 26.3274L6.74003 4.32744ZM16.5 25.9999H6.00003V15.4999C5.99474 13.1325 6.7948 10.8337 8.26878 8.98119L22.2075 24.3137C20.5105 25.4211 18.5264 26.0073 16.5 25.9999ZM29 15.4999C29.0017 17.7753 28.3814 20.0078 27.2063 21.9562C27.069 22.1833 26.8472 22.3466 26.5896 22.4101C26.3319 22.4736 26.0596 22.4322 25.8325 22.2949C25.6054 22.1577 25.4422 21.9359 25.3786 21.6782C25.3151 21.4206 25.3565 21.1483 25.4938 20.9212C26.6619 18.9856 27.1741 16.7247 26.9543 14.4747C26.7344 12.2246 25.7942 10.1056 24.2734 8.43279C22.7527 6.75996 20.7327 5.62263 18.5137 5.18993C16.2947 4.75724 13.9954 5.05228 11.9575 6.03119C11.7185 6.14623 11.4436 6.1616 11.1932 6.07393C10.9428 5.98626 10.7376 5.80272 10.6225 5.56369C10.5075 5.32467 10.4921 5.04973 10.5798 4.79937C10.6675 4.54901 10.851 4.34373 11.09 4.22869C12.9957 3.31378 15.1023 2.89711 17.2128 3.01766C19.3233 3.1382 21.3688 3.79202 23.1579 4.91796C24.947 6.04391 26.4214 7.60521 27.4431 9.45584C28.4648 11.3065 29.0005 13.386 29 15.4999Z" fill="#343330"/>
</g>
</svg>
