<svg width="32" height="32" viewBox="0 0 32 32" fill="none" xmlns="http://www.w3.org/2000/svg">
<g id="icon/bathtub">
<path id="Vector" d="M30 12H26C26 11.7348 25.8946 11.4804 25.7071 11.2929C25.5196 11.1054 25.2652 11 25 11H17C16.7348 11 16.4804 11.1054 16.2929 11.2929C16.1054 11.4804 16 11.7348 16 12H8V6.50002C8 6.10219 8.15804 5.72066 8.43934 5.43935C8.72064 5.15805 9.10218 5.00002 9.5 5.00002C9.85156 4.99858 10.1932 5.11632 10.4693 5.33402C10.7453 5.55173 10.9395 5.85655 11.02 6.19877C11.0749 6.45647 11.2294 6.68209 11.4497 6.82657C11.6701 6.97104 11.9385 7.02271 12.1968 6.97034C12.455 6.91797 12.6822 6.76579 12.8288 6.54687C12.9755 6.32796 13.0298 6.06001 12.98 5.80127C12.8102 5.00553 12.3715 4.29257 11.7377 3.78237C11.1039 3.27218 10.3136 2.99589 9.5 3.00001C8.57174 3.00001 7.6815 3.36876 7.02513 4.02514C6.36875 4.68152 6 5.57176 6 6.50002V12H2C1.73478 12 1.48043 12.1054 1.29289 12.2929C1.10536 12.4804 1 12.7348 1 13V18C1.00199 19.8559 1.74012 21.6352 3.05245 22.9476C4.36477 24.2599 6.14409 24.998 8 25V27C8 27.2652 8.10536 27.5196 8.29289 27.7071C8.48043 27.8947 8.73478 28 9 28C9.26522 28 9.51957 27.8947 9.70711 27.7071C9.89464 27.5196 10 27.2652 10 27V25H22V27C22 27.2652 22.1054 27.5196 22.2929 27.7071C22.4804 27.8947 22.7348 28 23 28C23.2652 28 23.5196 27.8947 23.7071 27.7071C23.8946 27.5196 24 27.2652 24 27V25C25.8559 24.998 27.6352 24.2599 28.9476 22.9476C30.2599 21.6352 30.998 19.8559 31 18V13C31 12.7348 30.8946 12.4804 30.7071 12.2929C30.5196 12.1054 30.2652 12 30 12ZM24 13V17H18V13H24ZM29 18C29 18.6566 28.8707 19.3068 28.6194 19.9134C28.3681 20.5201 27.9998 21.0713 27.5355 21.5355C27.0712 21.9998 26.52 22.3681 25.9134 22.6194C25.3068 22.8707 24.6566 23 24 23H8C6.67392 23 5.40215 22.4732 4.46447 21.5355C3.52678 20.5979 3 19.3261 3 18V14H16V18C16 18.2652 16.1054 18.5196 16.2929 18.7071C16.4804 18.8947 16.7348 19 17 19H25C25.2652 19 25.5196 18.8947 25.7071 18.7071C25.8946 18.5196 26 18.2652 26 18V14H29V18Z" fill="#343330"/>
</g>
</svg>
