<svg width="32" height="32" viewBox="0 0 32 32" fill="none" xmlns="http://www.w3.org/2000/svg">
<g id="icon/airplane.taxiing">
<path id="Vector" d="M25.9999 12H18.4149L12.7074 6.2925C12.6145 6.19967 12.5041 6.12605 12.3827 6.07586C12.2614 6.02568 12.1313 5.9999 11.9999 6H10.9999C10.6831 6.00017 10.3708 6.07561 10.0889 6.2201C9.80694 6.36458 9.56335 6.57398 9.37818 6.83105C9.19301 7.08811 9.07156 7.38549 9.02383 7.69869C8.9761 8.01189 9.00346 8.33195 9.10365 8.6325L10.2286 12H7.4149L4.7074 9.2925C4.61446 9.19967 4.50414 9.12605 4.38275 9.07586C4.26135 9.02568 4.13126 8.9999 3.9999 9H2.9999C2.68824 9.00028 2.38096 9.0734 2.10257 9.21351C1.82418 9.35362 1.58239 9.55685 1.39649 9.80699C1.21058 10.0571 1.08571 10.3473 1.03183 10.6542C0.977944 10.9612 0.996546 11.2765 1.08615 11.575L2.8449 17.4363C3.1493 18.4689 3.78083 19.3747 4.64447 20.0174C5.5081 20.6601 6.55712 21.0049 7.63365 21H29.9999C30.2651 21 30.5195 20.8946 30.707 20.7071C30.8945 20.5196 30.9999 20.2652 30.9999 20V17C30.9999 15.6739 30.4731 14.4021 29.5354 13.4645C28.5978 12.5268 27.326 12 25.9999 12ZM28.9999 19H7.63365C6.98753 19.0034 6.35779 18.7968 5.83927 18.4113C5.32075 18.0257 4.94151 17.4822 4.75865 16.8625L2.9999 11H3.5849L6.2924 13.7075C6.38534 13.8003 6.49565 13.8739 6.61705 13.9241C6.73844 13.9743 6.86854 14.0001 6.9999 14H11.6124C11.7709 14 11.9271 13.9624 12.0681 13.8902C12.2092 13.818 12.331 13.7133 12.4237 13.5847C12.5164 13.4562 12.5771 13.3075 12.601 13.1508C12.6249 12.9942 12.6113 12.8341 12.5611 12.6838L10.9999 8H11.5849L17.2924 13.7075C17.3853 13.8003 17.4957 13.8739 17.617 13.9241C17.7384 13.9743 17.8685 14.0001 17.9999 14H25.9999C26.7955 14 27.5586 14.3161 28.1212 14.8787C28.6838 15.4413 28.9999 16.2044 28.9999 17V19ZM27.9999 25C27.9999 25.3956 27.8826 25.7822 27.6628 26.1111C27.4431 26.44 27.1307 26.6964 26.7653 26.8478C26.3998 26.9991 25.9977 27.0387 25.6097 26.9616C25.2218 26.8844 24.8654 26.6939 24.5857 26.4142C24.306 26.1345 24.1155 25.7781 24.0383 25.3902C23.9612 25.0022 24.0008 24.6001 24.1521 24.2346C24.3035 23.8692 24.5599 23.5568 24.8888 23.3371C25.2177 23.1173 25.6043 23 25.9999 23C26.5303 23 27.039 23.2107 27.4141 23.5858C27.7892 23.9609 27.9999 24.4696 27.9999 25ZM15.9999 25C15.9999 25.3956 15.8826 25.7822 15.6628 26.1111C15.4431 26.44 15.1307 26.6964 14.7653 26.8478C14.3998 26.9991 13.9977 27.0387 13.6097 26.9616C13.2218 26.8844 12.8654 26.6939 12.5857 26.4142C12.306 26.1345 12.1155 25.7781 12.0383 25.3902C11.9612 25.0022 12.0008 24.6001 12.1521 24.2346C12.3035 23.8692 12.5599 23.5568 12.8888 23.3371C13.2177 23.1173 13.6043 23 13.9999 23C14.5303 23 15.039 23.2107 15.4141 23.5858C15.7892 23.9609 15.9999 24.4696 15.9999 25Z" fill="#343330"/>
</g>
</svg>
