<svg width="32" height="32" viewBox="0 0 32 32" fill="none" xmlns="http://www.w3.org/2000/svg">
<g id="icon/greater.than">
<path id="Vector" d="M27.9999 16C27.9999 16.1894 27.946 16.3749 27.8447 16.5349C27.7433 16.6949 27.5986 16.8228 27.4274 16.9037L8.42742 25.9037C8.30874 25.96 8.18014 25.9923 8.04898 25.9988C7.91782 26.0053 7.78665 25.9859 7.66298 25.9418C7.5393 25.8976 7.42554 25.8295 7.32818 25.7414C7.23081 25.6533 7.15177 25.5468 7.09554 25.4281C7.03932 25.3094 7.00703 25.1808 7.0005 25.0497C6.99398 24.9185 7.01335 24.7874 7.05752 24.6637C7.10168 24.54 7.16978 24.4262 7.25791 24.3289C7.34604 24.2315 7.45249 24.1525 7.57117 24.0962L24.6637 16L7.57242 7.90375C7.45374 7.84753 7.34729 7.76848 7.25916 7.67112C7.17103 7.57376 7.10293 7.45999 7.05877 7.33631C7.0146 7.21264 6.99523 7.08147 7.00175 6.95031C7.00828 6.81915 7.04057 6.69055 7.0968 6.57187C7.15302 6.45319 7.23206 6.34674 7.32942 6.25861C7.42679 6.17048 7.54055 6.10239 7.66423 6.05822C7.7879 6.01405 7.91907 5.99468 8.05023 6.0012C8.18139 6.00773 8.30999 6.04003 8.42867 6.09625L27.4287 15.0962C27.5996 15.1774 27.7441 15.3054 27.8452 15.4654C27.9463 15.6253 28 15.8107 27.9999 16Z" fill="#343330"/>
</g>
</svg>
