<svg width="32" height="32" viewBox="0 0 32 32" fill="none" xmlns="http://www.w3.org/2000/svg">
<g id="icon/axe">
<path id="Vector" d="M31.8938 12.215C31.7741 11.8586 31.5564 11.5432 31.2657 11.3048C30.975 11.0665 30.6229 10.9149 30.25 10.8675C27.9681 10.5609 25.7719 9.79555 23.7938 8.61751L25.0825 7.33001C25.6255 6.7362 25.9184 5.95584 25.9005 5.15142C25.8825 4.34701 25.5549 3.58053 24.9859 3.01158C24.417 2.44262 23.6505 2.11505 22.8461 2.09706C22.0417 2.07908 21.2613 2.37206 20.6675 2.91501L19.0175 4.56626C18.7263 4.21626 18.5413 3.96126 18.4663 3.85501C18.2989 3.61587 18.0812 3.41628 17.8284 3.27023C17.5757 3.12419 17.294 3.03524 17.0033 3.00963C16.7125 2.98402 16.4196 3.02236 16.1452 3.12198C15.8709 3.2216 15.6216 3.38007 15.415 3.58626L10.585 8.42001C10.379 8.62653 10.2206 8.87563 10.121 9.14983C10.0214 9.42403 9.98304 9.71669 10.0085 10.0073C10.034 10.2979 10.1228 10.5794 10.2686 10.8321C10.4144 11.0848 10.6137 11.3025 10.8525 11.47C10.96 11.545 11.215 11.73 11.565 12.0213L0.913759 22.6713C0.370809 23.2651 0.0778259 24.0454 0.0958136 24.8498C0.113801 25.6543 0.441373 26.4207 1.01032 26.9897C1.57927 27.5586 2.34575 27.8862 3.15017 27.9042C3.95459 27.9222 4.73495 27.6292 5.32876 27.0863L15.6163 16.7975C16.7938 18.7759 17.5591 20.972 17.8663 23.2538C17.9142 23.6259 18.0659 23.977 18.304 24.267C18.542 24.557 18.8569 24.7742 19.2125 24.8938C19.4199 24.9637 19.6373 24.9996 19.8563 25C20.1179 24.9999 20.377 24.948 20.6185 24.8474C20.8601 24.7468 21.0794 24.5994 21.2638 24.4138L31.4113 14.265C31.6761 14.0031 31.8619 13.6719 31.9472 13.3094C32.0326 12.9468 32.014 12.5675 31.8938 12.215ZM22.0863 4.32876C22.1866 4.20934 22.3106 4.11207 22.4505 4.04314C22.5904 3.97421 22.7431 3.93512 22.8989 3.92835C23.0547 3.92159 23.2102 3.94729 23.3556 4.00383C23.5009 4.06037 23.6329 4.14652 23.7432 4.2568C23.8535 4.36708 23.9396 4.49908 23.9962 4.64443C24.0527 4.78978 24.0784 4.9453 24.0717 5.10111C24.0649 5.25692 24.0258 5.40962 23.9569 5.54952C23.8879 5.68942 23.7907 5.81346 23.6713 5.91376L22.1025 7.48251C21.5027 7.03128 20.93 6.54502 20.3875 6.02626L22.0863 4.32876ZM3.91376 25.6713C3.81346 25.7907 3.68942 25.8879 3.54952 25.9569C3.40962 26.0258 3.25692 26.0649 3.10111 26.0717C2.94529 26.0784 2.78978 26.0527 2.64443 25.9962C2.49908 25.9396 2.36708 25.8535 2.2568 25.7432C2.14652 25.6329 2.06037 25.5009 2.00383 25.3556C1.94729 25.2102 1.92159 25.0547 1.92835 24.8989C1.93512 24.7431 1.97421 24.5904 2.04314 24.4505C2.11207 24.3106 2.20933 24.1866 2.32876 24.0863L13.0263 13.3888C13.5453 13.9305 14.0316 14.5028 14.4825 15.1025L3.91376 25.6713ZM19.85 22.99C18.75 14.7863 12.69 10.315 12 9.83376L16.8325 5.00001C17.315 5.68751 21.7863 11.75 29.9888 12.8475L19.85 22.99Z" fill="#343330"/>
</g>
</svg>
