<svg width="32" height="32" viewBox="0 0 32 32" fill="none" xmlns="http://www.w3.org/2000/svg">
<g id="icon/waves">
<path id="Vector" d="M27.7702 22.1563C27.9396 22.3595 28.0216 22.6216 27.9982 22.8852C27.9748 23.1488 27.8478 23.3923 27.6452 23.5625C25.4752 25.3613 23.5377 26 21.7702 26C19.4477 26 17.4177 24.8975 15.5289 23.875C12.3602 22.155 9.62392 20.67 5.64517 23.9675C5.54429 24.0526 5.42756 24.1169 5.30172 24.1566C5.17587 24.1964 5.0434 24.2109 4.91194 24.1992C4.78048 24.1875 4.65264 24.1499 4.53577 24.0886C4.41891 24.0273 4.31534 23.9434 4.23104 23.8419C4.14674 23.7403 4.08337 23.6231 4.04459 23.497C4.0058 23.3708 3.99238 23.2382 4.00508 23.1069C4.01778 22.9755 4.05636 22.8479 4.11859 22.7316C4.18082 22.6152 4.26548 22.5123 4.36767 22.4288C9.38892 18.2688 13.1577 20.3138 16.4839 22.1188C19.6527 23.8375 22.3889 25.3225 26.3677 22.0263C26.5713 21.8585 26.833 21.7781 27.0957 21.8024C27.3584 21.8268 27.6008 21.954 27.7702 22.1563ZM26.3614 15.0313C22.3827 18.3288 19.6464 16.8438 16.4777 15.1238C13.1514 13.32 9.38267 11.275 4.36142 15.435C4.15972 15.6051 4.03343 15.8481 4.01008 16.1109C3.98673 16.3738 4.06821 16.6352 4.23676 16.8382C4.40531 17.0412 4.64727 17.1694 4.90992 17.1948C5.17256 17.2202 5.4346 17.1407 5.63892 16.9738C9.61767 13.6763 12.3539 15.1613 15.5227 16.8813C17.4114 17.905 19.4414 19.0063 21.7639 19.0063C23.5314 19.0063 25.4689 18.3675 27.6389 16.5688C27.7411 16.4852 27.8258 16.3823 27.888 16.266C27.9502 16.1496 27.9888 16.022 28.0015 15.8907C28.0142 15.7593 28.0008 15.6267 27.962 15.5006C27.9232 15.3744 27.8599 15.2572 27.7756 15.1556C27.6913 15.0541 27.5877 14.9703 27.4708 14.9089C27.354 14.8476 27.2261 14.81 27.0947 14.7983C26.9632 14.7867 26.8307 14.8011 26.7049 14.8409C26.579 14.8806 26.4623 14.9449 26.3614 15.03V15.0313ZM5.63892 9.97501C9.61767 6.67876 12.3539 8.16376 15.5227 9.88251C17.4114 10.9075 19.4414 12.0075 21.7639 12.0075C23.5314 12.0075 25.4689 11.3675 27.6389 9.57001C27.7411 9.4865 27.8258 9.38358 27.888 9.2672C27.9502 9.15082 27.9888 9.02327 28.0015 8.8919C28.0142 8.76054 28.0008 8.62796 27.962 8.50181C27.9232 8.37566 27.8599 8.25844 27.7756 8.15689C27.6913 8.05535 27.5877 7.9715 27.4708 7.91018C27.354 7.84885 27.2261 7.81126 27.0947 7.79959C26.9632 7.78791 26.8307 7.80236 26.7049 7.84213C26.579 7.88189 26.4623 7.94617 26.3614 8.03126C22.3827 11.3288 19.6464 9.84376 16.4777 8.12376C13.1514 6.32251 9.38267 4.27751 4.36142 8.43751C4.25566 8.51981 4.16753 8.62254 4.10225 8.73958C4.03697 8.85661 3.99588 8.98558 3.98142 9.11881C3.96696 9.25204 3.97943 9.38682 4.01809 9.51513C4.05675 9.64345 4.1208 9.76269 4.20644 9.86576C4.29209 9.96884 4.39758 10.0536 4.51664 10.1152C4.63571 10.1767 4.76592 10.2136 4.89954 10.2238C5.03317 10.234 5.16748 10.2172 5.29449 10.1745C5.42151 10.1317 5.53864 10.0639 5.63892 9.97501Z" fill="#343330"/>
</g>
</svg>
