<svg width="32" height="32" viewBox="0 0 32 32" fill="none" xmlns="http://www.w3.org/2000/svg">
<g id="icon/cloud.rain">
<path id="Vector" d="M19.8325 24.555L15.8325 30.555C15.7596 30.6643 15.6659 30.7582 15.5567 30.8313C15.4476 30.9044 15.3251 30.9553 15.1962 30.9811C14.936 31.0331 14.6658 30.9796 14.445 30.8325C14.2242 30.6853 14.0709 30.4564 14.0189 30.1962C13.9668 29.936 14.0203 29.6657 14.1675 29.445L18.1675 23.445C18.3147 23.2242 18.5436 23.0709 18.8038 23.0188C19.064 22.9668 19.3342 23.0203 19.555 23.1675C19.7758 23.3146 19.9291 23.5435 19.9811 23.8037C20.0332 24.0639 19.9797 24.3342 19.8325 24.555ZM29 11.5C28.9974 14.0187 27.9956 16.4335 26.2146 18.2145C24.4336 19.9956 22.0187 20.9973 19.5 21H16.535L12.8325 26.555C12.7596 26.6643 12.6659 26.7582 12.5567 26.8313C12.4476 26.9044 12.3251 26.9553 12.1962 26.9811C12.0674 27.0068 11.9347 27.007 11.8058 26.9815C11.6769 26.956 11.5543 26.9053 11.445 26.8325C11.3357 26.7596 11.2418 26.6659 11.1687 26.5567C11.0956 26.4475 11.0447 26.325 11.0189 26.1962C10.9931 26.0673 10.993 25.9347 11.0185 25.8058C11.044 25.6769 11.0946 25.5543 11.1675 25.445L14.1313 21H9.5C7.77609 21 6.12279 20.3151 4.90381 19.0961C3.68482 17.8772 3 16.2239 3 14.5C3 12.776 3.68482 11.1227 4.90381 9.90376C6.12279 8.68477 7.77609 7.99995 9.5 7.99995C9.87367 8.00027 10.2467 8.03205 10.615 8.09495C11.4125 6.02341 12.9096 4.29611 14.8467 3.21231C16.7839 2.12852 19.0392 1.75651 21.2219 2.16075C23.4045 2.56498 25.377 3.71999 26.7975 5.42566C28.2181 7.13133 28.9973 9.2802 29 11.5ZM27 11.5C26.992 9.55252 26.2276 7.68441 24.8681 6.28999C23.5087 4.89557 21.6605 4.08398 19.7139 4.02656C17.7673 3.96913 15.8746 4.67037 14.4353 5.98222C12.996 7.29408 12.1228 9.11388 12 11.0575C11.9924 11.1888 11.9591 11.3173 11.9019 11.4358C11.8446 11.5542 11.7646 11.6602 11.6664 11.7477C11.4681 11.9245 11.2077 12.0152 10.9425 12C10.6773 11.9847 10.429 11.8647 10.2522 11.6664C10.0755 11.4681 9.98475 11.2077 10 10.9425C10.0175 10.6375 10.0496 10.3362 10.0962 10.0387C9.89851 10.0133 9.69937 10.0004 9.5 9.99995C8.30653 9.99995 7.16193 10.4741 6.31802 11.318C5.47411 12.1619 5 13.3065 5 14.5C5 15.6934 5.47411 16.838 6.31802 17.6819C7.16193 18.5258 8.30653 19 9.5 19H19.5C21.4884 18.9976 23.3947 18.2067 24.8007 16.8007C26.2068 15.3947 26.9977 13.4884 27 11.5Z" fill="#343330"/>
</g>
</svg>
