<svg width="32" height="32" viewBox="0 0 32 32" fill="none" xmlns="http://www.w3.org/2000/svg">
<g id="icon/bezier.curve">
<path id="Vector" d="M27.6337 18.0513C26.8912 15.1634 25.1072 12.652 22.6249 11H29.9999C30.2652 11 30.5195 10.8946 30.707 10.7071C30.8946 10.5196 30.9999 10.2652 30.9999 10C30.9999 9.73478 30.8946 9.48043 30.707 9.29289C30.5195 9.10536 30.2652 9 29.9999 9H19.8749C19.6546 8.13959 19.1542 7.37696 18.4526 6.83236C17.751 6.28776 16.8881 5.99216 15.9999 5.99216C15.1118 5.99216 14.2489 6.28776 13.5473 6.83236C12.8456 7.37696 12.3452 8.13959 12.1249 9H1.99994C1.73472 9 1.48037 9.10536 1.29283 9.29289C1.1053 9.48043 0.999941 9.73478 0.999941 10C0.999941 10.2652 1.1053 10.5196 1.29283 10.7071C1.48037 10.8946 1.73472 11 1.99994 11H9.37494C6.89264 12.652 5.10871 15.1634 4.36619 18.0513C3.40603 18.2045 2.53455 18.7021 1.91469 19.4512C1.29484 20.2003 0.969058 21.1496 0.998267 22.1214C1.02748 23.0933 1.40967 24.0213 2.0734 24.7318C2.73712 25.4423 3.63692 25.8868 4.60455 25.982C5.57218 26.0773 6.54137 25.8169 7.33092 25.2494C8.12046 24.682 8.67628 23.8464 8.89446 22.8988C9.11263 21.9513 8.97822 20.9568 8.51635 20.1012C8.05449 19.2456 7.29679 18.5875 6.38494 18.25C6.81429 16.7697 7.57757 15.4075 8.61604 14.2685C9.6545 13.1295 10.9405 12.244 12.3749 11.68C12.6959 12.372 13.208 12.9579 13.851 13.3684C14.4939 13.779 15.2409 13.9971 16.0037 13.9971C16.7665 13.9971 17.5135 13.779 18.1564 13.3684C18.7994 12.9579 19.3115 12.372 19.6324 11.68C21.0655 12.2449 22.35 13.1309 23.3871 14.2698C24.4242 15.4088 25.1864 16.7704 25.6149 18.25C24.7027 18.5864 23.9441 19.2435 23.4812 20.0985C23.0182 20.9536 22.8826 21.948 23.0996 22.8957C23.3166 23.8435 23.8714 24.6798 24.6602 25.2483C25.4491 25.8167 26.418 26.0783 27.3857 25.9843C28.3535 25.8902 29.2538 25.4468 29.9184 24.7371C30.583 24.0274 30.9664 23.0999 30.9967 22.128C31.0271 21.1562 30.7025 20.2066 30.0835 19.4567C29.4646 18.7068 28.5937 18.2081 27.6337 18.0537V18.0513ZM6.99994 22C6.99994 22.3956 6.88264 22.7822 6.66288 23.1111C6.44312 23.44 6.13076 23.6964 5.76531 23.8478C5.39986 23.9991 4.99772 24.0387 4.60976 23.9616C4.2218 23.8844 3.86543 23.6939 3.58573 23.4142C3.30602 23.1345 3.11554 22.7781 3.03837 22.3902C2.9612 22.0022 3.00081 21.6001 3.15218 21.2346C3.30356 20.8692 3.5599 20.5568 3.8888 20.3371C4.2177 20.1173 4.60438 20 4.99994 20C5.53037 20 6.03908 20.2107 6.41416 20.5858C6.78923 20.9609 6.99994 21.4696 6.99994 22ZM15.9999 12C15.6044 12 15.2177 11.8827 14.8888 11.6629C14.5599 11.4432 14.3036 11.1308 14.1522 10.7654C14.0008 10.3999 13.9612 9.99778 14.0384 9.60982C14.1155 9.22186 14.306 8.86549 14.5857 8.58579C14.8654 8.30608 15.2218 8.1156 15.6098 8.03843C15.9977 7.96126 16.3999 8.00087 16.7653 8.15224C17.1308 8.30362 17.4431 8.55996 17.6629 8.88886C17.8826 9.21776 17.9999 9.60444 17.9999 10C17.9999 10.5304 17.7892 11.0391 17.4142 11.4142C17.0391 11.7893 16.5304 12 15.9999 12ZM26.9999 24C26.6044 24 26.2177 23.8827 25.8888 23.6629C25.5599 23.4432 25.3036 23.1308 25.1522 22.7654C25.0008 22.3999 24.9612 21.9978 25.0384 21.6098C25.1155 21.2219 25.306 20.8655 25.5857 20.5858C25.8654 20.3061 26.2218 20.1156 26.6098 20.0384C26.9977 19.9613 27.3999 20.0009 27.7653 20.1522C28.1308 20.3036 28.4431 20.56 28.6629 20.8889C28.8826 21.2178 28.9999 21.6044 28.9999 22C28.9999 22.5304 28.7892 23.0391 28.4142 23.4142C28.0391 23.7893 27.5304 24 26.9999 24Z" fill="#343330"/>
</g>
</svg>
