<svg width="32" height="32" viewBox="0 0 32 32" fill="none" xmlns="http://www.w3.org/2000/svg">
<g id="icon/marker.circle">
<path id="Vector" d="M25.1925 6.80747C22.7545 4.36947 19.4479 2.99982 16 2.99982C12.5522 2.99982 9.24554 4.36947 6.80754 6.80748C4.36953 9.24548 2.99988 12.5521 2.99988 16C2.99988 19.4478 4.36953 22.7545 6.80754 25.1925C9.24554 27.6305 12.5522 29.0001 16 29.0001C19.4479 29.0001 22.7545 27.6305 25.1925 25.1925C27.6305 22.7545 29.0002 19.4478 29.0002 16C29.0002 12.5521 27.6305 9.24548 25.1925 6.80747ZM11 25.7962V22H21V25.7962C19.4506 26.5826 17.7376 26.9925 16 26.9925C14.2625 26.9925 12.5494 26.5826 11 25.7962ZM13 18H19V20H13V18ZM14.75 16L16 9.99998L17.25 16H14.75ZM23.7775 23.7787C23.5275 24.0287 23.2675 24.2625 23 24.4837V22C23 21.4695 22.7893 20.9608 22.4142 20.5858C22.0392 20.2107 21.5305 20 21 20V18C20.9994 17.5218 20.8275 17.0596 20.5154 16.6972C20.2033 16.3349 19.7716 16.0964 19.2988 16.025L17.9575 9.59247C17.8634 9.14301 17.6174 8.73965 17.2609 8.45014C16.9045 8.16062 16.4593 8.00259 16 8.00259C15.5408 8.00259 15.0956 8.16062 14.7391 8.45014C14.3827 8.73965 14.1367 9.14301 14.0425 9.59247L12.7013 16.025C12.2284 16.0964 11.7968 16.3349 11.4847 16.6972C11.1726 17.0596 11.0006 17.5218 11 18V20C10.4696 20 9.9609 20.2107 9.58582 20.5858C9.21075 20.9608 9.00004 21.4695 9.00004 22V24.4837C8.73254 24.2625 8.47254 24.0287 8.22254 23.7787C6.68397 22.2404 5.63613 20.2804 5.21154 18.1466C4.78695 16.0127 5.00467 13.8009 5.83718 11.7908C6.66969 9.7807 8.07958 8.06262 9.88857 6.85384C11.6975 5.64506 13.8244 4.99988 16 4.99988C18.1757 4.99988 20.3025 5.64506 22.1115 6.85384C23.9205 8.06262 25.3304 9.7807 26.1629 11.7908C26.9954 13.8009 27.2131 16.0127 26.7885 18.1466C26.3639 20.2804 25.3161 22.2404 23.7775 23.7787Z" fill="#343330"/>
</g>
</svg>
