<svg width="32" height="32" viewBox="0 0 32 32" fill="none" xmlns="http://www.w3.org/2000/svg">
<g id="icon/sort.descending">
<path id="Vector" d="M5 16.0001C5 15.7348 5.10536 15.4805 5.29289 15.2929C5.48043 15.1054 5.73478 15.0001 6 15.0001H15C15.2652 15.0001 15.5196 15.1054 15.7071 15.2929C15.8946 15.4805 16 15.7348 16 16.0001C16 16.2653 15.8946 16.5196 15.7071 16.7072C15.5196 16.8947 15.2652 17.0001 15 17.0001H6C5.73478 17.0001 5.48043 16.8947 5.29289 16.7072C5.10536 16.5196 5 16.2653 5 16.0001ZM6 9.00005H13C13.2652 9.00005 13.5196 8.8947 13.7071 8.70716C13.8946 8.51962 14 8.26527 14 8.00005C14 7.73484 13.8946 7.48048 13.7071 7.29295C13.5196 7.10541 13.2652 7.00005 13 7.00005H6C5.73478 7.00005 5.48043 7.10541 5.29289 7.29295C5.10536 7.48048 5 7.73484 5 8.00005C5 8.26527 5.10536 8.51962 5.29289 8.70716C5.48043 8.8947 5.73478 9.00005 6 9.00005ZM23 23.0001H6C5.73478 23.0001 5.48043 23.1054 5.29289 23.2929C5.10536 23.4805 5 23.7348 5 24.0001C5 24.2653 5.10536 24.5196 5.29289 24.7072C5.48043 24.8947 5.73478 25.0001 6 25.0001H23C23.2652 25.0001 23.5196 24.8947 23.7071 24.7072C23.8946 24.5196 24 24.2653 24 24.0001C24 23.7348 23.8946 23.4805 23.7071 23.2929C23.5196 23.1054 23.2652 23.0001 23 23.0001ZM28.7075 10.2926L23.7075 5.29255C23.6146 5.19958 23.5043 5.12582 23.3829 5.07549C23.2615 5.02517 23.1314 4.99927 23 4.99927C22.8686 4.99927 22.7385 5.02517 22.6171 5.07549C22.4957 5.12582 22.3854 5.19958 22.2925 5.29255L17.2925 10.2926C17.1049 10.4802 16.9994 10.7347 16.9994 11.0001C16.9994 11.2654 17.1049 11.5199 17.2925 11.7076C17.4801 11.8952 17.7346 12.0006 18 12.0006C18.2654 12.0006 18.5199 11.8952 18.7075 11.7076L22 8.4138V18.0001C22 18.2653 22.1054 18.5196 22.2929 18.7072C22.4804 18.8947 22.7348 19.0001 23 19.0001C23.2652 19.0001 23.5196 18.8947 23.7071 18.7072C23.8946 18.5196 24 18.2653 24 18.0001V8.4138L27.2925 11.7076C27.3854 11.8005 27.4957 11.8742 27.6171 11.9244C27.7385 11.9747 27.8686 12.0006 28 12.0006C28.1314 12.0006 28.2615 11.9747 28.3829 11.9244C28.5043 11.8742 28.6146 11.8005 28.7075 11.7076C28.8004 11.6146 28.8741 11.5043 28.9244 11.383C28.9747 11.2616 29.0006 11.1314 29.0006 11.0001C29.0006 10.8687 28.9747 10.7386 28.9244 10.6172C28.8741 10.4958 28.8004 10.3855 28.7075 10.2926Z" fill="#343330"/>
</g>
</svg>
