<svg width="32" height="32" viewBox="0 0 32 32" fill="none" xmlns="http://www.w3.org/2000/svg">
<g id="icon/arrow.bend.double.up.left">
<path id="Vector" d="M10.7075 18.2925C10.8951 18.4801 11.0005 18.7346 11.0005 19C11.0005 19.2654 10.8951 19.5199 10.7075 19.7075C10.5199 19.8951 10.2654 20.0006 9.99999 20.0006C9.73463 20.0006 9.48013 19.8951 9.29249 19.7075L3.29249 13.7075C3.19952 13.6146 3.12576 13.5043 3.07543 13.3829C3.02511 13.2615 2.99921 13.1314 2.99921 13C2.99921 12.8686 3.02511 12.7385 3.07543 12.6171C3.12576 12.4957 3.19952 12.3854 3.29249 12.2925L9.29249 6.29251C9.48013 6.10487 9.73463 5.99945 9.99999 5.99945C10.2654 5.99945 10.5199 6.10487 10.7075 6.29251C10.8951 6.48015 11.0005 6.73464 11.0005 7.00001C11.0005 7.26537 10.8951 7.51987 10.7075 7.70751L5.41374 13L10.7075 18.2925ZM16 12H12.4137L16.7075 7.70751C16.8951 7.51987 17.0006 7.26537 17.0006 7.00001C17.0006 6.73464 16.8951 6.48015 16.7075 6.29251C16.5199 6.10487 16.2654 5.99945 16 5.99945C15.7346 5.99945 15.4801 6.10487 15.2925 6.29251L9.29249 12.2925C9.19952 12.3854 9.12576 12.4957 9.07543 12.6171C9.02511 12.7385 8.99921 12.8686 8.99921 13C8.99921 13.1314 9.02511 13.2615 9.07543 13.3829C9.12576 13.5043 9.19952 13.6146 9.29249 13.7075L15.2925 19.7075C15.3854 19.8004 15.4957 19.8741 15.6171 19.9244C15.7385 19.9747 15.8686 20.0006 16 20.0006C16.1314 20.0006 16.2615 19.9747 16.3829 19.9244C16.5043 19.8741 16.6146 19.8004 16.7075 19.7075C16.8004 19.6146 16.8741 19.5043 16.9244 19.3829C16.9747 19.2615 17.0006 19.1314 17.0006 19C17.0006 18.8686 16.9747 18.7385 16.9244 18.6171C16.8741 18.4957 16.8004 18.3854 16.7075 18.2925L12.4137 14H16C18.9164 14.0033 21.7123 15.1633 23.7745 17.2255C25.8367 19.2877 26.9967 22.0836 27 25C27 25.2652 27.1053 25.5196 27.2929 25.7071C27.4804 25.8947 27.7348 26 28 26C28.2652 26 28.5196 25.8947 28.7071 25.7071C28.8946 25.5196 29 25.2652 29 25C28.9964 21.5533 27.6255 18.2488 25.1884 15.8116C22.7512 13.3745 19.4467 12.0036 16 12Z" fill="#343330"/>
</g>
</svg>
