<svg width="32" height="32" viewBox="0 0 32 32" fill="none" xmlns="http://www.w3.org/2000/svg">
<g id="icon/chat.dots">
<path id="Vector" d="M14.5 16C14.5 15.7033 14.5879 15.4133 14.7528 15.1666C14.9176 14.92 15.1519 14.7277 15.4259 14.6142C15.7 14.5006 16.0016 14.4709 16.2926 14.5288C16.5836 14.5867 16.8509 14.7296 17.0606 14.9393C17.2704 15.1491 17.4133 15.4164 17.4712 15.7074C17.529 15.9983 17.4993 16.2999 17.3858 16.574C17.2723 16.8481 17.08 17.0824 16.8333 17.2472C16.5867 17.412 16.2966 17.5 16 17.5C15.6021 17.5 15.2206 17.342 14.9393 17.0607C14.658 16.7794 14.5 16.3978 14.5 16ZM10.5 17.5C10.7966 17.5 11.0867 17.412 11.3333 17.2472C11.58 17.0824 11.7723 16.8481 11.8858 16.574C11.9993 16.2999 12.029 15.9983 11.9712 15.7074C11.9133 15.4164 11.7704 15.1491 11.5606 14.9393C11.3509 14.7296 11.0836 14.5867 10.7926 14.5288C10.5016 14.4709 10.2 14.5006 9.92595 14.6142C9.65186 14.7277 9.41759 14.92 9.25277 15.1666C9.08795 15.4133 8.99997 15.7033 8.99997 16C8.99997 16.3978 9.15801 16.7794 9.43931 17.0607C9.72062 17.342 10.1021 17.5 10.5 17.5ZM21.5 17.5C21.7966 17.5 22.0867 17.412 22.3333 17.2472C22.58 17.0824 22.7723 16.8481 22.8858 16.574C22.9993 16.2999 23.029 15.9983 22.9712 15.7074C22.9133 15.4164 22.7704 15.1491 22.5606 14.9393C22.3509 14.7296 22.0836 14.5867 21.7926 14.5288C21.5016 14.4709 21.2 14.5006 20.9259 14.6142C20.6519 14.7277 20.4176 14.92 20.2528 15.1666C20.0879 15.4133 20 15.7033 20 16C20 16.3978 20.158 16.7794 20.4393 17.0607C20.7206 17.342 21.1021 17.5 21.5 17.5ZM29 8V24C29 24.5304 28.7893 25.0391 28.4142 25.4142C28.0391 25.7893 27.5304 26 27 26H10.375L6.29997 29.52L6.28872 29.5287C5.92876 29.8339 5.4719 30.001 4.99997 30C4.70618 29.9994 4.41608 29.9345 4.14997 29.81C3.80481 29.6505 3.51284 29.395 3.30892 29.074C3.10501 28.7531 2.99776 28.3802 2.99997 28V8C2.99997 7.46957 3.21069 6.96086 3.58576 6.58579C3.96083 6.21071 4.46954 6 4.99997 6H27C27.5304 6 28.0391 6.21071 28.4142 6.58579C28.7893 6.96086 29 7.46957 29 8ZM27 8H4.99997V28L9.34622 24.25C9.52691 24.0906 9.75906 24.0019 9.99997 24H27V8Z" fill="#343330"/>
</g>
</svg>
