<svg width="32" height="32" viewBox="0 0 32 32" fill="none" xmlns="http://www.w3.org/2000/svg">
<g id="icon/star.four">
<path id="Vector" d="M28.6873 14.1251L20.7573 11.2426L17.8748 3.31257C17.7328 2.92982 17.4769 2.59971 17.1418 2.3666C16.8066 2.13349 16.4081 2.00854 15.9998 2.00854C15.5916 2.00854 15.1931 2.13349 14.8579 2.3666C14.5227 2.59971 14.2669 2.92982 14.1248 3.31257L11.2423 11.2426L3.31233 14.1251C2.92958 14.2671 2.59947 14.523 2.36636 14.8581C2.13325 15.1933 2.0083 15.5918 2.0083 16.0001C2.0083 16.4083 2.13325 16.8068 2.36636 17.142C2.59947 17.4772 2.92958 17.733 3.31233 17.8751L11.2423 20.7588L14.1248 28.6876C14.2669 29.0703 14.5227 29.4004 14.8579 29.6335C15.1931 29.8667 15.5916 29.9916 15.9998 29.9916C16.4081 29.9916 16.8066 29.8667 17.1418 29.6335C17.4769 29.4004 17.7328 29.0703 17.8748 28.6876L20.7586 20.7576L28.6873 17.8751C29.0701 17.733 29.4002 17.4772 29.6333 17.142C29.8664 16.8068 29.9914 16.4083 29.9914 16.0001C29.9914 15.5918 29.8664 15.1933 29.6333 14.8581C29.4002 14.523 29.0701 14.2671 28.6873 14.1251ZM19.6348 19.0376C19.4977 19.0875 19.3731 19.1669 19.2699 19.2701C19.1666 19.3733 19.0873 19.4979 19.0373 19.6351L15.9998 27.9876L12.9623 19.6351C12.9124 19.4979 12.833 19.3733 12.7298 19.2701C12.6266 19.1669 12.502 19.0875 12.3648 19.0376L4.01233 16.0001L12.3648 12.9626C12.502 12.9126 12.6266 12.8333 12.7298 12.73C12.833 12.6268 12.9124 12.5022 12.9623 12.3651L15.9998 4.01257L19.0373 12.3651C19.0873 12.5022 19.1666 12.6268 19.2699 12.73C19.3731 12.8333 19.4977 12.9126 19.6348 12.9626L27.9873 16.0001L19.6348 19.0376Z" fill="#343330"/>
</g>
</svg>
