<svg width="32" height="32" viewBox="0 0 32 32" fill="none" xmlns="http://www.w3.org/2000/svg">
<g id="icon/link.simple.break">
<path id="Vector" d="M28.9999 10C29.0022 10.9196 28.8222 11.8306 28.4704 12.6802C28.1185 13.5299 27.6017 14.3013 26.9499 14.95L23.1911 18.7075C23.0035 18.895 22.749 19.0002 22.4838 19.0001C22.2186 19 21.9642 18.8945 21.7767 18.7069C21.5893 18.5193 21.484 18.2648 21.4841 17.9996C21.4842 17.7343 21.5897 17.48 21.7774 17.2925L25.5361 13.535C26.0089 13.0726 26.3853 12.521 26.6434 11.9122C26.9015 11.3033 27.0363 10.6493 27.04 9.98799C27.0436 9.32668 26.916 8.67122 26.6646 8.05956C26.4132 7.4479 26.0429 6.89219 25.5753 6.4246C25.1076 5.95702 24.5518 5.58686 23.9401 5.33555C23.3284 5.08424 22.6729 4.95677 22.0116 4.96053C21.3503 4.96429 20.6963 5.0992 20.0875 5.35745C19.4787 5.6157 18.9272 5.99215 18.4649 6.46502L14.7074 10.2213C14.5197 10.4089 14.2652 10.5143 13.9999 10.5143C13.7345 10.5143 13.48 10.4089 13.2924 10.2213C13.1047 10.0336 12.9993 9.77913 12.9993 9.51377C12.9993 9.24841 13.1047 8.99391 13.2924 8.80627L17.0499 5.05002C18.0288 4.07095 19.2762 3.40418 20.6341 3.13405C21.992 2.86391 23.3996 3.00253 24.6787 3.53239C25.9579 4.06224 27.0512 4.95953 27.8203 6.11076C28.5895 7.262 29 8.61548 28.9999 10ZM17.2924 21.7775L13.5349 25.535C13.0725 26.0078 12.5209 26.3842 11.912 26.6423C11.3032 26.9004 10.6491 27.0352 9.98784 27.0389C9.32653 27.0425 8.67107 26.9149 8.05941 26.6635C7.44774 26.4121 6.89203 26.0418 6.42445 25.5742C5.95687 25.1065 5.58671 24.5507 5.3354 23.939C5.08409 23.3273 4.95662 22.6718 4.96038 22.0105C4.96414 21.3492 5.09905 20.6952 5.3573 20.0864C5.61555 19.4776 5.992 18.9261 6.46487 18.4638L10.2211 14.7075C10.4088 14.5199 10.5142 14.2654 10.5142 14C10.5142 13.7347 10.4088 13.4802 10.2211 13.2925C10.0335 13.1049 9.77898 12.9995 9.51362 12.9995C9.24825 12.9995 8.99376 13.1049 8.80612 13.2925L5.04987 17.05C3.73705 18.3628 2.99951 20.1434 2.99951 22C2.99951 23.8566 3.73705 25.6372 5.04987 26.95C6.36269 28.2628 8.14326 29.0004 9.99987 29.0004C11.8565 29.0004 13.637 28.2628 14.9499 26.95L18.7074 23.1913C18.8948 23.0036 19.0001 22.7492 19 22.484C18.9999 22.2187 18.8944 21.9644 18.7067 21.7769C18.5191 21.5894 18.2647 21.4842 17.9994 21.4843C17.7342 21.4844 17.4798 21.5899 17.2924 21.7775Z" fill="#343330"/>
</g>
</svg>
