<svg width="32" height="32" viewBox="0 0 32 32" fill="none" xmlns="http://www.w3.org/2000/svg">
<g id="icon/eject.simple">
<path id="Vector" d="M28.9999 25C28.9999 25.2652 28.8946 25.5196 28.707 25.7071C28.5195 25.8946 28.2651 26 27.9999 26H3.99993C3.73471 26 3.48036 25.8946 3.29282 25.7071C3.10528 25.5196 2.99993 25.2652 2.99993 25C2.99993 24.7348 3.10528 24.4804 3.29282 24.2929C3.48036 24.1053 3.73471 24 3.99993 24H27.9999C28.2651 24 28.5195 24.1053 28.707 24.2929C28.8946 24.4804 28.9999 24.7348 28.9999 25ZM3.19868 18.855C3.03304 18.5124 2.96857 18.1296 3.01286 17.7517C3.05714 17.3737 3.20833 17.0163 3.44868 16.7212L13.6574 4.11748C13.94 3.76844 14.2969 3.48695 14.7022 3.29359C15.1075 3.10023 15.5509 2.99988 15.9999 2.99988C16.449 2.99988 16.8924 3.10023 17.2976 3.29359C17.7029 3.48695 18.0599 3.76844 18.3424 4.11748L28.5487 16.7212C28.7876 17.0164 28.9381 17.3731 28.9829 17.7501C29.0277 18.1272 28.9649 18.5092 28.8018 18.8521C28.6386 19.195 28.3818 19.4848 28.061 19.6879C27.7401 19.891 27.3684 19.9992 26.9887 20H5.01118C4.63154 20.0008 4.2595 19.8936 3.93855 19.6909C3.61759 19.4881 3.36097 19.1982 3.19868 18.855ZM4.99993 17.9887C4.99993 17.9887 4.99993 18 5.00993 18.0025H26.9887C26.9887 18.0025 26.9987 17.9912 26.9987 17.9862L16.7874 5.37498C16.6925 5.25753 16.5725 5.1628 16.4363 5.09773C16.3 5.03265 16.1509 4.99887 15.9999 4.99887C15.8489 4.99887 15.6998 5.03265 15.5636 5.09773C15.4273 5.1628 15.3073 5.25753 15.2124 5.37498L4.99993 17.98C4.99956 17.9829 4.99956 17.9858 4.99993 17.9887Z" fill="#343330"/>
</g>
</svg>
