<svg width="32" height="32" viewBox="0 0 32 32" fill="none" xmlns="http://www.w3.org/2000/svg">
<g id="icon/wifi.medium">
<path id="Vector" d="M17.4998 25.5C17.4998 25.7966 17.4118 26.0867 17.247 26.3333C17.0822 26.58 16.8479 26.7723 16.5738 26.8858C16.2997 26.9993 15.9981 27.029 15.7071 26.9712C15.4162 26.9133 15.1489 26.7704 14.9391 26.5606C14.7293 26.3509 14.5865 26.0836 14.5286 25.7926C14.4707 25.5016 14.5004 25.2 14.614 24.926C14.7275 24.6519 14.9198 24.4176 15.1664 24.2528C15.4131 24.088 15.7031 24 15.9998 24C16.3976 24 16.7791 24.158 17.0604 24.4393C17.3417 24.7206 17.4998 25.1022 17.4998 25.5ZM25.6248 15.3462C22.8864 13.1783 19.4962 11.9987 16.0035 11.9987C12.5109 11.9987 9.12061 13.1783 6.38228 15.3462C6.17442 15.511 6.04052 15.7516 6.01004 16.0151C5.97957 16.2786 6.05501 16.5434 6.21978 16.7512C6.38454 16.9591 6.62514 17.093 6.88862 17.1235C7.15211 17.1539 7.41692 17.0785 7.62478 16.9137C10.0096 15.026 12.962 13.9989 16.0035 13.9989C19.0451 13.9989 21.9975 15.026 24.3823 16.9137C24.4852 16.9953 24.6032 17.0558 24.7295 17.0918C24.8558 17.1278 24.988 17.1386 25.1184 17.1235C25.2489 17.1084 25.3751 17.0678 25.4899 17.0039C25.6047 16.94 25.7057 16.8542 25.7873 16.7512C25.8689 16.6483 25.9294 16.5303 25.9654 16.404C26.0014 16.2777 26.0121 16.1455 25.9971 16.0151C25.982 15.8846 25.9413 15.7584 25.8774 15.6436C25.8136 15.5289 25.7277 15.4278 25.6248 15.3462ZM21.5923 19.8162C19.9679 18.6357 18.0115 17.9999 16.0035 17.9999C13.9955 17.9999 12.0391 18.6357 10.4148 19.8162C10.2003 19.9724 10.0566 20.2073 10.0153 20.4694C9.97409 20.7315 10.0386 20.9992 10.1948 21.2137C10.3509 21.4282 10.5859 21.5719 10.848 21.6132C11.11 21.6544 11.3778 21.5899 11.5923 21.4337C12.8742 20.5015 14.4185 19.9993 16.0035 19.9993C17.5886 19.9993 19.1329 20.5015 20.4148 21.4337C20.521 21.511 20.6414 21.5667 20.7691 21.5975C20.8968 21.6283 21.0293 21.6336 21.1591 21.6132C21.2889 21.5927 21.4133 21.5469 21.5254 21.4784C21.6375 21.4099 21.735 21.3199 21.8123 21.2137C21.8896 21.1075 21.9452 20.9871 21.976 20.8594C22.0068 20.7317 22.0121 20.5992 21.9917 20.4694C21.9713 20.3396 21.9255 20.2152 21.857 20.1031C21.7884 19.991 21.6985 19.8935 21.5923 19.8162Z" fill="#343330"/>
</g>
</svg>
