<svg width="32" height="32" viewBox="0 0 32 32" fill="none" xmlns="http://www.w3.org/2000/svg">
<g id="icon/arrow.fat.left">
<path id="Vector" d="M26 8.99999H16V3.99999C16.0001 3.8021 15.9416 3.60861 15.8317 3.44401C15.7218 3.27942 15.5656 3.15112 15.3828 3.07537C15.2 2.99962 14.9988 2.97981 14.8047 3.01846C14.6106 3.05712 14.4323 3.15248 14.2925 3.29249L2.29249 15.2925C2.19952 15.3854 2.12576 15.4957 2.07543 15.6171C2.02511 15.7385 1.99921 15.8686 1.99921 16C1.99921 16.1314 2.02511 16.2615 2.07543 16.3829C2.12576 16.5043 2.19952 16.6146 2.29249 16.7075L14.2925 28.7075C14.4323 28.8475 14.6106 28.9429 14.8047 28.9815C14.9988 29.0202 15.2 29.0004 15.3828 28.9246C15.5656 28.8489 15.7218 28.7206 15.8317 28.556C15.9416 28.3914 16.0001 28.1979 16 28V23H26C26.5304 23 27.0391 22.7893 27.4142 22.4142C27.7893 22.0391 28 21.5304 28 21V11C28 10.4696 27.7893 9.96085 27.4142 9.58578C27.0391 9.21071 26.5304 8.99999 26 8.99999ZM26 21H15C14.7348 21 14.4804 21.1054 14.2929 21.2929C14.1054 21.4804 14 21.7348 14 22V25.5862L4.41374 16L14 6.41374V9.99999C14 10.2652 14.1054 10.5196 14.2929 10.7071C14.4804 10.8946 14.7348 11 15 11H26V21Z" fill="#343330"/>
</g>
</svg>
