<svg width="32" height="32" viewBox="0 0 32 32" fill="none" xmlns="http://www.w3.org/2000/svg">
<g id="icon/beanie">
<path id="Vector" d="M28 20.27V18C27.995 15.334 27.1041 12.7452 25.4672 10.6408C23.8303 8.53643 21.5404 7.03583 18.9575 6.37501C19.2925 5.84567 19.4793 5.23612 19.4984 4.60997C19.5175 3.98382 19.3681 3.36403 19.066 2.81526C18.7639 2.2665 18.32 1.80888 17.7807 1.49017C17.2414 1.17146 16.6264 1.00333 16 1.00333C15.3736 1.00333 14.7586 1.17146 14.2193 1.49017C13.68 1.80888 13.2361 2.2665 12.934 2.81526C12.6319 3.36403 12.4825 3.98382 12.5016 4.60997C12.5207 5.23612 12.7075 5.84567 13.0425 6.37501C10.4596 7.03583 8.16971 8.53643 6.53282 10.6408C4.89593 12.7452 4.00495 15.334 4 18V20.27C3.69626 20.4454 3.44398 20.6975 3.26846 21.0012C3.09294 21.3048 3.00036 21.6493 3 22V26C3 26.5304 3.21071 27.0391 3.58579 27.4142C3.96086 27.7893 4.46957 28 5 28H27C27.5304 28 28.0391 27.7893 28.4142 27.4142C28.7893 27.0391 29 26.5304 29 26V22C28.9996 21.6493 28.9071 21.3048 28.7315 21.0012C28.556 20.6975 28.3037 20.4454 28 20.27ZM14.5 4.50001C14.5 4.20334 14.588 3.91333 14.7528 3.66665C14.9176 3.41998 15.1519 3.22772 15.426 3.11419C15.7001 3.00066 16.0017 2.97095 16.2926 3.02883C16.5836 3.08671 16.8509 3.22957 17.0607 3.43935C17.2704 3.64913 17.4133 3.9164 17.4712 4.20737C17.5291 4.49834 17.4993 4.79994 17.3858 5.07403C17.2723 5.34812 17.08 5.58239 16.8334 5.74721C16.5867 5.91203 16.2967 6.00001 16 6.00001C15.6022 6.00001 15.2206 5.84197 14.9393 5.56067C14.658 5.27936 14.5 4.89783 14.5 4.50001ZM16 8.00001C18.6513 8.00299 21.1931 9.05751 23.0678 10.9322C24.9425 12.8069 25.997 15.3488 26 18V20H6V18C6.00298 15.3488 7.0575 12.8069 8.93222 10.9322C10.8069 9.05751 13.3487 8.00299 16 8.00001ZM15 22V26H10V22H15ZM17 22H22V26H17V22ZM5 22H8V26H5V22ZM27 26H24V22H27V26Z" fill="#343330"/>
</g>
</svg>
