<svg width="32" height="32" viewBox="0 0 32 32" fill="none" xmlns="http://www.w3.org/2000/svg">
<g id="icon/eject">
<path id="Vector" d="M26 19H6C5.46957 19 4.96086 19.2108 4.58579 19.5858C4.21071 19.9609 4 20.4696 4 21V24C4 24.5305 4.21071 25.0392 4.58579 25.4143C4.96086 25.7893 5.46957 26 6 26H26C26.5304 26 27.0391 25.7893 27.4142 25.4143C27.7893 25.0392 28 24.5305 28 24V21C28 20.4696 27.7893 19.9609 27.4142 19.5858C27.0391 19.2108 26.5304 19 26 19ZM26 24H6V21H26V24ZM6.03 17H25.97C26.3664 17.002 26.7546 16.8873 27.0864 16.6704C27.4182 16.4535 27.679 16.1439 27.8363 15.78C27.9917 15.4252 28.0378 15.0321 27.9688 14.651C27.8998 14.2698 27.7187 13.9178 27.4487 13.64L18.2325 3.95129C17.9437 3.65048 17.597 3.41114 17.2134 3.24765C16.8297 3.08415 16.417 2.99988 16 2.99988C15.583 2.99988 15.1703 3.08415 14.7866 3.24765C14.403 3.41114 14.0563 3.65048 13.7675 3.95129L4.55125 13.64C4.28128 13.9178 4.10023 14.2698 4.03121 14.651C3.96219 15.0321 4.00833 15.4252 4.16375 15.78C4.32103 16.1439 4.58178 16.4535 4.91358 16.6704C5.24537 16.8873 5.6336 17.002 6.03 17ZM15.2163 5.33004C15.3183 5.22565 15.4403 5.1427 15.5749 5.08607C15.7094 5.02945 15.854 5.00028 16 5.00028C16.146 5.00028 16.2906 5.02945 16.4251 5.08607C16.5597 5.1427 16.6817 5.22565 16.7838 5.33004L25.9813 15H6.0175L15.2163 5.33004Z" fill="#343330"/>
</g>
</svg>
