<svg width="32" height="32" viewBox="0 0 32 32" fill="none" xmlns="http://www.w3.org/2000/svg">
<g id="icon/push.pin.slash">
<path id="Vector" d="M6.73989 4.32753C6.65207 4.22854 6.54547 4.14797 6.42629 4.09047C6.3071 4.03298 6.17768 3.99971 6.04554 3.99261C5.9134 3.9855 5.78117 4.00469 5.6565 4.04906C5.53183 4.09343 5.41721 4.16211 5.31927 4.25111C5.22134 4.34011 5.14205 4.44766 5.08599 4.56753C5.02993 4.6874 4.99822 4.8172 4.99269 4.94942C4.98717 5.08163 5.00794 5.21363 5.05381 5.33776C5.09967 5.46189 5.16972 5.57568 5.25989 5.67253L8.42114 9.15003C7.07178 9.45197 5.81347 10.0702 4.74989 10.9538C4.53104 11.1298 4.35171 11.3498 4.22356 11.5997C4.09541 11.8496 4.02132 12.1237 4.00611 12.4041C3.9909 12.6845 4.03491 12.9649 4.13527 13.2272C4.23564 13.4895 4.39011 13.7277 4.58864 13.9263L10.6249 19.9638L5.29239 25.2925C5.10475 25.4802 4.99933 25.7347 4.99933 26C4.99933 26.2654 5.10475 26.5199 5.29239 26.7075C5.48003 26.8952 5.73452 27.0006 5.99989 27.0006C6.26525 27.0006 6.51974 26.8952 6.70739 26.7075L12.0361 21.375L18.0724 27.4113C18.258 27.5976 18.4784 27.7456 18.7213 27.8466C18.9641 27.9476 19.2244 27.9997 19.4874 28C19.5349 28 19.5811 28 19.6286 28C19.9137 27.9803 20.1912 27.8994 20.4423 27.7629C20.6934 27.6263 20.9121 27.4374 21.0836 27.2088C21.6744 26.4308 22.161 25.579 22.5311 24.675L25.2611 27.675C25.349 27.774 25.4555 27.8546 25.5747 27.9121C25.6939 27.9696 25.8233 28.0029 25.9555 28.01C26.0876 28.0171 26.2199 27.9979 26.3445 27.9535C26.4692 27.9091 26.5838 27.8405 26.6817 27.7515C26.7797 27.6625 26.859 27.5549 26.915 27.435C26.9711 27.3152 27.0028 27.1854 27.0083 27.0532C27.0139 26.9209 26.9931 26.7889 26.9472 26.6648C26.9013 26.5407 26.8313 26.4269 26.7411 26.33L6.73989 4.32753ZM19.4874 26L5.99989 12.51C7.27864 11.4788 8.64989 10.965 10.0824 10.9763L20.9774 22.9613C20.6986 24.195 20.0299 25.2788 19.4874 26ZM29.4149 13L23.8349 18.5988C23.7421 18.6918 23.632 18.7656 23.5107 18.816C23.3894 18.8664 23.2594 18.8925 23.1281 18.8926C22.9967 18.8928 22.8667 18.8671 22.7453 18.817C22.6239 18.7669 22.5135 18.6934 22.4205 18.6007C22.3275 18.5079 22.2537 18.3978 22.2033 18.2765C22.1529 18.1552 22.1268 18.0252 22.1266 17.8939C22.1265 17.7625 22.1522 17.6324 22.2023 17.511C22.2524 17.3896 22.3259 17.2793 22.4186 17.1863L27.9999 11.5875L20.4149 4.00003L15.2624 9.16878C15.0736 9.34876 14.8221 9.44788 14.5613 9.44501C14.3005 9.44214 14.0512 9.33751 13.8664 9.15342C13.6817 8.96934 13.5762 8.72037 13.5724 8.45961C13.5686 8.19884 13.6668 7.94691 13.8461 7.75753L18.9999 2.58753C19.1856 2.40177 19.4061 2.25441 19.6488 2.15387C19.8915 2.05333 20.1516 2.00159 20.4143 2.00159C20.6769 2.00159 20.9371 2.05333 21.1797 2.15387C21.4224 2.25441 21.6429 2.40177 21.8286 2.58753L29.4149 10.1725C29.7897 10.5476 30.0002 11.0561 30.0002 11.5863C30.0002 12.1165 29.7897 12.625 29.4149 13Z" fill="#343330"/>
</g>
</svg>
