<svg width="32" height="32" viewBox="0 0 32 32" fill="none" xmlns="http://www.w3.org/2000/svg">
<g id="icon/sailboat">
<path id="Vector" d="M30.9011 21.5662C30.8195 21.3966 30.6916 21.2534 30.5321 21.1532C30.3727 21.053 30.1882 20.9999 29.9999 21H17.9999V18H26.9999C27.1936 17.9999 27.3831 17.9437 27.5454 17.838C27.7078 17.7323 27.8359 17.5817 27.9143 17.4046C27.9927 17.2274 28.0179 17.0314 27.9869 16.8401C27.956 16.6489 27.8702 16.4708 27.7399 16.3275L17.9999 5.61371V0.999964C17.9988 0.793839 17.934 0.593094 17.8144 0.425204C17.6948 0.257313 17.5263 0.13048 17.3318 0.0620626C17.1374 -0.00635479 16.9265 -0.0130134 16.7282 0.042998C16.5298 0.0990095 16.3536 0.214954 16.2236 0.374964L3.22364 16.375C3.10612 16.5217 3.03237 16.6987 3.01084 16.8855C2.98931 17.0723 3.02088 17.2613 3.10193 17.431C3.18297 17.6007 3.31022 17.7441 3.46905 17.8447C3.62788 17.9453 3.81187 17.9991 3.99989 18H15.9999V21H1.99989C1.81144 20.9998 1.62679 21.053 1.46722 21.1532C1.30766 21.2535 1.17967 21.3968 1.09802 21.5667C1.01636 21.7365 0.984359 21.926 1.0057 22.1132C1.02704 22.3005 1.10086 22.4779 1.21864 22.625L4.91864 27.25C5.1056 27.4845 5.34311 27.6737 5.61345 27.8036C5.88379 27.9335 6.17998 28.0006 6.47989 28H25.5199C25.8198 28.0006 26.116 27.9335 26.3863 27.8036C26.6567 27.6737 26.8942 27.4845 27.0811 27.25L30.7811 22.625C30.8989 22.4777 30.9727 22.3002 30.9939 22.1129C31.0151 21.9256 30.983 21.7361 30.9011 21.5662ZM24.7399 16H17.9999V8.58621L24.7399 16ZM6.10114 16L15.9999 3.81621V16H6.10114ZM25.5199 26H6.47989L4.07989 23H27.9199L25.5199 26Z" fill="#343330"/>
</g>
</svg>
