<svg width="32" height="32" viewBox="0 0 32 32" fill="none" xmlns="http://www.w3.org/2000/svg">
<g id="icon/paper.plane">
<path id="Vector" d="M29.7375 25.0126L17.7313 4.0226C17.5573 3.71332 17.3041 3.45589 16.9978 3.27674C16.6915 3.09759 16.343 3.00317 15.9882 3.00317C15.6333 3.00317 15.2848 3.09759 14.9785 3.27674C14.6722 3.45589 14.419 3.71332 14.245 4.0226L2.25878 25.0226C2.06004 25.3771 1.974 25.7837 2.01211 26.1883C2.05023 26.5929 2.21069 26.9762 2.47212 27.2874C2.73356 27.5985 3.08357 27.8226 3.47555 27.9298C3.86753 28.037 4.28287 28.0223 4.66628 27.8876L16 24.0564L27.3338 27.8851C27.5479 27.9605 27.7731 27.9993 28 28.0001C28.3493 27.9989 28.6922 27.9063 28.9946 27.7315C29.2969 27.5566 29.5482 27.3056 29.7234 27.0034C29.8987 26.7013 29.9917 26.3585 29.9933 26.0092C29.9949 25.66 29.905 25.3163 29.7325 25.0126H29.7375ZM27.9813 25.9926L17 22.2826V15.0001C17 14.7349 16.8947 14.4805 16.7071 14.293C16.5196 14.1055 16.2652 14.0001 16 14.0001C15.7348 14.0001 15.4805 14.1055 15.2929 14.293C15.1054 14.4805 15 14.7349 15 15.0001V22.2826L4.02003 25.9926L4.00003 26.0001L15.9825 5.0001L28 26.0001L27.9813 25.9926Z" fill="#343330"/>
</g>
</svg>
