<svg width="32" height="32" viewBox="0 0 32 32" fill="none" xmlns="http://www.w3.org/2000/svg">
<g id="icon/television">
<path id="Vector" d="M27 7.99995H18.4137L22.7075 3.70745C22.8951 3.51981 23.0006 3.26531 23.0006 2.99995C23.0006 2.73458 22.8951 2.48009 22.7075 2.29245C22.5199 2.10481 22.2654 1.99939 22 1.99939C21.7346 1.99939 21.4801 2.10481 21.2925 2.29245L16 7.5862L10.7075 2.29245C10.6146 2.19954 10.5043 2.12584 10.3829 2.07555C10.2615 2.02527 10.1314 1.99939 10 1.99939C9.86861 1.99939 9.7385 2.02527 9.6171 2.07555C9.49571 2.12584 9.38541 2.19954 9.2925 2.29245C9.10486 2.48009 8.99944 2.73458 8.99944 2.99995C8.99944 3.26531 9.10486 3.51981 9.2925 3.70745L13.5863 7.99995H5C4.46957 7.99995 3.96086 8.21066 3.58579 8.58573C3.21071 8.96081 3 9.46951 3 9.99995V24.9999C3 25.5304 3.21071 26.0391 3.58579 26.4142C3.96086 26.7892 4.46957 26.9999 5 26.9999H27C27.5304 26.9999 28.0391 26.7892 28.4142 26.4142C28.7893 26.0391 29 25.5304 29 24.9999V9.99995C29 9.46951 28.7893 8.96081 28.4142 8.58573C28.0391 8.21066 27.5304 7.99995 27 7.99995ZM5 9.99995H18V24.9999H5V9.99995ZM27 24.9999H20V9.99995H27V24.9999ZM25 14.4999C25 14.7966 24.912 15.0866 24.7472 15.3333C24.5824 15.58 24.3481 15.7722 24.074 15.8858C23.7999 15.9993 23.4983 16.029 23.2074 15.9711C22.9164 15.9132 22.6491 15.7704 22.4393 15.5606C22.2296 15.3508 22.0867 15.0836 22.0288 14.7926C21.9709 14.5016 22.0007 14.2 22.1142 13.9259C22.2277 13.6518 22.42 13.4176 22.6666 13.2527C22.9133 13.0879 23.2033 12.9999 23.5 12.9999C23.8978 12.9999 24.2794 13.158 24.5607 13.4393C24.842 13.7206 25 14.1021 25 14.4999ZM25 20.4999C25 20.7966 24.912 21.0866 24.7472 21.3333C24.5824 21.58 24.3481 21.7722 24.074 21.8858C23.7999 21.9993 23.4983 22.029 23.2074 21.9711C22.9164 21.9132 22.6491 21.7704 22.4393 21.5606C22.2296 21.3508 22.0867 21.0836 22.0288 20.7926C21.9709 20.5016 22.0007 20.2 22.1142 19.9259C22.2277 19.6518 22.42 19.4176 22.6666 19.2527C22.9133 19.0879 23.2033 18.9999 23.5 18.9999C23.8978 18.9999 24.2794 19.158 24.5607 19.4393C24.842 19.7206 25 20.1021 25 20.4999Z" fill="#343330"/>
</g>
</svg>
