<svg width="32" height="32" viewBox="0 0 32 32" fill="none" xmlns="http://www.w3.org/2000/svg">
<g id="icon/circle.notch">
<path id="Vector" d="M29 16C29 19.4478 27.6304 22.7544 25.1924 25.1924C22.7544 27.6304 19.4478 29 16 29C12.5522 29 9.24558 27.6304 6.80761 25.1924C4.36964 22.7544 3 19.4478 3 16C3 10.875 5.97625 6.20501 10.5825 4.09126C10.7018 4.03643 10.8308 4.00564 10.962 4.00066C11.0933 3.99568 11.2242 4.01659 11.3474 4.06221C11.4705 4.10782 11.5835 4.17725 11.6798 4.26652C11.7761 4.3558 11.8539 4.46317 11.9087 4.58251C11.9636 4.70184 11.9944 4.83081 11.9993 4.96205C12.0043 5.09329 11.9834 5.22422 11.9378 5.34737C11.8922 5.47053 11.8228 5.58349 11.7335 5.67981C11.6442 5.77613 11.5368 5.85393 11.4175 5.90876C7.51875 7.69876 5 11.6588 5 16C5 18.9174 6.15893 21.7153 8.22183 23.7782C10.2847 25.8411 13.0826 27 16 27C18.9174 27 21.7153 25.8411 23.7782 23.7782C25.8411 21.7153 27 18.9174 27 16C27 11.6588 24.4813 7.69876 20.5825 5.90876C20.3415 5.79803 20.1543 5.59609 20.0622 5.34737C19.9701 5.09865 19.9805 4.82352 20.0912 4.58251C20.202 4.34149 20.4039 4.15433 20.6526 4.06221C20.9014 3.97008 21.1765 3.98053 21.4175 4.09126C26.0238 6.20501 29 10.875 29 16Z" fill="#343330"/>
</g>
</svg>
