<svg width="32" height="32" viewBox="0 0 32 32" fill="none" xmlns="http://www.w3.org/2000/svg">
<g id="icon/clock.clockwise">
<path id="Vector" d="M16.9998 10V15.4338L21.5148 18.1425C21.7422 18.2791 21.906 18.5005 21.9703 18.7579C22.0345 19.0153 21.9939 19.2876 21.8573 19.515C21.7207 19.7425 21.4993 19.9063 21.242 19.9705C20.9846 20.0348 20.7122 19.9941 20.4848 19.8575L15.4848 16.8575C15.3368 16.7686 15.2143 16.6429 15.1293 16.4927C15.0444 16.3424 14.9997 16.1727 14.9998 16V10C14.9998 9.73483 15.1051 9.48047 15.2927 9.29294C15.4802 9.1054 15.7346 9.00004 15.9998 9.00004C16.265 9.00004 16.5193 9.1054 16.7069 9.29294C16.8944 9.48047 16.9998 9.73483 16.9998 10ZM27.9998 7.00004C27.7346 7.00004 27.4802 7.1054 27.2927 7.29294C27.1051 7.48047 26.9998 7.73483 26.9998 8.00004V10.25C26.206 9.33004 25.396 8.44379 24.4848 7.52129C22.8171 5.85343 20.6949 4.71399 18.3833 4.24536C16.0717 3.77673 13.6733 3.99969 11.4878 4.88638C9.30218 5.77306 7.42636 7.28416 6.09469 9.23085C4.76302 11.1775 4.03454 13.4735 4.00029 15.8318C3.96604 18.1902 4.62752 20.5063 5.9021 22.4909C7.17667 24.4754 9.00781 26.0403 11.1667 26.9901C13.3256 27.9399 15.7165 28.2324 18.0407 27.8311C20.3649 27.4298 22.5194 26.3525 24.2348 24.7338C24.3303 24.6435 24.4071 24.5353 24.4608 24.4153C24.5146 24.2953 24.5441 24.166 24.5478 24.0346C24.5515 23.9032 24.5293 23.7723 24.4825 23.6495C24.4356 23.5267 24.3651 23.4143 24.2748 23.3188C24.1845 23.2233 24.0763 23.1464 23.9563 23.0927C23.8363 23.039 23.707 23.0094 23.5756 23.0057C23.4442 23.002 23.3133 23.0242 23.1905 23.0711C23.0677 23.1179 22.9553 23.1885 22.8598 23.2788C21.4298 24.6264 19.6346 25.5229 17.6982 25.8563C15.7618 26.1897 13.7701 25.9452 11.9718 25.1535C10.1735 24.3617 8.64829 23.0577 7.58666 21.4043C6.52503 19.7509 5.97401 17.8214 6.00241 15.8567C6.03081 13.892 6.63738 11.9793 7.74636 10.3573C8.85534 8.73525 10.4176 7.47589 12.238 6.73643C14.0585 5.99698 16.0564 5.81021 17.9823 6.19945C19.9083 6.58868 21.6769 7.53668 23.0673 8.92504C24.0848 9.95504 24.976 10.9475 25.8748 12H22.9998C22.7346 12 22.4802 12.1054 22.2927 12.2929C22.1051 12.4805 21.9998 12.7348 21.9998 13C21.9998 13.2653 22.1051 13.5196 22.2927 13.7071C22.4802 13.8947 22.7346 14 22.9998 14H27.9998C28.265 14 28.5193 13.8947 28.7069 13.7071C28.8944 13.5196 28.9998 13.2653 28.9998 13V8.00004C28.9998 7.73483 28.8944 7.48047 28.7069 7.29294C28.5193 7.1054 28.265 7.00004 27.9998 7.00004Z" fill="#343330"/>
</g>
</svg>
