<svg width="32" height="32" viewBox="0 0 32 32" fill="none" xmlns="http://www.w3.org/2000/svg">
<g id="icon/caret.circle.double.up">
<path id="Vector" d="M25.1925 6.80754C22.7545 4.36953 19.4478 2.99988 16 2.99988C12.5521 2.99988 9.24548 4.36953 6.80748 6.80754C4.36947 9.24554 2.99982 12.5522 2.99982 16C2.99982 19.4479 4.36947 22.7545 6.80747 25.1925C9.24548 27.6305 12.5521 29.0002 16 29.0002C19.4478 29.0002 22.7545 27.6305 25.1925 25.1925C27.6305 22.7545 29.0001 19.4479 29.0001 16C29.0001 12.5522 27.6305 9.24554 25.1925 6.80754ZM23.7787 23.7788C22.2403 25.317 20.2803 26.3645 18.1465 26.7888C16.0128 27.2131 13.8011 26.9952 11.7912 26.1626C9.78134 25.3299 8.06347 23.92 6.85485 22.1111C5.64622 20.3022 5.00113 18.1756 5.00113 16C5.00113 13.8245 5.64622 11.6978 6.85485 9.88893C8.06347 8.08003 9.78134 6.67013 11.7912 5.83752C13.8011 5.00491 16.0128 4.78697 18.1465 5.21128C20.2803 5.63558 22.2403 6.68307 23.7787 8.22129C25.8386 10.286 26.9954 13.0835 26.9954 16C26.9954 18.9166 25.8386 21.7141 23.7787 23.7788ZM20.7075 20.2925C20.8951 20.4802 21.0005 20.7347 21.0005 21C21.0005 21.2654 20.8951 21.5199 20.7075 21.7075C20.5198 21.8952 20.2653 22.0006 20 22.0006C19.7346 22.0006 19.4801 21.8952 19.2925 21.7075L16 18.4138L12.7075 21.7075C12.6146 21.8004 12.5043 21.8741 12.3829 21.9244C12.2615 21.9747 12.1314 22.0006 12 22.0006C11.8686 22.0006 11.7385 21.9747 11.6171 21.9244C11.4957 21.8741 11.3854 21.8004 11.2925 21.7075C11.1996 21.6146 11.1259 21.5043 11.0756 21.3829C11.0253 21.2615 10.9994 21.1314 10.9994 21C10.9994 20.8686 11.0253 20.7385 11.0756 20.6171C11.1259 20.4957 11.1996 20.3854 11.2925 20.2925L15.2925 16.2925C15.3853 16.1996 15.4956 16.1258 15.617 16.0755C15.7384 16.0252 15.8686 15.9992 16 15.9992C16.1314 15.9992 16.2615 16.0252 16.3829 16.0755C16.5043 16.1258 16.6146 16.1996 16.7075 16.2925L20.7075 20.2925ZM20.7075 13.2925C20.8004 13.3854 20.8741 13.4957 20.9244 13.6171C20.9747 13.7385 21.0005 13.8686 21.0005 14C21.0005 14.1314 20.9747 14.2615 20.9244 14.3829C20.8741 14.5043 20.8004 14.6146 20.7075 14.7075C20.6146 14.8004 20.5043 14.8741 20.3829 14.9244C20.2615 14.9747 20.1314 15.0006 20 15.0006C19.8686 15.0006 19.7385 14.9747 19.6171 14.9244C19.4957 14.8741 19.3854 14.8004 19.2925 14.7075L16 11.4138L12.7075 14.7075C12.5198 14.8952 12.2653 15.0006 12 15.0006C11.7346 15.0006 11.4801 14.8952 11.2925 14.7075C11.1048 14.5199 10.9994 14.2654 10.9994 14C10.9994 13.7347 11.1048 13.4802 11.2925 13.2925L15.2925 9.29254C15.3853 9.19956 15.4956 9.1258 15.617 9.07548C15.7384 9.02515 15.8686 8.99925 16 8.99925C16.1314 8.99925 16.2615 9.02515 16.3829 9.07548C16.5043 9.1258 16.6146 9.19956 16.7075 9.29254L20.7075 13.2925Z" fill="#343330"/>
</g>
</svg>
