<svg width="32" height="32" viewBox="0 0 32 32" fill="none" xmlns="http://www.w3.org/2000/svg">
<g id="icon/greater.than.or.equal">
<path id="Vector" d="M6.65499 19.0612L23.1075 13L6.65499 6.93874C6.52679 6.89729 6.4083 6.83036 6.30661 6.74198C6.20493 6.65359 6.12215 6.54557 6.06326 6.42439C6.00436 6.30322 5.97056 6.1714 5.96388 6.03683C5.9572 5.90227 5.97777 5.76775 6.02438 5.64134C6.07098 5.51492 6.14265 5.39923 6.23508 5.30121C6.32751 5.20319 6.43879 5.12485 6.56224 5.0709C6.6857 5.01696 6.81879 4.98852 6.95351 4.98729C7.08823 4.98605 7.22181 5.01206 7.34623 5.06374L26.3462 12.0637C26.5376 12.1348 26.7027 12.2627 26.8192 12.4303C26.9358 12.5979 26.9982 12.7971 26.9982 13.0012C26.9982 13.2054 26.9358 13.4046 26.8192 13.5722C26.7027 13.7398 26.5376 13.8677 26.3462 13.9387L7.34623 20.9387C7.23525 20.9791 7.11808 20.9998 6.99998 21C6.76508 21.0001 6.53765 20.9175 6.35755 20.7667C6.17746 20.6159 6.0562 20.4065 6.01505 20.1752C5.9739 19.9439 6.01547 19.7055 6.13248 19.5019C6.24949 19.2982 6.43447 19.1422 6.65499 19.0612ZM26 24H6.99998C6.73477 24 6.48041 24.1053 6.29288 24.2929C6.10534 24.4804 5.99998 24.7348 5.99998 25C5.99998 25.2652 6.10534 25.5196 6.29288 25.7071C6.48041 25.8946 6.73477 26 6.99998 26H26C26.2652 26 26.5196 25.8946 26.7071 25.7071C26.8946 25.5196 27 25.2652 27 25C27 24.7348 26.8946 24.4804 26.7071 24.2929C26.5196 24.1053 26.2652 24 26 24Z" fill="#343330"/>
</g>
</svg>
