<svg width="32" height="32" viewBox="0 0 32 32" fill="none" xmlns="http://www.w3.org/2000/svg">
<g id="icon/google.drive.logo">
<path id="Vector" d="M29.7 17.9725L21.1413 3.94001C20.9623 3.65159 20.7124 3.41378 20.4155 3.24924C20.1186 3.0847 19.7845 2.9989 19.445 3.00001H12.5538C12.2145 2.99888 11.8805 3.08468 11.5838 3.24923C11.2871 3.41378 11.0375 3.6516 10.8588 3.94001L10.8525 3.94876L2.30502 17.9625C2.1133 18.269 2.00822 18.6217 2.00095 18.9831C1.99369 19.3445 2.08451 19.7011 2.26377 20.015L5.67877 25.9925C5.85371 26.2986 6.10643 26.5529 6.41134 26.7299C6.71624 26.9068 7.0625 27 7.41502 27H24.5838C24.9363 27 25.2825 26.9068 25.5874 26.7299C25.8924 26.5529 26.1451 26.2986 26.32 25.9925L29.735 20.015C29.9145 19.7032 30.006 19.3486 29.9998 18.9889C29.9936 18.6292 29.89 18.278 29.7 17.9725ZM27.375 18H21.565L17.1663 10.6663L20.01 5.92626L27.375 18ZM12.7663 18L16 12.61L19.2338 18H12.7663ZM20.4338 20L23.4338 25H8.56627L11.5663 20H20.4338ZM16 8.72251L13.765 5.00001L18.2375 4.99376L16 8.72251ZM11.9888 5.92626L14.8338 10.6663L10.4338 18H4.62502L11.9888 5.92626ZM4.56752 20H9.23377L6.84002 23.99L4.56752 20ZM25.16 23.9913L22.765 20H27.4413L25.16 23.9913Z" fill="#343330"/>
</g>
</svg>
