<svg width="32" height="32" viewBox="0 0 32 32" fill="none" xmlns="http://www.w3.org/2000/svg">
<g id="icon/shuffle.simple">
<path id="Vector" d="M27.0001 5.99995V10.9999C27.0001 11.2652 26.8947 11.5195 26.7072 11.7071C26.5196 11.8946 26.2653 11.9999 26.0001 11.9999C25.7349 11.9999 25.4805 11.8946 25.293 11.7071C25.1054 11.5195 25.0001 11.2652 25.0001 10.9999V8.4137L19.5351 13.8749C19.3438 14.0388 19.0977 14.1244 18.846 14.1147C18.5943 14.1049 18.3556 14.0006 18.1775 13.8225C17.9994 13.6444 17.8951 13.4057 17.8854 13.154C17.8756 12.9023 17.9612 12.6562 18.1251 12.4649L23.5863 6.99995H21.0001C20.7349 6.99995 20.4805 6.89459 20.293 6.70705C20.1054 6.51952 20.0001 6.26516 20.0001 5.99995C20.0001 5.73473 20.1054 5.48038 20.293 5.29284C20.4805 5.1053 20.7349 4.99995 21.0001 4.99995H26.0001C26.2653 4.99995 26.5196 5.1053 26.7072 5.29284C26.8947 5.48038 27.0001 5.73473 27.0001 5.99995ZM26.0001 19.9999C25.7349 19.9999 25.4805 20.1053 25.293 20.2928C25.1054 20.4804 25.0001 20.7347 25.0001 20.9999V23.5862L6.70757 5.29245C6.51993 5.1048 6.26543 4.99939 6.00007 4.99939C5.7347 4.99939 5.48021 5.1048 5.29257 5.29245C5.10493 5.48009 4.99951 5.73458 4.99951 5.99995C4.99951 6.26531 5.10493 6.5198 5.29257 6.70745L23.5863 24.9999H21.0001C20.7349 24.9999 20.4805 25.1053 20.293 25.2928C20.1054 25.4804 20.0001 25.7347 20.0001 25.9999C20.0001 26.2652 20.1054 26.5195 20.293 26.7071C20.4805 26.8946 20.7349 26.9999 21.0001 26.9999H26.0001C26.2653 26.9999 26.5196 26.8946 26.7072 26.7071C26.8947 26.5195 27.0001 26.2652 27.0001 25.9999V20.9999C27.0001 20.7347 26.8947 20.4804 26.7072 20.2928C26.5196 20.1053 26.2653 19.9999 26.0001 19.9999ZM12.4651 18.1249L5.29257 25.2924C5.10493 25.4801 4.99951 25.7346 4.99951 25.9999C4.99951 26.2653 5.10493 26.5198 5.29257 26.7074C5.48021 26.8951 5.7347 27.0005 6.00007 27.0005C6.26543 27.0005 6.51993 26.8951 6.70757 26.7074L13.8751 19.5349C14.0389 19.3436 14.1245 19.0976 14.1148 18.8459C14.1051 18.5942 14.0007 18.3555 13.8226 18.1774C13.6445 17.9993 13.4058 17.895 13.1541 17.8852C12.9024 17.8755 12.6564 17.9611 12.4651 18.1249Z" fill="#343330"/>
</g>
</svg>
