<svg width="32" height="32" viewBox="0 0 32 32" fill="none" xmlns="http://www.w3.org/2000/svg">
<g id="icon/caret.circle.double.down">
<path id="Vector" d="M25.1925 6.80754C22.7545 4.36953 19.4479 2.99988 16 2.99988C12.5521 2.99988 9.2455 4.36953 6.8075 6.80754C4.3695 9.24554 2.99984 12.5522 2.99984 16C2.99984 19.4479 4.3695 22.7545 6.8075 25.1925C9.2455 27.6305 12.5521 29.0002 16 29.0002C19.4479 29.0002 22.7545 27.6305 25.1925 25.1925C27.6305 22.7545 29.0002 19.4479 29.0002 16C29.0002 12.5522 27.6305 9.24554 25.1925 6.80754ZM23.7787 23.7788C22.2403 25.317 20.2803 26.3645 18.1465 26.7888C16.0128 27.2131 13.8011 26.9952 11.7913 26.1626C9.78136 25.3299 8.06349 23.92 6.85487 22.1111C5.64625 20.3022 5.00115 18.1756 5.00115 16C5.00115 13.8245 5.64625 11.6978 6.85487 9.88893C8.06349 8.08003 9.78136 6.67013 11.7913 5.83752C13.8011 5.00491 16.0128 4.78697 18.1465 5.21128C20.2803 5.63558 22.2403 6.68307 23.7787 8.22129C25.8386 10.286 26.9955 13.0835 26.9955 16C26.9955 18.9166 25.8386 21.7141 23.7787 23.7788ZM20.7075 10.2925C20.8005 10.3854 20.8742 10.4957 20.9246 10.6171C20.9749 10.7385 21.0008 10.8686 21.0008 11C21.0008 11.1315 20.9749 11.2616 20.9246 11.383C20.8742 11.5044 20.8005 11.6147 20.7075 11.7075L16.7075 15.7075C16.6146 15.8005 16.5043 15.8743 16.3829 15.9246C16.2615 15.9749 16.1314 16.0008 16 16.0008C15.8686 16.0008 15.7385 15.9749 15.6171 15.9246C15.4957 15.8743 15.3854 15.8005 15.2925 15.7075L11.2925 11.7075C11.1049 11.5199 10.9994 11.2654 10.9994 11C10.9994 10.7347 11.1049 10.4802 11.2925 10.2925C11.4801 10.1049 11.7346 9.99948 12 9.99948C12.2654 9.99948 12.5199 10.1049 12.7075 10.2925L16 13.5863L19.2925 10.2925C19.3854 10.1996 19.4957 10.1258 19.6171 10.0755C19.7385 10.0252 19.8686 9.99925 20 9.99925C20.1314 9.99925 20.2615 10.0252 20.3829 10.0755C20.5043 10.1258 20.6146 10.1996 20.7075 10.2925ZM20.7075 17.2925C20.8005 17.3854 20.8742 17.4957 20.9246 17.6171C20.9749 17.7385 21.0008 17.8686 21.0008 18C21.0008 18.1315 20.9749 18.2616 20.9246 18.383C20.8742 18.5044 20.8005 18.6147 20.7075 18.7075L16.7075 22.7075C16.6146 22.8005 16.5043 22.8743 16.3829 22.9246C16.2615 22.9749 16.1314 23.0008 16 23.0008C15.8686 23.0008 15.7385 22.9749 15.6171 22.9246C15.4957 22.8743 15.3854 22.8005 15.2925 22.7075L11.2925 18.7075C11.1049 18.5199 10.9994 18.2654 10.9994 18C10.9994 17.7347 11.1049 17.4802 11.2925 17.2925C11.4801 17.1049 11.7346 16.9995 12 16.9995C12.2654 16.9995 12.5199 17.1049 12.7075 17.2925L16 20.5863L19.2925 17.2925C19.3854 17.1996 19.4957 17.1258 19.6171 17.0755C19.7385 17.0252 19.8686 16.9993 20 16.9993C20.1314 16.9993 20.2615 17.0252 20.3829 17.0755C20.5043 17.1258 20.6146 17.1996 20.7075 17.2925Z" fill="#343330"/>
</g>
</svg>
