<svg width="32" height="32" viewBox="0 0 32 32" fill="none" xmlns="http://www.w3.org/2000/svg">
<g id="icon/film.reel">
<path id="Vector" d="M28.9999 27H22.9199C25.5691 25.3309 27.5265 22.7614 28.432 19.7642C29.3375 16.7669 29.1304 13.5434 27.8485 10.6868C26.5667 7.83009 24.2965 5.53234 21.4555 4.21618C18.6145 2.90003 15.3937 2.654 12.3858 3.52336C9.37781 4.39271 6.78492 6.31898 5.08407 8.94781C3.38322 11.5766 2.68882 14.7312 3.12859 17.8313C3.56837 20.9313 5.11275 23.7683 7.47764 25.8203C9.84253 27.8724 12.8689 29.0015 15.9999 29H28.9999C29.2652 29 29.5195 28.8946 29.707 28.7071C29.8946 28.5195 29.9999 28.2652 29.9999 28C29.9999 27.7347 29.8946 27.4804 29.707 27.2929C29.5195 27.1053 29.2652 27 28.9999 27ZM4.99994 16C4.99994 13.8244 5.64508 11.6976 6.85377 9.88869C8.06247 8.07975 9.78043 6.66985 11.7904 5.83728C13.8004 5.00472 16.0121 4.78688 18.1459 5.21132C20.2797 5.63576 22.2397 6.68341 23.7781 8.22178C25.3165 9.76016 26.3641 11.7202 26.7886 13.854C27.213 15.9878 26.9952 18.1995 26.1626 20.2095C25.33 22.2195 23.9202 23.9374 22.1112 25.1461C20.3023 26.3548 18.1755 27 15.9999 27C13.0836 26.9966 10.2876 25.8367 8.22542 23.7745C6.16323 21.7123 5.00325 18.9163 4.99994 16ZM15.9999 13C16.5933 13 17.1733 12.824 17.6666 12.4944C18.16 12.1647 18.5445 11.6962 18.7716 11.148C18.9986 10.5998 19.0581 9.99663 18.9423 9.41469C18.8265 8.83274 18.5408 8.2982 18.1213 7.87864C17.7017 7.45908 17.1672 7.17336 16.5852 7.0576C16.0033 6.94185 15.4001 7.00126 14.8519 7.22832C14.3037 7.45538 13.8352 7.8399 13.5055 8.33325C13.1759 8.8266 12.9999 9.40661 12.9999 9.99996C12.9999 10.7956 13.316 11.5587 13.8786 12.1213C14.4412 12.6839 15.2043 13 15.9999 13ZM15.9999 8.99996C16.1977 8.99996 16.3911 9.05861 16.5555 9.16849C16.72 9.27837 16.8481 9.43455 16.9238 9.61727C16.9995 9.8 17.0193 10.0011 16.9807 10.195C16.9421 10.389 16.8469 10.5672 16.707 10.7071C16.5672 10.8469 16.389 10.9422 16.195 10.9807C16.001 11.0193 15.8 10.9995 15.6173 10.9238C15.4345 10.8482 15.2783 10.72 15.1685 10.5555C15.0586 10.3911 14.9999 10.1977 14.9999 9.99996C14.9999 9.73474 15.1053 9.48039 15.2928 9.29285C15.4804 9.10532 15.7347 8.99996 15.9999 8.99996ZM18.9999 22C18.9999 21.4066 18.824 20.8266 18.4943 20.3332C18.1647 19.8399 17.6962 19.4554 17.148 19.2283C16.5998 19.0013 15.9966 18.9418 15.4147 19.0576C14.8327 19.1734 14.2982 19.4591 13.8786 19.8786C13.4591 20.2982 13.1733 20.8327 13.0576 21.4147C12.9418 21.9966 13.0012 22.5998 13.2283 23.148C13.4554 23.6962 13.8399 24.1647 14.3332 24.4944C14.8266 24.824 15.4066 25 15.9999 25C16.7956 25 17.5587 24.6839 18.1213 24.1213C18.6839 23.5587 18.9999 22.7956 18.9999 22ZM14.9999 22C14.9999 21.8022 15.0586 21.6088 15.1685 21.4444C15.2783 21.2799 15.4345 21.1518 15.6173 21.0761C15.8 21.0004 16.001 20.9806 16.195 21.0192C16.389 21.0578 16.5672 21.153 16.707 21.2929C16.8469 21.4327 16.9421 21.6109 16.9807 21.8049C17.0193 21.9988 16.9995 22.1999 16.9238 22.3826C16.8481 22.5654 16.72 22.7215 16.5555 22.8314C16.3911 22.9413 16.1977 23 15.9999 23C15.7347 23 15.4804 22.8946 15.2928 22.7071C15.1053 22.5195 14.9999 22.2652 14.9999 22ZM21.9999 19C22.5933 19 23.1733 18.824 23.6666 18.4944C24.16 18.1647 24.5445 17.6962 24.7716 17.148C24.9986 16.5998 25.0581 15.9966 24.9423 15.4147C24.8265 14.8327 24.5408 14.2982 24.1213 13.8786C23.7017 13.4591 23.1672 13.1734 22.5852 13.0576C22.0033 12.9418 21.4001 13.0013 20.8519 13.2283C20.3037 13.4554 19.8352 13.8399 19.5055 14.3332C19.1759 14.8266 18.9999 15.4066 18.9999 16C18.9999 16.7956 19.316 17.5587 19.8786 18.1213C20.4412 18.6839 21.2043 19 21.9999 19ZM21.9999 15C22.1977 15 22.3911 15.0586 22.5555 15.1685C22.72 15.2784 22.8481 15.4345 22.9238 15.6173C22.9995 15.8 23.0193 16.0011 22.9807 16.195C22.9421 16.389 22.8469 16.5672 22.707 16.7071C22.5672 16.8469 22.389 16.9422 22.195 16.9807C22.001 17.0193 21.8 16.9995 21.6173 16.9238C21.4345 16.8482 21.2784 16.72 21.1685 16.5555C21.0586 16.3911 20.9999 16.1977 20.9999 16C20.9999 15.7347 21.1053 15.4804 21.2928 15.2929C21.4804 15.1053 21.7347 15 21.9999 15ZM9.99994 13C9.40659 13 8.82657 13.1759 8.33323 13.5055C7.83988 13.8352 7.45536 14.3037 7.2283 14.8519C7.00124 15.4001 6.94183 16.0033 7.05758 16.5852C7.17334 17.1672 7.45906 17.7017 7.87862 18.1213C8.29818 18.5408 8.83272 18.8266 9.41467 18.9423C9.99661 19.0581 10.5998 18.9987 11.148 18.7716C11.6962 18.5445 12.1647 18.16 12.4943 17.6667C12.824 17.1733 12.9999 16.5933 12.9999 16C12.9999 15.2043 12.6839 14.4412 12.1213 13.8786C11.5587 13.316 10.7956 13 9.99994 13ZM9.99994 17C9.80216 17 9.60882 16.9413 9.44437 16.8314C9.27992 16.7215 9.15175 16.5654 9.07606 16.3826C9.00037 16.1999 8.98057 15.9988 9.01915 15.8049C9.05774 15.6109 9.15298 15.4327 9.29283 15.2929C9.43268 15.153 9.61087 15.0578 9.80485 15.0192C9.99883 14.9806 10.1999 15.0004 10.3826 15.0761C10.5653 15.1518 10.7215 15.2799 10.8314 15.4444C10.9413 15.6088 10.9999 15.8022 10.9999 16C10.9999 16.2652 10.8946 16.5195 10.707 16.7071C10.5195 16.8946 10.2652 17 9.99994 17Z" fill="#343330"/>
</g>
</svg>
