<svg width="32" height="32" viewBox="0 0 32 32" fill="none" xmlns="http://www.w3.org/2000/svg">
<g id="icon/arrow.bend.left.up">
<path id="Vector" d="M26 28C26 28.2652 25.8947 28.5196 25.7071 28.7071C25.5196 28.8946 25.2652 29 25 29C21.5533 28.9964 18.2488 27.6255 15.8116 25.1884C13.3745 22.7512 12.0036 19.4467 12 16V6.41374L7.70751 10.7075C7.51987 10.8951 7.26537 11.0005 7.00001 11.0005C6.73464 11.0005 6.48015 10.8951 6.29251 10.7075C6.10487 10.5199 5.99945 10.2654 5.99945 9.99999C5.99945 9.73463 6.10487 9.48013 6.29251 9.29249L12.2925 3.29249C12.3854 3.19952 12.4957 3.12576 12.6171 3.07543C12.7385 3.02511 12.8686 2.99921 13 2.99921C13.1314 2.99921 13.2615 3.02511 13.3829 3.07543C13.5043 3.12576 13.6146 3.19952 13.7075 3.29249L19.7075 9.29249C19.8951 9.48013 20.0006 9.73463 20.0006 9.99999C20.0006 10.2654 19.8951 10.5199 19.7075 10.7075C19.5199 10.8951 19.2654 11.0005 19 11.0005C18.7346 11.0005 18.4801 10.8951 18.2925 10.7075L14 6.41374V16C14.0033 18.9164 15.1633 21.7123 17.2255 23.7745C19.2877 25.8367 22.0836 26.9967 25 27C25.2652 27 25.5196 27.1053 25.7071 27.2929C25.8947 27.4804 26 27.7348 26 28Z" fill="#343330"/>
</g>
</svg>
