<svg width="32" height="32" viewBox="0 0 32 32" fill="none" xmlns="http://www.w3.org/2000/svg">
<g id="icon/radical">
<path id="Vector" d="M30.9999 9.99998V13C30.9999 13.2652 30.8946 13.5196 30.7071 13.7071C30.5195 13.8946 30.2652 14 29.9999 14C29.7347 14 29.4804 13.8946 29.2928 13.7071C29.1053 13.5196 28.9999 13.2652 28.9999 13V11H16.6937L10.9362 26.3512C10.8652 26.5426 10.7373 26.7077 10.5697 26.8242C10.4021 26.9408 10.2028 27.0032 9.9987 27.0032C9.79456 27.0032 9.59532 26.9408 9.42773 26.8242C9.26014 26.7077 9.13224 26.5426 9.0612 26.3512L3.0612 10.3512C3.01507 10.2281 2.99365 10.0971 2.99814 9.96573C3.00264 9.83433 3.03298 9.70511 3.08742 9.58544C3.14185 9.46577 3.21933 9.35799 3.31542 9.26826C3.41151 9.17853 3.52434 9.10861 3.64745 9.06248C3.77056 9.01635 3.90156 8.99493 4.03295 8.99943C4.16435 9.00392 4.29357 9.03426 4.41324 9.0887C4.53291 9.14314 4.64069 9.22061 4.73042 9.3167C4.82015 9.41279 4.89007 9.52562 4.9362 9.64873L9.99995 23.1525L15.0637 9.65248C15.1346 9.46121 15.2623 9.2962 15.4296 9.17957C15.597 9.06294 15.796 9.00027 15.9999 8.99998H29.9999C30.2652 8.99998 30.5195 9.10534 30.7071 9.29287C30.8946 9.48041 30.9999 9.73477 30.9999 9.99998Z" fill="#343330"/>
</g>
</svg>
