<svg width="32" height="32" viewBox="0 0 32 32" fill="none" xmlns="http://www.w3.org/2000/svg">
<g id="icon/magnifying.glass.plus">
<path id="Vector" d="M18.9998 14C18.9998 14.2653 18.8944 14.5196 18.7069 14.7071C18.5194 14.8947 18.265 15 17.9998 15H14.9998V18C14.9998 18.2653 14.8944 18.5196 14.7069 18.7071C14.5194 18.8947 14.265 19 13.9998 19C13.7346 19 13.4802 18.8947 13.2927 18.7071C13.1052 18.5196 12.9998 18.2653 12.9998 18V15H9.9998C9.73458 15 9.48023 14.8947 9.29269 14.7071C9.10515 14.5196 8.9998 14.2653 8.9998 14C8.9998 13.7348 9.10515 13.4805 9.29269 13.2929C9.48023 13.1054 9.73458 13 9.9998 13H12.9998V10C12.9998 9.73482 13.1052 9.48047 13.2927 9.29293C13.4802 9.1054 13.7346 9.00004 13.9998 9.00004C14.265 9.00004 14.5194 9.1054 14.7069 9.29293C14.8944 9.48047 14.9998 9.73482 14.9998 10V13H17.9998C18.265 13 18.5194 13.1054 18.7069 13.2929C18.8944 13.4805 18.9998 13.7348 18.9998 14ZM28.7073 28.7075C28.6144 28.8005 28.5041 28.8743 28.3827 28.9246C28.2613 28.9749 28.1312 29.0008 27.9998 29.0008C27.8684 29.0008 27.7383 28.9749 27.6169 28.9246C27.4955 28.8743 27.3852 28.8005 27.2923 28.7075L21.0348 22.4488C18.8569 24.2628 16.0635 25.1674 13.2357 24.9743C10.4079 24.7813 7.76337 23.5054 5.85226 21.4122C3.94116 19.319 2.91061 16.5696 2.97501 13.7359C3.03941 10.9023 4.1938 8.20249 6.19802 6.19827C8.20225 4.19404 10.902 3.03966 13.7357 2.97526C16.5694 2.91086 19.3188 3.9414 21.412 5.85251C23.5052 7.76361 24.781 10.4081 24.9741 13.236C25.1672 16.0638 24.2626 18.8572 22.4485 21.035L28.7073 27.2925C28.8003 27.3854 28.874 27.4957 28.9244 27.6171C28.9747 27.7385 29.0006 27.8686 29.0006 28C29.0006 28.1315 28.9747 28.2616 28.9244 28.383C28.874 28.5044 28.8003 28.6147 28.7073 28.7075ZM13.9998 23C15.7798 23 17.5199 22.4722 18.9999 21.4833C20.48 20.4943 21.6335 19.0887 22.3147 17.4442C22.9959 15.7997 23.1741 13.9901 22.8269 12.2442C22.4796 10.4984 21.6224 8.89475 20.3638 7.63608C19.1051 6.37741 17.5014 5.52024 15.7556 5.17297C14.0098 4.82571 12.2002 5.00394 10.5556 5.68513C8.91111 6.36631 7.5055 7.51987 6.51657 8.99991C5.52764 10.48 4.9998 12.22 4.9998 14C5.00244 16.3862 5.95151 18.6738 7.63876 20.3611C9.32601 22.0483 11.6137 22.9974 13.9998 23Z" fill="#343330"/>
</g>
</svg>
