<svg width="32" height="32" viewBox="0 0 32 32" fill="none" xmlns="http://www.w3.org/2000/svg">
<g id="icon/text.subscript">
<path id="Vector" d="M31.0001 26C31.0001 26.2652 30.8947 26.5196 30.7072 26.7071C30.5197 26.8947 30.2653 27 30.0001 27H24.0001C23.8144 27 23.6323 26.9483 23.4743 26.8507C23.3164 26.753 23.1887 26.6133 23.1057 26.4472C23.0226 26.2811 22.9874 26.0952 23.0041 25.9102C23.0208 25.7253 23.0887 25.5486 23.2001 25.4L28.5963 18.205C28.7691 17.9748 28.8902 17.7099 28.9512 17.4286C29.0122 17.1472 29.0118 16.856 28.9499 16.5749C28.888 16.2937 28.7662 16.0292 28.5927 15.7995C28.4193 15.5697 28.1982 15.3801 27.9447 15.2437C27.6913 15.1072 27.4113 15.027 27.124 15.0087C26.8367 14.9904 26.5488 15.0343 26.2801 15.1374C26.0113 15.2406 25.768 15.4005 25.5667 15.6063C25.3654 15.8122 25.2109 16.059 25.1138 16.33C25.07 16.4539 25.0022 16.5679 24.9143 16.6655C24.8264 16.7632 24.7202 16.8426 24.6016 16.8992C24.483 16.9558 24.3545 16.9884 24.2233 16.9953C24.0921 17.0022 23.9608 16.9832 23.837 16.9394C23.7131 16.8956 23.5991 16.8278 23.5014 16.7399C23.4038 16.652 23.3244 16.5457 23.2678 16.4272C23.2112 16.3086 23.1786 16.18 23.1716 16.0489C23.1647 15.9177 23.1838 15.7864 23.2276 15.6625C23.3648 15.2773 23.56 14.9152 23.8063 14.5888C24.4448 13.7416 25.3937 13.1827 26.4443 13.0352C27.4949 12.8876 28.561 13.1634 29.4082 13.8019C30.2554 14.4404 30.8143 15.3893 30.9618 16.4399C31.1094 17.4904 30.8336 18.5566 30.1951 19.4038L26.0001 25H30.0001C30.2653 25 30.5197 25.1054 30.7072 25.2929C30.8947 25.4805 31.0001 25.7348 31.0001 26ZM18.6551 6.25003C18.5558 6.16395 18.4405 6.09829 18.3158 6.05679C18.1912 6.0153 18.0595 5.99878 17.9285 6.00818C17.7974 6.01758 17.6695 6.05272 17.552 6.11159C17.4345 6.17047 17.3298 6.25191 17.2438 6.35128L11.5001 12.9725L5.75633 6.34753C5.57724 6.16956 5.33746 6.06592 5.08513 6.05741C4.83279 6.0489 4.58658 6.13616 4.39591 6.30167C4.20525 6.46718 4.08424 6.69868 4.05719 6.94971C4.03014 7.20073 4.09905 7.4527 4.25008 7.65503L10.1763 14.5L4.25008 21.345C4.07636 21.5456 3.98944 21.807 4.00843 22.0716C4.02741 22.3363 4.15076 22.5826 4.35133 22.7563C4.5519 22.93 4.81326 23.0169 5.07793 22.9979C5.34259 22.9789 5.58886 22.8556 5.76258 22.655L11.5126 16.03L17.2563 22.655C17.3423 22.7543 17.4471 22.8357 17.5646 22.8946C17.682 22.9534 17.8099 22.9885 17.941 22.9979C18.072 23.0073 18.2036 22.9908 18.3283 22.9494C18.453 22.9079 18.5683 22.8423 18.6676 22.7563C18.7669 22.6703 18.8483 22.5655 18.9071 22.4481C18.966 22.3306 19.0011 22.2027 19.0105 22.0716C19.0199 21.9406 19.0034 21.809 18.9619 21.6843C18.9205 21.5596 18.8548 21.4443 18.7688 21.345L12.8238 14.5L18.7563 7.65503C18.9282 7.45485 19.014 7.19485 18.9951 6.93167C18.9761 6.6685 18.8539 6.42349 18.6551 6.25003Z" fill="#343330"/>
</g>
</svg>
