<svg width="32" height="32" viewBox="0 0 32 32" fill="none" xmlns="http://www.w3.org/2000/svg">
<g id="icon/apple.podcasts.logo">
<path id="Vector" d="M19.275 17.2913C19.6953 16.692 19.943 15.9888 19.9913 15.2584C20.0396 14.528 19.8865 13.7983 19.5487 13.1489C19.2109 12.4995 18.7014 11.9553 18.0757 11.5754C17.45 11.1955 16.732 10.9947 16 10.9947C15.268 10.9947 14.55 11.1955 13.9243 11.5754C13.2986 11.9553 12.7891 12.4995 12.4513 13.1489C12.1135 13.7983 11.9604 14.528 12.0087 15.2584C12.057 15.9888 12.3047 16.692 12.725 17.2913C12.2967 17.4935 11.9217 17.7931 11.63 18.1663C11.3501 18.5234 11.156 18.9402 11.0628 19.3843C10.9696 19.8284 10.9798 20.288 11.0925 20.7275L12.615 26.7275C12.782 27.3796 13.1619 27.9573 13.6945 28.3689C14.2271 28.7806 14.8819 29.0027 15.555 29H16.445C17.1176 29.0029 17.772 28.7814 18.3045 28.3704C18.837 27.9595 19.2173 27.3827 19.385 26.7313L20.9075 20.7313C21.0202 20.2917 21.0304 19.8321 20.9372 19.388C20.844 18.9439 20.6499 18.5272 20.37 18.17C20.0787 17.7955 19.7037 17.4946 19.275 17.2913ZM16 13C16.3956 13 16.7822 13.1173 17.1111 13.3371C17.44 13.5569 17.6964 13.8692 17.8478 14.2347C17.9991 14.6001 18.0387 15.0023 17.9616 15.3902C17.8844 15.7782 17.6939 16.1345 17.4142 16.4142C17.1345 16.694 16.7781 16.8844 16.3902 16.9616C16.0022 17.0388 15.6001 16.9992 15.2346 16.8478C14.8692 16.6964 14.5568 16.4401 14.3371 16.1112C14.1173 15.7823 14 15.3956 14 15C14 14.4696 14.2107 13.9609 14.5858 13.5858C14.9609 13.2108 15.4696 13 16 13ZM18.9688 20.2388L17.4463 26.2388C17.3881 26.4589 17.2582 26.6533 17.077 26.7912C16.8959 26.9291 16.6739 27.0026 16.4463 27H15.5563C15.3286 27.0026 15.1066 26.9291 14.9255 26.7912C14.7443 26.6533 14.6144 26.4589 14.5563 26.2388L13.0338 20.2388C12.9962 20.0944 12.9927 19.9433 13.0235 19.7973C13.0543 19.6513 13.1186 19.5145 13.2113 19.3975C13.3087 19.2726 13.4335 19.1718 13.5761 19.1029C13.7188 19.0339 13.8753 18.9988 14.0338 19H17.9713C18.1297 18.9988 18.2862 19.0339 18.4289 19.1029C18.5715 19.1718 18.6963 19.2726 18.7938 19.3975C18.886 19.5147 18.9498 19.6516 18.9802 19.7976C19.0106 19.9436 19.0066 20.0946 18.9688 20.2388ZM9 16C8.99859 16.6334 9.08268 17.2641 9.25 17.875C9.31445 18.1283 9.27718 18.3968 9.14618 18.6229C9.01518 18.849 8.80085 19.0149 8.54908 19.085C8.2973 19.1551 8.0281 19.1238 7.79908 18.9979C7.57007 18.872 7.39945 18.6614 7.32375 18.4113C6.95215 17.0744 6.8947 15.6697 7.15588 14.3069C7.41706 12.9442 7.98981 11.6602 8.82937 10.5555C9.66894 9.45073 10.7526 8.55506 11.9956 7.93845C13.2387 7.32185 14.6074 7.00101 15.995 7.00101C17.3826 7.00101 18.7514 7.32185 19.9944 7.93845C21.2374 8.55506 22.3211 9.45073 23.1606 10.5555C24.0002 11.6602 24.5729 12.9442 24.8341 14.3069C25.0953 15.6697 25.0379 17.0744 24.6663 18.4113C24.5758 18.642 24.4029 18.8309 24.1811 18.9414C23.9593 19.0519 23.7044 19.0761 23.4657 19.0094C23.2271 18.9426 23.0217 18.7896 22.8895 18.58C22.7573 18.3704 22.7075 18.1192 22.75 17.875C23.0142 16.9133 23.0697 15.9062 22.913 14.9212C22.7563 13.9362 22.3909 12.9961 21.8413 12.1638C21.2917 11.3315 20.5706 10.6263 19.7263 10.0954C18.882 9.56443 17.934 9.22005 16.9458 9.08529C15.9575 8.95053 14.9519 9.02851 13.9963 9.314C13.0406 9.59949 12.157 10.0859 11.4047 10.7406C10.6523 11.3954 10.0485 12.2033 9.63382 13.1104C9.2191 14.0175 9.003 15.0027 9 16ZM29 16C29.0012 18.1373 28.475 20.2419 27.468 22.1271C26.4611 24.0124 25.0045 25.62 23.2275 26.8075C23.007 26.9551 22.737 27.009 22.4768 26.9574C22.2166 26.9058 21.9875 26.753 21.84 26.5325C21.6925 26.3121 21.6386 26.042 21.6901 25.7818C21.7417 25.5216 21.8945 25.2926 22.115 25.145C24.0763 23.8334 25.5639 21.9258 26.3581 19.704C27.1523 17.4822 27.2111 15.0639 26.5257 12.8061C25.8403 10.5483 24.4471 8.57077 22.5518 7.16541C20.6565 5.76005 18.3595 5.00136 16 5.00136C13.6405 5.00136 11.3435 5.76005 9.44821 7.16541C7.5529 8.57077 6.1597 10.5483 5.47431 12.8061C4.78892 15.0639 4.84767 17.4822 5.64189 19.704C6.4361 21.9258 7.92368 23.8334 9.885 25.145C10.1055 25.2926 10.2583 25.5216 10.3099 25.7818C10.3614 26.042 10.3075 26.3121 10.16 26.5325C10.0125 26.753 9.78341 26.9058 9.52321 26.9574C9.263 27.009 8.99296 26.9551 8.7725 26.8075C6.90595 25.5591 5.39463 23.8484 4.38578 21.8422C3.37693 19.836 2.90497 17.6027 3.01587 15.3598C3.12677 13.117 3.81675 10.9411 5.01859 9.0442C6.22043 7.1473 7.89315 5.59407 9.87375 4.53584C11.8544 3.4776 14.0753 2.95046 16.3202 3.00578C18.5651 3.06109 20.7574 3.69697 22.6835 4.85145C24.6096 6.00594 26.2038 7.63967 27.3107 9.59345C28.4177 11.5472 28.9997 13.7545 29 16Z" fill="#343330"/>
</g>
</svg>
