<svg width="32" height="32" viewBox="0 0 32 32" fill="none" xmlns="http://www.w3.org/2000/svg">
<g id="icon/avocado">
<path id="Vector" d="M16 14C14.8133 14 13.6533 14.3519 12.6666 15.0112C11.6799 15.6705 10.9108 16.6075 10.4567 17.7039C10.0026 18.8003 9.88377 20.0067 10.1153 21.1705C10.3468 22.3344 10.9182 23.4035 11.7573 24.2426C12.5965 25.0818 13.6656 25.6532 14.8294 25.8847C15.9933 26.1162 17.1997 25.9974 18.2961 25.5433C19.3924 25.0892 20.3295 24.3201 20.9888 23.3334C21.6481 22.3467 22 21.1867 22 20C21.9983 18.4092 21.3657 16.8841 20.2408 15.7592C19.1159 14.6343 17.5908 14.0017 16 14ZM16 24C15.2089 24 14.4355 23.7654 13.7777 23.3259C13.1199 22.8864 12.6072 22.2616 12.3045 21.5307C12.0017 20.7998 11.9225 19.9956 12.0768 19.2196C12.2312 18.4437 12.6122 17.731 13.1716 17.1716C13.731 16.6122 14.4437 16.2312 15.2196 16.0769C15.9956 15.9225 16.7998 16.0017 17.5307 16.3045C18.2616 16.6072 18.8863 17.1199 19.3259 17.7777C19.7654 18.4355 20 19.2089 20 20C20 21.0609 19.5786 22.0783 18.8284 22.8284C18.0783 23.5786 17.0609 24 16 24ZM26.375 16.3325L22.65 5.80875C22.1934 4.421 21.314 3.2109 20.1351 2.34802C18.9562 1.48515 17.5368 1.01276 16.076 0.997048C14.6151 0.981337 13.1859 1.42309 11.9888 2.26041C10.7916 3.09773 9.88636 4.28864 9.39999 5.66625L5.71124 16.1038C5.0859 17.7589 4.86907 19.5406 5.07915 21.2974C5.28923 23.0543 5.92002 24.7346 6.918 26.1957C7.91597 27.6567 9.25168 28.8555 10.8118 29.6903C12.3719 30.525 14.1103 30.9711 15.8796 30.9907C17.6489 31.0103 19.3967 30.6028 20.9749 29.8028C22.5531 29.0028 23.915 27.8338 24.9451 26.3952C25.9752 24.9566 26.643 23.2907 26.8919 21.5389C27.1409 19.7871 26.9635 18.0011 26.375 16.3325ZM16 29C14.5428 28.999 13.1075 28.6444 11.8175 27.9667C10.5275 27.289 9.42114 26.3084 8.59349 25.109C7.76584 23.9096 7.24158 22.5273 7.0657 21.0807C6.88983 19.6342 7.06759 18.1665 7.58374 16.8038C7.58611 16.7961 7.58904 16.7885 7.59249 16.7813L11.285 6.3325C11.6325 5.34761 12.2798 4.49628 13.1358 3.89799C13.9919 3.29971 15.0138 2.98451 16.0581 2.99664C17.1025 3.00878 18.1168 3.34763 18.9587 3.96565C19.8007 4.58366 20.4279 5.44981 20.7525 6.4425L20.76 6.465L24.4875 17C24.966 18.3577 25.1121 19.8102 24.9135 21.236C24.715 22.6618 24.1776 24.0192 23.3463 25.1944C22.5151 26.3697 21.4142 27.3286 20.136 27.9907C18.8578 28.6528 17.4395 28.9989 16 29Z" fill="#343330"/>
</g>
</svg>
