<svg width="32" height="32" viewBox="0 0 32 32" fill="none" xmlns="http://www.w3.org/2000/svg">
<g id="icon/caret.line.left">
<path id="Vector" d="M24.7075 25.2924C24.8004 25.3854 24.8741 25.4957 24.9244 25.6171C24.9747 25.7384 25.0006 25.8686 25.0006 25.9999C25.0006 26.1313 24.9747 26.2614 24.9244 26.3828C24.8741 26.5042 24.8004 26.6145 24.7075 26.7074C24.6146 26.8004 24.5043 26.8741 24.3829 26.9243C24.2615 26.9746 24.1314 27.0005 24 27.0005C23.8686 27.0005 23.7385 26.9746 23.6171 26.9243C23.4957 26.8741 23.3854 26.8004 23.2925 26.7074L13.2925 16.7074C13.1995 16.6146 13.1258 16.5043 13.0754 16.3829C13.0251 16.2615 12.9992 16.1314 12.9992 15.9999C12.9992 15.8685 13.0251 15.7384 13.0754 15.617C13.1258 15.4956 13.1995 15.3853 13.2925 15.2924L23.2925 5.29245C23.4801 5.1048 23.7346 4.99939 24 4.99939C24.2654 4.99939 24.5199 5.1048 24.7075 5.29245C24.8951 5.48009 25.0006 5.73458 25.0006 5.99995C25.0006 6.26531 24.8951 6.5198 24.7075 6.70745L15.4137 15.9999L24.7075 25.2924ZM9 4.99995C8.73478 4.99995 8.48043 5.1053 8.29289 5.29284C8.10536 5.48038 8 5.73473 8 5.99995V25.9999C8 26.2652 8.10536 26.5195 8.29289 26.7071C8.48043 26.8946 8.73478 26.9999 9 26.9999C9.26522 26.9999 9.51957 26.8946 9.70711 26.7071C9.89464 26.5195 10 26.2652 10 25.9999V5.99995C10 5.73473 9.89464 5.48038 9.70711 5.29284C9.51957 5.1053 9.26522 4.99995 9 4.99995Z" fill="#343330"/>
</g>
</svg>
