<svg width="32" height="32" viewBox="0 0 32 32" fill="none" xmlns="http://www.w3.org/2000/svg">
<g id="icon/arrow.bend.left.down">
<path id="Vector" d="M26 4C26 4.26522 25.8947 4.51957 25.7071 4.70711C25.5196 4.89464 25.2652 5 25 5C22.0836 5.00331 19.2877 6.1633 17.2255 8.22548C15.1633 10.2877 14.0033 13.0836 14 16V25.5863L18.2925 21.2925C18.4801 21.1049 18.7346 20.9994 19 20.9994C19.2654 20.9994 19.5199 21.1049 19.7075 21.2925C19.8951 21.4801 20.0006 21.7346 20.0006 22C20.0006 22.2654 19.8951 22.5199 19.7075 22.7075L13.7075 28.7075C13.6146 28.8005 13.5043 28.8742 13.3829 28.9246C13.2615 28.9749 13.1314 29.0008 13 29.0008C12.8686 29.0008 12.7385 28.9749 12.6171 28.9246C12.4957 28.8742 12.3854 28.8005 12.2925 28.7075L6.29251 22.7075C6.1996 22.6146 6.1259 22.5043 6.07561 22.3829C6.02533 22.2615 5.99945 22.1314 5.99945 22C5.99945 21.8686 6.02533 21.7385 6.07561 21.6171C6.1259 21.4957 6.1996 21.3854 6.29251 21.2925C6.48015 21.1049 6.73464 20.9994 7.00001 20.9994C7.1314 20.9994 7.26151 21.0253 7.3829 21.0756C7.5043 21.1259 7.6146 21.1996 7.70751 21.2925L12 25.5863V16C12.0036 12.5533 13.3745 9.24882 15.8116 6.81163C18.2488 4.37445 21.5533 3.00364 25 3C25.2652 3 25.5196 3.10536 25.7071 3.29289C25.8947 3.48043 26 3.73478 26 4Z" fill="#343330"/>
</g>
</svg>
