<svg width="32" height="32" viewBox="0 0 32 32" fill="none" xmlns="http://www.w3.org/2000/svg">
<g id="icon/number.four">
<path id="Vector" d="M22.9999 20H20.9999V5.99999C21.0001 5.79265 20.9358 5.5904 20.8159 5.4212C20.6961 5.25201 20.5266 5.12425 20.331 5.05561C20.1353 4.98696 19.9232 4.98082 19.7239 5.03804C19.5246 5.09526 19.3481 5.21301 19.2186 5.37499L7.21864 20.375C7.10086 20.5221 7.02704 20.6995 7.0057 20.8867C6.98436 21.074 7.01636 21.2634 7.09802 21.4333C7.17967 21.6031 7.30766 21.7464 7.46722 21.8467C7.62679 21.947 7.81144 22.0001 7.99989 22H18.9999V26C18.9999 26.2652 19.1053 26.5196 19.2928 26.7071C19.4803 26.8946 19.7347 27 19.9999 27C20.2651 27 20.5195 26.8946 20.707 26.7071C20.8945 26.5196 20.9999 26.2652 20.9999 26V22H22.9999C23.2651 22 23.5195 21.8946 23.707 21.7071C23.8945 21.5196 23.9999 21.2652 23.9999 21C23.9999 20.7348 23.8945 20.4804 23.707 20.2929C23.5195 20.1053 23.2651 20 22.9999 20ZM18.9999 20H10.0799L18.9999 8.85124V20Z" fill="#343330"/>
</g>
</svg>
