<svg width="32" height="32" viewBox="0 0 32 32" fill="none" xmlns="http://www.w3.org/2000/svg">
<g id="icon/arrow.uleft.up">
<path id="Vector" d="M26 9.99999V21C26 23.1217 25.1572 25.1566 23.6569 26.6568C22.1566 28.1571 20.1217 29 18 29C15.8783 29 13.8434 28.1571 12.3432 26.6568C10.8429 25.1566 10 23.1217 10 21V6.41374L5.70751 10.7075C5.51987 10.8951 5.26537 11.0005 5.00001 11.0005C4.73464 11.0005 4.48015 10.8951 4.29251 10.7075C4.10487 10.5199 3.99945 10.2654 3.99945 9.99999C3.99945 9.73463 4.10487 9.48013 4.29251 9.29249L10.2925 3.29249C10.3854 3.19952 10.4957 3.12576 10.6171 3.07543C10.7385 3.02511 10.8686 2.99921 11 2.99921C11.1314 2.99921 11.2615 3.02511 11.3829 3.07543C11.5043 3.12576 11.6146 3.19952 11.7075 3.29249L17.7075 9.29249C17.8951 9.48013 18.0006 9.73463 18.0006 9.99999C18.0006 10.2654 17.8951 10.5199 17.7075 10.7075C17.5199 10.8951 17.2654 11.0005 17 11.0005C16.7346 11.0005 16.4801 10.8951 16.2925 10.7075L12 6.41374V21C12 22.5913 12.6321 24.1174 13.7574 25.2426C14.8826 26.3679 16.4087 27 18 27C19.5913 27 21.1174 26.3679 22.2426 25.2426C23.3679 24.1174 24 22.5913 24 21V9.99999C24 9.73478 24.1054 9.48042 24.2929 9.29289C24.4804 9.10535 24.7348 8.99999 25 8.99999C25.2652 8.99999 25.5196 9.10535 25.7071 9.29289C25.8947 9.48042 26 9.73478 26 9.99999Z" fill="#343330"/>
</g>
</svg>
