<svg width="32" height="32" viewBox="0 0 32 32" fill="none" xmlns="http://www.w3.org/2000/svg">
<g id="icon/slack.logo">
<path id="Vector" d="M27.6412 16C28.3783 15.3423 28.846 14.4351 28.9541 13.4532C29.0623 12.4713 28.8032 11.4841 28.2269 10.6817C27.6506 9.87942 26.7977 9.31874 25.8327 9.1077C24.8676 8.89667 23.8586 9.05022 23 9.53877V7.00002C22.9991 6.18792 22.751 5.39533 22.2887 4.72763C21.8265 4.05993 21.1719 3.54876 20.4121 3.26206C19.6523 2.97537 18.8232 2.92674 18.0351 3.12264C17.247 3.31854 16.5371 3.74969 16 4.35877C15.3423 3.62166 14.4351 3.15399 13.4532 3.04586C12.4713 2.93773 11.484 3.19677 10.6817 3.7731C9.87939 4.34943 9.31871 5.20227 9.10767 6.16733C8.89664 7.13239 9.05019 8.14141 9.53874 9.00002H6.99999C6.18789 9.00093 5.3953 9.24901 4.7276 9.71128C4.0599 10.1735 3.54873 10.8281 3.26203 11.5879C2.97534 12.3477 2.92671 13.1768 3.12261 13.9649C3.31851 14.753 3.74966 15.4629 4.35874 16C3.62163 16.6577 3.15396 17.5649 3.04583 18.5468C2.9377 19.5288 3.19674 20.516 3.77307 21.3183C4.3494 22.1206 5.20224 22.6813 6.1673 22.8923C7.13236 23.1034 8.14138 22.9498 8.99999 22.4613V25C9.0009 25.8121 9.24898 26.6047 9.71125 27.2724C10.1735 27.9401 10.8281 28.4513 11.5879 28.738C12.3477 29.0247 13.1768 29.0733 13.9649 28.8774C14.753 28.6815 15.4628 28.2503 16 27.6413C16.6577 28.3784 17.5649 28.846 18.5468 28.9542C19.5287 29.0623 20.5159 28.8033 21.3183 28.2269C22.1206 27.6506 22.6813 26.7978 22.8923 25.8327C23.1033 24.8676 22.9498 23.8586 22.4612 23H25C25.8121 22.9991 26.6047 22.751 27.2724 22.2888C27.9401 21.8265 28.4513 21.1719 28.7379 20.4121C29.0246 19.6523 29.0733 18.8232 28.8774 18.0351C28.6815 17.247 28.2503 16.5372 27.6412 16ZM8.99999 19C8.99999 19.3956 8.88269 19.7823 8.66293 20.1112C8.44316 20.4401 8.13081 20.6964 7.76536 20.8478C7.3999 20.9992 6.99777 21.0388 6.60981 20.9616C6.22185 20.8844 5.86548 20.6939 5.58577 20.4142C5.30607 20.1345 5.11559 19.7782 5.03842 19.3902C4.96125 19.0022 5.00085 18.6001 5.15223 18.2347C5.3036 17.8692 5.55995 17.5568 5.88885 17.3371C6.21775 17.1173 6.60443 17 6.99999 17H8.99999V19ZM15 25C15 25.5305 14.7893 26.0392 14.4142 26.4142C14.0391 26.7893 13.5304 27 13 27C12.4696 27 11.9608 26.7893 11.5858 26.4142C11.2107 26.0392 11 25.5305 11 25V19C11 18.4696 11.2107 17.9609 11.5858 17.5858C11.9608 17.2107 12.4696 17 13 17H15V25ZM15 15H6.99999C6.46956 15 5.96085 14.7893 5.58577 14.4142C5.2107 14.0392 4.99999 13.5305 4.99999 13C4.99999 12.4696 5.2107 11.9609 5.58577 11.5858C5.96085 11.2107 6.46956 11 6.99999 11H13C13.5304 11 14.0391 11.2107 14.4142 11.5858C14.7893 11.9609 15 12.4696 15 13V15ZM15 9.00002H13C12.6044 9.00002 12.2177 8.88272 11.8888 8.66296C11.5599 8.4432 11.3036 8.13084 11.1522 7.76539C11.0009 7.39993 10.9612 6.9978 11.0384 6.60984C11.1156 6.22188 11.3061 5.86551 11.5858 5.58581C11.8655 5.3061 12.2218 5.11562 12.6098 5.03845C12.9978 4.96128 13.3999 5.00088 13.7654 5.15226C14.1308 5.30363 14.4432 5.55998 14.6629 5.88888C14.8827 6.21778 15 6.60446 15 7.00002V9.00002ZM17 7.00002C17 6.46959 17.2107 5.96088 17.5858 5.58581C17.9608 5.21073 18.4696 5.00002 19 5.00002C19.5304 5.00002 20.0391 5.21073 20.4142 5.58581C20.7893 5.96088 21 6.46959 21 7.00002V13C21 13.5305 20.7893 14.0392 20.4142 14.4142C20.0391 14.7893 19.5304 15 19 15H17V7.00002ZM19 27C18.4696 27 17.9608 26.7893 17.5858 26.4142C17.2107 26.0392 17 25.5305 17 25V23H19C19.5304 23 20.0391 23.2107 20.4142 23.5858C20.7893 23.9609 21 24.4696 21 25C21 25.5305 20.7893 26.0392 20.4142 26.4142C20.0391 26.7893 19.5304 27 19 27ZM25 21H19C18.4696 21 17.9608 20.7893 17.5858 20.4142C17.2107 20.0392 17 19.5305 17 19V17H25C25.5304 17 26.0391 17.2107 26.4142 17.5858C26.7893 17.9609 27 18.4696 27 19C27 19.5305 26.7893 20.0392 26.4142 20.4142C26.0391 20.7893 25.5304 21 25 21ZM25 15H23V13C23 12.6045 23.1173 12.2178 23.337 11.8889C23.5568 11.56 23.8692 11.3036 24.2346 11.1523C24.6001 11.0009 25.0022 10.9613 25.3902 11.0384C25.7781 11.1156 26.1345 11.3061 26.4142 11.5858C26.6939 11.8655 26.8844 12.2219 26.9616 12.6098C27.0387 12.9978 26.9991 13.3999 26.8477 13.7654C26.6964 14.1308 26.44 14.4432 26.1111 14.663C25.7822 14.8827 25.3956 15 25 15Z" fill="#343330"/>
</g>
</svg>
