<svg width="32" height="32" viewBox="0 0 32 32" fill="none" xmlns="http://www.w3.org/2000/svg">
<g id="icon/paper.plane.right">
<path id="Vector" d="M28.9838 14.25L7.98378 2.26378C7.62956 2.06437 7.22298 1.97763 6.81822 2.01512C6.41346 2.0526 6.02973 2.21254 5.71816 2.47361C5.40659 2.73468 5.18196 3.08449 5.07421 3.47644C4.96646 3.86839 4.9807 4.28387 5.11503 4.66753L8.94378 16L5.11503 27.3338C5.00848 27.6354 4.97581 27.9581 5.01978 28.2749C5.06374 28.5918 5.18306 28.8934 5.36771 29.1546C5.55236 29.4158 5.79696 29.6289 6.08098 29.776C6.36501 29.9231 6.68017 29.9999 7.00003 30C7.34753 29.9993 7.68896 29.9089 7.99128 29.7375L28.9813 17.7313C29.2909 17.5578 29.5488 17.3052 29.7285 16.9992C29.9082 16.6932 30.0032 16.3448 30.0038 15.99C30.0045 15.6351 29.9107 15.2865 29.7321 14.9798C29.5535 14.6732 29.2965 14.4196 28.9875 14.245L28.9838 14.25ZM7.00003 28C7.00057 27.995 7.00057 27.99 7.00003 27.985L10.7175 17H18C18.2652 17 18.5196 16.8947 18.7071 16.7071C18.8947 16.5196 19 16.2652 19 16C19 15.7348 18.8947 15.4805 18.7071 15.2929C18.5196 15.1054 18.2652 15 18 15H10.7175L7.00753 4.02003C7.0063 4.01295 7.00376 4.00616 7.00003 4.00003L28 15.9788L7.00003 28Z" fill="#343330"/>
</g>
</svg>
