<svg width="32" height="32" viewBox="0 0 32 32" fill="none" xmlns="http://www.w3.org/2000/svg">
<g id="icon/flame">
<path id="Vector" d="M21.7237 6.43507C20.1693 4.79694 18.42 3.35537 16.515 2.14257C16.3595 2.04912 16.1814 1.99976 16 1.99976C15.8186 1.99976 15.6405 2.04912 15.485 2.14257C13.58 3.35537 11.8307 4.79694 10.2762 6.43507C6.82375 10.0601 5 14.0588 5 18.0001C5 20.9174 6.15893 23.7153 8.22183 25.7782C10.2847 27.8411 13.0826 29.0001 16 29.0001C18.9174 29.0001 21.7153 27.8411 23.7782 25.7782C25.8411 23.7153 27 20.9174 27 18.0001C27 14.0588 25.1762 10.0601 21.7237 6.43507ZM12 23.0001C12 19.5413 14.8162 17.0901 16 16.2126C17.185 17.0876 20 19.5413 20 23.0001C20 24.0609 19.5786 25.0783 18.8284 25.8285C18.0783 26.5786 17.0609 27.0001 16 27.0001C14.9391 27.0001 13.9217 26.5786 13.1716 25.8285C12.4214 25.0783 12 24.0609 12 23.0001ZM21.6588 24.9913C21.8847 24.3517 22.0001 23.6784 22 23.0001C22 17.5001 16.7387 14.2763 16.515 14.1426C16.3595 14.0491 16.1814 13.9998 16 13.9998C15.8186 13.9998 15.6405 14.0491 15.485 14.1426C15.2612 14.2763 10 17.5001 10 23.0001C9.9999 23.6784 10.1153 24.3517 10.3413 24.9913C9.29797 24.1491 8.4564 23.0841 7.87824 21.8744C7.30009 20.6646 7.00001 19.3409 7 18.0001C7 13.6988 9.55 10.1063 11.69 7.85132C12.9948 6.48441 14.4394 5.25812 16 4.19257C17.5609 5.25779 19.0055 6.48411 20.31 7.85132C24.1862 11.9376 25 15.6251 25 18.0001C25 19.3409 24.6999 20.6646 24.1218 21.8744C23.5436 23.0841 22.702 24.1491 21.6588 24.9913Z" fill="#343330"/>
</g>
</svg>
