<svg width="32" height="32" viewBox="0 0 32 32" fill="none" xmlns="http://www.w3.org/2000/svg">
<g id="icon/codesandbox.logo">
<path id="Vector" d="M27.96 8.26881L16.96 2.25006C16.6659 2.08834 16.3357 2.00354 16 2.00354C15.6643 2.00354 15.3341 2.08834 15.04 2.25006L4.04 8.27256C3.72586 8.44444 3.46363 8.69751 3.28069 9.00534C3.09775 9.31317 3.00081 9.66447 3 10.0226V21.9776C3.00081 22.3356 3.09775 22.6869 3.28069 22.9948C3.46363 23.3026 3.72586 23.5557 4.04 23.7276L15.04 29.7488C15.3339 29.9112 15.6642 29.9964 16 29.9964C16.3358 29.9964 16.6661 29.9112 16.96 29.7488L27.96 23.7276C28.2741 23.5557 28.5364 23.3026 28.7193 22.9948C28.9023 22.6869 28.9992 22.3356 29 21.9776V10.0226C28.9999 9.66383 28.9032 9.31175 28.7203 9.0032C28.5373 8.69465 28.2747 8.44099 27.96 8.26881ZM21 19.0001V25.2613L17 27.4513V16.5926L27 11.1176V15.1176L21.52 18.1176C21.3618 18.2041 21.23 18.3318 21.1384 18.4872C21.0469 18.6425 20.9991 18.8197 21 19.0001ZM10.48 18.1251L5 15.1251V11.1251L15 16.6001V27.4588L11 25.2613V19.0001C10.9996 18.821 10.9511 18.6454 10.8597 18.4914C10.7682 18.3375 10.6371 18.211 10.48 18.1251ZM10.3925 7.07381L15.5175 9.88006C15.6647 9.96058 15.8297 10.0028 15.9975 10.0028C16.1653 10.0028 16.3303 9.96058 16.4775 9.88006L21.6025 7.07381L25.9125 9.43256L16 14.8601L6.0825 9.43006L10.3925 7.07381ZM16 4.00006L19.525 5.93006L16 7.86131L12.475 5.93131L16 4.00006ZM5 17.4026L9 19.5926V24.1663L5 21.9776V17.4026ZM23 24.1663V19.5926L27 17.4026V21.9776L23 24.1663Z" fill="#343330"/>
</g>
</svg>
