<svg width="32" height="32" viewBox="0 0 32 32" fill="none" xmlns="http://www.w3.org/2000/svg">
<g id="icon/stack.simple">
<path id="Vector" d="M1.49994 13.8751L15.4999 21.8751C15.6511 21.9614 15.8221 22.0069 15.9962 22.0069C16.1703 22.0069 16.3413 21.9614 16.4924 21.8751L30.4924 13.8751C30.6457 13.7877 30.7732 13.6613 30.8618 13.5087C30.9505 13.3561 30.9972 13.1828 30.9972 13.0063C30.9972 12.8298 30.9505 12.6565 30.8618 12.5039C30.7732 12.3514 30.6457 12.225 30.4924 12.1376L16.4924 4.13756C16.3413 4.05118 16.1703 4.00574 15.9962 4.00574C15.8221 4.00574 15.6511 4.05118 15.4999 4.13756L1.49994 12.1376C1.34664 12.225 1.21919 12.3514 1.13054 12.5039C1.04189 12.6565 0.995194 12.8298 0.995194 13.0063C0.995194 13.1828 1.04189 13.3561 1.13054 13.5087C1.21919 13.6613 1.34664 13.7877 1.49994 13.8751ZM15.9999 6.15131L27.9837 13.0001L15.9999 19.8488L4.01619 13.0001L15.9999 6.15131ZM30.8674 17.5001C30.9345 17.6143 30.9781 17.7406 30.9959 17.8718C31.0137 18.003 31.0052 18.1364 30.9711 18.2644C30.9369 18.3923 30.8776 18.5121 30.7967 18.617C30.7159 18.7218 30.615 18.8095 30.4999 18.8751L16.4999 26.8751C16.3488 26.9614 16.1778 27.0069 16.0037 27.0069C15.8296 27.0069 15.6586 26.9614 15.5074 26.8751L1.49994 18.8751C1.38545 18.8094 1.285 18.7218 1.20435 18.6173C1.1237 18.5129 1.06441 18.3935 1.02988 18.2661C0.995349 18.1387 0.986247 18.0058 1.00309 17.8749C1.01994 17.744 1.06241 17.6177 1.12807 17.5032C1.19373 17.3887 1.2813 17.2882 1.38578 17.2076C1.49026 17.1269 1.6096 17.0677 1.73699 17.0331C1.99426 16.9634 2.26871 16.9987 2.49994 17.1313L15.9999 24.8488L29.4999 17.1313C29.6139 17.0655 29.7397 17.0229 29.8702 17.0058C30.0006 16.9888 30.1332 16.9976 30.2602 17.0319C30.3873 17.0661 30.5063 17.1251 30.6105 17.2054C30.7147 17.2858 30.802 17.3859 30.8674 17.5001Z" fill="#343330"/>
</g>
</svg>
