<svg width="32" height="32" viewBox="0 0 32 32" fill="none" xmlns="http://www.w3.org/2000/svg">
<g id="icon/potted.plant">
<path id="Vector" d="M25 18H15.4125L15.7063 17.7062L18.2138 15.1987C19.2265 15.7087 20.3424 15.9807 21.4763 15.9937C22.6175 15.9967 23.7375 15.6844 24.7125 15.0912C27.6775 13.2962 29.2663 9.14121 28.9625 3.97621C28.9482 3.73157 28.8446 3.50069 28.6713 3.32741C28.498 3.15412 28.2672 3.0505 28.0225 3.03621C22.8575 2.73371 18.7025 4.32121 16.9075 7.28621C15.7375 9.21746 15.7075 11.55 16.7988 13.7862L15 15.585L13.4738 14.0587C14.2238 12.4025 14.17 10.6837 13.3 9.24871C11.9413 6.99996 8.82626 5.80121 4.96626 6.02746C4.72204 6.04201 4.49163 6.14559 4.31863 6.31859C4.14564 6.49158 4.04206 6.72199 4.02751 6.96621C3.80001 10.825 5.00001 13.94 7.25001 15.3C8.00275 15.7596 8.86804 16.0019 9.75001 16C10.5501 15.992 11.3394 15.8135 12.065 15.4762L13.585 17L12.585 18H7.00001C6.73479 18 6.48044 18.1053 6.2929 18.2929C6.10537 18.4804 6.00001 18.7347 6.00001 19C6.00001 19.2652 6.10537 19.5195 6.2929 19.7071C6.48044 19.8946 6.73479 20 7.00001 20H8.19876L9.85001 27.4337C9.9468 27.8789 10.1935 28.2774 10.5489 28.5625C10.9044 28.8476 11.3469 29.0021 11.8025 29H20.1988C20.6544 29.0021 21.0969 28.8476 21.4523 28.5625C21.8077 28.2774 22.0545 27.8789 22.1513 27.4337L23.8025 20H25C25.2652 20 25.5196 19.8946 25.7071 19.7071C25.8947 19.5195 26 19.2652 26 19C26 18.7347 25.8947 18.4804 25.7071 18.2929C25.5196 18.1053 25.2652 18 25 18ZM18.625 8.32246C19.9325 6.16496 23.03 4.94746 27 5.00121C27.0513 8.97746 25.8363 12.0737 23.6788 13.3762C22.24 14.2512 20.5038 14.1937 18.7688 13.2287C17.8025 11.5 17.75 9.76121 18.625 8.32246ZM11.5138 13.5137C10.3638 14.13 9.22501 14.1587 8.28501 13.5887C6.84751 12.7175 6.01876 10.6637 6.00001 7.99996C8.66376 8.01871 10.7188 8.84746 11.5888 10.285C12.1588 11.225 12.125 12.3637 11.5138 13.5137ZM20.1988 27H11.8025L10.25 20H21.75L20.1988 27Z" fill="#343330"/>
</g>
</svg>
