<svg width="32" height="32" viewBox="0 0 32 32" fill="none" xmlns="http://www.w3.org/2000/svg">
<g id="icon/bell.ringing">
<path id="Vector" d="M28.0002 8.8875C27.7648 9.0094 27.4906 9.03284 27.2379 8.95268C26.9853 8.87252 26.7748 8.69531 26.6527 8.46C25.6982 6.57436 24.2534 4.98062 22.4702 3.84625C22.3591 3.77616 22.2628 3.68486 22.187 3.57757C22.1111 3.47029 22.0571 3.34911 22.0281 3.22097C21.9991 3.09282 21.9956 2.96022 22.0178 2.83072C22.0401 2.70123 22.0876 2.57738 22.1577 2.46625C22.2278 2.35512 22.3191 2.25888 22.4264 2.18303C22.5336 2.10718 22.6548 2.05321 22.783 2.02419C22.9111 1.99517 23.0437 1.99168 23.1732 2.01391C23.3027 2.03614 23.4266 2.08366 23.5377 2.15375C25.6159 3.48442 27.3035 5.3432 28.4277 7.54C28.5496 7.7754 28.573 8.04956 28.4929 8.30224C28.4127 8.55492 28.2355 8.76543 28.0002 8.8875ZM4.46394 9C4.64714 8.99992 4.8268 8.94952 4.98331 8.85429C5.13982 8.75906 5.26716 8.62267 5.35144 8.46C6.30594 6.57436 7.75071 4.98062 9.53394 3.84625C9.75838 3.70469 9.91739 3.47977 9.97599 3.22097C10.0346 2.96217 9.988 2.69069 9.84644 2.46625C9.70488 2.24181 9.47996 2.0828 9.22116 2.02419C8.96236 1.96559 8.69088 2.01219 8.46644 2.15375C6.38819 3.48442 4.70066 5.3432 3.57644 7.54C3.49748 7.6924 3.45909 7.86255 3.46494 8.03409C3.47079 8.20563 3.52069 8.37277 3.60985 8.51943C3.699 8.6661 3.8244 8.78735 3.97399 8.87151C4.12357 8.95568 4.2923 8.99993 4.46394 9ZM27.7264 21.9925C27.9036 22.2963 27.9975 22.6414 27.9987 22.9931C27.9999 23.3448 27.9084 23.6906 27.7333 23.9956C27.5582 24.3006 27.3058 24.5541 27.0016 24.7304C26.6973 24.9068 26.3519 24.9997 26.0002 25H20.9002C20.6707 26.1303 20.0575 27.1465 19.1644 27.8764C18.2714 28.6063 17.1535 29.005 16.0002 29.005C14.8468 29.005 13.7289 28.6063 12.8359 27.8764C11.9429 27.1465 11.3297 26.1303 11.1002 25H6.00019C5.64871 24.9993 5.30363 24.906 4.9997 24.7295C4.69576 24.553 4.44371 24.2995 4.26894 23.9945C4.09416 23.6896 4.00283 23.344 4.00415 22.9925C4.00546 22.641 4.09938 22.2961 4.27644 21.9925C5.40269 20.0487 6.00019 17.285 6.00019 14C6.00019 11.3478 7.05376 8.80429 8.92912 6.92893C10.8045 5.05357 13.348 4 16.0002 4C18.6524 4 21.1959 5.05357 23.0713 6.92893C24.9466 8.80429 26.0002 11.3478 26.0002 14C26.0002 17.2837 26.5977 20.0475 27.7264 21.9925ZM18.8277 25H13.1727C13.3799 25.5843 13.7629 26.09 14.2693 26.4477C14.7756 26.8053 15.3803 26.9974 16.0002 26.9974C16.6201 26.9974 17.2248 26.8053 17.7311 26.4477C18.2374 26.09 18.6205 25.5843 18.8277 25ZM26.0002 23C24.6702 20.7162 24.0002 17.6887 24.0002 14C24.0002 11.8783 23.1573 9.84343 21.657 8.34314C20.1567 6.84285 18.1219 6 16.0002 6C13.8785 6 11.8436 6.84285 10.3433 8.34314C8.84304 9.84343 8.00019 11.8783 8.00019 14C8.00019 17.69 7.32769 20.7175 6.00019 23H26.0002Z" fill="#343330"/>
</g>
</svg>
