<svg width="32" height="32" viewBox="0 0 32 32" fill="none" xmlns="http://www.w3.org/2000/svg">
<g id="icon/rabbit">
<path id="Vector" d="M14.0002 20.5C14.0002 20.7967 13.9122 21.0867 13.7474 21.3334C13.5825 21.5801 13.3483 21.7723 13.0742 21.8859C12.8001 21.9994 12.4985 22.0291 12.2075 21.9712C11.9165 21.9133 11.6493 21.7705 11.4395 21.5607C11.2297 21.3509 11.0869 21.0837 11.029 20.7927C10.9711 20.5017 11.0008 20.2001 11.1143 19.926C11.2279 19.6519 11.4201 19.4177 11.6668 19.2528C11.9135 19.088 12.2035 19 12.5002 19C12.898 19 13.2795 19.1581 13.5608 19.4394C13.8421 19.7207 14.0002 20.1022 14.0002 20.5ZM19.5002 19C19.2035 19 18.9135 19.088 18.6668 19.2528C18.4201 19.4177 18.2279 19.6519 18.1143 19.926C18.0008 20.2001 17.9711 20.5017 18.029 20.7927C18.0869 21.0837 18.2297 21.3509 18.4395 21.5607C18.6493 21.7705 18.9165 21.9133 19.2075 21.9712C19.4985 22.0291 19.8001 21.9994 20.0742 21.8859C20.3483 21.7723 20.5825 21.5801 20.7474 21.3334C20.9122 21.0867 21.0002 20.7967 21.0002 20.5C21.0002 20.1022 20.8421 19.7207 20.5608 19.4394C20.2795 19.1581 19.898 19 19.5002 19ZM27.0002 23.5C27.0001 24.7741 26.6256 26.0201 25.9232 27.0831C25.2208 28.146 24.2215 28.9791 23.0495 29.4788C21.8775 29.9785 20.5845 30.1228 19.3312 29.8937C18.0779 29.6645 16.9195 29.0721 16.0002 28.19C15.381 28.7874 14.6495 29.256 13.8479 29.5685C13.0463 29.881 12.1907 30.0313 11.3306 30.0106C10.4705 29.9899 9.62311 29.7987 8.83749 29.448C8.05186 29.0974 7.34366 28.5942 6.75396 27.9678C6.16425 27.3414 5.70478 26.6041 5.40217 25.7987C5.09956 24.9934 4.95984 24.136 4.99111 23.2762C5.02239 22.4164 5.22403 21.5714 5.58435 20.7902C5.94467 20.0089 6.45649 19.307 7.09015 18.725C7.21799 17.8235 7.48271 16.9467 7.87515 16.125C5.50015 11.3875 4.0664 5.09505 5.70515 2.38505C5.94908 1.95832 6.30292 1.60476 6.72984 1.36118C7.15677 1.1176 7.64118 0.992894 8.13265 1.00005C9.89765 1.00005 11.3827 2.4863 12.6877 5.54505C13.4652 7.37255 14.0439 9.46005 14.4377 11.1375C15.4713 10.9548 16.529 10.9548 17.5627 11.1375C17.9539 9.46005 18.5327 7.37255 19.3127 5.54505C20.6127 2.4863 22.1027 1.00005 23.8677 1.00005C24.3591 0.992894 24.8435 1.1176 25.2705 1.36118C25.6974 1.60476 26.0512 1.95832 26.2952 2.38505C27.9339 5.09505 26.5002 11.3875 24.1252 16.125C24.5162 16.9453 24.7801 17.8203 24.9077 18.72C25.5691 19.3279 26.0968 20.0668 26.457 20.8898C26.8173 21.7127 27.0023 22.6017 27.0002 23.5ZM19.4864 11.7038C20.7835 12.2473 21.9345 13.0883 22.8464 14.1588C23.6768 12.309 24.2985 10.3725 24.7002 8.38505C25.1364 6.1188 25.0939 4.26005 24.5839 3.42005C24.5191 3.28729 24.4166 3.17661 24.2892 3.10189C24.1618 3.02717 24.0151 2.99174 23.8677 3.00005C23.0414 3.00005 22.0527 4.21255 21.1527 6.32755C20.4114 8.07005 19.8589 10.0925 19.4864 11.7038ZM9.1539 14.1588C10.0658 13.0883 11.2169 12.2473 12.5139 11.7038C12.1389 10.0925 11.5889 8.07005 10.8477 6.3288C9.94765 4.21255 8.9589 3.00005 8.13265 3.00005C7.98517 2.99174 7.83853 3.02717 7.7111 3.10189C7.58368 3.17661 7.48116 3.28729 7.4164 3.42005C6.9064 4.26255 6.8639 6.12505 7.30015 8.38505C7.70179 10.3725 8.32354 12.309 9.1539 14.1588ZM25.0002 23.5C25.0018 22.8291 24.8528 22.1663 24.5642 21.5605C24.2756 20.9548 23.8548 20.4215 23.3327 20C23.2297 19.9164 23.1443 19.8131 23.0817 19.6961C23.019 19.5791 22.9803 19.4509 22.9677 19.3188C22.8002 17.587 21.9938 15.9796 20.7057 14.8101C19.4175 13.6405 17.74 12.9925 16.0002 12.9925C14.2603 12.9925 12.5828 13.6405 11.2946 14.8101C10.0065 15.9796 9.20012 17.587 9.03265 19.3188C9.02005 19.4509 8.98129 19.5791 8.91863 19.6961C8.85596 19.8131 8.77065 19.9164 8.66765 20C8.19284 20.379 7.79966 20.8501 7.51182 21.3851C7.22398 21.9201 7.04744 22.5078 6.99283 23.1128C6.93823 23.7178 7.00669 24.3276 7.19409 24.9055C7.3815 25.4834 7.68396 26.0173 8.08326 26.4751C8.48256 26.9329 8.97042 27.3052 9.51744 27.5694C10.0645 27.8336 10.6593 27.9843 11.2661 28.0125C11.873 28.0406 12.4792 27.9456 13.0484 27.7331C13.6175 27.5207 14.1377 27.1952 14.5777 26.7763L13.3602 25.765C13.2592 25.681 13.1758 25.5779 13.1147 25.4616C13.0536 25.3453 13.016 25.2182 13.004 25.0873C12.9921 24.9565 13.006 24.8246 13.045 24.6992C13.084 24.5738 13.1474 24.4573 13.2314 24.3563C13.3154 24.2553 13.4186 24.1719 13.5348 24.1108C13.6511 24.0497 13.7783 24.0121 13.9091 24.0002C14.0399 23.9882 14.1718 24.0021 14.2972 24.0411C14.4227 24.0802 14.5392 24.1435 14.6402 24.2275L16.0002 25.3625L17.3602 24.2313C17.564 24.0616 17.827 23.9798 18.0912 24.0039C18.3554 24.0281 18.5992 24.1562 18.7689 24.36C18.9386 24.5639 19.0204 24.8269 18.9963 25.0911C18.9721 25.3553 18.844 25.5991 18.6402 25.7688L17.4227 26.78C18.0628 27.3801 18.8643 27.7799 19.7287 27.9303C20.5931 28.0807 21.4826 27.9751 22.2877 27.6266C23.0929 27.2781 23.7786 26.7018 24.2606 25.9686C24.7425 25.2355 24.9995 24.3774 25.0002 23.5Z" fill="#343330"/>
</g>
</svg>
