<svg width="32" height="32" viewBox="0 0 32 32" fill="none" xmlns="http://www.w3.org/2000/svg">
<g id="icon/text.outdent">
<path id="Vector" d="M28.0001 15.9999C28.0001 16.2652 27.8947 16.5195 27.7072 16.7071C27.5196 16.8946 27.2653 16.9999 27.0001 16.9999H14.0001C13.7348 16.9999 13.4805 16.8946 13.2929 16.7071C13.1054 16.5195 13.0001 16.2652 13.0001 15.9999C13.0001 15.7347 13.1054 15.4804 13.2929 15.2928C13.4805 15.1053 13.7348 14.9999 14.0001 14.9999H27.0001C27.2653 14.9999 27.5196 15.1053 27.7072 15.2928C27.8947 15.4804 28.0001 15.7347 28.0001 15.9999ZM14.0001 8.99995H27.0001C27.2653 8.99995 27.5196 8.89459 27.7072 8.70705C27.8947 8.51952 28.0001 8.26516 28.0001 7.99995C28.0001 7.73473 27.8947 7.48038 27.7072 7.29284C27.5196 7.1053 27.2653 6.99995 27.0001 6.99995H14.0001C13.7348 6.99995 13.4805 7.1053 13.2929 7.29284C13.1054 7.48038 13.0001 7.73473 13.0001 7.99995C13.0001 8.26516 13.1054 8.51952 13.2929 8.70705C13.4805 8.89459 13.7348 8.99995 14.0001 8.99995ZM27.0001 22.9999H5.00005C4.73484 22.9999 4.48048 23.1053 4.29295 23.2928C4.10541 23.4804 4.00005 23.7347 4.00005 23.9999C4.00005 24.2652 4.10541 24.5195 4.29295 24.7071C4.48048 24.8946 4.73484 24.9999 5.00005 24.9999H27.0001C27.2653 24.9999 27.5196 24.8946 27.7072 24.7071C27.8947 24.5195 28.0001 24.2652 28.0001 23.9999C28.0001 23.7347 27.8947 23.4804 27.7072 23.2928C27.5196 23.1053 27.2653 22.9999 27.0001 22.9999ZM9.00005 17.9999C9.19795 18.0001 9.39144 17.9415 9.55604 17.8317C9.72063 17.7218 9.84892 17.5656 9.92468 17.3827C10.0004 17.1999 10.0202 16.9987 9.98158 16.8046C9.94293 16.6106 9.84757 16.4323 9.70755 16.2924L5.4138 11.9999L9.70755 7.70745C9.8952 7.5198 10.0006 7.26531 10.0006 6.99995C10.0006 6.73458 9.8952 6.48009 9.70755 6.29245C9.51991 6.1048 9.26542 5.99939 9.00005 5.99939C8.73469 5.99939 8.48019 6.1048 8.29255 6.29245L3.29255 11.2924C3.19958 11.3853 3.12582 11.4956 3.07549 11.617C3.02517 11.7384 2.99927 11.8685 2.99927 11.9999C2.99927 12.1314 3.02517 12.2615 3.07549 12.3829C3.12582 12.5043 3.19958 12.6146 3.29255 12.7074L8.29255 17.7074C8.38549 17.8003 8.49581 17.8739 8.6172 17.9241C8.7386 17.9743 8.86869 18 9.00005 17.9999Z" fill="#343330"/>
</g>
</svg>
