<svg width="32" height="32" viewBox="0 0 32 32" fill="none" xmlns="http://www.w3.org/2000/svg">
<g id="icon/unite">
<path id="Vector" d="M21.8288 10.1713C21.4962 8.38018 20.6807 6.71394 19.4703 5.35249C18.2599 3.99103 16.7006 2.98608 14.9607 2.44615C13.2208 1.90621 11.3665 1.85181 9.59799 2.28881C7.82947 2.72581 6.21391 3.63761 4.92576 4.92576C3.63761 6.21391 2.72581 7.82947 2.28881 9.59799C1.85181 11.3665 1.90621 13.2208 2.44615 14.9607C2.98608 16.7006 3.99103 18.2599 5.35249 19.4703C6.71394 20.6807 8.38018 21.4962 10.1713 21.8288C10.5038 23.6199 11.3194 25.2861 12.5298 26.6476C13.7402 28.009 15.2995 29.014 17.0394 29.5539C18.7792 30.0939 20.6335 30.1483 22.4021 29.7113C24.1706 29.2743 25.7862 28.3625 27.0743 27.0743C28.3625 25.7862 29.2743 24.1706 29.7113 22.4021C30.1483 20.6335 30.0939 18.7792 29.5539 17.0394C29.014 15.2995 28.009 13.7402 26.6476 12.5298C25.2861 11.3194 23.6199 10.5038 21.8288 10.1713ZM28 20C28 20.19 27.9913 20.375 27.9775 20.5638L21.7275 14.3138C21.8899 13.6372 21.9812 12.9456 22 12.25C23.7168 12.6957 25.2372 13.6984 26.3229 15.1008C27.4087 16.5033 27.9986 18.2264 28 20ZM5.68378 7.09878L12.2613 13.675C11.7753 14.2689 11.3588 14.9165 11.02 15.605L4.53753 9.12503C4.81878 8.39734 5.20495 7.7147 5.68378 7.09878ZM9.12503 4.53753L15.6075 11.02C14.919 11.3588 14.2714 11.7753 13.6775 12.2613L7.09878 5.68378C7.7147 5.20495 8.39734 4.81878 9.12503 4.53753ZM16.8075 18.3913L13.6113 15.195C14.0637 14.5951 14.5976 14.0612 15.1975 13.6088L18.3938 16.805C17.9406 17.4051 17.4058 17.939 16.805 18.3913H16.8075ZM19.4138 15L17 12.5863C17.9526 12.1983 18.9715 11.9992 20 12C20.0009 13.0286 19.8018 14.0475 19.4138 15ZM12.5863 17L15 19.4138C14.0475 19.8018 13.0286 20.0009 12 20C11.9992 18.9715 12.1983 17.9526 12.5863 17ZM18.325 19.7388L24.9013 26.3163C24.2854 26.7951 23.6027 27.1813 22.875 27.4625L16.3925 20.98C17.082 20.6414 17.7304 20.2249 18.325 19.7388ZM19.7388 18.325C20.2248 17.7311 20.6412 17.0836 20.98 16.395L27.4625 22.875C27.1811 23.6019 26.7949 24.2836 26.3163 24.8988L19.7388 18.325ZM19.75 10.0063C19.0556 10.0232 18.3648 10.1124 17.6888 10.2725L11.4388 4.02253C11.625 4.00878 11.81 4.00003 12 4.00003C13.7745 4.00186 15.4982 4.59259 16.9008 5.67959C18.3034 6.76659 19.3055 8.28838 19.75 10.0063ZM4.00003 12C4.00003 11.81 4.00878 11.625 4.02253 11.4363L10.2725 17.6863C10.1123 18.3631 10.023 19.0547 10.0063 19.75C8.28838 19.3055 6.76659 18.3034 5.67959 16.9008C4.59259 15.4982 4.00186 13.7745 4.00003 12ZM12.25 22C12.9445 21.9831 13.6353 21.8939 14.3113 21.7338L20.5613 27.9838C20.375 27.9975 20.1863 28.0063 19.9975 28.0063C18.2235 28.0039 16.5004 27.4129 15.0983 26.326C13.6962 25.239 12.6944 23.7175 12.25 22Z" fill="#343330"/>
</g>
</svg>
