<svg width="33" height="32" viewBox="0 0 33 32" fill="none" xmlns="http://www.w3.org/2000/svg">
<g id="icon/user.gear">
<path id="Vector" d="M17.9999 19.71C19.5675 18.7336 20.7745 17.2733 21.4382 15.5498C22.1019 13.8264 22.1863 11.9337 21.6786 10.1581C21.1708 8.38242 20.0986 6.82045 18.624 5.70847C17.1495 4.59649 15.3529 3.995 13.5061 3.995C11.6593 3.995 9.86274 4.59649 8.38822 5.70847C6.91369 6.82045 5.84144 8.38242 5.33369 10.1581C4.82594 11.9337 4.91031 13.8264 5.57405 15.5498C6.23778 17.2733 7.44476 18.7336 9.01238 19.71C6.43113 20.555 4.10863 22.1337 2.24113 24.3562C2.15363 24.4563 2.08695 24.5728 2.045 24.6989C2.00305 24.8251 1.98667 24.9583 1.99681 25.0908C2.00695 25.2233 2.04341 25.3525 2.10406 25.4708C2.16471 25.5891 2.24833 25.6941 2.35003 25.7797C2.45173 25.8653 2.56948 25.9297 2.69638 25.9692C2.82328 26.0088 2.95679 26.0226 3.08911 26.01C3.22143 25.9973 3.34989 25.9584 3.467 25.8955C3.5841 25.8327 3.68749 25.7471 3.77113 25.6437C6.28113 22.6487 9.73863 21 13.4999 21C17.2611 21 20.7186 22.6487 23.2336 25.6437C23.4044 25.847 23.6488 25.974 23.9133 25.997C24.1777 26.02 24.4404 25.937 24.6436 25.7662C24.8469 25.5955 24.9739 25.351 24.9969 25.0866C25.0199 24.8222 24.9369 24.5595 24.7661 24.3562C22.8974 22.1337 20.5749 20.555 17.9999 19.71ZM6.99988 12.5C6.99988 11.2144 7.3811 9.95771 8.09533 8.88879C8.80956 7.81987 9.82472 6.98675 11.0124 6.49478C12.2002 6.00281 13.5071 5.87409 14.768 6.12489C16.0288 6.37569 17.187 6.99476 18.0961 7.9038C19.0051 8.81284 19.6242 9.97103 19.875 11.2319C20.1258 12.4928 19.9971 13.7997 19.5051 14.9874C19.0131 16.1752 18.18 17.1903 17.1111 17.9045C16.0422 18.6188 14.7855 19 13.4999 19C11.7766 18.998 10.1244 18.3126 8.90588 17.094C7.68732 15.8754 7.00186 14.2233 6.99988 12.5ZM31.5311 17.8837L30.9486 17.5475C31.017 17.1857 31.017 16.8143 30.9486 16.4525L31.5311 16.1162C31.6449 16.0506 31.7446 15.9632 31.8246 15.859C31.9045 15.7548 31.9632 15.6358 31.9972 15.509C32.0312 15.3821 32.0399 15.2498 32.0228 15.1196C32.0057 14.9893 31.963 14.8638 31.8974 14.75C31.8317 14.6362 31.7443 14.5365 31.6401 14.4566C31.5359 14.3766 31.417 14.3179 31.2901 14.2839C31.1632 14.2499 31.0309 14.2412 30.9007 14.2583C30.7705 14.2755 30.6449 14.3181 30.5311 14.3837L29.9474 14.7212C29.668 14.4816 29.3468 14.2955 28.9999 14.1725V13.5C28.9999 13.2348 28.8945 12.9804 28.707 12.7929C28.5195 12.6054 28.2651 12.5 27.9999 12.5C27.7347 12.5 27.4803 12.6054 27.2928 12.7929C27.1052 12.9804 26.9999 13.2348 26.9999 13.5V14.1725C26.653 14.2955 26.3317 14.4816 26.0524 14.7212L25.4686 14.3837C25.3549 14.3181 25.2293 14.2755 25.0991 14.2583C24.9688 14.2412 24.8365 14.2499 24.7097 14.2839C24.5828 14.3179 24.4639 14.3766 24.3597 14.4566C24.2555 14.5365 24.168 14.6362 24.1024 14.75C24.0367 14.8638 23.9941 14.9893 23.977 15.1196C23.9598 15.2498 23.9685 15.3821 24.0025 15.509C24.0366 15.6358 24.0952 15.7548 24.1752 15.859C24.2552 15.9632 24.3549 16.0506 24.4686 16.1162L25.0511 16.4525C24.9828 16.8143 24.9828 17.1857 25.0511 17.5475L24.4686 17.8837C24.3549 17.9494 24.2552 18.0368 24.1752 18.141C24.0952 18.2452 24.0366 18.3641 24.0025 18.491C23.9685 18.6179 23.9598 18.7502 23.977 18.8804C23.9941 19.0107 24.0367 19.1362 24.1024 19.25C24.168 19.3638 24.2555 19.4635 24.3597 19.5434C24.4639 19.6234 24.5828 19.6821 24.7097 19.7161C24.8365 19.7501 24.9688 19.7588 25.0991 19.7416C25.2293 19.7245 25.3549 19.6819 25.4686 19.6162L26.0524 19.2787C26.3317 19.5184 26.653 19.7045 26.9999 19.8275V20.5C26.9999 20.7652 27.1052 21.0196 27.2928 21.2071C27.4803 21.3946 27.7347 21.5 27.9999 21.5C28.2651 21.5 28.5195 21.3946 28.707 21.2071C28.8945 21.0196 28.9999 20.7652 28.9999 20.5V19.8275C29.3468 19.7045 29.668 19.5184 29.9474 19.2787L30.5311 19.6162C30.683 19.7044 30.8556 19.7505 31.0311 19.75C31.2513 19.7501 31.4654 19.6775 31.6401 19.5435C31.8149 19.4094 31.9405 19.2215 31.9975 19.0088C32.0544 18.7961 32.0396 18.5705 31.9553 18.3671C31.871 18.1637 31.7219 17.9938 31.5311 17.8837ZM26.9999 17C26.9999 16.8022 27.0585 16.6089 27.1684 16.4444C27.2783 16.28 27.4345 16.1518 27.6172 16.0761C27.7999 16.0004 28.001 15.9806 28.195 16.0192C28.389 16.0578 28.5671 16.153 28.707 16.2929C28.8468 16.4327 28.9421 16.6109 28.9807 16.8049C29.0193 16.9989 28.9994 17.2 28.9238 17.3827C28.8481 17.5654 28.7199 17.7216 28.5555 17.8315C28.391 17.9413 28.1977 18 27.9999 18C27.7347 18 27.4803 17.8946 27.2928 17.7071C27.1052 17.5196 26.9999 17.2652 26.9999 17Z" fill="#343330"/>
</g>
</svg>
