<svg width="32" height="32" viewBox="0 0 32 32" fill="none" xmlns="http://www.w3.org/2000/svg">
<g id="icon/train.regional">
<path id="Vector" d="M27.965 14.7375L25.1662 4.47375C25.0507 4.05039 24.7992 3.67676 24.4505 3.41044C24.1017 3.14412 23.675 2.9999 23.2362 3H8.7637C8.32488 2.9999 7.8982 3.14412 7.54943 3.41044C7.20067 3.67676 6.94917 4.05039 6.8337 4.47375L4.03495 14.7375C3.98867 14.9094 3.98867 15.0906 4.03495 15.2625L6.8337 25.5263C6.94917 25.9496 7.20067 26.3232 7.54943 26.5896C7.8982 26.8559 8.32488 27.0001 8.7637 27H9.99995L8.19995 29.4C8.12116 29.5051 8.06383 29.6246 8.03124 29.7518C7.99865 29.879 7.99143 30.0114 8.01 30.1414C8.02858 30.2714 8.07257 30.3965 8.13948 30.5095C8.20639 30.6225 8.29489 30.7212 8.39995 30.8C8.50501 30.8788 8.62456 30.9361 8.75177 30.9687C8.87898 31.0013 9.01137 31.0085 9.14137 30.99C9.27138 30.9714 9.39645 30.9274 9.50945 30.8605C9.62245 30.7936 9.72116 30.7051 9.79995 30.6L12.5 27H19.5L22.2 30.6C22.3591 30.8122 22.596 30.9524 22.8585 30.99C23.1211 31.0275 23.3878 30.9591 23.6 30.8C23.8121 30.6409 23.9524 30.404 23.9899 30.1414C24.0274 29.8789 23.9591 29.6122 23.8 29.4L22 27H23.2362C23.675 27.0001 24.1017 26.8559 24.4505 26.5896C24.7992 26.3232 25.0507 25.9496 25.1662 25.5263L27.965 15.2625C28.0112 15.0906 28.0112 14.9094 27.965 14.7375ZM8.7637 5H23.2362L25.75 14.2113L16 15.9838L6.24995 14.2113L8.7637 5ZM6.3887 16.2675L15 17.835V25H8.7637L6.3887 16.2675ZM23.2362 25H17V17.835L25.6175 16.2675L23.2362 25ZM11 11C11 10.7348 11.1053 10.4804 11.2928 10.2929C11.4804 10.1054 11.7347 10 12 10H20C20.2652 10 20.5195 10.1054 20.7071 10.2929C20.8946 10.4804 21 10.7348 21 11C21 11.2652 20.8946 11.5196 20.7071 11.7071C20.5195 11.8946 20.2652 12 20 12H12C11.7347 12 11.4804 11.8946 11.2928 11.7071C11.1053 11.5196 11 11.2652 11 11Z" fill="#343330"/>
</g>
</svg>
