<svg width="32" height="32" viewBox="0 0 32 32" fill="none" xmlns="http://www.w3.org/2000/svg">
<g id="icon/pizza">
<path id="Vector" d="M29.9425 7.87495C29.8809 7.61896 29.769 7.37775 29.6135 7.16532C29.4579 6.95288 29.2617 6.77346 29.0362 6.63745C25.1039 4.2587 20.5958 3.00122 16 3.00122C11.4042 3.00122 6.896 4.2587 2.96373 6.63745C2.73892 6.77379 2.5432 6.95312 2.38777 7.16517C2.23234 7.37723 2.12024 7.61785 2.0579 7.87327C1.99555 8.12869 1.98418 8.3939 2.02443 8.65372C2.06468 8.91353 2.15577 9.16287 2.29248 9.38745L14.2925 29.0462C14.4707 29.3401 14.7218 29.5831 15.0213 29.7517C15.3208 29.9204 15.6587 30.0089 16.0025 30.0089C16.3462 30.0089 16.6841 29.9204 16.9837 29.7517C17.2832 29.5831 17.5342 29.3401 17.7125 29.0462L29.7125 9.38745C29.8493 9.16325 29.9402 8.91403 29.9797 8.65434C30.0192 8.39465 30.0065 8.1297 29.9425 7.87495ZM7.94873 14.8125C8.27365 14.5062 8.66282 14.2764 9.08786 14.1397C9.5129 14.0031 9.96309 13.963 10.4056 14.0224C10.8481 14.0818 11.2718 14.2393 11.6457 14.4833C12.0196 14.7273 12.3343 15.0516 12.5669 15.4327C12.7995 15.8138 12.9442 16.242 12.9902 16.6861C13.0363 17.1302 12.9827 17.579 12.8333 17.9997C12.6838 18.4204 12.4424 18.8025 12.1265 19.1181C11.8107 19.4336 11.4284 19.6747 11.0075 19.8237L7.94873 14.8125ZM18.9387 23.1812C18.4379 22.709 18.1148 22.079 18.0234 21.3967C17.932 20.7145 18.078 20.0217 18.4369 19.4343C18.7958 18.847 19.3457 18.4009 19.9945 18.1709C20.6432 17.941 21.3513 17.9411 22 18.1712L18.9387 23.1812ZM23.055 16.44C21.9435 15.9355 20.6858 15.855 19.5191 16.2137C18.3524 16.5724 17.3571 17.3455 16.721 18.3873C16.0849 19.429 15.8519 20.6675 16.0658 21.8693C16.2798 23.071 16.9259 24.153 17.8825 24.9112L16 28L12.0625 21.5537C12.7089 21.2624 13.286 20.8369 13.7555 20.3055C14.2249 19.7742 14.576 19.149 14.7853 18.4716C14.9947 17.7942 15.0576 17.0799 14.9698 16.3763C14.8821 15.6727 14.6457 14.9959 14.2763 14.3906C13.907 13.7854 13.4131 13.2656 12.8276 12.8658C12.242 12.466 11.5781 12.1953 10.8799 12.0717C10.1817 11.9481 9.46517 11.9744 8.77793 12.1489C8.09068 12.3234 7.44841 12.642 6.89373 13.0837L6.09998 11.7825C9.08127 9.96261 12.5065 8.9998 15.9994 8.9998C19.4922 8.9998 22.9174 9.96261 25.8987 11.7825L23.055 16.44ZM26.9425 10.0737C23.6465 8.0635 19.8606 7.00005 16 7.00005C12.1394 7.00005 8.35341 8.0635 5.05748 10.0737L3.99998 8.3462C7.62027 6.15821 11.7699 5.00168 16 5.00168C20.2301 5.00168 24.3797 6.15821 28 8.3462L26.9425 10.0737Z" fill="#343330"/>
</g>
</svg>
