<svg width="32" height="32" viewBox="0 0 32 32" fill="none" xmlns="http://www.w3.org/2000/svg">
<g id="icon/popcorn">
<path id="Vector" d="M28.69 9.27621C28.5726 9.1658 28.4302 9.08541 28.275 9.04188C28.1199 8.99835 27.9564 8.99298 27.7987 9.02621C27.6046 8.32818 27.2744 7.67539 26.8272 7.10535C26.3799 6.53531 25.8245 6.05925 25.1927 5.70452C24.561 5.34978 23.8654 5.12337 23.1458 5.03829C22.4263 4.9532 21.6971 5.01112 21 5.20871C20.5612 4.2513 19.8568 3.43998 18.9705 2.87117C18.0842 2.30237 17.0531 2 16 2C14.9468 2 13.9158 2.30237 13.0295 2.87117C12.1431 3.43998 11.4387 4.2513 11 5.20871C10.3031 5.01086 9.57395 4.95264 8.85448 5.03739C8.13501 5.12214 7.43936 5.3482 6.80751 5.70257C6.17565 6.05695 5.62003 6.53266 5.17255 7.10239C4.72507 7.67211 4.39456 8.32463 4.19999 9.02246C4.03572 8.98875 3.8656 8.99689 3.7053 9.04614C3.545 9.09539 3.39965 9.18415 3.28264 9.30428C3.16562 9.42441 3.0807 9.57203 3.03568 9.73357C2.99065 9.89511 2.98698 10.0654 3.02499 10.2287L6.84499 26.4587C6.94839 26.8975 7.19701 27.2885 7.55052 27.5683C7.90402 27.848 8.34168 28.0001 8.79249 28H23.2075C23.6583 28.0001 24.096 27.848 24.4495 27.5683C24.803 27.2885 25.0516 26.8975 25.155 26.4587L28.9737 10.2287C29.0136 10.059 29.0083 9.8818 28.9586 9.71472C28.9088 9.54763 28.8162 9.39647 28.69 9.27621ZM9.49999 6.99996C10.0715 6.99837 10.6345 7.13837 11.1387 7.40746C11.2749 7.47966 11.4258 7.51943 11.5799 7.52367C11.7339 7.5279 11.8868 7.49648 12.0267 7.43187C12.1666 7.36725 12.2896 7.27118 12.3863 7.15116C12.4829 7.03114 12.5505 6.89041 12.5837 6.73996C12.7568 5.96299 13.1896 5.26823 13.8107 4.77031C14.4317 4.27238 15.204 4.00104 16 4.00104C16.796 4.00104 17.5682 4.27238 18.1893 4.77031C18.8104 5.26823 19.2431 5.96299 19.4162 6.73996C19.4495 6.89041 19.5171 7.03114 19.6137 7.15116C19.7104 7.27118 19.8334 7.36725 19.9733 7.43187C20.1132 7.49648 20.2661 7.5279 20.4201 7.52367C20.5742 7.51943 20.7251 7.47966 20.8612 7.40746C21.3241 7.16193 21.8362 7.02346 22.3598 7.00226C22.8833 6.98107 23.4049 7.07769 23.8862 7.28501C24.3674 7.49232 24.7959 7.80504 25.1401 8.20008C25.4843 8.59512 25.7355 9.06241 25.875 9.56746L21.055 10.9425L16.7437 9.21746C16.2671 9.02688 15.7354 9.02688 15.2587 9.21746L10.9462 10.945L6.12499 9.56746C6.32907 8.82915 6.76974 8.17817 7.37938 7.71439C7.98903 7.25061 8.73399 6.99963 9.49999 6.99996ZM8.79249 26L5.36374 11.43L10.095 12.7812L11.8575 26H8.79249ZM18.125 26H13.875L12.0937 12.64L16 11.0775L19.9062 12.64L18.125 26ZM23.2075 26H20.1425L21.905 12.7812L26.6362 11.43L23.2075 26Z" fill="#343330"/>
</g>
</svg>
