<svg width="32" height="32" viewBox="0 0 32 32" fill="none" xmlns="http://www.w3.org/2000/svg">
<g id="icon/linux.logo">
<path id="Vector" d="M28.625 26.7812C28.4179 26.9467 28.1536 27.0232 27.8902 26.9939C27.6267 26.9647 27.3857 26.8319 27.22 26.625C27.0488 26.4088 23 21.2325 23 11C23 9.14348 22.2625 7.36301 20.9497 6.05025C19.637 4.7375 17.8565 4 16 4C14.1435 4 12.363 4.7375 11.0503 6.05025C9.7375 7.36301 9 9.14348 9 11C9 21.2325 4.95375 26.4088 4.78125 26.625C4.61549 26.8324 4.37415 26.9654 4.11031 26.9948C3.84646 27.0242 3.58174 26.9476 3.37438 26.7819C3.16701 26.6161 3.03399 26.3748 3.00457 26.1109C2.97515 25.8471 3.05174 25.5824 3.2175 25.375C3.23625 25.35 4.17875 24.1375 5.10875 21.7825C5.97125 19.6 7 15.955 7 11C7 8.61305 7.94821 6.32387 9.63604 4.63604C11.3239 2.94821 13.6131 2 16 2C18.387 2 20.6761 2.94821 22.364 4.63604C24.0518 6.32387 25 8.61305 25 11C25 15.955 26.0288 19.6 26.8913 21.785C27.8263 24.1525 28.7738 25.365 28.7838 25.3775C28.9486 25.5848 29.0244 25.849 28.9947 26.1122C28.9649 26.3754 28.832 26.616 28.625 26.7812ZM12.5 11C12.2033 11 11.9133 11.088 11.6666 11.2528C11.42 11.4176 11.2277 11.6519 11.1142 11.926C11.0007 12.2001 10.9709 12.5017 11.0288 12.7926C11.0867 13.0836 11.2296 13.3509 11.4393 13.5607C11.6491 13.7704 11.9164 13.9133 12.2074 13.9712C12.4983 14.0291 12.7999 13.9994 13.074 13.8858C13.3481 13.7723 13.5824 13.58 13.7472 13.3334C13.912 13.0867 14 12.7967 14 12.5C14 12.1022 13.842 11.7206 13.5607 11.4393C13.2794 11.158 12.8978 11 12.5 11ZM21 12.5C21 12.2033 20.912 11.9133 20.7472 11.6666C20.5824 11.42 20.3481 11.2277 20.074 11.1142C19.7999 11.0006 19.4983 10.9709 19.2074 11.0288C18.9164 11.0867 18.6491 11.2296 18.4393 11.4393C18.2296 11.6491 18.0867 11.9164 18.0288 12.2074C17.9709 12.4983 18.0007 12.7999 18.1142 13.074C18.2277 13.3481 18.42 13.5824 18.6666 13.7472C18.9133 13.912 19.2033 14 19.5 14C19.8978 14 20.2794 13.842 20.5607 13.5607C20.842 13.2794 21 12.8978 21 12.5ZM12.4475 16.105C12.2111 15.9927 11.94 15.9776 11.6925 16.0629C11.445 16.1482 11.2409 16.3271 11.1239 16.5613C11.0069 16.7955 10.9864 17.0662 11.0667 17.3153C11.1471 17.5644 11.322 17.7721 11.5538 17.8937L15.5538 19.8937C15.6923 19.9636 15.8454 20 16.0006 20C16.1558 20 16.3089 19.9636 16.4475 19.8937L20.4475 17.8937C20.6847 17.7751 20.865 17.567 20.9489 17.3154C21.0327 17.0637 21.0131 16.7891 20.8944 16.5519C20.7757 16.3147 20.5676 16.1343 20.316 16.0505C20.0643 15.9667 19.7897 15.9863 19.5525 16.105L16 17.8813L12.4475 16.105ZM16 22C14.7966 22.0096 13.6176 22.3403 12.5847 22.9581C11.5519 23.5758 10.7028 24.4581 10.125 25.5138C9.99604 25.7458 9.96455 26.0196 10.0375 26.2749C10.1104 26.5302 10.2817 26.746 10.5138 26.875C10.7458 27.004 11.0196 27.0355 11.2749 26.9625C11.5302 26.8896 11.746 26.7183 11.875 26.4862C12.2723 25.7369 12.8662 25.1098 13.5929 24.6725C14.3197 24.2352 15.1518 24.0042 16 24.0042C16.8482 24.0042 17.6803 24.2352 18.4071 24.6725C19.1338 25.1098 19.7277 25.7369 20.125 26.4862C20.254 26.7183 20.4698 26.8896 20.7251 26.9625C20.9804 27.0355 21.2542 27.004 21.4863 26.875C21.7183 26.746 21.8896 26.5302 21.9626 26.2749C22.0355 26.0196 22.004 25.7458 21.875 25.5138C21.2972 24.4581 20.4481 23.5758 19.4153 22.9581C18.3824 22.3403 17.2034 22.0096 16 22Z" fill="#343330"/>
</g>
</svg>
