<svg width="32" height="32" viewBox="0 0 32 32" fill="none" xmlns="http://www.w3.org/2000/svg">
<g id="icon/air.traffic.control">
<path id="Vector" d="M28.6387 8.8525C28.4542 8.58913 28.2089 8.37413 27.9236 8.22572C27.6383 8.07732 27.3215 7.99989 26.9999 8H16.9999V4H18.9999C19.2651 4 19.5195 3.89464 19.707 3.70711C19.8946 3.51957 19.9999 3.26522 19.9999 3C19.9999 2.73478 19.8946 2.48043 19.707 2.29289C19.5195 2.10536 19.2651 2 18.9999 2H12.9999C12.7347 2 12.4803 2.10536 12.2928 2.29289C12.1053 2.48043 11.9999 2.73478 11.9999 3C11.9999 3.26522 12.1053 3.51957 12.2928 3.70711C12.4803 3.89464 12.7347 4 12.9999 4H14.9999V8H4.99991C4.67879 8.00072 4.36257 8.07875 4.07798 8.2275C3.79339 8.37624 3.5488 8.59132 3.36489 8.85456C3.18098 9.11779 3.06316 9.42144 3.02139 9.73983C2.97962 10.0582 3.01512 10.382 3.12491 10.6838L6.39866 19.6838C6.53873 20.0688 6.79368 20.4015 7.12903 20.6369C7.46437 20.8723 7.86393 20.9991 8.27366 21H11.9999V29C11.9999 29.2652 12.1053 29.5196 12.2928 29.7071C12.4803 29.8946 12.7347 30 12.9999 30C13.2651 30 13.5195 29.8946 13.707 29.7071C13.8945 29.5196 13.9999 29.2652 13.9999 29V21H17.9999V29C17.9999 29.2652 18.1053 29.5196 18.2928 29.7071C18.4803 29.8946 18.7347 30 18.9999 30C19.2651 30 19.5195 29.8946 19.707 29.7071C19.8946 29.5196 19.9999 29.2652 19.9999 29V21H23.7274C24.1371 20.9991 24.5367 20.8723 24.872 20.6369C25.2074 20.4015 25.4623 20.0688 25.6024 19.6838L28.8762 10.6838C28.9866 10.3819 29.0227 10.0578 28.9814 9.73907C28.9401 9.4203 28.8225 9.11619 28.6387 8.8525ZM13.8349 19L12.1974 10H19.8024L18.1649 19H13.8349ZM4.99991 10H10.1649L11.8012 19H8.27241L4.99991 10ZM23.7274 19H20.1987L21.8349 10H26.9999L23.7274 19Z" fill="#343330"/>
</g>
</svg>
