<svg width="32" height="32" viewBox="0 0 32 32" fill="none" xmlns="http://www.w3.org/2000/svg">
<g id="icon/arrow.fat.line.left">
<path id="Vector" d="M23 8.99999H16V3.99999C16.0001 3.8021 15.9416 3.60861 15.8317 3.44401C15.7218 3.27942 15.5656 3.15112 15.3828 3.07537C15.2 2.99962 14.9988 2.97981 14.8047 3.01846C14.6106 3.05712 14.4323 3.15248 14.2925 3.29249L2.29249 15.2925C2.19952 15.3854 2.12576 15.4957 2.07543 15.6171C2.02511 15.7385 1.99921 15.8686 1.99921 16C1.99921 16.1314 2.02511 16.2615 2.07543 16.3829C2.12576 16.5043 2.19952 16.6146 2.29249 16.7075L14.2925 28.7075C14.4323 28.8475 14.6106 28.9429 14.8047 28.9815C14.9988 29.0202 15.2 29.0004 15.3828 28.9246C15.5656 28.8489 15.7218 28.7206 15.8317 28.556C15.9416 28.3914 16.0001 28.1979 16 28V23H23C23.2652 23 23.5196 22.8946 23.7071 22.7071C23.8946 22.5196 24 22.2652 24 22V9.99999C24 9.73478 23.8946 9.48042 23.7071 9.29289C23.5196 9.10535 23.2652 8.99999 23 8.99999ZM22 21H15C14.7348 21 14.4804 21.1054 14.2929 21.2929C14.1054 21.4804 14 21.7348 14 22V25.5862L4.41374 16L14 6.41374V9.99999C14 10.2652 14.1054 10.5196 14.2929 10.7071C14.4804 10.8946 14.7348 11 15 11H22V21ZM28 9.99999V22C28 22.2652 27.8946 22.5196 27.7071 22.7071C27.5196 22.8946 27.2652 23 27 23C26.7348 23 26.4804 22.8946 26.2929 22.7071C26.1053 22.5196 26 22.2652 26 22V9.99999C26 9.73478 26.1053 9.48042 26.2929 9.29289C26.4804 9.10535 26.7348 8.99999 27 8.99999C27.2652 8.99999 27.5196 9.10535 27.7071 9.29289C27.8946 9.48042 28 9.73478 28 9.99999Z" fill="#343330"/>
</g>
</svg>
