<svg width="32" height="32" viewBox="0 0 32 32" fill="none" xmlns="http://www.w3.org/2000/svg">
<g id="icon/empty">
<path id="Vector" d="M24.7799 7.82875L26.7399 5.6725C26.9146 5.47566 27.0046 5.21791 26.9904 4.95515C26.9763 4.6924 26.8591 4.4458 26.6644 4.26882C26.4697 4.09185 26.213 3.99876 25.9501 4.00975C25.6872 4.02073 25.4392 4.1349 25.2599 4.3275L23.2999 6.4825C20.9134 4.64965 17.9252 3.78082 14.928 4.04839C11.9308 4.31595 9.14374 5.70036 7.11966 7.92695C5.09557 10.1535 3.98239 13.0596 4.00096 16.0687C4.01953 19.0777 5.1685 21.9698 7.21992 24.1713L5.25992 26.3275C5.16976 26.4244 5.09971 26.5382 5.05385 26.6623C5.00798 26.7864 4.98721 26.9184 4.99273 27.0506C4.99826 27.1828 5.02997 27.3126 5.08603 27.4325C5.14209 27.5524 5.22138 27.6599 5.31931 27.7489C5.41724 27.8379 5.53187 27.9066 5.65654 27.951C5.7812 27.9954 5.91344 28.0145 6.04558 28.0074C6.17772 28.0003 6.30714 27.9671 6.42632 27.9096C6.54551 27.8521 6.65211 27.7715 6.73992 27.6725L8.69992 25.5175C11.0864 27.3504 14.0747 28.2192 17.0718 27.9516C20.069 27.6841 22.8561 26.2996 24.8802 24.0731C26.9043 21.8465 28.0175 18.9404 27.9989 15.9313C27.9803 12.9223 26.8313 10.0302 24.7799 7.82875ZM5.99992 16C6.00104 14.1487 6.51605 12.334 7.48759 10.7581C8.45914 9.18223 9.84908 7.90697 11.5026 7.07437C13.1561 6.24178 15.0083 5.88454 16.8529 6.04245C18.6975 6.20036 20.462 6.86722 21.9499 7.96875L8.57492 22.685C6.91667 20.8535 5.99885 18.4707 5.99992 16ZM15.9999 26C13.8562 26.0023 11.7692 25.3117 10.0499 24.0313L23.4249 9.315C24.7189 10.7505 25.5689 12.5305 25.872 14.4392C26.175 16.348 25.9181 18.3037 25.1323 20.0694C24.3466 21.8351 23.0657 23.3351 21.4448 24.3877C19.8239 25.4403 17.9326 26.0004 15.9999 26Z" fill="#343330"/>
</g>
</svg>
