<svg width="32" height="32" viewBox="0 0 32 32" fill="none" xmlns="http://www.w3.org/2000/svg">
<g id="icon/circle.half.tilt">
<path id="Vector" d="M25.1925 6.80751C22.7545 4.3695 19.4479 2.99985 16 2.99985C12.5522 2.99985 9.24554 4.3695 6.80754 6.80751C4.36953 9.24551 2.99988 12.5521 2.99988 16C2.99988 19.4479 4.36953 22.7545 6.80754 25.1925C9.24554 27.6305 12.5522 29.0002 16 29.0002C19.4479 29.0002 22.7545 27.6305 25.1925 25.1925C27.6305 22.7545 29.0002 19.4479 29.0002 16C29.0002 12.5521 27.6305 9.24551 25.1925 6.80751ZM23 24.4838C22.3836 24.9933 21.7129 25.4335 21 25.7963V12.4138L23 10.4138V24.4838ZM13 20.4138L15 18.4138V26.9488C14.3233 26.8856 13.6537 26.76 13 26.5738V20.4138ZM11 25.7963C10.2725 25.4258 9.58907 24.9746 8.96254 24.4513L11 22.4138V25.7963ZM17 16.4138L19 14.4138V26.5788C18.3463 26.765 17.6768 26.8906 17 26.9538V16.4138ZM5.00004 16C5.0006 13.91 5.59655 11.8635 6.71812 10.0999C7.83969 8.33636 9.44045 6.92883 11.333 6.0421C13.2255 5.15537 15.3315 4.82615 17.4044 5.09298C19.4773 5.35981 21.4313 6.21164 23.0375 7.54876L7.54754 23.0388C5.89542 21.066 4.99318 18.5732 5.00004 16ZM25 22.3238V9.67626C26.3012 11.5283 26.9995 13.7366 26.9995 16C26.9995 18.2634 26.3012 20.4717 25 22.3238Z" fill="#343330"/>
</g>
</svg>
