<svg width="32" height="32" viewBox="0 0 32 32" fill="none" xmlns="http://www.w3.org/2000/svg">
<g id="icon/android.logo">
<path id="Vector" d="M22 18.5C22 18.7967 21.912 19.0867 21.7472 19.3334C21.5824 19.5801 21.3481 19.7723 21.074 19.8859C20.7999 19.9994 20.4983 20.0291 20.2074 19.9712C19.9164 19.9133 19.6491 19.7705 19.4393 19.5607C19.2296 19.3509 19.0867 19.0836 19.0288 18.7927C18.9709 18.5017 19.0007 18.2001 19.1142 17.926C19.2277 17.6519 19.42 17.4177 19.6667 17.2528C19.9133 17.088 20.2033 17 20.5 17C20.8978 17 21.2794 17.1581 21.5607 17.4394C21.842 17.7207 22 18.1022 22 18.5ZM11.5 17C11.2033 17 10.9133 17.088 10.6667 17.2528C10.42 17.4177 10.2277 17.6519 10.1142 17.926C10.0007 18.2001 9.97095 18.5017 10.0288 18.7927C10.0867 19.0836 10.2296 19.3509 10.4393 19.5607C10.6491 19.7705 10.9164 19.9133 11.2074 19.9712C11.4983 20.0291 11.7999 19.9994 12.074 19.8859C12.3481 19.7723 12.5824 19.5801 12.7472 19.3334C12.912 19.0867 13 18.7967 13 18.5C13 18.1022 12.842 17.7207 12.5607 17.4394C12.2794 17.1581 11.8978 17 11.5 17ZM30 20V23C30 23.5305 29.7893 24.0392 29.4142 24.4142C29.0391 24.7893 28.5304 25 28 25H4.00001C3.46957 25 2.96087 24.7893 2.58579 24.4142C2.21072 24.0392 2.00001 23.5305 2.00001 23V20.1413C1.99822 18.2136 2.38973 16.3057 3.15058 14.5345C3.91143 12.7633 5.02562 11.1659 6.42501 9.84003L3.29251 6.70753C3.10487 6.51989 2.99945 6.2654 2.99945 6.00003C2.99945 5.73467 3.10487 5.48017 3.29251 5.29253C3.48015 5.10489 3.73464 4.99948 4.00001 4.99948C4.26537 4.99948 4.51987 5.10489 4.70751 5.29253L7.97751 8.56253C10.3254 6.89937 13.1308 6.00416 16.0081 5.99991C18.8854 5.99565 21.6934 6.88257 24.0463 8.53878L27.2963 5.28878C27.4839 5.10114 27.7384 4.99573 28.0038 4.99573C28.2691 4.99573 28.5236 5.10114 28.7113 5.28878C28.8989 5.47642 29.0043 5.73092 29.0043 5.99628C29.0043 6.26165 28.8989 6.51614 28.7113 6.70378L25.6025 9.81253C25.6963 9.90128 25.79 9.99128 25.8825 10.0838C27.1918 11.3813 28.23 12.9261 28.9369 14.6285C29.6438 16.3309 30.0051 18.1568 30 20ZM28 20C28 16.8174 26.7357 13.7652 24.4853 11.5148C22.2348 9.26432 19.1826 8.00003 16 8.00003H15.9575C9.36376 8.02253 4.00001 13.4688 4.00001 20.1413V23H28V20Z" fill="#343330"/>
</g>
</svg>
