<svg width="32" height="32" viewBox="0 0 32 32" fill="none" xmlns="http://www.w3.org/2000/svg">
<g id="icon/arrows.out.line.vertical">
<path id="Vector" d="M28 16.0001C28 16.2653 27.8946 16.5196 27.7071 16.7072C27.5196 16.8947 27.2652 17.0001 27 17.0001H5C4.73478 17.0001 4.48043 16.8947 4.29289 16.7072C4.10536 16.5196 4 16.2653 4 16.0001C4 15.7348 4.10536 15.4805 4.29289 15.2929C4.48043 15.1054 4.73478 15.0001 5 15.0001H27C27.2652 15.0001 27.5196 15.1054 27.7071 15.2929C27.8946 15.4805 28 15.7348 28 16.0001ZM12.7075 6.70755L15 4.4138V12.0001C15 12.2653 15.1054 12.5196 15.2929 12.7072C15.4804 12.8947 15.7348 13.0001 16 13.0001C16.2652 13.0001 16.5196 12.8947 16.7071 12.7072C16.8946 12.5196 17 12.2653 17 12.0001V4.4138L19.2925 6.70755C19.4801 6.8952 19.7346 7.00061 20 7.00061C20.2654 7.00061 20.5199 6.8952 20.7075 6.70755C20.8951 6.51991 21.0006 6.26542 21.0006 6.00005C21.0006 5.73469 20.8951 5.4802 20.7075 5.29255L16.7075 1.29255C16.6146 1.19958 16.5043 1.12582 16.3829 1.07549C16.2615 1.02517 16.1314 0.999268 16 0.999268C15.8686 0.999268 15.7385 1.02517 15.6171 1.07549C15.4957 1.12582 15.3854 1.19958 15.2925 1.29255L11.2925 5.29255C11.1049 5.4802 10.9994 5.73469 10.9994 6.00005C10.9994 6.26542 11.1049 6.51991 11.2925 6.70755C11.4801 6.8952 11.7346 7.00061 12 7.00061C12.2654 7.00061 12.5199 6.8952 12.7075 6.70755ZM19.2925 25.2926L17 27.5863V20.0001C17 19.7348 16.8946 19.4805 16.7071 19.2929C16.5196 19.1054 16.2652 19.0001 16 19.0001C15.7348 19.0001 15.4804 19.1054 15.2929 19.2929C15.1054 19.4805 15 19.7348 15 20.0001V27.5863L12.7075 25.2926C12.5199 25.1049 12.2654 24.9995 12 24.9995C11.7346 24.9995 11.4801 25.1049 11.2925 25.2926C11.1049 25.4802 10.9994 25.7347 10.9994 26.0001C10.9994 26.2654 11.1049 26.5199 11.2925 26.7076L15.2925 30.7076C15.3854 30.8005 15.4957 30.8743 15.6171 30.9246C15.7385 30.9749 15.8686 31.0008 16 31.0008C16.1314 31.0008 16.2615 30.9749 16.3829 30.9246C16.5043 30.8743 16.6146 30.8005 16.7075 30.7076L20.7075 26.7076C20.8951 26.5199 21.0006 26.2654 21.0006 26.0001C21.0006 25.7347 20.8951 25.4802 20.7075 25.2926C20.5199 25.1049 20.2654 24.9995 20 24.9995C19.7346 24.9995 19.4801 25.1049 19.2925 25.2926Z" fill="#343330"/>
</g>
</svg>
