<svg width="32" height="32" viewBox="0 0 32 32" fill="none" xmlns="http://www.w3.org/2000/svg">
<g id="icon/crown.simple">
<path id="Vector" d="M28.8626 9.20001C28.4715 9.00831 28.0281 8.95083 27.601 9.03647C27.174 9.1221 26.787 9.34608 26.5001 9.67376L22.2913 14.21L17.8163 4.17376C17.8161 4.16959 17.8161 4.16542 17.8163 4.16126C17.6563 3.81419 17.4002 3.52024 17.0783 3.3142C16.7564 3.10816 16.3822 2.99866 16.0001 2.99866C15.6179 2.99866 15.2437 3.10816 14.9218 3.3142C14.5999 3.52024 14.3438 3.81419 14.1838 4.16126C14.184 4.16542 14.184 4.16959 14.1838 4.17376L9.70882 14.21L5.50007 9.67376C5.21128 9.34602 4.82313 9.12185 4.39493 9.03548C3.96673 8.94912 3.52203 9.00532 3.12878 9.1955C2.73553 9.38568 2.41536 9.69937 2.21718 10.0886C2.01901 10.4779 1.95373 10.9214 2.03132 11.3513C2.03132 11.365 2.03132 11.3775 2.04007 11.3913L4.87507 24.375C4.96234 24.8322 5.20634 25.2446 5.56502 25.5413C5.92371 25.8379 6.37462 26.0001 6.84007 26H25.1613C25.6266 25.9998 26.0772 25.8375 26.4356 25.5409C26.794 25.2443 27.0378 24.832 27.1251 24.375L29.9601 11.3913C29.9601 11.3775 29.9601 11.365 29.9688 11.3513C30.0479 10.9209 29.9822 10.4764 29.7821 10.0872C29.582 9.69804 29.2587 9.38607 28.8626 9.20001ZM25.1688 23.96L25.1613 24H6.83882L6.83132 23.96L4.00007 11L4.01757 11.02L9.26757 16.675C9.37999 16.7965 9.5208 16.8882 9.67738 16.9418C9.83396 16.9955 10.0014 17.0094 10.1647 16.9824C10.328 16.9554 10.482 16.8883 10.613 16.7871C10.744 16.6858 10.8478 16.5537 10.9151 16.4025L16.0001 5.00001L21.0863 16.4063C21.1536 16.5575 21.2574 16.6896 21.3884 16.7908C21.5194 16.892 21.6734 16.9591 21.8367 16.9861C22 17.0132 22.1674 16.9992 22.324 16.9456C22.4806 16.8919 22.6214 16.8002 22.7338 16.6788L27.9838 11.0238L28.0001 11L25.1688 23.96Z" fill="#343330"/>
</g>
</svg>
