<svg width="32" height="32" viewBox="0 0 32 32" fill="none" xmlns="http://www.w3.org/2000/svg">
<g id="icon/repeat.once">
<path id="Vector" d="M3.00005 15.9999C3.0027 13.6138 3.95176 11.3262 5.63902 9.63891C7.32627 7.95165 9.61392 7.00259 12.0001 6.99995H25.5863L24.2926 5.70745C24.1049 5.5198 23.9995 5.26531 23.9995 4.99995C23.9995 4.73458 24.1049 4.48009 24.2926 4.29245C24.4802 4.1048 24.7347 3.99939 25.0001 3.99939C25.2654 3.99939 25.5199 4.10481 25.7076 4.29245L28.7076 7.29245C28.8005 7.38532 28.8743 7.49561 28.9246 7.61701C28.9749 7.7384 29.0008 7.86853 29.0008 7.99995C29.0008 8.13136 28.9749 8.26149 28.9246 8.38289C28.8743 8.50428 28.8005 8.61457 28.7076 8.70745L25.7076 11.7074C25.5199 11.8951 25.2654 12.0005 25.0001 12.0005C24.7347 12.0005 24.4802 11.8951 24.2926 11.7074C24.1049 11.5198 23.9995 11.2653 23.9995 10.9999C23.9995 10.7346 24.1049 10.4801 24.2926 10.2924L25.5863 8.99995H12.0001C10.1441 9.00193 8.36482 9.74007 7.0525 11.0524C5.74018 12.3647 5.00204 14.144 5.00005 15.9999C5.00005 16.2652 4.8947 16.5195 4.70716 16.7071C4.51962 16.8946 4.26527 16.9999 4.00005 16.9999C3.73484 16.9999 3.48048 16.8946 3.29295 16.7071C3.10541 16.5195 3.00005 16.2652 3.00005 15.9999ZM28.0001 14.9999C27.7348 14.9999 27.4805 15.1053 27.2929 15.2928C27.1054 15.4804 27.0001 15.7347 27.0001 15.9999C26.9981 17.8559 26.2599 19.6352 24.9476 20.9475C23.6353 22.2598 21.856 22.998 20.0001 22.9999H6.4138L7.70755 21.7074C7.80046 21.6145 7.87416 21.5042 7.92445 21.3828C7.97473 21.2614 8.00061 21.1313 8.00061 20.9999C8.00061 20.8686 7.97473 20.7384 7.92445 20.6171C7.87416 20.4957 7.80046 20.3854 7.70755 20.2924C7.61464 20.1995 7.50434 20.1258 7.38295 20.0756C7.26156 20.0253 7.13145 19.9994 7.00005 19.9994C6.86866 19.9994 6.73855 20.0253 6.61716 20.0756C6.49576 20.1258 6.38546 20.1995 6.29255 20.2924L3.29255 23.2924C3.19958 23.3853 3.12582 23.4956 3.07549 23.617C3.02517 23.7384 2.99927 23.8685 2.99927 23.9999C2.99927 24.1314 3.02517 24.2615 3.07549 24.3829C3.12582 24.5043 3.19958 24.6146 3.29255 24.7074L6.29255 27.7074C6.38546 27.8004 6.49576 27.8741 6.61716 27.9243C6.73855 27.9746 6.86866 28.0005 7.00005 28.0005C7.13145 28.0005 7.26156 27.9746 7.38295 27.9243C7.50434 27.8741 7.61464 27.8004 7.70755 27.7074C7.80046 27.6145 7.87416 27.5042 7.92445 27.3828C7.97473 27.2614 8.00061 27.1313 8.00061 26.9999C8.00061 26.8686 7.97473 26.7384 7.92445 26.6171C7.87416 26.4957 7.80046 26.3854 7.70755 26.2924L6.4138 24.9999H20.0001C22.3862 24.9973 24.6738 24.0482 26.3611 22.361C28.0483 20.6737 28.9974 18.3861 29.0001 15.9999C29.0001 15.7347 28.8947 15.4804 28.7072 15.2928C28.5196 15.1053 28.2653 14.9999 28.0001 14.9999ZM17.0001 19.9999C17.2653 19.9999 17.5196 19.8946 17.7072 19.7071C17.8947 19.5195 18.0001 19.2652 18.0001 18.9999V12.9999C18.0002 12.8294 17.9567 12.6617 17.8737 12.5127C17.7907 12.3637 17.671 12.2384 17.526 12.1487C17.3809 12.059 17.2153 12.0079 17.0449 12.0002C16.8746 11.9926 16.7051 12.0286 16.5526 12.1049L14.5526 13.1049C14.3154 13.2236 14.135 13.4317 14.0512 13.6833C13.9674 13.935 13.987 14.2096 14.1057 14.4468C14.2244 14.684 14.4324 14.8644 14.6841 14.9482C14.9357 15.032 15.2104 15.0124 15.4476 14.8937L16.0001 14.6174V18.9999C16.0001 19.2652 16.1054 19.5195 16.2929 19.7071C16.4805 19.8946 16.7348 19.9999 17.0001 19.9999Z" fill="#343330"/>
</g>
</svg>
