<svg width="32" height="32" viewBox="0 0 32 32" fill="none" xmlns="http://www.w3.org/2000/svg">
<g id="icon/racquet">
<path id="Vector" d="M28.7501 3.25625C25.2501 -0.235001 18.9413 0.394999 14.6751 4.6625C10.7013 8.63625 9.88383 14.3837 12.6113 17.9737L8.91633 21.6687L8.83133 21.5837C8.64558 21.3978 8.42501 21.2503 8.18221 21.1496C7.93941 21.049 7.67916 20.9972 7.41633 20.9972C7.1535 20.9972 6.89324 21.049 6.65045 21.1496C6.40765 21.2503 6.18708 21.3978 6.00133 21.5837L2.58633 25C2.40038 25.1857 2.25286 25.4063 2.15221 25.6491C2.05156 25.8919 1.99976 26.1522 1.99976 26.415C1.99976 26.6778 2.05156 26.9381 2.15221 27.1809C2.25286 27.4237 2.40038 27.6443 2.58633 27.83L4.17258 29.4162C4.3583 29.602 4.5788 29.7494 4.82148 29.8499C5.06416 29.9504 5.32427 30.0022 5.58695 30.0022C5.84964 30.0022 6.10975 29.9504 6.35243 29.8499C6.59511 29.7494 6.81561 29.602 7.00133 29.4162L10.4176 26C10.6033 25.8143 10.7507 25.5938 10.8512 25.3511C10.9518 25.1084 11.0035 24.8483 11.0035 24.5856C11.0035 24.3229 10.9518 24.0628 10.8512 23.8202C10.7507 23.5775 10.6033 23.357 10.4176 23.1712L10.3313 23.085L14.0263 19.39C15.4376 20.4625 17.1813 20.9887 19.0263 20.9887C21.8663 20.9887 24.9326 19.7387 27.3438 17.3262C31.6038 13.0587 32.2351 6.75 28.7501 3.25625ZM5.58758 28L4.00008 26.4137L7.41633 23L8.20758 23.7925L9.00008 24.5837L5.58758 28ZM28.0288 13H25.0076V9H29.0076C28.9928 10.3908 28.6579 11.7595 28.0288 13ZM17.0001 18.7012C16.125 18.4389 15.3287 17.9633 14.6827 17.3173C14.0367 16.6714 13.5612 15.8751 13.2988 15H17.0001V18.7012ZM13.0001 13C13.0151 11.6088 13.3513 10.2398 13.9826 9H17.0001V13H13.0001ZM19.0001 9H23.0001V13H19.0001V9ZM28.7088 7H25.0076V3.285C25.8841 3.54788 26.6817 4.02422 27.3288 4.6713C27.9759 5.31838 28.4522 6.11596 28.7151 6.9925L28.7088 7ZM22.9813 3H23.0013V7H19.0013V3.97C20.2374 3.34174 21.6011 3.00561 22.9876 2.9875L22.9813 3ZM17.0001 5.2575V6.9925H15.2701C15.5265 6.67274 15.8002 6.36729 16.0901 6.0775C16.3788 5.78839 16.6826 5.51468 17.0001 5.2575ZM19.0001 18.9975V15H23.0001V18.02C21.7619 18.6495 20.3952 18.9848 19.0063 19L19.0001 18.9975ZM25.0001 16.73V15H26.7501C26.4933 15.3195 26.2196 15.6249 25.9301 15.915C25.6377 16.2034 25.3298 16.4754 25.0076 16.73H25.0001Z" fill="#343330"/>
</g>
</svg>
