<svg width="32" height="32" viewBox="0 0 32 32" fill="none" xmlns="http://www.w3.org/2000/svg">
<g id="icon/caret.line.down">
<path id="Vector" d="M5.29251 9.70745C5.10487 9.51981 4.99945 9.26531 4.99945 8.99995C4.99945 8.73458 5.10487 8.48009 5.29251 8.29245C5.48015 8.10481 5.73464 7.99939 6.00001 7.99939C6.26537 7.99939 6.51987 8.1048 6.70751 8.29245L16 17.5862L25.2925 8.29245C25.4801 8.1048 25.7346 7.99939 26 7.99939C26.2654 7.99939 26.5199 8.1048 26.7075 8.29245C26.8951 8.48009 27.0006 8.73458 27.0006 8.99995C27.0006 9.26531 26.8951 9.51981 26.7075 9.70745L16.7075 19.7074C16.6146 19.8004 16.5043 19.8742 16.3829 19.9245C16.2615 19.9748 16.1314 20.0007 16 20.0007C15.8686 20.0007 15.7385 19.9748 15.6171 19.9245C15.4957 19.8742 15.3854 19.8004 15.2925 19.7074L5.29251 9.70745ZM26 22.9999H6.00001C5.73479 22.9999 5.48044 23.1053 5.2929 23.2928C5.10536 23.4804 5.00001 23.7347 5.00001 23.9999C5.00001 24.2652 5.10536 24.5195 5.2929 24.7071C5.48044 24.8946 5.73479 24.9999 6.00001 24.9999H26C26.2652 24.9999 26.5196 24.8946 26.7071 24.7071C26.8947 24.5195 27 24.2652 27 23.9999C27 23.7347 26.8947 23.4804 26.7071 23.2928C26.5196 23.1053 26.2652 22.9999 26 22.9999Z" fill="#343330"/>
</g>
</svg>
