<svg width="32" height="32" viewBox="0 0 32 32" fill="none" xmlns="http://www.w3.org/2000/svg">
<g id="icon/yarn">
<path id="Vector" d="M29 27H22.9237C25.5727 25.331 27.53 22.7617 28.4356 19.7646C29.3413 16.7675 29.1342 13.5442 27.8527 10.6876C26.5712 7.831 24.3013 5.53317 21.4605 4.21678C18.6198 2.90038 15.3993 2.65396 12.3914 3.52284C9.38343 4.39171 6.79036 6.31745 5.08913 8.94584C3.38789 11.5742 2.6929 14.7285 3.13198 17.8285C3.57107 20.9284 5.1147 23.7656 7.47894 25.8182C9.84319 27.8707 12.8691 29.0006 16 29H29C29.2652 29 29.5195 28.8946 29.7071 28.7071C29.8946 28.5195 30 28.2652 30 28C30 27.7347 29.8946 27.4804 29.7071 27.2929C29.5195 27.1053 29.2652 27 29 27ZM16 4.99996C17.9281 4.99785 19.8225 5.50541 21.4912 6.47121C20.2861 7.01613 19.1215 7.64649 18.0062 8.35746C16.2408 7.23174 14.3539 6.30921 12.3812 5.60746C13.5447 5.20267 14.7681 4.99728 16 4.99996ZM9.81997 6.90496C12.0614 7.51154 14.2104 8.41851 16.2087 9.60121C15.3548 10.2439 14.5381 10.9346 13.7625 11.67C11.7102 10.5779 9.5024 9.80765 7.21622 9.38621C7.94326 8.42288 8.82275 7.58477 9.81997 6.90496ZM6.08997 11.2275C8.24869 11.5429 10.3441 12.1972 12.2987 13.1662C11.6046 13.929 10.9524 14.7289 10.345 15.5625C8.6993 14.8238 6.95106 14.3391 5.15997 14.125C5.33344 13.1205 5.64647 12.1452 6.08997 11.2275ZM4.99997 16.125C6.4465 16.3038 7.86124 16.6824 9.20372 17.25C8.25602 18.7714 7.45772 20.381 6.81997 22.0562C5.65359 20.2962 5.0215 18.2363 4.99997 16.125ZM8.30247 23.8512C9.50309 20.2492 11.4731 16.9515 14.0759 14.1871C16.6786 11.4227 19.8517 9.25772 23.375 7.84246C24.1644 8.55667 24.8472 9.38049 25.4025 10.2887C21.9196 11.5072 18.7813 13.5461 16.2527 16.2334C13.7241 18.9206 11.8795 22.177 10.875 25.7275C9.93198 25.2292 9.06594 24.5972 8.30372 23.8512H8.30247ZM15.7075 27C14.6962 26.9716 13.6938 26.8033 12.7287 26.5C13.6301 23.17 15.3388 20.1137 17.7034 17.6017C20.068 15.0897 23.0155 13.1996 26.285 12.0987C26.6444 13.0441 26.8707 14.0348 26.9575 15.0425C24.2715 16.006 21.8518 17.5918 19.8964 19.6701C17.941 21.7484 16.5056 24.2602 15.7075 27ZM26.935 17.195C26.6723 19.5713 25.6443 21.7978 24.0058 23.5389C22.3673 25.28 20.2073 26.4412 17.8512 26.8475C18.5919 24.6847 19.7853 22.7047 21.3516 21.0396C22.918 19.3745 24.8215 18.0625 26.935 17.1912V17.195Z" fill="#343330"/>
</g>
</svg>
