<svg width="32" height="32" viewBox="0 0 32 32" fill="none" xmlns="http://www.w3.org/2000/svg">
<g id="icon/microphone.slash">
<path id="Vector" d="M26.74 27.3274L6.73999 5.32744C6.5607 5.13484 6.31271 5.02067 6.0498 5.00969C5.78689 4.9987 5.53025 5.09179 5.33551 5.26876C5.14077 5.44574 5.02364 5.69234 5.0095 5.9551C4.99537 6.21785 5.08537 6.4756 5.25999 6.67244L9.99999 11.8862V15.9999C9.99976 17.0186 10.2589 18.0205 10.7529 18.9114C11.247 19.8022 11.9597 20.5526 12.8239 21.0918C13.6881 21.631 14.6754 21.9413 15.6927 21.9935C16.71 22.0456 17.7239 21.8379 18.6387 21.3899L20.0262 22.9149C18.8051 23.6295 17.4149 24.0041 16 23.9999C13.879 23.9976 11.8455 23.154 10.3457 21.6542C8.84591 20.1544 8.00231 18.121 7.99999 15.9999C7.99999 15.7347 7.89464 15.4804 7.7071 15.2928C7.51956 15.1053 7.26521 14.9999 6.99999 14.9999C6.73478 14.9999 6.48042 15.1053 6.29289 15.2928C6.10535 15.4804 5.99999 15.7347 5.99999 15.9999C6.00304 18.4781 6.9249 20.8671 8.5873 22.705C10.2497 24.5429 12.5345 25.6991 15 25.9499V29.9999C15 30.2652 15.1054 30.5195 15.2929 30.7071C15.4804 30.8946 15.7348 30.9999 16 30.9999C16.2652 30.9999 16.5196 30.8946 16.7071 30.7071C16.8946 30.5195 17 30.2652 17 29.9999V25.9487C18.5659 25.7977 20.0729 25.2739 21.395 24.4212L25.26 28.6712C25.3478 28.7702 25.4544 28.8508 25.5736 28.9083C25.6928 28.9657 25.8222 28.999 25.9543 29.0061C26.0865 29.0132 26.2187 28.994 26.3434 28.9497C26.4681 28.9053 26.5827 28.8366 26.6806 28.7476C26.7785 28.6586 26.8578 28.5511 26.9139 28.4312C26.9699 28.3113 27.0017 28.1815 27.0072 28.0493C27.0127 27.9171 26.9919 27.7851 26.9461 27.661C26.9002 27.5368 26.8302 27.423 26.74 27.3262V27.3274ZM16 19.9999C14.9391 19.9999 13.9217 19.5785 13.1716 18.8284C12.4214 18.0782 12 17.0608 12 15.9999V14.0862L17.2075 19.8137C16.8169 19.9372 16.4097 20.0001 16 19.9999ZM23.19 19.5112C23.7264 18.4186 24.0036 17.2171 24 15.9999C24 15.7347 24.1054 15.4804 24.2929 15.2928C24.4804 15.1053 24.7348 14.9999 25 14.9999C25.2652 14.9999 25.5196 15.1053 25.7071 15.2928C25.8946 15.4804 26 15.7347 26 15.9999C26.0042 17.5218 25.6572 19.024 24.9862 20.3899C24.904 20.5583 24.7762 20.7002 24.6173 20.7994C24.4584 20.8986 24.2748 20.9512 24.0875 20.9512C23.9353 20.9514 23.7851 20.9163 23.6487 20.8487C23.4106 20.7321 23.2285 20.5257 23.1424 20.2749C23.0564 20.0241 23.0735 19.7494 23.19 19.5112ZM10.5 5.60869C11.0507 4.34546 12.0195 3.31032 13.2436 2.67723C14.4676 2.04415 15.8723 1.8517 17.2215 2.13225C18.5707 2.4128 19.7822 3.14923 20.6524 4.21779C21.5226 5.28634 21.9985 6.62188 22 7.99994V15.9999C21.9998 16.2087 21.9889 16.4173 21.9675 16.6249C21.9417 16.8718 21.8251 17.1002 21.6403 17.2659C21.4555 17.4315 21.2157 17.5225 20.9675 17.5212C20.9325 17.523 20.8975 17.523 20.8625 17.5212C20.5988 17.4935 20.3569 17.3621 20.19 17.1561C20.0231 16.9501 19.9449 16.6862 19.9725 16.4224C19.9862 16.2849 19.9937 16.1424 19.9937 16.0024V7.99994C19.9911 7.08246 19.6731 6.19378 19.0932 5.48286C18.5132 4.77195 17.7064 4.28203 16.8082 4.09523C15.9099 3.90842 14.9747 4.0361 14.1594 4.45684C13.3441 4.87759 12.6982 5.56583 12.33 6.40619C12.2833 6.53444 12.2108 6.65175 12.117 6.75092C12.0232 6.85008 11.9101 6.929 11.7846 6.9828C11.6592 7.0366 11.524 7.06415 11.3875 7.06375C11.251 7.06335 11.1161 7.03502 10.9909 6.98049C10.8658 6.92596 10.7532 6.84639 10.66 6.74668C10.5667 6.64697 10.4949 6.52923 10.4489 6.40072C10.4029 6.2722 10.3837 6.13564 10.3925 5.99942C10.4013 5.86321 10.4379 5.73024 10.5 5.60869Z" fill="#343330"/>
</g>
</svg>
