<svg width="32" height="32" viewBox="0 0 32 32" fill="none" xmlns="http://www.w3.org/2000/svg">
<g id="icon/rss">
<path id="Vector" d="M13.3638 18.6363C14.2021 19.4701 14.8668 20.4618 15.3193 21.5541C15.7718 22.6465 16.0032 23.8177 16 25.0001C16 25.2653 15.8946 25.5196 15.7071 25.7072C15.5196 25.8947 15.2652 26.0001 15 26.0001C14.7348 26.0001 14.4804 25.8947 14.2929 25.7072C14.1054 25.5196 14 25.2653 14 25.0001C14 23.1436 13.2625 21.3631 11.9497 20.0503C10.637 18.7376 8.85652 18.0001 7 18.0001C6.73478 18.0001 6.48043 17.8947 6.29289 17.7072C6.10536 17.5196 6 17.2653 6 17.0001C6 16.7349 6.10536 16.4805 6.29289 16.293C6.48043 16.1054 6.73478 16.0001 7 16.0001C8.18235 15.9969 9.35359 16.2283 10.4459 16.6808C11.5383 17.1333 12.53 17.798 13.3638 18.6363ZM7 10.0001C6.73478 10.0001 6.48043 10.1054 6.29289 10.293C6.10536 10.4805 6 10.7349 6 11.0001C6 11.2653 6.10536 11.5196 6.29289 11.7072C6.48043 11.8947 6.73478 12.0001 7 12.0001C10.4478 12.0001 13.7544 13.3697 16.1924 15.8077C18.6304 18.2457 20 21.5523 20 25.0001C20 25.2653 20.1054 25.5196 20.2929 25.7072C20.4804 25.8947 20.7348 26.0001 21 26.0001C21.2652 26.0001 21.5196 25.8947 21.7071 25.7072C21.8946 25.5196 22 25.2653 22 25.0001C22 21.0218 20.4196 17.2065 17.6066 14.3935C14.7936 11.5804 10.9782 10.0001 7 10.0001ZM21.8488 10.1513C19.9034 8.19515 17.5893 6.64425 15.0405 5.58838C12.4917 4.53252 9.75883 3.99267 7 4.00008C6.73478 4.00008 6.48043 4.10543 6.29289 4.29297C6.10536 4.4805 6 4.73486 6 5.00008C6 5.26529 6.10536 5.51965 6.29289 5.70718C6.48043 5.89472 6.73478 6.00008 7 6.00008C9.49613 5.99323 11.9688 6.48156 14.2749 7.4368C16.5811 8.39203 18.6748 9.7952 20.435 11.5651C22.2049 13.3253 23.608 15.419 24.5633 17.7251C25.5185 20.0313 26.0068 22.5039 26 25.0001C26 25.2653 26.1054 25.5196 26.2929 25.7072C26.4804 25.8947 26.7348 26.0001 27 26.0001C27.2652 26.0001 27.5196 25.8947 27.7071 25.7072C27.8946 25.5196 28 25.2653 28 25.0001C28.0074 22.2412 27.4676 19.5084 26.4117 16.9596C25.3558 14.4108 23.8049 12.0967 21.8488 10.1513ZM7.5 23.0001C7.20333 23.0001 6.91332 23.088 6.66665 23.2529C6.41997 23.4177 6.22771 23.652 6.11418 23.9261C6.00065 24.2001 5.97094 24.5017 6.02882 24.7927C6.0867 25.0837 6.22956 25.351 6.43934 25.5607C6.64912 25.7705 6.91639 25.9134 7.20737 25.9713C7.49834 26.0291 7.79994 25.9994 8.07403 25.8859C8.34811 25.7724 8.58238 25.5801 8.74721 25.3334C8.91203 25.0868 9 24.7967 9 24.5001C9 24.1022 8.84197 23.7207 8.56066 23.4394C8.27936 23.1581 7.89783 23.0001 7.5 23.0001Z" fill="#343330"/>
</g>
</svg>
