<svg width="32" height="32" viewBox="0 0 32 32" fill="none" xmlns="http://www.w3.org/2000/svg">
<g id="icon/caret.double.left">
<path id="Vector" d="M25.7075 25.2924C25.8004 25.3854 25.8741 25.4957 25.9244 25.6171C25.9747 25.7384 26.0005 25.8686 26.0005 25.9999C26.0005 26.1313 25.9747 26.2614 25.9244 26.3828C25.8741 26.5042 25.8004 26.6145 25.7075 26.7074C25.6146 26.8004 25.5043 26.8741 25.3829 26.9243C25.2615 26.9746 25.1314 27.0005 25 27.0005C24.8686 27.0005 24.7385 26.9746 24.6171 26.9243C24.4957 26.8741 24.3854 26.8004 24.2925 26.7074L14.2925 16.7074C14.1995 16.6146 14.1258 16.5043 14.0754 16.3829C14.0251 16.2615 13.9992 16.1314 13.9992 15.9999C13.9992 15.8685 14.0251 15.7384 14.0754 15.617C14.1258 15.4956 14.1995 15.3853 14.2925 15.2924L24.2925 5.29245C24.4801 5.10481 24.7346 4.99939 25 4.99939C25.2654 4.99939 25.5199 5.1048 25.7075 5.29245C25.8951 5.48009 26.0005 5.73458 26.0005 5.99995C26.0005 6.26531 25.8951 6.5198 25.7075 6.70745L16.4137 15.9999L25.7075 25.2924ZM6.41374 15.9999L15.7075 6.70745C15.8951 6.5198 16.0006 6.26531 16.0006 5.99995C16.0006 5.73458 15.8951 5.48009 15.7075 5.29245C15.5199 5.1048 15.2654 4.99939 15 4.99939C14.7346 4.99939 14.4801 5.1048 14.2925 5.29245L4.29249 15.2924C4.19952 15.3853 4.12576 15.4956 4.07543 15.617C4.02511 15.7384 3.99921 15.8685 3.99921 15.9999C3.99921 16.1314 4.02511 16.2615 4.07543 16.3829C4.12576 16.5043 4.19952 16.6146 4.29249 16.7074L14.2925 26.7074C14.3854 26.8004 14.4957 26.8741 14.6171 26.9243C14.7385 26.9746 14.8686 27.0005 15 27.0005C15.1314 27.0005 15.2615 26.9746 15.3829 26.9243C15.5043 26.8741 15.6146 26.8004 15.7075 26.7074C15.8004 26.6145 15.8741 26.5042 15.9244 26.3828C15.9747 26.2614 16.0006 26.1313 16.0006 25.9999C16.0006 25.8686 15.9747 25.7384 15.9244 25.6171C15.8741 25.4957 15.8004 25.3854 15.7075 25.2924L6.41374 15.9999Z" fill="#343330"/>
</g>
</svg>
