<svg width="32" height="32" viewBox="0 0 32 32" fill="none" xmlns="http://www.w3.org/2000/svg">
<g id="icon/hand.eye">
<path id="Vector" d="M23.5 11C22.981 10.9993 22.4684 11.1151 22 11.3388V7.50003C21.9998 6.8935 21.8421 6.29742 21.5422 5.77023C21.2422 5.24304 20.8105 4.80284 20.2892 4.49279C19.7679 4.18273 19.175 4.01347 18.5685 4.00159C17.9621 3.98971 17.363 4.13563 16.83 4.42503C16.5734 3.63201 16.0422 2.9566 15.332 2.52032C14.6218 2.08404 13.7792 1.91554 12.9558 2.04513C12.1325 2.17473 11.3824 2.59391 10.8405 3.22725C10.2986 3.8606 10.0006 4.66653 10 5.50003V6.33878C9.53164 6.11506 9.01905 5.9993 8.5 6.00003C7.57174 6.00003 6.6815 6.36878 6.02513 7.02516C5.36875 7.68153 5 8.57177 5 9.50003V19C5 21.9174 6.15893 24.7153 8.22183 26.7782C10.2847 28.8411 13.0826 30 16 30C18.9174 30 21.7153 28.8411 23.7782 26.7782C25.8411 24.7153 27 21.9174 27 19V14.5C27 13.5718 26.6313 12.6815 25.9749 12.0252C25.3185 11.3688 24.4283 11 23.5 11ZM25 19C25 21.387 24.0518 23.6762 22.364 25.364C20.6761 27.0518 18.3869 28 16 28C13.6131 28 11.3239 27.0518 9.63604 25.364C7.94821 23.6762 7 21.387 7 19V9.50003C7 9.10221 7.15804 8.72067 7.43934 8.43937C7.72064 8.15807 8.10218 8.00003 8.5 8.00003C8.89782 8.00003 9.27936 8.15807 9.56066 8.43937C9.84196 8.72067 10 9.10221 10 9.50003V14C10 14.2652 10.1054 14.5196 10.2929 14.7071C10.4804 14.8947 10.7348 15 11 15C11.2652 15 11.5196 14.8947 11.7071 14.7071C11.8946 14.5196 12 14.2652 12 14V5.50003C12 5.10221 12.158 4.72067 12.4393 4.43937C12.7206 4.15807 13.1022 4.00003 13.5 4.00003C13.8978 4.00003 14.2794 4.15807 14.5607 4.43937C14.842 4.72067 15 5.10221 15 5.50003V13C15 13.2652 15.1054 13.5196 15.2929 13.7071C15.4804 13.8947 15.7348 14 16 14C16.2652 14 16.5196 13.8947 16.7071 13.7071C16.8946 13.5196 17 13.2652 17 13V7.50003C17 7.10221 17.158 6.72067 17.4393 6.43937C17.7206 6.15807 18.1022 6.00003 18.5 6.00003C18.8978 6.00003 19.2794 6.15807 19.5607 6.43937C19.842 6.72067 20 7.10221 20 7.50003V15C20 15.2652 20.1054 15.5196 20.2929 15.7071C20.4804 15.8947 20.7348 16 21 16C21.2652 16 21.5196 15.8947 21.7071 15.7071C21.8946 15.5196 22 15.2652 22 15V14.5C22 14.1022 22.158 13.7207 22.4393 13.4394C22.7206 13.1581 23.1022 13 23.5 13C23.8978 13 24.2794 13.1581 24.5607 13.4394C24.842 13.7207 25 14.1022 25 14.5V19ZM17.5 21C17.5 21.2967 17.412 21.5867 17.2472 21.8334C17.0824 22.0801 16.8481 22.2723 16.574 22.3858C16.2999 22.4994 15.9983 22.5291 15.7074 22.4712C15.4164 22.4133 15.1491 22.2705 14.9393 22.0607C14.7296 21.8509 14.5867 21.5836 14.5288 21.2927C14.4709 21.0017 14.5006 20.7001 14.6142 20.426C14.7277 20.1519 14.92 19.9176 15.1666 19.7528C15.4133 19.588 15.7033 19.5 16 19.5C16.3978 19.5 16.7794 19.6581 17.0607 19.9394C17.342 20.2207 17.5 20.6022 17.5 21ZM16 16C11.435 16 9.19875 20.3675 9.105 20.5525C9.03548 20.6915 8.99928 20.8447 8.99928 21C8.99928 21.1554 9.03548 21.3086 9.105 21.4475C9.19875 21.6325 11.435 26 16 26C20.565 26 22.8013 21.6325 22.895 21.4475C22.9645 21.3086 23.0007 21.1554 23.0007 21C23.0007 20.8447 22.9645 20.6915 22.895 20.5525C22.8013 20.3675 20.565 16 16 16ZM16 24C13.4213 24 11.775 21.935 11.1625 21C11.775 20.065 13.4213 18 16 18C18.5787 18 20.2262 20.0663 20.8375 21C20.225 21.935 18.5787 24 16 24Z" fill="#343330"/>
</g>
</svg>
