<svg width="32" height="32" viewBox="0 0 32 32" fill="none" xmlns="http://www.w3.org/2000/svg">
<g id="icon/subtract">
<path id="Vector" d="M21.8287 10.1687C21.4956 8.37796 20.6798 6.7122 19.4692 5.35122C18.2587 3.99025 16.6994 2.98576 14.9597 2.44617C13.22 1.90659 11.366 1.85241 9.59773 2.28948C7.82949 2.72656 6.21421 3.63828 4.92625 4.92625C3.63828 6.21421 2.72656 7.82949 2.28948 9.59773C1.85241 11.366 1.90659 13.22 2.44617 14.9597C2.98576 16.6994 3.99025 18.2587 5.35122 19.4692C6.7122 20.6798 8.37796 21.4956 10.1687 21.8287C10.5018 23.6194 11.3176 25.2852 12.5282 26.6462C13.7387 28.0072 15.298 29.0116 17.0377 29.5512C18.7774 30.0908 20.6314 30.145 22.3997 29.7079C24.1679 29.2708 25.7832 28.3591 27.0712 27.0712C28.3591 25.7832 29.2708 24.1679 29.7079 22.3997C30.145 20.6314 30.0908 18.7774 29.5512 17.0377C29.0116 15.298 28.0072 13.7387 26.6462 12.5282C25.2852 11.3176 23.6194 10.5018 21.8287 10.1687ZM28 20C28 20.19 27.9912 20.375 27.9775 20.5637L21.7275 14.3137C21.8897 13.6371 21.981 12.9455 22 12.25C23.7199 12.6898 25.244 13.6909 26.3307 15.0947C27.4175 16.4984 28.0049 18.2247 28 20ZM18.325 19.7387L24.9012 26.3162C24.2853 26.795 23.6026 27.1812 22.875 27.4625L16.3925 20.98C17.0819 20.6413 17.7303 20.2249 18.325 19.7387ZM19.7387 18.325C20.2247 17.7311 20.6411 17.0835 20.98 16.395L27.4625 22.875C27.181 23.6018 26.7948 24.2836 26.3162 24.8987L19.7387 18.325ZM3.99995 12C3.99995 10.4177 4.46914 8.87098 5.3482 7.55539C6.22725 6.2398 7.47668 5.21442 8.93848 4.60892C10.4003 4.00342 12.0088 3.84499 13.5607 4.15367C15.1125 4.46235 16.538 5.22428 17.6568 6.3431C18.7756 7.46192 19.5376 8.88738 19.8462 10.4392C20.1549 11.9911 19.9965 13.5996 19.391 15.0614C18.7855 16.5232 17.7601 17.7727 16.4445 18.6517C15.1289 19.5308 13.5822 20 12 20C9.87893 19.9976 7.84544 19.154 6.34566 17.6542C4.84587 16.1545 4.00227 14.121 3.99995 12ZM12.25 22C12.9448 21.983 13.6361 21.8938 14.3125 21.7337L20.5625 27.9837C20.3762 27.9975 20.1875 28.0062 19.9987 28.0062C18.2228 28.0106 16.4962 27.4221 15.0926 26.3341C13.689 25.2462 12.6886 23.7209 12.25 22Z" fill="#343330"/>
</g>
</svg>
