<svg width="32" height="32" viewBox="0 0 32 32" fill="none" xmlns="http://www.w3.org/2000/svg">
<g id="icon/flag.banner">
<path id="Vector" d="M29.8451 6.46625C29.755 6.32355 29.6303 6.20596 29.4825 6.12444C29.3348 6.04292 29.1688 6.00011 29.0001 6H5.00006C4.80216 5.99984 4.60867 6.05841 4.44407 6.16828C4.27948 6.27815 4.15119 6.43439 4.07543 6.61721C3.99968 6.80003 3.97988 7.00122 4.01853 7.19531C4.05718 7.38939 4.15254 7.56764 4.29256 7.7075L9.58631 13L4.29256 18.2925C4.15254 18.4324 4.05718 18.6106 4.01853 18.8047C3.97988 18.9988 3.99968 19.2 4.07543 19.3828C4.15119 19.5656 4.27948 19.7218 4.44407 19.8317C4.60867 19.9416 4.80216 20.0002 5.00006 20H21.7026L18.0976 27.57C18.0373 27.689 18.0014 27.8188 17.992 27.9518C17.9827 28.0849 18 28.2185 18.0431 28.3447C18.0861 28.4709 18.154 28.5873 18.2426 28.6869C18.3313 28.7865 18.439 28.8674 18.5594 28.9248C18.6799 28.9821 18.8105 29.0148 18.9437 29.0209C19.077 29.0271 19.2101 29.0065 19.3352 28.9604C19.4604 28.9143 19.5751 28.8436 19.6725 28.7525C19.7699 28.6614 19.8481 28.5518 19.9026 28.43L29.9026 7.43C29.9751 7.27756 30.0079 7.10924 29.9978 6.94073C29.9878 6.77221 29.9352 6.60898 29.8451 6.46625ZM22.6538 18H7.41381L11.7076 13.7075C11.8005 13.6146 11.8743 13.5043 11.9246 13.3829C11.9749 13.2615 12.0008 13.1314 12.0008 13C12.0008 12.8686 11.9749 12.7385 11.9246 12.6171C11.8743 12.4957 11.8005 12.3854 11.7076 12.2925L7.41381 8H27.4138L22.6538 18Z" fill="#343330"/>
</g>
</svg>
