<svg width="32" height="32" viewBox="0 0 32 32" fill="none" xmlns="http://www.w3.org/2000/svg">
<g id="icon/tilde">
<path id="Vector" d="M27.7788 16.3238C25.9651 18.5738 24.1738 19.7738 22.3038 19.97C22.117 19.9898 21.9292 19.9999 21.7413 20C19.3288 20 17.3176 18.3625 15.3663 16.775C13.5026 15.2575 11.7413 13.8238 9.90385 14.025C8.5901 14.1625 7.2401 15.115 5.77885 16.935C5.60815 17.1256 5.37089 17.2435 5.11589 17.2645C4.8609 17.2855 4.60756 17.2079 4.40802 17.0477C4.20848 16.8876 4.07792 16.6571 4.04319 16.4036C4.00847 16.1501 4.07222 15.8929 4.22135 15.685C6.0351 13.435 7.82635 12.235 9.69635 12.0388C12.3613 11.7575 14.5326 13.525 16.6313 15.2338C18.4951 16.7513 20.2563 18.1863 22.0938 17.9838C23.4076 17.8463 24.7576 16.8938 26.2188 15.0738C26.298 14.9634 26.3989 14.8702 26.5153 14.8001C26.6317 14.73 26.7611 14.6843 26.8957 14.6659C27.0303 14.6474 27.1673 14.6566 27.2982 14.6929C27.4292 14.7291 27.5514 14.7917 27.6574 14.8767C27.7633 14.9618 27.8508 15.0675 27.9146 15.1875C27.9783 15.3075 28.0169 15.4392 28.0281 15.5747C28.0392 15.7101 28.0226 15.8463 27.9794 15.9751C27.9361 16.1039 27.867 16.2226 27.7763 16.3238H27.7788Z" fill="#343330"/>
</g>
</svg>
