<svg width="32" height="32" viewBox="0 0 32 32" fill="none" xmlns="http://www.w3.org/2000/svg">
<g id="icon/money.wavy">
<path id="Vector" d="M30.53 7.50003C30.386 7.41018 30.2216 7.35845 30.0521 7.3497C29.8826 7.34096 29.7137 7.37548 29.5613 7.45003C24.195 10.075 20.3625 8.84503 16.3113 7.54753C12.0613 6.18628 7.655 4.78003 1.5675 7.75253C1.39741 7.83412 1.25387 7.96216 1.15345 8.12185C1.05304 8.28155 0.999837 8.46639 1 8.65503V23.6463C0.999976 23.816 1.04312 23.9828 1.12538 24.1312C1.20764 24.2796 1.3263 24.4047 1.4702 24.4945C1.6141 24.5844 1.77851 24.6362 1.94794 24.6451C2.11738 24.6539 2.28628 24.6195 2.43875 24.545C7.805 21.92 11.6375 23.15 15.695 24.4475C18.1 25.2163 20.55 26 23.32 26C25.4562 26 27.7863 25.535 30.4338 24.2425C30.6019 24.1604 30.7437 24.0328 30.8429 23.8741C30.9421 23.7155 30.9948 23.5322 30.995 23.345V8.35378C30.9965 8.18367 30.9546 8.01599 30.8732 7.8666C30.7919 7.7172 30.6737 7.59104 30.53 7.50003ZM29 22.7088C23.925 24.98 20.2188 23.795 16.305 22.5438C13.9 21.775 11.45 20.9913 8.68 20.9913C6.73388 21.0007 4.80755 21.3826 3.005 22.1163V9.29128C8.08 7.02003 11.7863 8.20503 15.7 9.45628C19.6138 10.7075 23.6425 12 29 9.88628V22.7088ZM16 12C15.2089 12 14.4355 12.2346 13.7777 12.6742C13.1199 13.1137 12.6072 13.7384 12.3045 14.4693C12.0017 15.2002 11.9225 16.0045 12.0769 16.7804C12.2312 17.5563 12.6122 18.269 13.1716 18.8285C13.731 19.3879 14.4437 19.7688 15.2196 19.9232C15.9956 20.0775 16.7998 19.9983 17.5307 19.6956C18.2616 19.3928 18.8864 18.8801 19.3259 18.2223C19.7654 17.5645 20 16.7912 20 16C20 14.9392 19.5786 13.9218 18.8284 13.1716C18.0783 12.4215 17.0609 12 16 12ZM16 18C15.6044 18 15.2178 17.8827 14.8889 17.663C14.56 17.4432 14.3036 17.1309 14.1522 16.7654C14.0009 16.3999 13.9613 15.9978 14.0384 15.6099C14.1156 15.2219 14.3061 14.8655 14.5858 14.5858C14.8655 14.3061 15.2219 14.1156 15.6098 14.0385C15.9978 13.9613 16.3999 14.0009 16.7654 14.1523C17.1308 14.3036 17.4432 14.56 17.6629 14.8889C17.8827 15.2178 18 15.6045 18 16C18 16.5305 17.7893 17.0392 17.4142 17.4142C17.0391 17.7893 16.5304 18 16 18ZM7 12V18C7 18.2652 6.89464 18.5196 6.70711 18.7071C6.51957 18.8947 6.26522 19 6 19C5.73478 19 5.48043 18.8947 5.29289 18.7071C5.10536 18.5196 5 18.2652 5 18V12C5 11.7348 5.10536 11.4805 5.29289 11.2929C5.48043 11.1054 5.73478 11 6 11C6.26522 11 6.51957 11.1054 6.70711 11.2929C6.89464 11.4805 7 11.7348 7 12ZM25 20V14C25 13.7348 25.1054 13.4805 25.2929 13.2929C25.4804 13.1054 25.7348 13 26 13C26.2652 13 26.5196 13.1054 26.7071 13.2929C26.8946 13.4805 27 13.7348 27 14V20C27 20.2652 26.8946 20.5196 26.7071 20.7071C26.5196 20.8947 26.2652 21 26 21C25.7348 21 25.4804 20.8947 25.2929 20.7071C25.1054 20.5196 25 20.2652 25 20Z" fill="#343330"/>
</g>
</svg>
