<svg width="32" height="32" viewBox="0 0 32 32" fill="none" xmlns="http://www.w3.org/2000/svg">
<g id="icon/arrow.elbow.up.left">
<path id="Vector" d="M25 10V28C25 28.2652 24.8946 28.5196 24.7071 28.7071C24.5196 28.8947 24.2652 29 24 29C23.7348 29 23.4804 28.8947 23.2929 28.7071C23.1053 28.5196 23 28.2652 23 28V11H8.41374L12.7075 15.2925C12.8951 15.4801 13.0005 15.7346 13.0005 16C13.0005 16.2654 12.8951 16.5199 12.7075 16.7075C12.5199 16.8951 12.2654 17.0006 12 17.0006C11.7346 17.0006 11.4801 16.8951 11.2925 16.7075L5.29249 10.7075L5.28499 10.6988C5.26499 10.6788 5.24499 10.6563 5.22624 10.6338L5.19749 10.595C5.18721 10.5822 5.17761 10.5688 5.16874 10.555L5.13999 10.5088C5.13217 10.4967 5.12508 10.4842 5.11874 10.4713C5.10999 10.4563 5.10249 10.44 5.09499 10.4238C5.08749 10.4075 5.08249 10.3975 5.07624 10.3825C5.06999 10.3675 5.06499 10.3513 5.05874 10.3363L5.04249 10.2913L5.03124 10.2425C5.03124 10.2263 5.02249 10.2113 5.01874 10.1963C5.01499 10.1813 5.01874 10.1575 5.01124 10.1388C5.00374 10.12 5.01124 10.1125 5.00499 10.0988C4.99874 10.0331 4.99874 9.96694 5.00499 9.90126C5.00499 9.88751 5.00499 9.87501 5.01124 9.86126C5.01749 9.84751 5.01124 9.82251 5.01874 9.80376C5.02624 9.78501 5.02624 9.77376 5.03124 9.75751L5.04249 9.70876L5.05874 9.66376C5.06499 9.64876 5.06999 9.63251 5.07624 9.61751C5.08249 9.60251 5.08874 9.59001 5.09499 9.57626C5.10124 9.56251 5.10999 9.54376 5.11874 9.52876C5.12508 9.51585 5.13217 9.50333 5.13999 9.49126L5.16874 9.44501C5.17761 9.43117 5.18721 9.41782 5.19749 9.40501L5.22624 9.36626C5.24499 9.34376 5.26499 9.32126 5.28499 9.30126L5.29249 9.29251L11.2925 3.29251C11.4801 3.10487 11.7346 2.99945 12 2.99945C12.2654 2.99945 12.5199 3.10487 12.7075 3.29251C12.8951 3.48015 13.0005 3.73464 13.0005 4.00001C13.0005 4.26537 12.8951 4.51987 12.7075 4.70751L8.41374 9.00001H24C24.2652 9.00001 24.5196 9.10536 24.7071 9.2929C24.8946 9.48044 25 9.73479 25 10Z" fill="#343330"/>
</g>
</svg>
