<svg width="32" height="32" viewBox="0 0 32 32" fill="none" xmlns="http://www.w3.org/2000/svg">
<g id="icon/brackets.angle">
<path id="Vector" d="M10.8437 5.53747L4.185 16L10.8437 26.4625C10.9143 26.5733 10.9624 26.697 10.9851 26.8265C11.0079 26.9559 11.0049 27.0886 10.9763 27.2168C10.9477 27.3451 10.8942 27.4665 10.8187 27.5741C10.7432 27.6816 10.6472 27.7733 10.5362 27.8437C10.3762 27.9463 10.19 28.0005 10 28C9.83148 28.0001 9.66566 27.9577 9.51793 27.8766C9.3702 27.7955 9.24536 27.6785 9.15499 27.5362L2.155 16.5362C2.05289 16.3758 1.99866 16.1895 1.99866 15.9993C1.99866 15.8092 2.05289 15.6229 2.155 15.4625L9.15499 4.46247C9.29738 4.23869 9.52283 4.08065 9.78175 4.0231C10.0407 3.96555 10.3118 4.01321 10.5356 4.1556C10.7594 4.29798 10.9174 4.52343 10.975 4.78235C11.0325 5.04127 10.9849 5.31244 10.8425 5.53622L10.8437 5.53747ZM29.8437 15.4637L22.8437 4.46372C22.7732 4.35292 22.6816 4.25709 22.5741 4.1817C22.4665 4.10631 22.3452 4.05284 22.217 4.02435C21.9581 3.9668 21.6869 4.01446 21.4631 4.15685C21.2393 4.29923 21.0813 4.52469 21.0237 4.7836C20.9662 5.04252 21.0139 5.31369 21.1562 5.53747L27.815 16L21.1562 26.4625C21.0857 26.5733 21.0376 26.697 21.0149 26.8265C20.9921 26.9559 20.9951 27.0886 21.0237 27.2168C21.0522 27.3451 21.1058 27.4665 21.1813 27.5741C21.2568 27.6816 21.3528 27.7733 21.4637 27.8437C21.6238 27.9463 21.8099 28.0005 22 28C22.1685 28.0001 22.3343 27.9577 22.4821 27.8766C22.6298 27.7955 22.7546 27.6785 22.845 27.5362L29.845 16.5362C29.9467 16.3758 30.0005 16.1897 30.0003 15.9998C30.0001 15.8099 29.9458 15.6239 29.8437 15.4637Z" fill="#343330"/>
</g>
</svg>
