<svg width="32" height="32" viewBox="0 0 32 32" fill="none" xmlns="http://www.w3.org/2000/svg">
<g id="icon/currency.eth">
<path id="Vector" d="M27.7862 15.3825L16.7862 1.38252C16.6927 1.26346 16.5733 1.1672 16.4371 1.10101C16.3009 1.03482 16.1514 1.00043 16 1.00043C15.8486 1.00043 15.6991 1.03482 15.5629 1.10101C15.4267 1.1672 15.3073 1.26346 15.2137 1.38252L4.21373 15.3825C4.07546 15.5587 4.00031 15.7761 4.00031 16C4.00031 16.2239 4.07546 16.4414 4.21373 16.6175L15.2137 30.6175C15.3073 30.7366 15.4267 30.8328 15.5629 30.899C15.6991 30.9652 15.8486 30.9996 16 30.9996C16.1514 30.9996 16.3009 30.9652 16.4371 30.899C16.5733 30.8328 16.6927 30.7366 16.7862 30.6175L27.7862 16.6175C27.9245 16.4414 27.9997 16.2239 27.9997 16C27.9997 15.7761 27.9245 15.5587 27.7862 15.3825ZM17 4.89127L25.4275 15.6163L17 19.4475V4.89127ZM15 19.4475L6.57248 15.6163L15 4.89127V19.4475ZM15 21.6438V27.1088L8.32123 18.6088L15 21.6438ZM17 21.6438L23.6787 18.6075L17 27.1075V21.6438Z" fill="#343330"/>
</g>
</svg>
