<svg width="32" height="32" viewBox="0 0 32 32" fill="none" xmlns="http://www.w3.org/2000/svg">
<g id="icon/backspace">
<path id="Vector" d="M26.9998 5H8.56607C8.22087 5.00099 7.88174 5.09088 7.58136 5.26099C7.28098 5.43111 7.02947 5.67571 6.85107 5.97125L1.14232 15.485C1.04888 15.6405 0.999512 15.8186 0.999512 16C0.999512 16.1814 1.04888 16.3595 1.14232 16.515L6.85107 26.0287C7.02947 26.3243 7.28098 26.5689 7.58136 26.739C7.88174 26.9091 8.22087 26.999 8.56607 27H26.9998C27.5303 27 28.039 26.7893 28.414 26.4142C28.7891 26.0391 28.9998 25.5304 28.9998 25V7C28.9998 6.46957 28.7891 5.96086 28.414 5.58579C28.039 5.21071 27.5303 5 26.9998 5ZM26.9998 25H8.56607L3.16607 16L8.56607 7H26.9998V25ZM13.2923 18.2925L15.5861 16L13.2923 13.7075C13.1047 13.5199 12.9993 13.2654 12.9993 13C12.9993 12.7346 13.1047 12.4801 13.2923 12.2925C13.48 12.1049 13.7345 11.9994 13.9998 11.9994C14.2652 11.9994 14.5197 12.1049 14.7073 12.2925L16.9998 14.5863L19.2923 12.2925C19.3852 12.1996 19.4955 12.1259 19.6169 12.0756C19.7383 12.0253 19.8684 11.9994 19.9998 11.9994C20.1312 11.9994 20.2613 12.0253 20.3827 12.0756C20.5041 12.1259 20.6144 12.1996 20.7073 12.2925C20.8002 12.3854 20.8739 12.4957 20.9242 12.6171C20.9745 12.7385 21.0004 12.8686 21.0004 13C21.0004 13.1314 20.9745 13.2615 20.9242 13.3829C20.8739 13.5043 20.8002 13.6146 20.7073 13.7075L18.4136 16L20.7073 18.2925C20.8002 18.3854 20.8739 18.4957 20.9242 18.6171C20.9745 18.7385 21.0004 18.8686 21.0004 19C21.0004 19.1314 20.9745 19.2615 20.9242 19.3829C20.8739 19.5043 20.8002 19.6146 20.7073 19.7075C20.6144 19.8004 20.5041 19.8741 20.3827 19.9244C20.2613 19.9747 20.1312 20.0006 19.9998 20.0006C19.8684 20.0006 19.7383 19.9747 19.6169 19.9244C19.4955 19.8741 19.3852 19.8004 19.2923 19.7075L16.9998 17.4137L14.7073 19.7075C14.6144 19.8004 14.5041 19.8741 14.3827 19.9244C14.2613 19.9747 14.1312 20.0006 13.9998 20.0006C13.8684 20.0006 13.7383 19.9747 13.6169 19.9244C13.4955 19.8741 13.3852 19.8004 13.2923 19.7075C13.1994 19.6146 13.1257 19.5043 13.0754 19.3829C13.0251 19.2615 12.9993 19.1314 12.9993 19C12.9993 18.8686 13.0251 18.7385 13.0754 18.6171C13.1257 18.4957 13.1994 18.3854 13.2923 18.2925Z" fill="#343330"/>
</g>
</svg>
