<svg width="32" height="32" viewBox="0 0 32 32" fill="none" xmlns="http://www.w3.org/2000/svg">
<g id="icon/windows.logo">
<path id="Vector" d="M26 17H16C15.7348 17 15.4804 17.1054 15.2929 17.2929C15.1054 17.4805 15 17.7348 15 18V25.1813C14.9997 25.4157 15.0818 25.6427 15.2319 25.8228C15.382 26.0028 15.5906 26.1244 15.8212 26.1663L25.8213 27.9838C25.8802 27.9948 25.94 28.0003 26 28C26.2652 28 26.5196 27.8947 26.7071 27.7071C26.8946 27.5196 27 27.2653 27 27V18C27 17.7348 26.8946 17.4805 26.7071 17.2929C26.5196 17.1054 26.2652 17 26 17ZM25 25.8013L17 24.3475V19H25V25.8013ZM12 17H4C3.73478 17 3.48043 17.1054 3.29289 17.2929C3.10536 17.4805 3 17.7348 3 18V23C3.00003 23.2342 3.08226 23.461 3.23234 23.6407C3.38242 23.8205 3.59083 23.9419 3.82125 23.9838L11.8212 25.4388C11.8803 25.4492 11.9401 25.4546 12 25.455C12.2652 25.455 12.5196 25.3497 12.7071 25.1621C12.8946 24.9746 13 24.7203 13 24.455V18C13 17.7348 12.8946 17.4805 12.7071 17.2929C12.5196 17.1054 12.2652 17 12 17ZM11 23.2563L5 22.165V19H11V23.2563ZM26.6413 4.23253C26.5288 4.13861 26.397 4.07055 26.2553 4.03318C26.1136 3.99581 25.9654 3.99004 25.8213 4.01628L15.8212 5.83503C15.5908 5.87689 15.3824 5.9983 15.2323 6.17807C15.0823 6.35785 15 6.5846 15 6.81878V14C15 14.2653 15.1054 14.5196 15.2929 14.7071C15.4804 14.8947 15.7348 15 16 15H26C26.2652 15 26.5196 14.8947 26.7071 14.7071C26.8946 14.5196 27 14.2653 27 14V5.00003C27 4.85364 26.9679 4.70903 26.9059 4.57641C26.8439 4.4438 26.7536 4.32641 26.6413 4.23253ZM25 13H17V7.65253L25 6.19878V13ZM12.6412 6.77753C12.5288 6.68361 12.397 6.61555 12.2553 6.57818C12.1136 6.54081 11.9654 6.53504 11.8212 6.56128L3.82125 8.01628C3.59083 8.05814 3.38242 8.17955 3.23234 8.35932C3.08226 8.5391 3.00003 8.76585 3 9.00003V14C3 14.2653 3.10536 14.5196 3.29289 14.7071C3.48043 14.8947 3.73478 15 4 15H12C12.2652 15 12.5196 14.8947 12.7071 14.7071C12.8946 14.5196 13 14.2653 13 14V7.54503C13 7.39864 12.9679 7.25403 12.9059 7.12141C12.8439 6.9888 12.7536 6.87141 12.6412 6.77753ZM11 13H5V9.83503L11 8.75003V13Z" fill="#343330"/>
</g>
</svg>
