<svg width="32" height="32" viewBox="0 0 32 32" fill="none" xmlns="http://www.w3.org/2000/svg">
<g id="icon/security.camera">
<path id="Vector" d="M31 16.9999C30.7348 16.9999 30.4804 17.1053 30.2929 17.2928C30.1053 17.4804 30 17.7347 30 17.9999V19.9999H24.4137L22.125 17.7074L28.4175 11.4137C28.7923 11.0387 29.0028 10.5301 29.0028 9.99994C29.0028 9.46974 28.7923 8.96123 28.4175 8.58619L21.4175 1.58619C21.2318 1.40043 21.0113 1.25307 20.7686 1.15253C20.5259 1.05199 20.2658 1.00024 20.0031 1.00024C19.7404 1.00024 19.4803 1.05199 19.2376 1.15253C18.9949 1.25307 18.7745 1.40043 18.5887 1.58619L0.36498 19.8674C0.190571 20.0424 0.071914 20.2651 0.0239907 20.5075C-0.0239325 20.7498 0.00102749 21.0009 0.095719 21.2291C0.19041 21.4572 0.350587 21.6522 0.556023 21.7894C0.761459 21.9266 1.00294 21.9999 1.24998 21.9999H6.17123L10.5862 26.4137C10.9613 26.7885 11.4698 26.999 12 26.999C12.5302 26.999 13.0387 26.7885 13.4137 26.4137L20.7075 19.1249L23 21.4137C23.185 21.6002 23.4053 21.7481 23.648 21.8487C23.8907 21.9494 24.151 22.0008 24.4137 21.9999H30V23.9999C30 24.2652 30.1053 24.5195 30.2929 24.7071C30.4804 24.8946 30.7348 24.9999 31 24.9999C31.2652 24.9999 31.5196 24.8946 31.7071 24.7071C31.8946 24.5195 32 24.2652 32 23.9999V17.9999C32 17.7347 31.8946 17.4804 31.7071 17.2928C31.5196 17.1053 31.2652 16.9999 31 16.9999ZM20 2.99994L21.5862 4.58619L6.17123 19.9999H3.05748L20 2.99994ZM12 24.9999L7.99998 20.9999L23 5.99994L27 9.99994L12 24.9999Z" fill="#343330"/>
</g>
</svg>
