<svg width="32" height="32" viewBox="0 0 32 32" fill="none" xmlns="http://www.w3.org/2000/svg">
<g id="icon/highlighter.circle">
<path id="Vector" d="M25.1925 6.80747C22.7545 4.36947 19.4479 2.99982 16 2.99982C12.5522 2.99982 9.24554 4.36947 6.80754 6.80748C4.36953 9.24548 2.99988 12.5521 2.99988 16C2.99988 19.4478 4.36953 22.7545 6.80754 25.1925C9.24554 27.6305 12.5522 29.0001 16 29.0001C19.4479 29.0001 22.7545 27.6305 25.1925 25.1925C27.6305 22.7545 29.0002 19.4478 29.0002 16C29.0002 12.5521 27.6305 9.24548 25.1925 6.80747ZM12 26.25V19H20V26.25C17.4271 27.25 14.5729 27.25 12 26.25ZM18 17H14V12.6175L18 10.6175V17ZM23.7775 23.7775C23.2368 24.3192 22.6411 24.8031 22 25.2212V19C22 18.4695 21.7893 17.9608 21.4142 17.5858C21.0392 17.2107 20.5305 17 20 17V8.99998C20.0002 8.82943 19.9567 8.66169 19.8737 8.51269C19.7907 8.3637 19.671 8.2384 19.5259 8.14871C19.3809 8.05902 19.2153 8.00792 19.0449 8.00027C18.8746 7.99261 18.7051 8.02866 18.5525 8.10497L12.5525 11.105C12.3864 11.1881 12.2467 11.3159 12.1491 11.474C12.0515 11.6321 11.9999 11.8142 12 12V17C11.4696 17 10.9609 17.2107 10.5858 17.5858C10.2108 17.9608 10 18.4695 10 19V25.2212C8.09439 23.9816 6.61963 22.182 5.77861 20.0699C4.93758 17.9578 4.77161 15.6371 5.30351 13.4268C5.83541 11.2165 7.03906 9.22536 8.7489 7.72715C10.4587 6.22895 12.5908 5.29731 14.8518 5.06038C17.1128 4.82345 19.3916 5.29287 21.3749 6.40407C23.3582 7.51527 24.9485 9.21366 25.927 11.2656C26.9055 13.3176 27.2243 15.6224 26.8394 17.8629C26.4545 20.1035 25.3848 22.1697 23.7775 23.7775Z" fill="#343330"/>
</g>
</svg>
