<svg width="32" height="32" viewBox="0 0 32 32" fill="none" xmlns="http://www.w3.org/2000/svg">
<g id="icon/arrows.horizontal">
<path id="Vector" d="M29.7075 16.7075L25.7075 20.7075C25.5199 20.8951 25.2654 21.0006 25 21.0006C24.7346 21.0006 24.4801 20.8951 24.2925 20.7075C24.1049 20.5199 23.9994 20.2654 23.9994 20C23.9994 19.7346 24.1049 19.4801 24.2925 19.2925L26.5862 17H5.41374L7.70749 19.2925C7.89513 19.4801 8.00055 19.7346 8.00055 20C8.00055 20.2654 7.89513 20.5199 7.70749 20.7075C7.51985 20.8951 7.26536 21.0006 6.99999 21.0006C6.73463 21.0006 6.48013 20.8951 6.29249 20.7075L2.29249 16.7075C2.19952 16.6146 2.12576 16.5043 2.07543 16.3829C2.02511 16.2615 1.99921 16.1314 1.99921 16C1.99921 15.8686 2.02511 15.7385 2.07543 15.6171C2.12576 15.4957 2.19952 15.3854 2.29249 15.2925L6.29249 11.2925C6.48013 11.1049 6.73463 10.9995 6.99999 10.9995C7.26536 10.9995 7.51985 11.1049 7.70749 11.2925C7.89513 11.4801 8.00055 11.7346 8.00055 12C8.00055 12.2654 7.89513 12.5199 7.70749 12.7075L5.41374 15H26.5862L24.2925 12.7075C24.1049 12.5199 23.9994 12.2654 23.9994 12C23.9994 11.7346 24.1049 11.4801 24.2925 11.2925C24.4801 11.1049 24.7346 10.9995 25 10.9995C25.2654 10.9995 25.5199 11.1049 25.7075 11.2925L29.7075 15.2925C29.8005 15.3854 29.8742 15.4957 29.9246 15.6171C29.9749 15.7385 30.0008 15.8686 30.0008 16C30.0008 16.1314 29.9749 16.2615 29.9246 16.3829C29.8742 16.5043 29.8005 16.6146 29.7075 16.7075Z" fill="#343330"/>
</g>
</svg>
