<svg width="32" height="32" viewBox="0 0 32 32" fill="none" xmlns="http://www.w3.org/2000/svg">
<g id="icon/wifi.x">
<path id="Vector" d="M28.7075 12.2926C28.8004 12.3855 28.8741 12.4958 28.9244 12.6172C28.9747 12.7386 29.0005 12.8687 29.0005 13.0001C29.0005 13.1315 28.9747 13.2616 28.9244 13.383C28.8741 13.5043 28.8004 13.6146 28.7075 13.7076C28.6146 13.8005 28.5043 13.8742 28.3829 13.9245C28.2615 13.9747 28.1314 14.0006 28 14.0006C27.8686 14.0006 27.7385 13.9747 27.6171 13.9245C27.4957 13.8742 27.3854 13.8005 27.2925 13.7076L25 11.4138L22.7075 13.7076C22.5198 13.8952 22.2653 14.0006 22 14.0006C21.7346 14.0006 21.4801 13.8952 21.2925 13.7076C21.1048 13.5199 20.9994 13.2654 20.9994 13.0001C20.9994 12.7347 21.1048 12.4802 21.2925 12.2926L23.5862 10.0001L21.2925 7.70756C21.1996 7.61465 21.1259 7.50435 21.0756 7.38296C21.0253 7.26156 20.9994 7.13145 20.9994 7.00006C20.9994 6.86866 21.0253 6.73856 21.0756 6.61716C21.1259 6.49577 21.1996 6.38547 21.2925 6.29256C21.4801 6.10492 21.7346 5.9995 22 5.9995C22.1314 5.9995 22.2615 6.02538 22.3829 6.07567C22.5043 6.12595 22.6146 6.19965 22.7075 6.29256L25 8.58631L27.2925 6.29256C27.3854 6.19965 27.4957 6.12595 27.6171 6.07567C27.7385 6.02538 27.8686 5.9995 28 5.9995C28.1314 5.9995 28.2615 6.02538 28.3829 6.07567C28.5043 6.12595 28.6146 6.19965 28.7075 6.29256C28.8004 6.38547 28.8741 6.49577 28.9244 6.61716C28.9747 6.73856 29.0005 6.86866 29.0005 7.00006C29.0005 7.13145 28.9747 7.26156 28.9244 7.38296C28.8741 7.50435 28.8004 7.61465 28.7075 7.70756L26.4137 10.0001L28.7075 12.2926ZM16 24.0001C15.7033 24.0001 15.4133 24.088 15.1666 24.2529C14.92 24.4177 14.7277 24.6519 14.6142 24.926C14.5006 25.2001 14.4709 25.5017 14.5288 25.7927C14.5867 26.0837 14.7295 26.3509 14.9393 26.5607C15.1491 26.7705 15.4164 26.9134 15.7073 26.9712C15.9983 27.0291 16.2999 26.9994 16.574 26.8859C16.8481 26.7723 17.0824 26.5801 17.2472 26.3334C17.412 26.0867 17.5 25.7967 17.5 25.5001C17.5 25.1022 17.3419 24.7207 17.0606 24.4394C16.7793 24.1581 16.3978 24.0001 16 24.0001ZM21.5887 19.8163C19.9644 18.6358 18.008 18 16 18C13.992 18 12.0356 18.6358 10.4112 19.8163C10.1967 19.9725 10.0531 20.2074 10.0118 20.4695C9.97054 20.7316 10.0351 20.9993 10.1912 21.2138C10.3474 21.4283 10.5823 21.572 10.8444 21.6132C11.1065 21.6545 11.3742 21.59 11.5887 21.4338C12.8706 20.5015 14.4149 19.9994 16 19.9994C17.585 19.9994 19.1293 20.5015 20.4112 21.4338C20.5174 21.5111 20.6378 21.5668 20.7655 21.5976C20.8933 21.6283 21.0258 21.6337 21.1555 21.6132C21.2853 21.5928 21.4098 21.547 21.5219 21.4785C21.6339 21.41 21.7314 21.32 21.8087 21.2138C21.8861 21.1076 21.9417 20.9872 21.9725 20.8595C22.0033 20.7318 22.0086 20.5993 21.9882 20.4695C21.9677 20.3397 21.9219 20.2153 21.8534 20.1032C21.7849 19.9911 21.6949 19.8936 21.5887 19.8163ZM16.9525 8.02256C17.0838 8.0288 17.2151 8.00911 17.3388 7.96462C17.4625 7.92012 17.5762 7.8517 17.6735 7.76325C17.7708 7.67481 17.8497 7.56806 17.9057 7.44913C17.9617 7.33019 17.9937 7.20138 18 7.07006C18.0062 6.93874 17.9865 6.80747 17.942 6.68376C17.8975 6.56005 17.8291 6.44631 17.7407 6.34904C17.6522 6.25177 17.5455 6.17287 17.4266 6.11686C17.3076 6.06084 17.1788 6.0288 17.0475 6.02256C16.7 6.00631 16.3475 5.99756 16 5.99756C11.0283 6.00142 6.21105 7.72466 2.36499 10.8751C2.26346 10.9584 2.17935 11.061 2.11746 11.1769C2.05557 11.2928 2.01712 11.4198 2.00429 11.5505C1.99146 11.6813 2.00452 11.8133 2.04271 11.939C2.0809 12.0647 2.14347 12.1817 2.22686 12.2832C2.31025 12.3847 2.41282 12.4688 2.52871 12.5307C2.64461 12.5926 2.77156 12.6311 2.90232 12.6439C3.16639 12.6698 3.42994 12.5897 3.63499 12.4213C7.12284 9.56462 11.4916 8.00253 16 8.00006C16.3162 8.00006 16.6362 8.00756 16.9525 8.02256ZM16.9325 14.0313C17.0638 14.0402 17.1956 14.0231 17.3203 13.981C17.445 13.939 17.5602 13.8727 17.6594 13.7861C17.7585 13.6996 17.8396 13.5943 17.898 13.4764C17.9565 13.3584 17.9911 13.2301 18 13.0988C18.0088 12.9675 17.9918 12.8357 17.9497 12.711C17.9076 12.5863 17.8414 12.4711 17.7548 12.3719C17.6682 12.2728 17.563 12.1917 17.445 12.1333C17.3271 12.0748 17.1988 12.0402 17.0675 12.0313C16.7137 12.0076 16.355 11.9951 16 11.9951C12.5041 11.9813 9.10839 13.1619 6.37499 15.3413C6.21201 15.4705 6.09334 15.6472 6.03551 15.8469C5.97767 16.0467 5.98354 16.2595 6.05231 16.4557C6.12107 16.652 6.2493 16.8219 6.41916 16.9419C6.58901 17.0618 6.79204 17.1259 6.99999 17.1251C7.22693 17.1266 7.44755 17.0503 7.62499 16.9088C10.0041 15.0141 12.9586 13.988 16 14.0001C16.31 14.0001 16.625 14.0101 16.9325 14.0313Z" fill="#343330"/>
</g>
</svg>
