<svg width="32" height="32" viewBox="0 0 32 32" fill="none" xmlns="http://www.w3.org/2000/svg">
<g id="icon/arrows.in.simple">
<path id="Vector" d="M26.7075 6.70751L20.4138 13H24C24.2652 13 24.5196 13.1054 24.7071 13.2929C24.8947 13.4804 25 13.7348 25 14C25 14.2652 24.8947 14.5196 24.7071 14.7071C24.5196 14.8946 24.2652 15 24 15H18C17.7348 15 17.4804 14.8946 17.2929 14.7071C17.1054 14.5196 17 14.2652 17 14V8.00001C17 7.73479 17.1054 7.48044 17.2929 7.2929C17.4804 7.10536 17.7348 7.00001 18 7.00001C18.2652 7.00001 18.5196 7.10536 18.7071 7.2929C18.8947 7.48044 19 7.73479 19 8.00001V11.5863L25.2925 5.29251C25.4801 5.10487 25.7346 4.99945 26 4.99945C26.2654 4.99945 26.5199 5.10487 26.7075 5.29251C26.8951 5.48015 27.0006 5.73464 27.0006 6.00001C27.0006 6.26537 26.8951 6.51987 26.7075 6.70751ZM14 17H8.00001C7.73479 17 7.48044 17.1054 7.2929 17.2929C7.10536 17.4804 7.00001 17.7348 7.00001 18C7.00001 18.2652 7.10536 18.5196 7.2929 18.7071C7.48044 18.8947 7.73479 19 8.00001 19H11.5863L5.29251 25.2925C5.10487 25.4801 4.99945 25.7346 4.99945 26C4.99945 26.2654 5.10487 26.5199 5.29251 26.7075C5.48015 26.8951 5.73464 27.0006 6.00001 27.0006C6.26537 27.0006 6.51987 26.8951 6.70751 26.7075L13 20.4138V24C13 24.2652 13.1054 24.5196 13.2929 24.7071C13.4804 24.8947 13.7348 25 14 25C14.2652 25 14.5196 24.8947 14.7071 24.7071C14.8946 24.5196 15 24.2652 15 24V18C15 17.7348 14.8946 17.4804 14.7071 17.2929C14.5196 17.1054 14.2652 17 14 17Z" fill="#343330"/>
</g>
</svg>
