<svg width="32" height="32" viewBox="0 0 32 32" fill="none" xmlns="http://www.w3.org/2000/svg">
<g id="icon/app.store.logo">
<path id="Vector" d="M8.0425 24.5088L6.86125 26.5088C6.79444 26.6219 6.70601 26.7207 6.601 26.7997C6.496 26.8786 6.37647 26.936 6.24926 26.9688C5.99233 27.0349 5.71967 26.9962 5.49125 26.8613C5.26283 26.7264 5.09737 26.5062 5.03126 26.2493C4.96516 25.9924 5.00382 25.7197 5.13875 25.4913L6.32125 23.4913C6.38646 23.3751 6.47421 23.2732 6.57936 23.1914C6.68451 23.1097 6.80493 23.0497 6.93356 23.0151C7.06219 22.9805 7.19644 22.972 7.32842 22.99C7.46039 23.008 7.58744 23.0522 7.70211 23.12C7.81677 23.1878 7.91674 23.2778 7.99614 23.3847C8.07554 23.4917 8.13278 23.6134 8.16448 23.7428C8.19619 23.8722 8.20174 24.0066 8.18079 24.1381C8.15984 24.2696 8.11282 24.3957 8.0425 24.5088ZM29 19H23.025L19.1838 12.5C19.1185 12.3839 19.0308 12.2819 18.9256 12.2002C18.8205 12.1184 18.7001 12.0585 18.5714 12.0239C18.4428 11.9893 18.3086 11.9808 18.1766 11.9988C18.0446 12.0168 17.9176 12.061 17.8029 12.1287C17.6882 12.1965 17.5883 12.2865 17.5089 12.3935C17.4295 12.5004 17.3722 12.6222 17.3405 12.7515C17.3088 12.8809 17.3033 13.0153 17.3242 13.1468C17.3452 13.2784 17.3922 13.4044 17.4625 13.5175L25.1388 26.5088C25.2737 26.7372 25.4938 26.9027 25.7507 26.9688C26.0077 27.0349 26.2803 26.9962 26.5088 26.8613C26.7372 26.7264 26.9026 26.5062 26.9687 26.2493C27.0348 25.9924 26.9962 25.7197 26.8612 25.4913L24.2075 21H29C29.2652 21 29.5196 20.8947 29.7071 20.7071C29.8946 20.5196 30 20.2653 30 20C30 19.7348 29.8946 19.4805 29.7071 19.2929C29.5196 19.1054 29.2652 19 29 19ZM17.8088 19H11.2975L19.8612 4.50879C19.9962 4.28038 20.0348 4.00771 19.9687 3.75079C19.9026 3.49386 19.7372 3.27372 19.5088 3.13879C19.2803 3.00386 19.0077 2.9652 18.7507 3.03131C18.4938 3.09741 18.2737 3.26288 18.1388 3.49129L16 7.11129L13.8612 3.48629C13.7944 3.37319 13.706 3.27436 13.601 3.19543C13.496 3.11651 13.3765 3.05904 13.2493 3.02631C12.9923 2.9602 12.7197 2.99886 12.4913 3.13379C12.2628 3.26872 12.0974 3.48886 12.0313 3.74579C11.9652 4.00271 12.0038 4.27537 12.1388 4.50379L14.8387 9.07254L8.975 19H3C2.73478 19 2.48043 19.1054 2.29289 19.2929C2.10536 19.4805 2 19.7348 2 20C2 20.2653 2.10536 20.5196 2.29289 20.7071C2.48043 20.8947 2.73478 21 3 21H17.8088C18.074 21 18.3283 20.8947 18.5159 20.7071C18.7034 20.5196 18.8088 20.2653 18.8088 20C18.8088 19.7348 18.7034 19.4805 18.5159 19.2929C18.3283 19.1054 18.074 19 17.8088 19Z" fill="#343330"/>
</g>
</svg>
