<svg width="32" height="32" viewBox="0 0 32 32" fill="none" xmlns="http://www.w3.org/2000/svg">
<g id="icon/arrow.bend.down.left">
<path id="Vector" d="M29 7C28.9964 10.4467 27.6255 13.7512 25.1884 16.1884C22.7512 18.6256 19.4467 19.9964 16 20H6.41374L10.7075 24.2925C10.8951 24.4801 11.0005 24.7346 11.0005 25C11.0005 25.2654 10.8951 25.5199 10.7075 25.7075C10.5199 25.8951 10.2654 26.0006 9.99999 26.0006C9.73463 26.0006 9.48013 25.8951 9.29249 25.7075L3.29249 19.7075C3.19952 19.6146 3.12576 19.5043 3.07543 19.3829C3.02511 19.2615 2.99921 19.1314 2.99921 19C2.99921 18.8686 3.02511 18.7385 3.07543 18.6171C3.12576 18.4957 3.19952 18.3854 3.29249 18.2925L9.29249 12.2925C9.48013 12.1049 9.73463 11.9994 9.99999 11.9994C10.2654 11.9994 10.5199 12.1049 10.7075 12.2925C10.8951 12.4801 11.0005 12.7346 11.0005 13C11.0005 13.2654 10.8951 13.5199 10.7075 13.7075L6.41374 18H16C18.9164 17.9967 21.7123 16.8367 23.7745 14.7745C25.8367 12.7123 26.9967 9.91637 27 7C27 6.73478 27.1053 6.48043 27.2929 6.29289C27.4804 6.10536 27.7348 6 28 6C28.2652 6 28.5196 6.10536 28.7071 6.29289C28.8946 6.48043 29 6.73478 29 7Z" fill="#343330"/>
</g>
</svg>
