<svg width="32" height="32" viewBox="0 0 32 32" fill="none" xmlns="http://www.w3.org/2000/svg">
<g id="icon/arrows.split">
<path id="Vector" d="M28.7075 23.7075L24.7075 27.7075C24.6146 27.8005 24.5043 27.8742 24.3829 27.9246C24.2615 27.9749 24.1314 28.0008 24 28.0008C23.8686 28.0008 23.7385 27.9749 23.6171 27.9246C23.4957 27.8742 23.3854 27.8005 23.2925 27.7075L19.2925 23.7075C19.1049 23.5199 18.9994 23.2654 18.9994 23C18.9994 22.7346 19.1049 22.4801 19.2925 22.2925C19.4801 22.1049 19.7346 21.9994 20 21.9994C20.2654 21.9994 20.5199 22.1049 20.7075 22.2925L23 24.5863V17.4137L16 10.4137L9.00001 17.4137V24.5863L11.2925 22.2925C11.4801 22.1049 11.7346 21.9994 12 21.9994C12.2654 21.9994 12.5199 22.1049 12.7075 22.2925C12.8951 22.4801 13.0006 22.7346 13.0006 23C13.0006 23.2654 12.8951 23.5199 12.7075 23.7075L8.70751 27.7075C8.61463 27.8005 8.50434 27.8742 8.38295 27.9246C8.26155 27.9749 8.13142 28.0008 8.00001 28.0008C7.86859 28.0008 7.73846 27.9749 7.61707 27.9246C7.49567 27.8742 7.38538 27.8005 7.29251 27.7075L3.29251 23.7075C3.1996 23.6146 3.1259 23.5043 3.07561 23.3829C3.02533 23.2615 2.99945 23.1314 2.99945 23C2.99945 22.8686 3.02533 22.7385 3.07561 22.6171C3.1259 22.4957 3.1996 22.3854 3.29251 22.2925C3.48015 22.1049 3.73464 21.9994 4.00001 21.9994C4.1314 21.9994 4.26151 22.0253 4.3829 22.0756C4.5043 22.1259 4.6146 22.1996 4.70751 22.2925L7.00001 24.5863V17C6.9999 16.8686 7.02568 16.7385 7.07587 16.6171C7.12606 16.4958 7.19967 16.3854 7.29251 16.2925L15 8.58625V3C15 2.73478 15.1054 2.48043 15.2929 2.29289C15.4804 2.10536 15.7348 2 16 2C16.2652 2 16.5196 2.10536 16.7071 2.29289C16.8947 2.48043 17 2.73478 17 3V8.58625L24.7075 16.2925C24.8003 16.3854 24.874 16.4958 24.9241 16.6171C24.9743 16.7385 25.0001 16.8686 25 17V24.5863L27.2925 22.2925C27.4801 22.1049 27.7346 21.9994 28 21.9994C28.2654 21.9994 28.5199 22.1049 28.7075 22.2925C28.8951 22.4801 29.0006 22.7346 29.0006 23C29.0006 23.2654 28.8951 23.5199 28.7075 23.7075Z" fill="#343330"/>
</g>
</svg>
