<svg width="32" height="32" viewBox="0 0 32 32" fill="none" xmlns="http://www.w3.org/2000/svg">
<g id="icon/star.half">
<path id="Vector" d="M29.2862 14.3563L28.6537 14.9025C28.4528 15.0758 28.1913 15.1621 27.9268 15.1425C27.6623 15.1229 27.4163 14.9991 27.2431 14.7982C27.0699 14.5973 26.9836 14.3358 27.0031 14.0712C27.0227 13.8067 27.1466 13.5608 27.3475 13.3875L27.98 12.8413C27.995 12.8288 28.0087 12.8175 27.9962 12.7788C27.9837 12.74 27.9737 12.745 27.9537 12.7425L26.92 12.6588C26.7862 12.6522 26.6551 12.6188 26.5344 12.5605C26.4138 12.5022 26.3061 12.4203 26.2177 12.3197C26.1294 12.219 26.0621 12.1016 26.02 11.9744C25.9779 11.8472 25.9618 11.7129 25.9726 11.5793C25.9834 11.4458 26.0209 11.3158 26.0829 11.1971C26.1449 11.0783 26.2302 10.9733 26.3336 10.8881C26.437 10.8029 26.5565 10.7394 26.6849 10.7013C26.8133 10.6632 26.9481 10.6513 27.0812 10.6663L28.115 10.7488C28.5185 10.7829 28.903 10.9354 29.2203 11.187C29.5375 11.4387 29.7735 11.7784 29.8985 12.1636C30.0236 12.5488 30.0322 12.9623 29.9233 13.3524C29.8144 13.7424 29.5928 14.0916 29.2862 14.3563ZM21.5725 19.08L22.0825 21.2325C22.1343 21.4516 22.2584 21.6468 22.4349 21.7865C22.6114 21.9263 22.8299 22.0024 23.055 22.0025C23.1329 22.0026 23.2105 21.9933 23.2862 21.975C23.414 21.9448 23.5346 21.8896 23.6411 21.8127C23.7476 21.7358 23.8379 21.6387 23.9068 21.527C23.9758 21.4152 24.022 21.2909 24.0429 21.1613C24.0639 21.0316 24.059 20.8991 24.0287 20.7713L23.6537 19.21L24.6537 18.3525C24.8546 18.1793 24.9785 17.9334 24.9981 17.6688C25.0176 17.4043 24.9313 17.1428 24.7581 16.9419C24.6723 16.8424 24.5678 16.7608 24.4505 16.7017C24.3332 16.6427 24.2054 16.6073 24.0744 16.5976C23.8099 16.578 23.5484 16.6643 23.3475 16.8375L21.8925 18.0875C21.753 18.2075 21.6493 18.3637 21.5929 18.5388C21.5364 18.7139 21.5294 18.9012 21.5725 19.08ZM25.2137 25.7713C25.1526 25.5132 24.9914 25.29 24.7656 25.1507C24.5399 25.0115 24.2681 24.9676 24.01 25.0288C23.7519 25.09 23.5287 25.2511 23.3894 25.4769C23.2502 25.7026 23.2063 25.9745 23.2675 26.2325L23.4325 26.93C23.4373 26.9409 23.4378 26.9531 23.4338 26.9643C23.4299 26.9754 23.4218 26.9847 23.4112 26.99C23.3887 27.0075 23.3825 27.0038 23.3637 26.99L22.5237 26.4738C22.2978 26.3349 22.0259 26.2914 21.768 26.353C21.51 26.4145 21.287 26.576 21.1481 26.8019C21.0092 27.0278 20.9657 27.2997 21.0273 27.5577C21.0888 27.8157 21.2503 28.0386 21.4762 28.1775L22.3162 28.6938C22.6618 28.9036 23.0616 29.0066 23.4655 28.9898C23.8694 28.973 24.2593 28.8371 24.5861 28.5993C24.913 28.3615 25.1623 28.0324 25.3027 27.6533C25.4431 27.2742 25.4682 26.8621 25.375 26.4688L25.2137 25.7713ZM21.92 12.2563L19.965 12.0975C19.782 12.082 19.6068 12.0165 19.4586 11.908C19.3105 11.7995 19.195 11.6523 19.125 11.4825L17 6.34754V23.0788L17.9287 23.65C18.0406 23.7188 18.1378 23.809 18.2149 23.9153C18.2919 24.0217 18.3472 24.1422 18.3777 24.2699C18.4082 24.3976 18.4132 24.5301 18.3924 24.6598C18.3717 24.7895 18.3256 24.9138 18.2569 25.0257C18.1881 25.1375 18.0979 25.2348 17.9916 25.3118C17.8852 25.3888 17.7647 25.4442 17.637 25.4746C17.5093 25.5051 17.3768 25.5101 17.2471 25.4894C17.1174 25.4686 16.9931 25.4226 16.8812 25.3538L16 24.8113L9.68373 28.6963C9.33802 28.9064 8.93786 29.0095 8.53366 28.9927C8.12945 28.9758 7.73927 28.8398 7.41224 28.6016C7.08521 28.3634 6.83595 28.0339 6.69586 27.6543C6.55577 27.2748 6.53111 26.8623 6.62498 26.4688L8.34498 19.21L2.71998 14.3563C2.41411 14.0919 2.19289 13.7433 2.08396 13.354C1.97503 12.9646 1.98322 12.5518 2.1075 12.1671C2.23178 11.7824 2.46665 11.4428 2.78277 11.1908C3.09889 10.9388 3.48225 10.7855 3.88498 10.75L11.26 10.155L14.105 3.27004C14.259 2.89481 14.5211 2.57385 14.8579 2.34796C15.1948 2.12208 15.5913 2.00146 15.9969 2.00146C16.4025 2.00146 16.7989 2.12208 17.1358 2.34796C17.4726 2.57385 17.7347 2.89481 17.8887 3.27004L20.7325 10.155L22.0775 10.2638C22.2088 10.2744 22.3368 10.3107 22.454 10.3708C22.5713 10.4308 22.6756 10.5133 22.761 10.6137C22.8463 10.714 22.9111 10.8302 22.9516 10.9556C22.9921 11.081 23.0074 11.2131 22.9969 11.3444C22.9863 11.4757 22.9499 11.6037 22.8899 11.721C22.8298 11.8382 22.7473 11.9425 22.647 12.0279C22.5466 12.1133 22.4304 12.1781 22.3051 12.2185C22.1797 12.259 22.0476 12.2744 21.9162 12.2638L21.92 12.2563ZM15 23.0788V6.34754L12.875 11.4825C12.8046 11.6528 12.6886 11.8004 12.5397 11.9089C12.3909 12.0174 12.2149 12.0827 12.0312 12.0975L4.04123 12.7425C4.02248 12.7425 4.01123 12.7425 3.99998 12.7788C3.99424 12.7895 3.99273 12.802 3.99573 12.8138C3.99874 12.8256 4.00605 12.8359 4.01623 12.8425L10.1037 18.0925C10.2426 18.2122 10.3458 18.3677 10.4023 18.5421C10.4587 18.7165 10.4661 18.903 10.4237 19.0813L8.56373 26.9313C8.55892 26.9421 8.55844 26.9544 8.56239 26.9655C8.56635 26.9767 8.57443 26.9859 8.58498 26.9913C8.60748 27.0088 8.61373 27.005 8.63248 26.9913L15 23.0788Z" fill="#343330"/>
</g>
</svg>
