<svg width="32" height="32" viewBox="0 0 32 32" fill="none" xmlns="http://www.w3.org/2000/svg">
<g id="icon/hand.deposit">
<path id="Vector" d="M16 4.4138V16.0001C16 16.2653 15.8946 16.5196 15.7071 16.7072C15.5196 16.8947 15.2652 17.0001 15 17.0001C14.7348 17.0001 14.4804 16.8947 14.2929 16.7072C14.1054 16.5196 14 16.2653 14 16.0001V4.4138L11.7075 6.70755C11.6146 6.80046 11.5043 6.87417 11.3829 6.92445C11.2615 6.97473 11.1314 7.00061 11 7.00061C10.7346 7.00061 10.4801 6.8952 10.2925 6.70755C10.1996 6.61464 10.1259 6.50434 10.0756 6.38295C10.0253 6.26156 9.99944 6.13145 9.99944 6.00005C9.99944 5.73469 10.1049 5.4802 10.2925 5.29255L14.2925 1.29255C14.3854 1.19958 14.4957 1.12582 14.6171 1.07549C14.7385 1.02517 14.8686 0.999268 15 0.999268C15.1314 0.999268 15.2615 1.02517 15.3829 1.07549C15.5043 1.12582 15.6146 1.19958 15.7075 1.29255L19.7075 5.29255C19.8951 5.4802 20.0006 5.73469 20.0006 6.00005C20.0006 6.26542 19.8951 6.51991 19.7075 6.70755C19.5199 6.8952 19.2654 7.00061 19 7.00061C18.7346 7.00061 18.4801 6.8952 18.2925 6.70755L16 4.4138ZM24 15.4526V12.0001C24 11.4696 23.7893 10.9609 23.4142 10.5858C23.0391 10.2108 22.5304 10.0001 22 10.0001H20C19.7348 10.0001 19.4804 10.1054 19.2929 10.2929C19.1054 10.4805 19 10.7348 19 11.0001C19 11.2653 19.1054 11.5196 19.2929 11.7072C19.4804 11.8947 19.7348 12.0001 20 12.0001H22V22.0501C21.4036 21.4408 20.6055 21.0702 19.7552 21.0078C18.905 20.9454 18.0612 21.1954 17.3823 21.7109C16.7033 22.2265 16.2359 22.9721 16.0677 23.8078C15.8995 24.6436 16.0421 25.512 16.4688 26.2501L16.4988 26.2976L19.2812 30.5476C19.4265 30.7695 19.6539 30.9247 19.9135 30.979C20.1731 31.0332 20.4437 30.9821 20.6656 30.8369C20.8876 30.6917 21.0428 30.4643 21.097 30.2047C21.1513 29.9451 21.1002 29.6745 20.955 29.4526L18.1887 25.2288C17.9927 24.8825 17.9421 24.4725 18.0483 24.089C18.1545 23.7055 18.4087 23.3799 18.755 23.1838C19.1013 22.9877 19.5113 22.9372 19.8948 23.0434C20.2783 23.1496 20.6039 23.4038 20.8 23.7501C20.8087 23.7663 20.8188 23.7826 20.8288 23.7976L22.1637 25.8363C22.2818 26.0163 22.4547 26.1534 22.6568 26.2272C22.8589 26.3011 23.0795 26.3078 23.2857 26.2463C23.492 26.1848 23.6729 26.0584 23.8015 25.8859C23.9302 25.7134 23.9998 25.504 24 25.2888V18.0001C24.9426 18.8726 25.6954 19.9298 26.2115 21.106C26.7276 22.2821 26.996 23.5519 27 24.8363V30.0001C27 30.2653 27.1054 30.5196 27.2929 30.7072C27.4804 30.8947 27.7348 31.0001 28 31.0001C28.2652 31.0001 28.5196 30.8947 28.7071 30.7072C28.8946 30.5196 29 30.2653 29 30.0001V24.8313C28.9943 22.9788 28.5358 21.1559 27.6643 19.5212C26.7928 17.8865 25.5349 16.4898 24 15.4526ZM10 10.0001H8C7.46957 10.0001 6.96086 10.2108 6.58579 10.5858C6.21071 10.9609 6 11.4696 6 12.0001V25.0001C6 25.2653 6.10536 25.5196 6.29289 25.7072C6.48043 25.8947 6.73478 26.0001 7 26.0001C7.26522 26.0001 7.51957 25.8947 7.70711 25.7072C7.89464 25.5196 8 25.2653 8 25.0001V12.0001H10C10.2652 12.0001 10.5196 11.8947 10.7071 11.7072C10.8946 11.5196 11 11.2653 11 11.0001C11 10.7348 10.8946 10.4805 10.7071 10.2929C10.5196 10.1054 10.2652 10.0001 10 10.0001Z" fill="#343330"/>
</g>
</svg>
