<svg width="32" height="32" viewBox="0 0 32 32" fill="none" xmlns="http://www.w3.org/2000/svg">
<g id="icon/plugs.connected">
<path id="Vector" d="M29.7076 2.29255C29.6147 2.19958 29.5044 2.12582 29.383 2.07549C29.2616 2.02517 29.1315 1.99927 29.0001 1.99927C28.8687 1.99927 28.7385 2.02517 28.6171 2.07549C28.4957 2.12582 28.3854 2.19958 28.2926 2.29255L21.7426 8.8438L21.0713 8.1713C20.3203 7.42249 19.3031 7.00199 18.2426 7.00199C17.1821 7.00199 16.1648 7.42249 15.4138 8.1713L12.5001 11.0863L11.7076 10.2926C11.5199 10.1049 11.2654 9.9995 11.0001 9.9995C10.7347 9.9995 10.4802 10.1049 10.2926 10.2926C10.1049 10.4802 9.99951 10.7347 9.99951 11.0001C9.99951 11.2654 10.1049 11.5199 10.2926 11.7076L11.0863 12.5001L8.17132 15.4138C7.79979 15.7853 7.50507 16.2262 7.30399 16.7116C7.10292 17.197 6.99942 17.7172 6.99942 18.2426C6.99942 18.7679 7.10292 19.2881 7.30399 19.7735C7.50507 20.2589 7.79979 20.6999 8.17132 21.0713L8.84382 21.7426L2.29257 28.2926C2.19966 28.3855 2.12596 28.4958 2.07567 28.6172C2.02539 28.7386 1.99951 28.8687 1.99951 29.0001C1.99951 29.1314 2.02539 29.2616 2.07567 29.3829C2.12596 29.5043 2.19966 29.6146 2.29257 29.7076C2.48021 29.8952 2.7347 30.0006 3.00007 30.0006C3.13146 30.0006 3.26157 29.9747 3.38296 29.9244C3.50436 29.8742 3.61466 29.8005 3.70757 29.7076L10.2576 23.1563L10.9288 23.8288C11.3003 24.2003 11.7413 24.4951 12.2266 24.6961C12.712 24.8972 13.2322 25.0007 13.7576 25.0007C14.2829 25.0007 14.8032 24.8972 15.2885 24.6961C15.7739 24.4951 16.2149 24.2003 16.5863 23.8288L19.5001 20.9138L20.2926 21.7076C20.3855 21.8005 20.4958 21.8742 20.6172 21.9244C20.7386 21.9747 20.8687 22.0006 21.0001 22.0006C21.1315 22.0006 21.2616 21.9747 21.383 21.9244C21.5044 21.8742 21.6147 21.8005 21.7076 21.7076C21.8005 21.6146 21.8742 21.5043 21.9245 21.3829C21.9747 21.2616 22.0006 21.1314 22.0006 21.0001C22.0006 20.8687 21.9747 20.7386 21.9245 20.6172C21.8742 20.4958 21.8005 20.3855 21.7076 20.2926L20.9138 19.5001L23.8288 16.5863C24.2003 16.2149 24.4951 15.7739 24.6961 15.2885C24.8972 14.8031 25.0007 14.2829 25.0007 13.7576C25.0007 13.2322 24.8972 12.712 24.6961 12.2266C24.4951 11.7412 24.2003 11.3003 23.8288 10.9288L23.1563 10.2576L29.7076 3.70755C29.8005 3.61468 29.8743 3.50439 29.9246 3.38299C29.975 3.2616 30.0009 3.13147 30.0009 3.00005C30.0009 2.86864 29.975 2.73851 29.9246 2.61711C29.8743 2.49572 29.8005 2.38543 29.7076 2.29255ZM15.1713 22.4176C14.7963 22.7923 14.2878 23.0029 13.7576 23.0029C13.2274 23.0029 12.7189 22.7923 12.3438 22.4176L9.58632 19.6563C9.21153 19.2813 9.00099 18.7728 9.00099 18.2426C9.00099 17.7123 9.21153 17.2038 9.58632 16.8288L12.5001 13.9138L18.0863 19.5001L15.1713 22.4176ZM22.4138 15.1751L19.5001 18.0863L13.9138 12.5001L16.8288 9.5863C17.2039 9.21152 17.7124 9.00098 18.2426 9.00098C18.7728 9.00098 19.2813 9.21152 19.6563 9.5863L22.4138 12.3363C22.6005 12.5221 22.7487 12.743 22.8498 12.9863C22.9509 13.2295 23.0029 13.4904 23.0029 13.7538C23.0029 14.0172 22.9509 14.2781 22.8498 14.5213C22.7487 14.7646 22.6005 14.9855 22.4138 15.1713V15.1751ZM11.0713 4.37505C10.9719 4.12873 10.9743 3.85299 11.0782 3.60849C11.182 3.36399 11.3787 3.17076 11.6251 3.0713C11.8714 2.97185 12.1471 2.97432 12.3916 3.07816C12.6361 3.18201 12.8294 3.37873 12.9288 3.62505L13.9288 6.12505C13.9781 6.24702 14.0028 6.37749 14.0016 6.50902C14.0005 6.64054 13.9734 6.77055 13.922 6.89161C13.8705 7.01268 13.7958 7.12243 13.7019 7.2146C13.6081 7.30677 13.497 7.37956 13.3751 7.4288C13.2531 7.47805 13.1226 7.50279 12.9911 7.50161C12.8596 7.50044 12.7296 7.47336 12.6085 7.42194C12.4874 7.37052 12.3777 7.29576 12.2855 7.20193C12.1933 7.10809 12.1206 6.99702 12.0713 6.87505L11.0713 4.37505ZM3.07132 11.6251C3.12039 11.503 3.19308 11.3917 3.28522 11.2978C3.37735 11.2038 3.48713 11.129 3.60825 11.0776C3.72937 11.0261 3.85945 10.9991 3.99104 10.998C4.12262 10.9969 4.25313 11.0218 4.37507 11.0713L6.87507 12.0713C6.99703 12.1206 7.1081 12.1933 7.20194 12.2855C7.29578 12.3777 7.37054 12.4874 7.42196 12.6085C7.47338 12.7296 7.50045 12.8596 7.50163 12.9911C7.5028 13.1226 7.47806 13.2531 7.42882 13.3751C7.37957 13.497 7.30679 13.6081 7.21461 13.7019C7.12244 13.7958 7.01269 13.8705 6.89163 13.9219C6.77056 13.9734 6.64056 14.0004 6.50903 14.0016C6.3775 14.0028 6.24703 13.9781 6.12507 13.9288L3.62507 12.9288C3.50297 12.8797 3.39176 12.807 3.2978 12.7149C3.20385 12.6228 3.12901 12.513 3.07757 12.3919C3.02612 12.2708 2.99909 12.1407 2.99802 12.0091C2.99695 11.8775 3.02185 11.747 3.07132 11.6251ZM28.9288 20.3751C28.8801 20.497 28.8078 20.6082 28.7161 20.7023C28.6244 20.7963 28.515 20.8713 28.3943 20.9231C28.2736 20.9749 28.1439 21.0024 28.0125 21.004C27.8812 21.0056 27.7508 20.9813 27.6288 20.9326L25.1288 19.9326C25.0066 19.8836 24.8952 19.811 24.8011 19.7189C24.7069 19.6269 24.6318 19.5172 24.5801 19.3961C24.5283 19.2751 24.5009 19.145 24.4994 19.0133C24.4979 18.8817 24.5223 18.751 24.5713 18.6288C24.6203 18.5066 24.6929 18.3952 24.7849 18.3011C24.877 18.2069 24.9867 18.1318 25.1077 18.08C25.2288 18.0283 25.3589 18.0009 25.4905 17.9994C25.6222 17.9979 25.7529 18.0223 25.8751 18.0713L28.3751 19.0713C28.4972 19.1204 28.6084 19.1931 28.7023 19.2852C28.7963 19.3773 28.8711 19.4871 28.9226 19.6082C28.974 19.7294 29.001 19.8594 29.0021 19.991C29.0032 20.1226 28.9783 20.2531 28.9288 20.3751ZM20.9288 27.6326C20.9776 27.7545 21.0018 27.8849 21.0002 28.0162C20.9986 28.1476 20.9711 28.2773 20.9193 28.398C20.8675 28.5187 20.7925 28.6281 20.6985 28.7198C20.6045 28.8115 20.4933 28.8838 20.3713 28.9326C20.2494 28.9813 20.119 29.0056 19.9876 29.0039C19.8563 29.0023 19.7266 28.9748 19.6059 28.923C19.4851 28.8713 19.3758 28.7962 19.2841 28.7022C19.1924 28.6082 19.1201 28.497 19.0713 28.3751L18.0713 25.8751C17.9719 25.6287 17.9743 25.353 18.0782 25.1085C18.182 24.864 18.3787 24.6708 18.6251 24.5713C18.8714 24.4718 19.1471 24.4743 19.3916 24.5782C19.6361 24.682 19.8294 24.8787 19.9288 25.1251L20.9288 27.6326Z" fill="#343330"/>
</g>
</svg>
