<svg width="32" height="32" viewBox="0 0 32 32" fill="none" xmlns="http://www.w3.org/2000/svg">
<g id="icon/arrows.in">
<path id="Vector" d="M18 13V8.00001C18 7.73479 18.1054 7.48044 18.2929 7.2929C18.4804 7.10536 18.7348 7.00001 19 7.00001C19.2652 7.00001 19.5196 7.10536 19.7071 7.2929C19.8947 7.48044 20 7.73479 20 8.00001V10.5863L25.2925 5.29251C25.4801 5.10487 25.7346 4.99945 26 4.99945C26.2654 4.99945 26.5199 5.10487 26.7075 5.29251C26.8951 5.48015 27.0006 5.73464 27.0006 6.00001C27.0006 6.26537 26.8951 6.51987 26.7075 6.70751L21.4138 12H24C24.2652 12 24.5196 12.1054 24.7071 12.2929C24.8947 12.4804 25 12.7348 25 13C25 13.2652 24.8947 13.5196 24.7071 13.7071C24.5196 13.8946 24.2652 14 24 14H19C18.7348 14 18.4804 13.8946 18.2929 13.7071C18.1054 13.5196 18 13.2652 18 13ZM13 18H8.00001C7.73479 18 7.48044 18.1054 7.2929 18.2929C7.10536 18.4804 7.00001 18.7348 7.00001 19C7.00001 19.2652 7.10536 19.5196 7.2929 19.7071C7.48044 19.8947 7.73479 20 8.00001 20H10.5863L5.29251 25.2925C5.10487 25.4801 4.99945 25.7346 4.99945 26C4.99945 26.2654 5.10487 26.5199 5.29251 26.7075C5.48015 26.8951 5.73464 27.0006 6.00001 27.0006C6.26537 27.0006 6.51987 26.8951 6.70751 26.7075L12 21.4138V24C12 24.2652 12.1054 24.5196 12.2929 24.7071C12.4804 24.8947 12.7348 25 13 25C13.2652 25 13.5196 24.8947 13.7071 24.7071C13.8946 24.5196 14 24.2652 14 24V19C14 18.7348 13.8946 18.4804 13.7071 18.2929C13.5196 18.1054 13.2652 18 13 18ZM21.4138 20H24C24.2652 20 24.5196 19.8947 24.7071 19.7071C24.8947 19.5196 25 19.2652 25 19C25 18.7348 24.8947 18.4804 24.7071 18.2929C24.5196 18.1054 24.2652 18 24 18H19C18.7348 18 18.4804 18.1054 18.2929 18.2929C18.1054 18.4804 18 18.7348 18 19V24C18 24.2652 18.1054 24.5196 18.2929 24.7071C18.4804 24.8947 18.7348 25 19 25C19.2652 25 19.5196 24.8947 19.7071 24.7071C19.8947 24.5196 20 24.2652 20 24V21.4138L25.2925 26.7075C25.3854 26.8004 25.4957 26.8741 25.6171 26.9244C25.7385 26.9747 25.8686 27.0006 26 27.0006C26.1314 27.0006 26.2615 26.9747 26.3829 26.9244C26.5043 26.8741 26.6146 26.8004 26.7075 26.7075C26.8004 26.6146 26.8741 26.5043 26.9244 26.3829C26.9747 26.2615 27.0006 26.1314 27.0006 26C27.0006 25.8686 26.9747 25.7385 26.9244 25.6171C26.8741 25.4957 26.8004 25.3854 26.7075 25.2925L21.4138 20ZM13 7.00001C12.7348 7.00001 12.4804 7.10536 12.2929 7.2929C12.1054 7.48044 12 7.73479 12 8.00001V10.5863L6.70751 5.29251C6.51987 5.10487 6.26537 4.99945 6.00001 4.99945C5.73464 4.99945 5.48015 5.10487 5.29251 5.29251C5.10487 5.48015 4.99945 5.73464 4.99945 6.00001C4.99945 6.26537 5.10487 6.51987 5.29251 6.70751L10.5863 12H8.00001C7.73479 12 7.48044 12.1054 7.2929 12.2929C7.10536 12.4804 7.00001 12.7348 7.00001 13C7.00001 13.2652 7.10536 13.5196 7.2929 13.7071C7.48044 13.8946 7.73479 14 8.00001 14H13C13.2652 14 13.5196 13.8946 13.7071 13.7071C13.8946 13.5196 14 13.2652 14 13V8.00001C14 7.73479 13.8946 7.48044 13.7071 7.2929C13.5196 7.10536 13.2652 7.00001 13 7.00001Z" fill="#343330"/>
</g>
</svg>
