<svg width="32" height="32" viewBox="0 0 32 32" fill="none" xmlns="http://www.w3.org/2000/svg">
<g id="icon/caret.circle.double.left">
<path id="Vector" d="M25.1925 6.80754C22.7545 4.36953 19.4478 2.99988 16 2.99988C12.5521 2.99988 9.24548 4.36953 6.80748 6.80754C4.36947 9.24554 2.99982 12.5522 2.99982 16C2.99982 19.4479 4.36947 22.7545 6.80747 25.1925C9.24548 27.6305 12.5521 29.0002 16 29.0002C19.4478 29.0002 22.7545 27.6305 25.1925 25.1925C27.6305 22.7545 29.0001 19.4479 29.0001 16C29.0001 12.5522 27.6305 9.24554 25.1925 6.80754ZM23.7787 23.7788C22.2403 25.317 20.2803 26.3645 18.1465 26.7888C16.0128 27.2131 13.8011 26.9952 11.7912 26.1626C9.78134 25.3299 8.06347 23.92 6.85485 22.1111C5.64622 20.3022 5.00113 18.1756 5.00113 16C5.00113 13.8245 5.64622 11.6978 6.85485 9.88893C8.06347 8.08003 9.78134 6.67013 11.7912 5.83752C13.8011 5.00491 16.0128 4.78697 18.1465 5.21128C20.2803 5.63558 22.2403 6.68307 23.7787 8.22129C25.8386 10.286 26.9954 13.0835 26.9954 16C26.9954 18.9166 25.8386 21.7141 23.7787 23.7788ZM21.7075 12.7075L18.4137 16L21.7075 19.2925C21.8004 19.3854 21.8741 19.4957 21.9244 19.6171C21.9747 19.7385 22.0005 19.8686 22.0005 20C22.0005 20.1314 21.9747 20.2615 21.9244 20.3829C21.8741 20.5043 21.8004 20.6146 21.7075 20.7075C21.6146 20.8004 21.5043 20.8741 21.3829 20.9244C21.2615 20.9747 21.1314 21.0006 21 21.0006C20.8686 21.0006 20.7385 20.9747 20.6171 20.9244C20.4957 20.8741 20.3854 20.8004 20.2925 20.7075L16.2925 16.7075C16.1995 16.6147 16.1257 16.5044 16.0754 16.383C16.0251 16.2616 15.9992 16.1315 15.9992 16C15.9992 15.8686 16.0251 15.7385 16.0754 15.6171C16.1257 15.4957 16.1995 15.3854 16.2925 15.2925L20.2925 11.2925C20.3854 11.1996 20.4957 11.1259 20.6171 11.0756C20.7385 11.0254 20.8686 10.9995 21 10.9995C21.1314 10.9995 21.2615 11.0254 21.3829 11.0756C21.5043 11.1259 21.6146 11.1996 21.7075 11.2925C21.8004 11.3854 21.8741 11.4957 21.9244 11.6171C21.9747 11.7385 22.0005 11.8686 22.0005 12C22.0005 12.1314 21.9747 12.2615 21.9244 12.3829C21.8741 12.5043 21.8004 12.6146 21.7075 12.7075ZM14.7075 12.7075L11.4137 16L14.7075 19.2925C14.8004 19.3854 14.8741 19.4957 14.9244 19.6171C14.9747 19.7385 15.0005 19.8686 15.0005 20C15.0005 20.1314 14.9747 20.2615 14.9244 20.3829C14.8741 20.5043 14.8004 20.6146 14.7075 20.7075C14.6146 20.8004 14.5043 20.8741 14.3829 20.9244C14.2615 20.9747 14.1314 21.0006 14 21.0006C13.8686 21.0006 13.7385 20.9747 13.6171 20.9244C13.4957 20.8741 13.3854 20.8004 13.2925 20.7075L9.29247 16.7075C9.1995 16.6147 9.12574 16.5044 9.07542 16.383C9.02509 16.2616 8.99919 16.1315 8.99919 16C8.99919 15.8686 9.02509 15.7385 9.07542 15.6171C9.12574 15.4957 9.1995 15.3854 9.29247 15.2925L13.2925 11.2925C13.4801 11.1049 13.7346 10.9995 14 10.9995C14.2653 10.9995 14.5198 11.1049 14.7075 11.2925C14.8951 11.4802 15.0005 11.7347 15.0005 12C15.0005 12.2654 14.8951 12.5199 14.7075 12.7075Z" fill="#343330"/>
</g>
</svg>
