<svg width="32" height="32" viewBox="0 0 32 32" fill="none" xmlns="http://www.w3.org/2000/svg">
<g id="icon/chat.circle.slash">
<path id="Vector" d="M6.73998 4.32748C6.65216 4.22849 6.54557 4.14791 6.42638 4.09042C6.30719 4.03293 6.17778 3.99966 6.04564 3.99255C5.9135 3.98544 5.78126 4.00463 5.65659 4.04901C5.53192 4.09338 5.4173 4.16206 5.31937 4.25106C5.22144 4.34006 5.14215 4.44761 5.08609 4.56748C5.03003 4.68735 4.99831 4.81715 4.99279 4.94937C4.98727 5.08158 5.00804 5.21358 5.0539 5.33771C5.09977 5.46183 5.16982 5.57562 5.25998 5.67248L6.54123 7.08248C4.6759 9.06183 3.47793 11.5761 3.11582 14.2717C2.7537 16.9672 3.24565 19.7085 4.52248 22.11L3.10373 26.3662C2.98621 26.7186 2.96916 27.0968 3.05448 27.4583C3.1398 27.8199 3.32413 28.1505 3.5868 28.4132C3.84947 28.6758 4.1801 28.8602 4.54164 28.9455C4.90318 29.0308 5.28134 29.0138 5.63373 28.8962L9.88998 27.4775C12.1051 28.6558 14.6138 29.168 17.1136 28.9522C19.6133 28.7364 21.9971 27.8018 23.9775 26.2612L25.26 27.6725C25.3478 27.7715 25.4544 27.8521 25.5736 27.9095C25.6928 27.967 25.8222 28.0003 25.9543 28.0074C26.0865 28.0145 26.2187 27.9953 26.3434 27.951C26.468 27.9066 26.5827 27.8379 26.6806 27.7489C26.7785 27.6599 26.8578 27.5524 26.9139 27.4325C26.9699 27.3126 27.0017 27.1828 27.0072 27.0506C27.0127 26.9184 26.9919 26.7864 26.9461 26.6623C26.9002 26.5381 26.8301 26.4243 26.74 26.3275L6.73998 4.32748ZM16 27C14.0662 27.0013 12.1664 26.4921 10.4925 25.5237C10.3698 25.4529 10.2335 25.4089 10.0926 25.3946C9.95166 25.3804 9.80932 25.3963 9.67498 25.4412L4.99998 27L6.55873 22.325C6.60366 22.1906 6.61954 22.0483 6.60532 21.9074C6.5911 21.7664 6.5471 21.6301 6.47623 21.5075C5.30454 19.4806 4.81009 17.1328 5.0648 14.8055C5.31952 12.4782 6.31011 10.2929 7.89248 8.56748L22.625 24.7787C20.7177 26.2214 18.3914 27.0014 16 27ZM29 16C29 18.1483 28.4684 20.2633 27.4525 22.1562C27.3257 22.3876 27.1125 22.5595 26.8595 22.6345C26.6065 22.7094 26.3342 22.6813 26.1018 22.5563C25.8694 22.4313 25.6959 22.2195 25.619 21.9671C25.5421 21.7147 25.568 21.4421 25.6912 21.2087C26.7701 19.2046 27.2007 16.9152 26.9237 14.656C26.6467 12.3968 25.6758 10.2792 24.1447 8.59512C22.6136 6.91099 20.5978 5.74328 18.3752 5.25296C16.1525 4.76263 13.8325 4.97385 11.735 5.85748C11.4905 5.96042 11.2151 5.96201 10.9694 5.86192C10.7238 5.76182 10.5279 5.56823 10.425 5.32373C10.322 5.07924 10.3205 4.80386 10.4205 4.55819C10.5206 4.31252 10.7142 4.11667 10.9587 4.01373C12.9353 3.18419 15.0862 2.85599 17.2202 3.05832C19.3542 3.26064 21.4051 3.98722 23.1906 5.17343C24.976 6.35965 26.4406 7.96872 27.4542 9.85755C28.4677 11.7464 28.9987 13.8564 29 16Z" fill="#343330"/>
</g>
</svg>
