<svg width="32" height="32" viewBox="0 0 32 32" fill="none" xmlns="http://www.w3.org/2000/svg">
<g id="icon/cricket">
<path id="Vector" d="M30.4137 10.1713L23.8288 3.58625C23.643 3.40049 23.4225 3.25313 23.1798 3.15259C22.9372 3.05205 22.6771 3.00031 22.4144 3.00031C22.1517 3.00031 21.8916 3.05205 21.6489 3.15259C21.4062 3.25313 21.1857 3.40049 21 3.58625L7.58625 17C7.40048 17.1857 7.25312 17.4062 7.15259 17.6489C7.05205 17.8916 7.0003 18.1517 7.0003 18.4144C7.0003 18.6771 7.05205 18.9372 7.15259 19.1799C7.25312 19.4225 7.40048 19.643 7.58625 19.8288L10.1713 22.4138L4.29625 28.2888C4.10861 28.4764 4.00319 28.7309 4.00319 28.9963C4.00319 29.2616 4.10861 29.5161 4.29625 29.7038C4.48389 29.8914 4.73839 29.9968 5.00375 29.9968C5.26911 29.9968 5.52361 29.8914 5.71125 29.7038L11.5863 23.8288L14.1713 26.4138C14.357 26.5995 14.5775 26.7469 14.8202 26.8474C15.0628 26.948 15.3229 26.9997 15.5856 26.9997C15.8483 26.9997 16.1084 26.948 16.3511 26.8474C16.5938 26.7469 16.8143 26.5995 17 26.4138L30.4137 13C30.5995 12.8143 30.7469 12.5938 30.8474 12.3511C30.948 12.1084 30.9997 11.8483 30.9997 11.5856C30.9997 11.3229 30.948 11.0628 30.8474 10.8202C30.7469 10.5775 30.5995 10.357 30.4137 10.1713ZM15.5863 25L13 22.4138L16.7075 18.7075C16.8951 18.5199 17.0006 18.2654 17.0006 18C17.0006 17.7346 16.8951 17.4801 16.7075 17.2925C16.5199 17.1049 16.2654 16.9994 16 16.9994C15.7346 16.9994 15.4801 17.1049 15.2925 17.2925L11.5863 21L9 18.4138L13.4137 14H20V20.5863L15.5863 25ZM29 11.5863L22 18.5863V13C22 12.7348 21.8946 12.4804 21.7071 12.2929C21.5196 12.1054 21.2652 12 21 12H15.4137L22.4137 5L29 11.585V11.5863ZM7.5 11C8.19223 11 8.86892 10.7947 9.4445 10.4101C10.0201 10.0256 10.4687 9.47894 10.7336 8.83939C10.9985 8.19985 11.0678 7.49612 10.9327 6.81719C10.7977 6.13825 10.4644 5.51461 9.97487 5.02513C9.48539 4.53565 8.86175 4.2023 8.18282 4.06725C7.50388 3.93221 6.80015 4.00152 6.16061 4.26642C5.52107 4.53133 4.97444 4.97994 4.58986 5.55551C4.20527 6.13108 4 6.80777 4 7.5C4 8.42826 4.36875 9.3185 5.02513 9.97488C5.6815 10.6313 6.57174 11 7.5 11ZM7.5 6C7.79667 6 8.08668 6.08798 8.33335 6.2528C8.58003 6.41762 8.77229 6.65189 8.88582 6.92598C8.99935 7.20007 9.02906 7.50167 8.97118 7.79264C8.9133 8.08361 8.77044 8.35088 8.56066 8.56066C8.35088 8.77044 8.08361 8.9133 7.79264 8.97118C7.50166 9.02906 7.20006 8.99935 6.92597 8.88582C6.65189 8.77229 6.41762 8.58003 6.2528 8.33336C6.08797 8.08668 6 7.79667 6 7.5C6 7.10218 6.15804 6.72065 6.43934 6.43934C6.72064 6.15804 7.10218 6 7.5 6Z" fill="#343330"/>
</g>
</svg>
