<svg width="32" height="32" viewBox="0 0 32 32" fill="none" xmlns="http://www.w3.org/2000/svg">
<g id="icon/paypal.logo">
<path id="Vector" d="M27.515 11.6925C26.8438 10.8299 25.9793 10.1371 24.9913 9.67C24.9064 7.87278 24.1328 6.17724 22.8311 4.93526C21.5293 3.69328 19.7992 3.00025 18 3H10.5C10.054 3.00007 9.62084 3.1492 9.26933 3.4237C8.91783 3.69821 8.66816 4.08232 8.56 4.515L4.06 22.515C3.98631 22.8098 3.98077 23.1176 4.04381 23.4149C4.10685 23.7122 4.23681 23.9912 4.42382 24.2307C4.61084 24.4703 4.84998 24.6641 5.12309 24.7974C5.3962 24.9307 5.6961 25 6 25H9.4375L9.0625 26.515C8.98886 26.8096 8.98327 27.1172 9.04618 27.4143C9.10908 27.7114 9.23882 27.9902 9.42555 28.2297C9.61229 28.4692 9.85111 28.6631 10.1239 28.7965C10.3967 28.93 10.6963 28.9996 11 29H14.9375C15.3831 28.9994 15.8157 28.85 16.1667 28.5755C16.5177 28.3011 16.767 27.9173 16.875 27.485L18 23H22C23.3115 23 24.5965 22.6315 25.7088 21.9366C26.821 21.2417 27.7157 20.2483 28.2908 19.0697C28.8659 17.8911 29.0983 16.5746 28.9616 15.2703C28.8249 13.9659 28.3245 12.7263 27.5175 11.6925H27.515ZM6 23L10.5 5H18C19.1634 4.99967 20.2906 5.40508 21.1873 6.14638C22.084 6.88769 22.6941 7.9185 22.9125 9.06125C22.61 9.02131 22.3052 9.00085 22 9H15C14.5538 8.99979 14.1203 9.1488 13.7686 9.42332C13.4168 9.69784 13.167 10.0821 13.0588 10.515L9.94 23H6ZM22.875 11.0775C22.865 11.1225 22.8563 11.1675 22.845 11.2125C22.576 12.294 21.9529 13.2544 21.0749 13.9408C20.1969 14.6272 19.1145 15 18 15H14L15 11H22C22.2934 11.0002 22.5862 11.0261 22.875 11.0775ZM26.845 17.2125C26.576 18.294 25.9529 19.2544 25.0749 19.9408C24.1969 20.6272 23.1145 21 22 21H18C17.554 21.0001 17.1208 21.1492 16.7693 21.4237C16.4178 21.6982 16.1682 22.0823 16.06 22.515L14.935 27H11L13.5 17H18C19.5376 17.0004 21.0324 16.4937 22.2528 15.5583C23.4731 14.6229 24.3509 13.3111 24.75 11.8263C25.2015 12.1254 25.6017 12.4956 25.935 12.9225C26.4054 13.52 26.7323 14.2175 26.8905 14.9613C27.0487 15.7051 27.034 16.4753 26.8475 17.2125H26.845Z" fill="#343330"/>
</g>
</svg>
