<svg width="32" height="32" viewBox="0 0 32 32" fill="none" xmlns="http://www.w3.org/2000/svg">
<g id="icon/scissors">
<path id="Vector" d="M19.7162 14.1413C19.6419 14.0328 19.5897 13.9108 19.5626 13.7821C19.5355 13.6535 19.5341 13.5207 19.5583 13.3915C19.5826 13.2623 19.6321 13.1391 19.704 13.029C19.7759 12.919 19.8689 12.8242 19.9775 12.7501L28.435 6.96255C28.654 6.82703 28.9169 6.78126 29.1689 6.83479C29.4209 6.88833 29.6425 7.03703 29.7875 7.24991C29.9326 7.4628 29.9899 7.72344 29.9475 7.97753C29.9051 8.23161 29.7663 8.45954 29.56 8.6138L21.1012 14.4013C20.9355 14.5156 20.7388 14.5767 20.5375 14.5763C20.3756 14.5757 20.2163 14.5358 20.0732 14.46C19.9302 14.3842 19.8077 14.2749 19.7162 14.1413ZM29.825 24.7776C29.6751 24.9963 29.4445 25.1466 29.1838 25.1954C28.9231 25.2442 28.6538 25.1874 28.435 25.0376L17 17.2126L11.6862 20.8476C12.0916 21.8771 12.1035 23.02 11.7196 24.0578C11.3356 25.0956 10.5828 25.9555 9.60487 26.4733C8.62696 26.9911 7.49256 27.1304 6.41842 26.8646C5.34427 26.5989 4.4057 25.9467 3.78203 25.0327C3.15836 24.1186 2.89332 23.0069 3.03755 21.9098C3.18178 20.8127 3.72517 19.8072 4.56389 19.0854C5.40262 18.3637 6.47787 17.9762 7.5842 17.9971C8.69053 18.0181 9.75037 18.4459 10.5612 19.1988L15.2287 16.0001L10.555 12.8013C9.74686 13.5504 8.69116 13.9755 7.58946 13.9956C6.48776 14.0157 5.41726 13.6293 4.58237 12.9102C3.74749 12.1911 3.20673 11.1897 3.06335 10.0972C2.91996 9.00465 3.18401 7.8976 3.80506 6.98742C4.42611 6.07723 5.36065 5.42768 6.43023 5.16281C7.4998 4.89794 8.62946 5.03631 9.6035 5.55148C10.5775 6.06666 11.3277 6.92255 11.7107 7.95572C12.0937 8.98889 12.0828 10.1269 11.68 11.1526L29.555 23.3863C29.6643 23.4597 29.758 23.554 29.8308 23.6638C29.9035 23.7735 29.9539 23.8966 29.979 24.0258C30.0041 24.1551 30.0034 24.2881 29.9769 24.4171C29.9505 24.5461 29.8989 24.6686 29.825 24.7776ZM9.99997 22.5001C10.0001 21.9217 9.79966 21.3611 9.43282 20.9139C9.06598 20.4668 8.55544 20.1606 7.98818 20.0477C7.42092 19.9347 6.83205 20.0219 6.3219 20.2945C5.81175 20.567 5.41188 21.0081 5.19044 21.5424C4.96901 22.0767 4.93969 22.6713 5.10749 23.2248C5.27529 23.7783 5.62983 24.2565 6.1107 24.578C6.59156 24.8994 7.169 25.0441 7.74462 24.9875C8.32024 24.9309 8.85842 24.6765 9.26747 24.2676C9.50047 24.0361 9.68519 23.7607 9.81093 23.4572C9.93667 23.1538 10.0009 22.8285 9.99997 22.5001ZM9.26747 11.2663C9.61718 10.9167 9.85535 10.4712 9.95188 9.98627C10.0484 9.5013 9.99894 8.9986 9.80974 8.54174C9.62054 8.08488 9.30011 7.69439 8.88897 7.41965C8.47783 7.14491 7.99445 6.99827 7.49997 6.99827C7.00548 6.99827 6.5221 7.14491 6.11097 7.41965C5.69983 7.69439 5.3794 8.08488 5.1902 8.54174C5.001 8.9986 4.95154 9.5013 5.04806 9.98627C5.14459 10.4712 5.38276 10.9167 5.73247 11.2663C5.96333 11.5006 6.23849 11.6867 6.54192 11.8137C6.84536 11.9407 7.17102 12.0061 7.49997 12.0061C7.82892 12.0061 8.15458 11.9407 8.45801 11.8137C8.76145 11.6867 9.0366 11.5006 9.26747 11.2663Z" fill="#343330"/>
</g>
</svg>
