<svg width="32" height="32" viewBox="0 0 32 32" fill="none" xmlns="http://www.w3.org/2000/svg">
<g id="icon/star.of.david">
<path id="Vector" d="M25.1512 16.0001L28.8749 9.50011C28.9631 9.34743 29.0093 9.17416 29.0089 8.99786C29.0085 8.82155 28.9616 8.64849 28.8727 8.4962C28.7839 8.34391 28.6564 8.21782 28.5031 8.1307C28.3498 8.04358 28.1762 7.99852 27.9999 8.00011H20.5812L16.8749 1.50011C16.7875 1.34681 16.6611 1.21936 16.5086 1.13071C16.356 1.04206 16.1827 0.995361 16.0062 0.995361C15.8297 0.995361 15.6564 1.04206 15.5038 1.13071C15.3512 1.21936 15.2248 1.34681 15.1374 1.50011L11.4162 8.00011H3.99994C3.82417 7.99963 3.65138 8.04549 3.49898 8.13306C3.34659 8.22063 3.21996 8.34683 3.13187 8.49893C3.04378 8.65103 2.99733 8.82366 2.99721 8.99943C2.99709 9.1752 3.04331 9.34789 3.13119 9.50011L6.84619 16.0001L3.13119 22.5001C3.04303 22.6528 2.9968 22.8261 2.99719 23.0024C2.99759 23.1787 3.04458 23.3517 3.13341 23.504C3.22225 23.6563 3.34976 23.7824 3.50304 23.8695C3.65631 23.9566 3.82989 24.0017 4.00619 24.0001H11.4162L15.1312 30.5001C15.2186 30.6534 15.345 30.7809 15.4976 30.8695C15.6502 30.9582 15.8235 31.0049 15.9999 31.0049C16.1764 31.0049 16.3497 30.9582 16.5023 30.8695C16.6549 30.7809 16.7813 30.6534 16.8687 30.5001L20.5812 24.0001H27.9999C28.1762 24.0017 28.3498 23.9566 28.5031 23.8695C28.6564 23.7824 28.7839 23.6563 28.8727 23.504C28.9616 23.3517 29.0085 23.1787 29.0089 23.0024C29.0093 22.8261 28.9631 22.6528 28.8749 22.5001L25.1512 16.0001ZM26.2762 10.0001L23.9999 13.9851L21.7237 10.0001H26.2762ZM22.8487 16.0001L19.4212 22.0001H12.5774L9.14994 16.0001L12.5774 10.0001H19.4212L22.8487 16.0001ZM15.9999 4.01511L18.2774 8.00011H13.7212L15.9999 4.01511ZM5.72244 10.0001H10.2737L7.99994 13.9851L5.72244 10.0001ZM5.72244 21.9901L7.99994 18.0151L10.2737 22.0001L5.72244 21.9901ZM15.9999 27.9851L13.7212 24.0001H18.2774L15.9999 27.9851ZM21.7237 22.0001L23.9999 18.0151L26.2762 22.0001H21.7237Z" fill="#343330"/>
</g>
</svg>
