<svg width="32" height="32" viewBox="0 0 32 32" fill="none" xmlns="http://www.w3.org/2000/svg">
<g id="icon/bluetooth.slash">
<path id="Vector" d="M27.7402 26.3275L7.74024 4.3275C7.56094 4.1349 7.31296 4.02073 7.05005 4.00975C6.78714 3.99876 6.53049 4.09185 6.33575 4.26882C6.14102 4.44579 6.02388 4.69239 6.00975 4.95515C5.99561 5.21791 6.08561 5.47566 6.26024 5.6725L15.1152 15.4137L7.40024 21.2C7.29518 21.2788 7.20667 21.3775 7.13976 21.4905C7.07286 21.6035 7.02886 21.7286 7.01029 21.8586C6.97278 22.1211 7.04111 22.3878 7.20024 22.6C7.35937 22.8122 7.59627 22.9524 7.85882 22.99C8.12137 23.0275 8.38807 22.9591 8.60024 22.8L15.0002 18V28C15.0002 28.1857 15.052 28.3678 15.1496 28.5257C15.2472 28.6837 15.3869 28.8114 15.553 28.8944C15.7191 28.9775 15.9051 29.0126 16.09 28.996C16.275 28.9793 16.4517 28.9114 16.6002 28.8L22.954 24.035L26.2602 27.6725C26.3481 27.7715 26.4547 27.8521 26.5738 27.9096C26.693 27.9671 26.8224 28.0003 26.9546 28.0074C27.0867 28.0145 27.219 27.9953 27.3436 27.951C27.4683 27.9066 27.5829 27.8379 27.6809 27.7489C27.7788 27.6599 27.8581 27.5524 27.9141 27.4325C27.9702 27.3126 28.0019 27.1828 28.0074 27.0506C28.013 26.9184 27.9922 26.7864 27.9463 26.6623C27.9004 26.5381 27.8304 26.4244 27.7402 26.3275ZM17.0002 26V18L18.4665 19.1L21.6015 22.5487L17.0002 26ZM15.0002 8.95375V4C15.0002 3.81429 15.052 3.63225 15.1496 3.47427C15.2472 3.31629 15.3869 3.18863 15.553 3.10557C15.7191 3.02252 15.9051 2.98736 16.09 3.00404C16.275 3.02072 16.4517 3.08857 16.6002 3.2L24.6002 9.2C24.7244 9.29315 24.8252 9.41393 24.8947 9.55279C24.9641 9.69164 25.0002 9.84476 25.0002 10C25.0002 10.1552 24.9641 10.3084 24.8947 10.4472C24.8252 10.5861 24.7244 10.7069 24.6002 10.8L20.409 13.9438C20.1968 14.1029 19.9301 14.1712 19.6676 14.1337C19.405 14.0962 19.1681 13.9559 19.009 13.7437C18.8499 13.5316 18.7815 13.2649 18.819 13.0023C18.8565 12.7398 18.9968 12.5029 19.209 12.3438L22.334 10L17.0002 6V8.95375C17.0002 9.21897 16.8949 9.47332 16.7073 9.66086C16.5198 9.84839 16.2655 9.95375 16.0002 9.95375C15.735 9.95375 15.4807 9.84839 15.2931 9.66086C15.1056 9.47332 15.0002 9.21897 15.0002 8.95375Z" fill="#343330"/>
</g>
</svg>
