<svg width="32" height="32" viewBox="0 0 32 32" fill="none" xmlns="http://www.w3.org/2000/svg">
<g id="icon/phone.disconnect">
<path id="Vector" d="M28.9487 11.2663C21.93 4.25009 10.07 4.25009 3.05123 11.2663C0.551229 13.7663 0.311229 17.4526 2.46498 20.2301C2.65218 20.4701 2.89171 20.6642 3.1653 20.7977C3.43889 20.9311 3.73933 21.0003 4.04373 21.0001C4.28963 21.0002 4.53339 20.9544 4.76248 20.8651L10.8875 18.6938L10.9237 18.6801C11.2329 18.5564 11.5062 18.3576 11.7191 18.1015C11.9319 17.8455 12.0774 17.5404 12.1425 17.2138L12.88 13.5238C14.8908 12.8287 17.0761 12.8239 19.09 13.5101L19.8662 17.2288C19.9336 17.5518 20.0797 17.8531 20.2917 18.1059C20.5037 18.3586 20.7749 18.555 21.0812 18.6776L21.1175 18.6913L27.2425 20.8651C27.6426 21.0201 28.082 21.0423 28.4957 20.9284C28.9094 20.8145 29.2755 20.5705 29.54 20.2326C31.6887 17.4526 31.4475 13.7663 28.9487 11.2663ZM27.9587 19.0001L27.9212 18.9851L21.8187 16.8188L21.0425 13.1013C20.972 12.765 20.8161 12.4524 20.5897 12.1938C20.3633 11.9352 20.0741 11.7394 19.75 11.6251C17.3046 10.7879 14.6493 10.7936 12.2075 11.6413C11.8808 11.758 11.5902 11.9577 11.364 12.2207C11.1379 12.4836 10.984 12.8009 10.9175 13.1413L10.18 16.8301L4.07873 18.9826C4.06623 18.9826 4.05748 18.9988 4.04498 19.0038C2.50373 17.0151 2.66998 14.4751 4.46498 12.6813C7.58998 9.55634 11.7962 7.99009 16 7.99009C20.2037 7.99009 24.4087 9.55384 27.535 12.6813C29.3262 14.4751 29.5 17.0151 27.9587 19.0001ZM27.9987 25.0001C27.9987 25.2653 27.8934 25.5197 27.7058 25.7072C27.5183 25.8947 27.2639 26.0001 26.9987 26.0001H4.99998C4.73476 26.0001 4.48041 25.8947 4.29287 25.7072C4.10534 25.5197 3.99998 25.2653 3.99998 25.0001C3.99998 24.7349 4.10534 24.4805 4.29287 24.293C4.48041 24.1054 4.73476 24.0001 4.99998 24.0001H27C27.2652 24.0001 27.5196 24.1054 27.7071 24.293C27.8946 24.4805 28 24.7349 28 25.0001H27.9987Z" fill="#343330"/>
</g>
</svg>
