<svg width="32" height="32" viewBox="0 0 32 32" fill="none" xmlns="http://www.w3.org/2000/svg">
<g id="icon/intersect">
<path id="Vector" d="M21.8288 10.1712C21.4962 8.38012 20.6807 6.71388 19.4703 5.35242C18.2599 3.99097 16.7006 2.98602 14.9607 2.44609C13.2208 1.90615 11.3665 1.85175 9.59799 2.28875C7.82947 2.72575 6.21391 3.63755 4.92576 4.9257C3.63761 6.21385 2.72581 7.82941 2.28881 9.59793C1.85181 11.3665 1.90621 13.2208 2.44615 14.9606C2.98608 16.7005 3.99103 18.2598 5.35249 19.4702C6.71394 20.6806 8.38018 21.4962 10.1713 21.8287C10.5038 23.6198 11.3194 25.2861 12.5298 26.6475C13.7402 28.009 15.2995 29.0139 17.0394 29.5539C18.7792 30.0938 20.6335 30.1482 22.4021 29.7112C24.1706 29.2742 25.7862 28.3624 27.0743 27.0742C28.3625 25.7861 29.2743 24.1705 29.7113 22.402C30.1483 20.6335 30.0939 18.7792 29.5539 17.0393C29.014 15.2994 28.009 13.7401 26.6476 12.5297C25.2861 11.3193 23.6199 10.5038 21.8288 10.1712ZM12.5863 17L15 19.4137C14.0475 19.8017 13.0286 20.0008 12 20C11.9992 18.9714 12.1983 17.9525 12.5863 17ZM16.805 18.3912L13.6088 15.195C14.0612 14.595 14.5951 14.0612 15.195 13.6087L18.3913 16.805C17.9389 17.4049 17.405 17.9388 16.805 18.3912ZM19.4138 15L17 12.5862C17.9526 12.1982 18.9715 11.9991 20 12C20.0009 13.0285 19.8018 14.0474 19.4138 15ZM4.00003 12C3.9962 10.0501 4.70464 8.1659 5.99222 6.70158C7.27981 5.23725 9.05787 4.29359 10.9922 4.04796C12.9266 3.80232 14.8841 4.27162 16.4968 5.36766C18.1095 6.4637 19.2664 8.111 19.75 9.99997C17.186 10.0674 14.7457 11.1164 12.9326 12.9306C11.1195 14.7449 10.072 17.1859 10.0063 19.75C8.28838 19.3055 6.76659 18.3033 5.67959 16.9007C4.59259 15.4982 4.00186 13.7745 4.00003 12ZM20 28C18.2264 27.9985 16.5033 27.4087 15.1008 26.3229C13.6984 25.2371 12.6957 23.7167 12.25 22C14.8152 21.9342 17.2571 20.8858 19.0715 19.0714C20.8859 17.257 21.9342 14.8151 22 12.25C23.889 12.7336 25.5363 13.8905 26.6323 15.5032C27.7284 17.1159 28.1977 19.0734 27.9521 21.0078C27.7064 22.9421 26.7628 24.7202 25.2984 26.0078C23.8341 27.2954 21.9499 28.0038 20 28Z" fill="#343330"/>
</g>
</svg>
