<svg width="32" height="32" viewBox="0 0 32 32" fill="none" xmlns="http://www.w3.org/2000/svg">
<g id="icon/camera.slash">
<path id="Vector" d="M6.74 4.32746C6.65218 4.22847 6.54559 4.14789 6.4264 4.0904C6.30721 4.03291 6.1778 3.99964 6.04566 3.99253C5.91352 3.98542 5.78128 4.00461 5.65661 4.04899C5.53194 4.09336 5.41732 4.16204 5.31939 4.25104C5.22146 4.34003 5.14216 4.44759 5.0861 4.56746C5.03004 4.68732 4.99833 4.81713 4.99281 4.94934C4.98728 5.08156 5.00806 5.21356 5.05392 5.33769C5.09979 5.46181 5.16983 5.5756 5.26 5.67246L6.46625 6.99996H6C5.20435 6.99996 4.44129 7.31603 3.87868 7.87864C3.31607 8.44125 3 9.20431 3 9.99996V24C3 24.7956 3.31607 25.5587 3.87868 26.1213C4.44129 26.6839 5.20435 27 6 27H24.6488L25.26 27.6725C25.3478 27.7715 25.4544 27.852 25.5736 27.9095C25.6928 27.967 25.8222 28.0003 25.9543 28.0074C26.0865 28.0145 26.2187 27.9953 26.3434 27.9509C26.4681 27.9066 26.5827 27.8379 26.6806 27.7489C26.7785 27.6599 26.8578 27.5523 26.9139 27.4325C26.97 27.3126 27.0017 27.1828 27.0072 27.0506C27.0127 26.9184 26.9919 26.7864 26.9461 26.6622C26.9002 26.5381 26.8302 26.4243 26.74 26.3275L6.74 4.32746ZM13.1975 14.4037L17.8225 19.49C17.2741 19.8258 16.6431 20.0024 16 20C15.3504 19.9999 14.7137 19.8191 14.161 19.4777C13.6084 19.1364 13.1617 18.648 12.8708 18.0672C12.5799 17.4864 12.4564 16.8361 12.5141 16.1891C12.5718 15.5421 12.8085 14.9239 13.1975 14.4037ZM6 25C5.73478 25 5.48043 24.8946 5.29289 24.7071C5.10536 24.5195 5 24.2652 5 24V9.99996C5 9.73475 5.10536 9.48039 5.29289 9.29286C5.48043 9.10532 5.73478 8.99996 6 8.99996H8.285L11.8363 12.9075C11.1483 13.705 10.7038 14.6833 10.5556 15.7261C10.4074 16.7689 10.5617 17.8323 11.0002 18.7899C11.4388 19.7475 12.143 20.5591 13.0294 21.1282C13.9157 21.6972 14.9467 21.9998 16 22C17.1393 21.9975 18.25 21.643 19.18 20.985L22.83 25H6ZM29 9.99996V23.25C29 23.5152 28.8946 23.7695 28.7071 23.9571C28.5196 24.1446 28.2652 24.25 28 24.25C27.7348 24.25 27.4804 24.1446 27.2929 23.9571C27.1054 23.7695 27 23.5152 27 23.25V9.99996C27 9.73475 26.8946 9.48039 26.7071 9.29286C26.5196 9.10532 26.2652 8.99996 26 8.99996H22C21.8355 8.99986 21.6736 8.9592 21.5286 8.88158C21.3836 8.80396 21.26 8.69177 21.1688 8.55496L19.4638 5.99996H12.53C12.3688 6.19992 12.1368 6.33016 11.8821 6.36369C11.6274 6.39722 11.3696 6.33147 11.1621 6.18007C10.9546 6.02866 10.8133 5.80321 10.7676 5.55046C10.7218 5.2977 10.775 5.03702 10.9163 4.82246L11.1663 4.44746C11.2575 4.30984 11.3814 4.19694 11.5268 4.11886C11.6723 4.04077 11.8349 3.99992 12 3.99996H20C20.1647 3.99985 20.3268 4.04042 20.4721 4.11805C20.6173 4.19568 20.7411 4.30798 20.8325 4.44496L22.535 6.99996H26C26.7956 6.99996 27.5587 7.31603 28.1213 7.87864C28.6839 8.44125 29 9.20431 29 9.99996Z" fill="#343330"/>
</g>
</svg>
