<svg width="32" height="32" viewBox="0 0 32 32" fill="none" xmlns="http://www.w3.org/2000/svg">
<g id="icon/framer.logo">
<path id="Vector" d="M26 13V5C26 4.73479 25.8946 4.48043 25.7071 4.2929C25.5196 4.10536 25.2652 4 25 4H7C6.79668 3.99953 6.59805 4.06105 6.43058 4.17635C6.26312 4.29165 6.13478 4.45526 6.06268 4.64537C5.99057 4.83547 5.97813 5.04304 6.02701 5.24039C6.07588 5.43775 6.18376 5.61552 6.33625 5.75L13.375 12H7C6.73478 12 6.48043 12.1054 6.29289 12.2929C6.10535 12.4804 6 12.7348 6 13V21C5.99989 21.1314 6.02567 21.2615 6.07586 21.3829C6.12605 21.5042 6.19966 21.6146 6.2925 21.7075L15.2925 30.7075C15.4324 30.8475 15.6106 30.9429 15.8047 30.9815C15.9988 31.0202 16.2 31.0004 16.3828 30.9246C16.5656 30.8489 16.7218 30.7206 16.8317 30.556C16.9416 30.3914 17.0002 30.1979 17 30V22H25C25.2033 22.0005 25.4019 21.939 25.5694 21.8237C25.7369 21.7084 25.8652 21.5447 25.9373 21.3546C26.0094 21.1645 26.0219 20.957 25.973 20.7596C25.9241 20.5623 25.8162 20.3845 25.6637 20.25L18.625 14H25C25.2652 14 25.5196 13.8946 25.7071 13.7071C25.8946 13.5196 26 13.2652 26 13ZM22.375 20H16C15.7348 20 15.4804 20.1054 15.2929 20.2929C15.1054 20.4804 15 20.7348 15 21V27.5863L8 20.5863V14H15.625L22.375 20ZM24 12H16.375L9.625 6H24V12Z" fill="#343330"/>
</g>
</svg>
