<svg width="32" height="32" viewBox="0 0 32 32" fill="none" xmlns="http://www.w3.org/2000/svg">
<g id="icon/alarm">
<path id="Vector" d="M16.0001 4.99995C13.6267 4.99995 11.3066 5.70373 9.33323 7.02231C7.35984 8.34089 5.82176 10.215 4.91351 12.4077C4.00526 14.6005 3.76762 17.0133 4.23064 19.341C4.69367 21.6688 5.83656 23.807 7.51479 25.4852C9.19302 27.1635 11.3312 28.3063 13.659 28.7694C15.9868 29.2324 18.3996 28.9947 20.5923 28.0865C22.785 27.1782 24.6591 25.6402 25.9777 23.6668C27.2963 21.6934 28.0001 19.3733 28.0001 16.9999C27.9964 13.8185 26.731 10.7683 24.4813 8.51868C22.2317 6.26904 19.1815 5.00358 16.0001 4.99995ZM16.0001 26.9999C14.0223 26.9999 12.0889 26.4135 10.4444 25.3146C8.79987 24.2158 7.51815 22.654 6.76127 20.8268C6.0044 18.9995 5.80636 16.9889 6.19221 15.049C6.57807 13.1092 7.53047 11.3274 8.929 9.92888C10.3275 8.53035 12.1094 7.57795 14.0492 7.19209C15.989 6.80624 17.9996 7.00427 19.8269 7.76115C21.6542 8.51803 23.216 9.79975 24.3148 11.4442C25.4136 13.0887 26.0001 15.0221 26.0001 16.9999C25.9971 19.6512 24.9426 22.193 23.0678 24.0677C21.1931 25.9424 18.6513 26.997 16.0001 26.9999ZM7.70757 4.70745L3.70757 8.70745C3.51993 8.89509 3.26543 9.0005 3.00007 9.0005C2.7347 9.0005 2.48021 8.89509 2.29257 8.70745C2.10493 8.51981 1.99951 8.26531 1.99951 7.99995C1.99951 7.73458 2.10493 7.48009 2.29257 7.29245L6.29257 3.29245C6.48021 3.1048 6.7347 2.99939 7.00007 2.99939C7.26543 2.99939 7.51993 3.1048 7.70757 3.29245C7.89521 3.48009 8.00062 3.73458 8.00062 3.99995C8.00062 4.26531 7.89521 4.5198 7.70757 4.70745ZM29.7076 8.70745C29.6147 8.80042 29.5044 8.87418 29.383 8.92451C29.2616 8.97483 29.1315 9.00073 29.0001 9.00073C28.8687 9.00073 28.7385 8.97483 28.6171 8.92451C28.4957 8.87418 28.3854 8.80042 28.2926 8.70745L24.2926 4.70745C24.1049 4.5198 23.9995 4.26531 23.9995 3.99995C23.9995 3.73458 24.1049 3.48009 24.2926 3.29245C24.4802 3.1048 24.7347 2.99939 25.0001 2.99939C25.2654 2.99939 25.5199 3.10481 25.7076 3.29245L29.7076 7.29245C29.8005 7.38532 29.8743 7.49561 29.9246 7.61701C29.975 7.7384 30.0009 7.86853 30.0009 7.99995C30.0009 8.13136 29.975 8.26149 29.9246 8.38289C29.8743 8.50428 29.8005 8.61457 29.7076 8.70745ZM23.0001 15.9999C23.2653 15.9999 23.5196 16.1053 23.7072 16.2928C23.8947 16.4804 24.0001 16.7347 24.0001 16.9999C24.0001 17.2652 23.8947 17.5195 23.7072 17.7071C23.5196 17.8946 23.2653 17.9999 23.0001 17.9999H16.0001C15.7349 17.9999 15.4805 17.8946 15.293 17.7071C15.1054 17.5195 15.0001 17.2652 15.0001 16.9999V9.99995C15.0001 9.73473 15.1054 9.48038 15.293 9.29284C15.4805 9.1053 15.7349 8.99995 16.0001 8.99995C16.2653 8.99995 16.5196 9.1053 16.7072 9.29284C16.8947 9.48038 17.0001 9.73473 17.0001 9.99995V15.9999H23.0001Z" fill="#343330"/>
</g>
</svg>
