<svg width="32" height="32" viewBox="0 0 32 32" fill="none" xmlns="http://www.w3.org/2000/svg">
<g id="icon/device.rotate">
<path id="Vector" d="M25.7073 27.7075L22.7073 30.7075C22.5197 30.8951 22.2652 31.0006 21.9998 31.0006C21.7344 31.0006 21.4799 30.8951 21.2923 30.7075C21.1047 30.5199 20.9993 30.2654 20.9993 30C20.9993 29.7346 21.1047 29.4801 21.2923 29.2925L22.5861 28H9.99981C9.20416 28 8.4411 27.6839 7.87849 27.1213C7.31588 26.5587 6.99981 25.7957 6.99981 25V13C6.99981 12.7348 7.10517 12.4804 7.2927 12.2929C7.48024 12.1054 7.73459 12 7.99981 12C8.26503 12 8.51938 12.1054 8.70692 12.2929C8.89445 12.4804 8.99981 12.7348 8.99981 13V25C8.99981 25.2652 9.10517 25.5196 9.2927 25.7071C9.48024 25.8947 9.73459 26 9.99981 26H22.5861L21.2923 24.7075C21.1047 24.5199 20.9993 24.2654 20.9993 24C20.9993 23.7346 21.1047 23.4801 21.2923 23.2925C21.4799 23.1049 21.7344 22.9995 21.9998 22.9995C22.2652 22.9995 22.5197 23.1049 22.7073 23.2925L25.7073 26.2925C25.8003 26.3854 25.874 26.4957 25.9244 26.6171C25.9747 26.7385 26.0006 26.8686 26.0006 27C26.0006 27.1314 25.9747 27.2615 25.9244 27.3829C25.874 27.5043 25.8003 27.6146 25.7073 27.7075ZM9.99981 9.00001C10.1977 9.00016 10.3912 8.9416 10.5558 8.83173C10.7204 8.72186 10.8487 8.56562 10.9244 8.3828C11.0002 8.19997 11.02 7.99878 10.9813 7.8047C10.9427 7.61062 10.8473 7.43236 10.7073 7.29251L9.41356 6.00001H21.9998C22.265 6.00001 22.5194 6.10536 22.7069 6.2929C22.8945 6.48044 22.9998 6.73479 22.9998 7.00001V19C22.9998 19.2652 23.1052 19.5196 23.2927 19.7071C23.4802 19.8947 23.7346 20 23.9998 20C24.265 20 24.5194 19.8947 24.7069 19.7071C24.8945 19.5196 24.9998 19.2652 24.9998 19V7.00001C24.9998 6.20436 24.6837 5.4413 24.1211 4.87869C23.5585 4.31608 22.7955 4.00001 21.9998 4.00001H9.41356L10.7073 2.70751C10.895 2.51987 11.0004 2.26537 11.0004 2.00001C11.0004 1.73464 10.895 1.48015 10.7073 1.29251C10.5197 1.10487 10.2652 0.999451 9.99981 0.999451C9.73445 0.999451 9.47995 1.10487 9.29231 1.29251L6.29231 4.29251C6.19933 4.38538 6.12557 4.49567 6.07525 4.61707C6.02493 4.73846 5.99902 4.86859 5.99902 5.00001C5.99902 5.13142 6.02493 5.26155 6.07525 5.38295C6.12557 5.50434 6.19933 5.61463 6.29231 5.70751L9.29231 8.70751C9.38525 8.80034 9.49557 8.87395 9.61696 8.92414C9.73836 8.97433 9.86845 9.00011 9.99981 9.00001Z" fill="#343330"/>
</g>
</svg>
