<svg width="32" height="32" viewBox="0 0 32 32" fill="none" xmlns="http://www.w3.org/2000/svg">
<g id="icon/person.simple.swim">
<path id="Vector" d="M21.9999 13C22.791 13 23.5644 12.7654 24.2222 12.3259C24.88 11.8864 25.3927 11.2616 25.6954 10.5307C25.9982 9.79983 26.0774 8.99556 25.923 8.21964C25.7687 7.44372 25.3877 6.73098 24.8283 6.17157C24.2689 5.61216 23.5562 5.2312 22.7802 5.07686C22.0043 4.92252 21.2001 5.00173 20.4692 5.30448C19.7382 5.60723 19.1135 6.11992 18.674 6.77772C18.2345 7.43552 17.9999 8.20888 17.9999 9C17.9999 10.0609 18.4213 11.0783 19.1715 11.8284C19.9216 12.5786 20.939 13 21.9999 13ZM21.9999 7C22.3954 7 22.7821 7.1173 23.111 7.33706C23.4399 7.55683 23.6963 7.86918 23.8476 8.23464C23.999 8.60009 24.0386 9.00222 23.9615 9.39018C23.8843 9.77814 23.6938 10.1345 23.4141 10.4142C23.1344 10.6939 22.778 10.8844 22.3901 10.9616C22.0021 11.0387 21.6 10.9991 21.2345 10.8478C20.8691 10.6964 20.5567 10.44 20.3369 10.1111C20.1172 9.78224 19.9999 9.39556 19.9999 9C19.9999 8.46957 20.2106 7.96086 20.5857 7.58579C20.9607 7.21072 21.4694 7 21.9999 7ZM27.7699 23.155C27.9397 23.3583 28.022 23.6207 27.9985 23.8846C27.9751 24.1485 27.8479 24.3923 27.6449 24.5625C25.4749 26.3613 23.5374 27 21.7699 27C19.4474 27 17.4174 25.8975 15.5286 24.875C12.3599 23.155 9.62363 21.6688 5.64488 24.9675C5.544 25.0526 5.42727 25.1169 5.30143 25.1566C5.17558 25.1964 5.04311 25.2109 4.91165 25.1992C4.78019 25.1875 4.65235 25.1499 4.53548 25.0886C4.41862 25.0273 4.31505 24.9434 4.23075 24.8419C4.14645 24.7403 4.08308 24.6231 4.0443 24.4969C4.00551 24.3708 3.99209 24.2382 4.00479 24.1069C4.01749 23.9755 4.05607 23.8479 4.1183 23.7316C4.18053 23.6152 4.26519 23.5123 4.36738 23.4288C9.38863 19.2675 13.1574 21.3125 16.4836 23.1175C19.6524 24.8388 22.3886 26.3238 26.3674 23.025C26.571 22.8573 26.8327 22.7768 27.0954 22.8012C27.3581 22.8255 27.6005 22.9527 27.7699 23.155ZM4.36113 18.4275C4.25894 18.511 4.17428 18.6139 4.11205 18.7303C4.04982 18.8467 4.01124 18.9742 3.99854 19.1056C3.98584 19.237 3.99926 19.3695 4.03805 19.4957C4.07683 19.6218 4.1402 19.7391 4.2245 19.8406C4.3088 19.9422 4.41237 20.026 4.52923 20.0873C4.6461 20.1487 4.77394 20.1862 4.9054 20.1979C5.03686 20.2096 5.16933 20.1951 5.29518 20.1554C5.42102 20.1156 5.53775 20.0513 5.63863 19.9663C9.61738 16.6688 12.3536 18.1538 15.5224 19.8738C17.4111 20.8988 19.4411 21.9988 21.7636 21.9988C23.5311 21.9988 25.4686 21.36 27.6386 19.5613C27.7408 19.4777 27.8255 19.3748 27.8877 19.2584C27.9499 19.1421 27.9885 19.0145 28.0012 18.8831C28.0139 18.7518 28.0005 18.6192 27.9617 18.4931C27.9229 18.3669 27.8596 18.2497 27.7753 18.1481C27.691 18.0466 27.5874 17.9627 27.4705 17.9014C27.3537 17.8401 27.2258 17.8025 27.0944 17.7908C26.9629 17.7792 26.8304 17.7936 26.7046 17.8334C26.5787 17.8731 26.462 17.9374 26.3611 18.0225C25.6382 18.6433 24.8257 19.1516 23.9511 19.53L17.2211 12.8025C16.0164 11.5927 14.5838 10.6338 13.0062 9.9811C11.4286 9.32842 9.73719 8.99496 8.02988 9H4.99988C4.73467 9 4.48031 9.10536 4.29278 9.2929C4.10524 9.48043 3.99988 9.73479 3.99988 10C3.99988 10.2652 4.10524 10.5196 4.29278 10.7071C4.48031 10.8946 4.73467 11 4.99988 11H8.02988C9.85766 10.9965 11.6573 11.4503 13.2649 12.32L9.56113 16.0213C7.97738 16.1688 6.25863 16.855 4.36113 18.4275ZM15.8074 14.2188L21.5736 19.9838C19.8236 19.93 18.2136 19.06 16.4774 18.1175C15.1336 17.3875 13.7161 16.6175 12.1749 16.2363L14.9574 13.4538C15.2539 13.6937 15.5376 13.949 15.8074 14.2188Z" fill="#343330"/>
</g>
</svg>
