<svg width="32" height="32" viewBox="0 0 32 32" fill="none" xmlns="http://www.w3.org/2000/svg">
<g id="icon/seatbelt">
<path id="Vector" d="M21.5 8.5C21.5 7.41221 21.1774 6.34884 20.5731 5.44437C19.9687 4.5399 19.1097 3.83495 18.1048 3.41867C17.0998 3.00238 15.9939 2.89346 14.927 3.10568C13.8601 3.3179 12.8801 3.84173 12.1109 4.61092C11.3417 5.3801 10.8179 6.36011 10.6057 7.42701C10.3935 8.4939 10.5024 9.59977 10.9187 10.6048C11.3349 11.6098 12.0399 12.4687 12.9444 13.0731C13.8488 13.6774 14.9122 14 16 14C17.4582 13.9983 18.8562 13.4184 19.8873 12.3873C20.9183 11.3562 21.4983 9.95819 21.5 8.5ZM16 12C15.3078 12 14.6311 11.7947 14.0555 11.4101C13.4799 11.0256 13.0313 10.4789 12.7664 9.83939C12.5015 9.19985 12.4322 8.49612 12.5672 7.81719C12.7023 7.13825 13.0356 6.51461 13.5251 6.02513C14.0146 5.53565 14.6382 5.2023 15.3172 5.06725C15.9961 4.93221 16.6998 5.00152 17.3394 5.26642C17.9789 5.53133 18.5256 5.97993 18.9101 6.55551C19.2947 7.13108 19.5 7.80777 19.5 8.5C19.5 9.42826 19.1312 10.3185 18.4749 10.9749C17.8185 11.6313 16.9283 12 16 12ZM26 28C26 28.2652 25.8946 28.5196 25.7071 28.7071C25.5196 28.8946 25.2652 29 25 29H7C6.79689 29 6.59861 28.9381 6.43154 28.8226C6.26447 28.7071 6.13653 28.5435 6.06474 28.3535C5.99295 28.1635 5.98071 27.9561 6.02966 27.759C6.07861 27.5619 6.18642 27.3843 6.33875 27.25L18.5975 16.4325C17.4948 16.0532 16.3226 15.9196 15.1629 16.041C14.0031 16.1623 12.8839 16.5357 11.8837 17.135C10.8834 17.7344 10.0263 18.5451 9.37225 19.5105C8.71823 20.4759 8.28316 21.5726 8.0975 22.7238C8.04499 22.9756 7.89744 23.1975 7.68552 23.3434C7.4736 23.4893 7.21362 23.5478 6.95963 23.507C6.70563 23.4661 6.47716 23.3289 6.32172 23.1239C6.16628 22.9189 6.09582 22.6619 6.125 22.4063C6.37192 20.8755 6.97143 19.4231 7.87614 18.1639C8.78086 16.9047 9.96601 15.8731 11.3379 15.1506C12.7099 14.4282 14.231 14.0346 15.7812 14.0011C17.3314 13.9676 18.8681 14.295 20.27 14.9575L23.3387 12.25C23.5383 12.0795 23.797 11.9944 24.0588 12.0129C24.3206 12.0315 24.5647 12.1522 24.7383 12.3491C24.9119 12.546 25.0011 12.8032 24.9867 13.0653C24.9723 13.3274 24.8554 13.5733 24.6612 13.75L9.645 27H25C25.2652 27 25.5196 27.1054 25.7071 27.2929C25.8946 27.4804 26 27.7348 26 28ZM24.2162 18.2975C25.381 19.9707 26.0037 21.9613 26 24C26 24.2652 25.8946 24.5196 25.7071 24.7071C25.5196 24.8946 25.2652 25 25 25C24.7348 25 24.4804 24.8946 24.2929 24.7071C24.1054 24.5196 24 24.2652 24 24C24.0031 22.3694 23.5052 20.7772 22.5737 19.4388C22.4224 19.2209 22.3638 18.9519 22.4108 18.6909C22.4578 18.4299 22.6066 18.1982 22.8244 18.0469C23.0422 17.8955 23.3112 17.8369 23.5722 17.8839C23.8332 17.9309 24.0649 18.0797 24.2162 18.2975Z" fill="#343330"/>
</g>
</svg>
