<svg width="32" height="32" viewBox="0 0 32 32" fill="none" xmlns="http://www.w3.org/2000/svg">
<g id="icon/push.pin.simple.slash">
<path id="Vector" d="M10.4062 4.99996C10.4062 4.73475 10.5116 4.48039 10.6991 4.29286C10.8867 4.10532 11.141 3.99996 11.4062 3.99996H24C24.2652 3.99996 24.5196 4.10532 24.7071 4.29286C24.8946 4.48039 25 4.73475 25 4.99996C25 5.26518 24.8946 5.51953 24.7071 5.70707C24.5196 5.8946 24.2652 5.99996 24 5.99996H23.1925L25.5362 19.2875C25.582 19.5483 25.5225 19.8167 25.3706 20.0337C25.2188 20.2507 24.987 20.3986 24.7262 20.445C24.6686 20.4558 24.61 20.4613 24.5513 20.4612C24.3163 20.461 24.089 20.378 23.9091 20.227C23.7293 20.0759 23.6083 19.8663 23.5675 19.635L21.1612 5.99996H11.4113C11.2795 6.00062 11.1489 5.97524 11.027 5.92528C10.9051 5.87532 10.7943 5.80177 10.7009 5.70884C10.6075 5.61592 10.5334 5.50546 10.4828 5.3838C10.4323 5.26215 10.4062 5.13171 10.4062 4.99996ZM26.6725 27.74C26.4762 27.9183 26.2172 28.0114 25.9523 27.9987C25.6874 27.9861 25.4384 27.8687 25.26 27.6725L21.0125 23H17V30C17 30.2652 16.8946 30.5195 16.7071 30.7071C16.5196 30.8946 16.2652 31 16 31C15.7348 31 15.4804 30.8946 15.2929 30.7071C15.1054 30.5195 15 30.2652 15 30V23H5C4.73478 23 4.48043 22.8946 4.29289 22.7071C4.10536 22.5195 4 22.2652 4 22C4 21.7347 4.10536 21.4804 4.29289 21.2929C4.48043 21.1053 4.73478 21 5 21H6.16125L8.28 8.99996L5.26 5.67246C5.16983 5.5756 5.09979 5.46181 5.05392 5.33769C5.00806 5.21356 4.98728 5.08156 4.99281 4.94934C4.99833 4.81713 5.03004 4.68732 5.0861 4.56746C5.14216 4.44759 5.22146 4.34003 5.31939 4.25104C5.41732 4.16204 5.53194 4.09336 5.65661 4.04899C5.78128 4.00461 5.91352 3.98542 6.04566 3.99253C6.1778 3.99964 6.30721 4.03291 6.4264 4.0904C6.54559 4.14789 6.65218 4.22847 6.74 4.32746L26.74 26.3275C26.9183 26.5237 27.0114 26.7828 26.9988 27.0477C26.9861 27.3126 26.8687 27.5616 26.6725 27.74ZM19.1938 21L9.98 10.865L8.1925 21H19.1938Z" fill="#343330"/>
</g>
</svg>
