<svg width="32" height="32" viewBox="0 0 32 32" fill="none" xmlns="http://www.w3.org/2000/svg">
<g id="icon/triangle">
<path id="Vector" d="M29.6 23.5112L18.6687 4.52746C18.3956 4.06237 18.0056 3.67673 17.5375 3.40879C17.0694 3.14084 16.5394 2.99988 16 2.99988C15.4606 2.99988 14.9306 3.14084 14.4625 3.40879C13.9944 3.67673 13.6044 4.06237 13.3312 4.52746L2.4 23.5112C2.13717 23.9611 1.99866 24.4727 1.99866 24.9937C1.99866 25.5147 2.13717 26.0264 2.4 26.4762C2.66956 26.9442 3.05884 27.332 3.52785 27.5998C3.99686 27.8676 4.5287 28.0057 5.06875 28H26.9312C27.4709 28.0053 28.0022 27.8669 28.4707 27.5992C28.9393 27.3314 29.3281 26.9438 29.5975 26.4762C29.8607 26.0266 29.9997 25.5151 30.0001 24.994C30.0005 24.473 29.8624 23.9613 29.6 23.5112ZM27.8662 25.475C27.771 25.6375 27.6341 25.7718 27.4698 25.8641C27.3055 25.9563 27.1197 26.0032 26.9312 26H5.06875C4.88034 26.0032 4.69446 25.9563 4.53016 25.8641C4.36586 25.7718 4.22904 25.6375 4.13375 25.475C4.04743 25.3288 4.00189 25.1622 4.00189 24.9925C4.00189 24.8227 4.04743 24.6561 4.13375 24.51L15.065 5.52621C15.1622 5.36443 15.2997 5.23055 15.4639 5.13761C15.6282 5.04467 15.8138 4.99583 16.0025 4.99583C16.1912 4.99583 16.3768 5.04467 16.5411 5.13761C16.7053 5.23055 16.8428 5.36443 16.94 5.52621L27.8712 24.51C27.9568 24.6566 28.0015 24.8234 28.0006 24.9931C27.9997 25.1629 27.9533 25.3293 27.8662 25.475Z" fill="#343330"/>
</g>
</svg>
