<svg width="32" height="32" viewBox="0 0 32 32" fill="none" xmlns="http://www.w3.org/2000/svg">
<g id="icon/solar.panel">
<path id="Vector" d="M3.99999 13C3.99999 12.7348 4.10535 12.4804 4.29289 12.2929C4.48042 12.1054 4.73478 12 4.99999 12H6.99999C7.26521 12 7.51956 12.1054 7.7071 12.2929C7.89464 12.4804 7.99999 12.7348 7.99999 13C7.99999 13.2652 7.89464 13.5196 7.7071 13.7071C7.51956 13.8946 7.26521 14 6.99999 14H4.99999C4.73478 14 4.48042 13.8946 4.29289 13.7071C4.10535 13.5196 3.99999 13.2652 3.99999 13ZM8.92874 7.34375C9.11638 7.53139 9.37088 7.63681 9.63624 7.63681C9.90161 7.63681 10.1561 7.53139 10.3437 7.34375C10.5314 7.15611 10.6368 6.90161 10.6368 6.63625C10.6368 6.37089 10.5314 6.11639 10.3437 5.92875L8.92874 4.515C8.73968 4.33538 8.48793 4.23672 8.22717 4.24006C7.96641 4.2434 7.71727 4.34847 7.53287 4.53287C7.34846 4.71727 7.24339 4.96641 7.24005 5.22718C7.23672 5.48794 7.33537 5.73969 7.51499 5.92875L8.92874 7.34375ZM16 5C16.2652 5 16.5196 4.89464 16.7071 4.70711C16.8946 4.51957 17 4.26522 17 4V2C17 1.73478 16.8946 1.48043 16.7071 1.29289C16.5196 1.10536 16.2652 1 16 1C15.7348 1 15.4804 1.10536 15.2929 1.29289C15.1054 1.48043 15 1.73478 15 2V4C15 4.26522 15.1054 4.51957 15.2929 4.70711C15.4804 4.89464 15.7348 5 16 5ZM22.3637 7.63625C22.4951 7.63635 22.6252 7.61057 22.7466 7.56039C22.868 7.5102 22.9783 7.43658 23.0712 7.34375L24.485 5.92875C24.6646 5.73969 24.7633 5.48794 24.7599 5.22718C24.7566 4.96641 24.6515 4.71727 24.4671 4.53287C24.2827 4.34847 24.0336 4.2434 23.7728 4.24006C23.5121 4.23672 23.2603 4.33538 23.0712 4.515L21.6562 5.92875C21.5162 6.06861 21.4209 6.24686 21.3822 6.44094C21.3436 6.63503 21.3634 6.83622 21.4391 7.01904C21.5149 7.20186 21.6432 7.3581 21.8078 7.46797C21.9724 7.57784 22.1658 7.63641 22.3637 7.63625ZM24 13C24 13.2652 24.1054 13.5196 24.2929 13.7071C24.4804 13.8946 24.7348 14 25 14H27C27.2652 14 27.5196 13.8946 27.7071 13.7071C27.8946 13.5196 28 13.2652 28 13C28 12.7348 27.8946 12.4804 27.7071 12.2929C27.5196 12.1054 27.2652 12 27 12H25C24.7348 12 24.4804 12.1054 24.2929 12.2929C24.1054 12.4804 24 12.7348 24 13ZM11 14C11.2652 14 11.5196 13.8946 11.7071 13.7071C11.8946 13.5196 12 13.2652 12 13C12 11.9391 12.4214 10.9217 13.1716 10.1716C13.9217 9.42143 14.9391 9 16 9C17.0609 9 18.0783 9.42143 18.8284 10.1716C19.5786 10.9217 20 11.9391 20 13C20 13.2652 20.1054 13.5196 20.2929 13.7071C20.4804 13.8946 20.7348 14 21 14C21.2652 14 21.5196 13.8946 21.7071 13.7071C21.8946 13.5196 22 13.2652 22 13C22 11.4087 21.3679 9.88258 20.2426 8.75736C19.1174 7.63214 17.5913 7 16 7C14.4087 7 12.8826 7.63214 11.7574 8.75736C10.6321 9.88258 9.99999 11.4087 9.99999 13C9.99999 13.2652 10.1054 13.5196 10.2929 13.7071C10.4804 13.8946 10.7348 14 11 14ZM29.8637 27.5C29.7762 27.6517 29.6503 27.7777 29.4987 27.8655C29.3471 27.9532 29.1751 27.9996 29 28H2.99999C2.82479 28.0008 2.65245 27.9556 2.50022 27.8689C2.348 27.7821 2.22123 27.6569 2.13262 27.5058C2.04401 27.3546 1.99667 27.1829 1.99533 27.0077C1.99399 26.8325 2.0387 26.66 2.12499 26.5075L7.21124 17.5075C7.29881 17.3528 7.42604 17.2242 7.57984 17.135C7.73365 17.0458 7.90845 16.9992 8.08624 17H23.9125C24.0903 16.9992 24.2651 17.0458 24.4189 17.135C24.5727 17.2242 24.6999 17.3528 24.7875 17.5075L29.8737 26.5075C29.9586 26.6595 30.0023 26.831 30.0006 27.0051C29.9988 27.1791 29.9517 27.3497 29.8637 27.5ZM23.33 19H20.2837L20.7187 21H24.46L23.33 19ZM18.6725 21L18.2375 19H13.7625L13.3275 21H18.6725ZM12.8925 23L12.2412 26H19.7587L19.1075 23H12.8925ZM7.53999 21H11.2812L11.7162 19H8.66999L7.53999 21ZM4.71374 26H10.1937L10.8462 23H6.40999L4.71374 26ZM27.2862 26L25.59 23H21.1537L21.8062 26H27.2862Z" fill="#343330"/>
</g>
</svg>
