<svg width="32" height="32" viewBox="0 0 32 32" fill="none" xmlns="http://www.w3.org/2000/svg">
<g id="icon/shooting.star">
<path id="Vector" d="M29.9188 8.76012C29.8169 8.44226 29.6225 8.16205 29.3604 7.95538C29.0983 7.74872 28.7804 7.62502 28.4476 7.60012L23.8301 7.23512L22.0538 3.02762C21.9241 2.72293 21.7076 2.46311 21.4314 2.28048C21.1551 2.09786 20.8312 2.00049 20.5001 2.00049C20.1689 2.00049 19.845 2.09786 19.5688 2.28048C19.2925 2.46311 19.0761 2.72293 18.9463 3.02762L17.1701 7.23512L12.5526 7.60012C12.221 7.62455 11.9042 7.74718 11.6426 7.95237C11.381 8.15756 11.1864 8.43602 11.0837 8.75223C10.981 9.06844 10.9748 9.40808 11.0658 9.72784C11.1569 10.0476 11.3411 10.333 11.5951 10.5476L15.1026 13.5076L14.0326 17.9314C13.9547 18.2517 13.9738 18.588 14.0873 18.8976C14.2008 19.2071 14.4036 19.476 14.6701 19.6701C14.939 19.8684 15.2607 19.9824 15.5945 19.9977C15.9282 20.0131 16.2591 19.9291 16.5451 19.7564L20.5001 17.3751L24.4563 19.7576C24.7425 19.9299 25.0732 20.0136 25.4069 19.9982C25.7405 19.9829 26.0622 19.8692 26.3313 19.6714C26.5973 19.4768 26.7997 19.2079 26.9129 18.8984C27.0262 18.589 27.0452 18.2529 26.9676 17.9326L25.8976 13.5089L29.4051 10.5489C29.6591 10.3358 29.8437 10.0517 29.9352 9.73298C30.0267 9.4143 30.021 9.07554 29.9188 8.76012ZM24.1351 12.3751C23.9932 12.495 23.8875 12.6521 23.8298 12.8288C23.7722 13.0054 23.7649 13.1946 23.8088 13.3751L24.8438 17.6514L21.0163 15.3501C20.8606 15.2564 20.6824 15.2069 20.5007 15.2069C20.319 15.2069 20.1407 15.2564 19.9851 15.3501L16.1576 17.6539L17.1926 13.3751C17.2363 13.1945 17.2288 13.0052 17.171 12.8286C17.1131 12.6519 17.0072 12.4949 16.8651 12.3751L13.5001 9.53262L17.9401 9.18137C18.1228 9.16687 18.298 9.10242 18.4466 8.99506C18.5952 8.8877 18.7114 8.74156 18.7826 8.57262L20.5001 4.48887L22.2238 8.57262C22.295 8.74156 22.4112 8.8877 22.5598 8.99506C22.7083 9.10242 22.8836 9.16687 23.0663 9.18137L27.5076 9.53262L24.1351 12.3751ZM11.0101 15.3976L3.70757 22.7076C3.51993 22.8953 3.26543 23.0007 3.00007 23.0007C2.7347 23.0007 2.48021 22.8953 2.29257 22.7076C2.10493 22.52 1.99951 22.2655 1.99951 22.0001C1.99951 21.7348 2.10493 21.4803 2.29257 21.2926L9.59882 13.9864C9.78646 13.7987 10.041 13.6933 10.3063 13.6933C10.5717 13.6933 10.8262 13.7987 11.0138 13.9864C11.2015 14.174 11.3069 14.4285 11.3069 14.6939C11.3069 14.9592 11.2015 15.2137 11.0138 15.4014L11.0101 15.3976ZM12.3613 21.6314C12.5487 21.8189 12.654 22.0731 12.654 22.3382C12.654 22.6033 12.5487 22.8576 12.3613 23.0451L5.70757 29.7076C5.61466 29.8005 5.50436 29.8742 5.38296 29.9245C5.26157 29.9748 5.13146 30.0007 5.00007 30.0007C4.86867 30.0007 4.73856 29.9748 4.61717 29.9245C4.49578 29.8742 4.38548 29.8005 4.29257 29.7076C4.19966 29.6147 4.12596 29.5044 4.07567 29.383C4.02539 29.2616 3.99951 29.1315 3.99951 29.0001C3.99951 28.8687 4.02539 28.7386 4.07567 28.6172C4.12596 28.4958 4.19966 28.3855 4.29257 28.2926L10.9513 21.6351C11.1388 21.4477 11.3931 21.3425 11.6582 21.3425C11.9233 21.3425 12.1776 21.4477 12.3651 21.6351L12.3613 21.6314ZM21.4863 21.5064C21.5793 21.5992 21.6531 21.7095 21.7034 21.8309C21.7537 21.9523 21.7796 22.0825 21.7796 22.2139C21.7796 22.3453 21.7537 22.4754 21.7034 22.5968C21.6531 22.7182 21.5793 22.8285 21.4863 22.9214L14.7013 29.7064C14.5137 29.894 14.2592 29.9994 13.9938 29.9994C13.7285 29.9994 13.474 29.894 13.2863 29.7064C13.0987 29.5187 12.9933 29.2642 12.9933 28.9989C12.9933 28.7335 13.0987 28.479 13.2863 28.2914L20.0726 21.5064C20.1656 21.4127 20.2763 21.3384 20.3982 21.2878C20.5201 21.2371 20.6508 21.2111 20.7828 21.2112C20.9148 21.2113 21.0455 21.2376 21.1673 21.2884C21.2892 21.3393 21.3997 21.4138 21.4926 21.5076L21.4863 21.5064Z" fill="#343330"/>
</g>
</svg>
