<svg width="32" height="32" viewBox="0 0 32 32" fill="none" xmlns="http://www.w3.org/2000/svg">
<g id="icon/pix.logo">
<path id="Vector" d="M29.4174 14.5899L17.4099 2.58244C17.0352 2.20994 16.5283 2.00085 15.9999 2.00085C15.4716 2.00085 14.9647 2.20994 14.5899 2.58244L2.58244 14.5899C2.20994 14.9647 2.00085 15.4716 2.00085 15.9999C2.00085 16.5283 2.20994 17.0352 2.58244 17.4099L14.5899 29.4174C14.9647 29.7899 15.4716 29.999 15.9999 29.999C16.5283 29.999 17.0352 29.7899 17.4099 29.4174L29.4174 17.4099C29.7899 17.0352 29.999 16.5283 29.999 15.9999C29.999 15.4716 29.7899 14.9647 29.4174 14.5899ZM15.9999 3.99994L22.9999 10.9999H19.9999C19.8686 10.9998 19.7385 11.0256 19.6171 11.0758C19.4957 11.126 19.3854 11.1996 19.2924 11.2924L15.9999 14.5849L12.7074 11.2924C12.6145 11.1996 12.5042 11.126 12.3828 11.0758C12.2614 11.0256 12.1313 10.9998 11.9999 10.9999H8.99994L15.9999 3.99994ZM6.99994 12.9999H11.5849L14.5849 15.9999L11.5849 18.9999H6.99994L3.99994 15.9999L6.99994 12.9999ZM15.9999 27.9999L8.99994 20.9999H11.9999C12.1313 21 12.2614 20.9743 12.3828 20.9241C12.5042 20.8739 12.6145 20.8003 12.7074 20.7074L15.9999 17.4137L19.2924 20.7074C19.3854 20.8003 19.4957 20.8739 19.6171 20.9241C19.7385 20.9743 19.8686 21 19.9999 20.9999H22.9999L15.9999 27.9999ZM24.9999 18.9999H20.4149L17.4149 15.9999L20.4149 12.9999H24.9999L27.9999 15.9999L24.9999 18.9999Z" fill="#343330"/>
</g>
</svg>
