<svg width="32" height="32" viewBox="0 0 32 32" fill="none" xmlns="http://www.w3.org/2000/svg">
<g id="icon/amazon.logo">
<path id="Vector" d="M31 21V25C31 25.2652 30.8946 25.5195 30.7071 25.7071C30.5196 25.8946 30.2652 26 30 26C29.7348 26 29.4804 25.8946 29.2929 25.7071C29.1054 25.5195 29 25.2652 29 25V23.4137L28.7237 23.6912C28.3362 24.1125 23.68 29 16 29C8.145 29 3.4525 23.8862 3.25625 23.6687C3.07889 23.4706 2.98748 23.2102 3.00213 22.9447C3.01678 22.6792 3.13629 22.4304 3.33438 22.2531C3.53246 22.0757 3.79289 21.9843 4.05837 21.999C4.32385 22.0136 4.57264 22.1331 4.75 22.3312C4.78375 22.375 9.0625 27 16 27C22.9375 27 27.2163 22.375 27.2588 22.33C27.2693 22.3169 27.2806 22.3044 27.2925 22.2925L27.5863 22H26C25.7348 22 25.4804 21.8946 25.2929 21.7071C25.1054 21.5195 25 21.2652 25 21C25 20.7347 25.1054 20.4804 25.2929 20.2928C25.4804 20.1053 25.7348 20 26 20H30C30.2652 20 30.5196 20.1053 30.7071 20.2928C30.8946 20.4804 31 20.7347 31 21ZM20 11.8162V10.5C20.0007 9.48883 19.6608 8.50694 19.0351 7.71261C18.4095 6.91828 17.5346 6.3578 16.5514 6.12155C15.5683 5.88529 14.5342 5.98703 13.616 6.41036C12.6978 6.83368 11.9488 7.55393 11.49 8.45495C11.3693 8.69116 11.1598 8.86976 10.9074 8.95146C10.6551 9.03315 10.3806 9.01125 10.1444 8.89058C9.90817 8.76991 9.72957 8.56034 9.64788 8.30799C9.56618 8.05563 9.58808 7.78116 9.70875 7.54495C10.3718 6.24391 11.4537 5.20405 12.7799 4.59297C14.1062 3.98189 15.5996 3.8352 17.0194 4.17654C18.4392 4.51789 19.7027 5.32738 20.6063 6.47454C21.5098 7.62169 22.0008 9.03969 22 10.5V22C22 22.2652 21.8946 22.5195 21.7071 22.7071C21.5196 22.8946 21.2652 23 21 23C20.7348 23 20.4804 22.8946 20.2929 22.7071C20.1054 22.5195 20 22.2652 20 22V21.1837C19.0813 22.0677 17.9229 22.662 16.669 22.8927C15.4152 23.1234 14.1211 22.9802 12.948 22.481C11.7748 21.9818 10.7744 21.1486 10.0712 20.0851C9.368 19.0217 8.99306 17.7749 8.99306 16.5C8.99306 15.225 9.368 13.9782 10.0712 12.9148C10.7744 11.8513 11.7748 11.0181 12.948 10.5189C14.1211 10.0197 15.4152 9.87656 16.669 10.1072C17.9229 10.3379 19.0813 10.9322 20 11.8162ZM20 16.5C20 15.6099 19.7361 14.7399 19.2416 13.9999C18.7471 13.2599 18.0443 12.6831 17.2221 12.3425C16.3998 12.0019 15.495 11.9128 14.6221 12.0864C13.7492 12.2601 12.9474 12.6886 12.318 13.318C11.6887 13.9473 11.2601 14.7491 11.0865 15.622C10.9128 16.495 11.0019 17.3998 11.3425 18.222C11.6831 19.0443 12.2599 19.7471 12.9999 20.2416C13.74 20.736 14.61 21 15.5 21C16.0909 21 16.6761 20.8836 17.2221 20.6574C17.768 20.4313 18.2641 20.0998 18.682 19.6819C19.0998 19.2641 19.4313 18.768 19.6575 18.222C19.8836 17.6761 20 17.0909 20 16.5Z" fill="#343330"/>
</g>
</svg>
