<svg width="32" height="32" viewBox="0 0 32 32" fill="none" xmlns="http://www.w3.org/2000/svg">
<g id="icon/cloud.moon">
<path id="Vector" d="M21.5001 9.00001C20.9826 8.99977 20.4659 9.04157 19.9551 9.12501C19.7734 7.24796 19.0062 5.47554 17.7619 4.0585C16.5176 2.64145 14.8592 1.65153 13.0214 1.22876C12.8563 1.19084 12.6843 1.19546 12.5215 1.24218C12.3588 1.28891 12.2105 1.37621 12.0907 1.49589C11.9709 1.61558 11.8834 1.76374 11.8366 1.92646C11.7897 2.08919 11.7849 2.26117 11.8226 2.42626C12.0581 3.45234 12.0594 4.51831 11.8263 5.54495C11.5932 6.57159 11.1318 7.5325 10.4763 8.35629C9.82077 9.18007 8.98803 9.84553 8.03997 10.3032C7.0919 10.7609 6.05287 10.9991 5.00011 11C4.47053 11.0001 3.94262 10.9405 3.42636 10.8225C3.26118 10.7845 3.08905 10.7891 2.92615 10.8359C2.76324 10.8827 2.61489 10.9701 2.49504 11.0899C2.37519 11.2098 2.28777 11.3581 2.24099 11.521C2.19421 11.684 2.18961 11.8561 2.22761 12.0213C2.49625 13.1797 2.99112 14.2736 3.68379 15.2402C4.37645 16.2068 5.25326 17.027 6.26386 17.6538C5.55311 18.622 5.12456 19.7683 5.02576 20.9654C4.92697 22.1624 5.1618 23.3635 5.70418 24.4352C6.24657 25.5069 7.07531 26.4073 8.09841 27.0366C9.12152 27.6659 10.299 27.9993 11.5001 28H21.5001C24.0197 28 26.436 26.9991 28.2176 25.2175C29.9992 23.4359 31.0001 21.0196 31.0001 18.5C31.0001 15.9805 29.9992 13.5641 28.2176 11.7825C26.436 10.0009 24.0197 9.00001 21.5001 9.00001ZM4.67136 13C4.78011 13 4.89011 13 5.00011 13C7.38624 12.9974 9.67389 12.0483 11.3611 10.361C13.0484 8.67379 13.9975 6.38614 14.0001 4.00001C14.0001 3.88876 14.0001 3.77751 14.0001 3.66626C15.1516 4.20513 16.1334 5.0494 16.8386 6.10725C17.5439 7.1651 17.9456 8.39605 18.0001 9.66626C16.7787 10.1513 15.6707 10.8836 14.7458 11.8171C13.8208 12.7507 13.0988 13.8654 12.6251 15.0913C11.7796 14.945 10.9136 14.9675 10.0769 15.1576C9.24017 15.3477 8.44938 15.7015 7.75011 16.1988C6.40517 15.4932 5.32499 14.3709 4.67136 13ZM21.5001 26H11.5001C10.8846 25.9989 10.2759 25.8715 9.71166 25.6258C9.14738 25.38 8.6395 25.0211 8.21944 24.5713C7.79937 24.1215 7.47605 23.5903 7.26946 23.0105C7.06287 22.4307 6.97741 21.8147 7.01836 21.2006C7.0593 20.5865 7.22579 19.9874 7.50752 19.4401C7.78925 18.8929 8.18023 18.4094 8.6563 18.0193C9.13237 17.6292 9.68339 17.3409 10.2753 17.1723C10.8672 17.0036 11.4874 16.9582 12.0976 17.0388C12.0514 17.335 12.0189 17.6375 12.0014 17.9425C11.9938 18.0738 12.0122 18.2054 12.0555 18.3296C12.0988 18.4538 12.1661 18.5683 12.2536 18.6665C12.3411 18.7647 12.4471 18.8447 12.5656 18.9019C12.684 18.9591 12.8125 18.9925 12.9439 19C13.0752 19.0076 13.2067 18.9892 13.3309 18.9459C13.4551 18.9026 13.5696 18.8353 13.6678 18.7478C13.766 18.6603 13.846 18.5543 13.9032 18.4358C13.9605 18.3174 13.9938 18.1888 14.0014 18.0575C14.0294 17.5587 14.1082 17.0641 14.2364 16.5813C14.2364 16.5613 14.2476 16.5413 14.2514 16.5213C14.6189 15.1706 15.3568 13.9495 16.3816 12.996C17.4065 12.0425 18.6775 11.3946 20.0511 11.1253C21.4248 10.856 22.8464 10.9761 24.1554 11.472C25.4644 11.968 26.6087 12.82 27.459 13.932C28.3093 15.0439 28.8319 16.3714 28.9676 17.7646C29.1033 19.1578 28.8468 20.5613 28.227 21.8164C27.6073 23.0715 26.649 24.1284 25.4603 24.8677C24.2716 25.6069 22.8999 25.9991 21.5001 26Z" fill="#343330"/>
</g>
</svg>
