<svg width="32" height="32" viewBox="0 0 32 32" fill="none" xmlns="http://www.w3.org/2000/svg">
<g id="icon/eye.closed">
<path id="Vector" d="M28.5001 21.875C28.3858 21.9401 28.2599 21.9821 28.1294 21.9985C27.999 22.0149 27.8666 22.0054 27.7398 21.9706C27.613 21.9358 27.4943 21.8763 27.3906 21.7955C27.2868 21.7148 27.2 21.6143 27.1351 21.5L24.7601 17.35C23.3793 18.2836 21.8562 18.9869 20.2501 19.4325L20.9838 23.835C21.0055 23.9646 21.0014 24.0972 20.9717 24.2252C20.9421 24.3532 20.8875 24.4742 20.8111 24.5811C20.7348 24.688 20.6381 24.7788 20.5266 24.8483C20.415 24.9179 20.2909 24.9647 20.1613 24.9863C20.108 24.995 20.0541 24.9996 20.0001 25C19.7635 24.9996 19.5347 24.9154 19.3544 24.7623C19.174 24.6092 19.0538 24.3971 19.0151 24.1638L18.2938 19.8413C16.7728 20.0529 15.2298 20.0529 13.7088 19.8413L12.9876 24.1638C12.9487 24.3976 12.8282 24.61 12.6473 24.7631C12.4664 24.9163 12.2371 25.0002 12.0001 25C11.9448 24.9998 11.8896 24.9952 11.8351 24.9863C11.7054 24.9647 11.5813 24.9179 11.4698 24.8483C11.3583 24.7788 11.2616 24.688 11.1852 24.5811C11.1088 24.4742 11.0543 24.3532 11.0246 24.2252C10.995 24.0972 10.9909 23.9646 11.0126 23.835L11.7501 19.4325C10.1446 18.9855 8.62231 18.2809 7.24256 17.3463L4.87506 21.5C4.74245 21.7311 4.52348 21.9 4.26632 21.9696C4.00916 22.0392 3.73488 22.0039 3.50381 21.8713C3.27274 21.7386 3.10381 21.5197 3.03419 21.2625C2.96457 21.0054 2.99995 20.7311 3.13256 20.5L5.63256 16.125C4.75443 15.3664 3.94696 14.5296 3.22006 13.625C3.12941 13.5238 3.06033 13.4052 3.01705 13.2764C2.97377 13.1476 2.95719 13.0113 2.96833 12.8759C2.97947 12.7405 3.01808 12.6087 3.08182 12.4887C3.14556 12.3687 3.23308 12.263 3.33905 12.1779C3.44502 12.0929 3.56721 12.0303 3.69816 11.9941C3.8291 11.9578 3.96607 11.9486 4.10069 11.9671C4.2353 11.9855 4.36475 12.0312 4.48113 12.1013C4.5975 12.1715 4.69837 12.2646 4.77756 12.375C6.85256 14.9425 10.4826 18 16.0001 18C21.5176 18 25.1476 14.9388 27.2226 12.375C27.3008 12.2623 27.4015 12.167 27.5182 12.0949C27.6349 12.0228 27.7652 11.9754 27.901 11.9559C28.0368 11.9363 28.1752 11.9448 28.3075 11.981C28.4399 12.0172 28.5634 12.0803 28.6703 12.1662C28.7772 12.2522 28.8653 12.3592 28.9291 12.4807C28.9929 12.6022 29.031 12.7355 29.0411 12.8723C29.0511 13.0091 29.0329 13.1466 28.9876 13.2761C28.9423 13.4055 28.8708 13.5243 28.7776 13.625C28.0507 14.5296 27.2432 15.3664 26.3651 16.125L28.8651 20.5C28.9322 20.614 28.976 20.7403 28.9939 20.8714C29.0119 21.0025 29.0037 21.1358 28.9697 21.2637C28.9358 21.3916 28.8768 21.5115 28.7962 21.6164C28.7155 21.7214 28.6149 21.8093 28.5001 21.875Z" fill="#343330"/>
</g>
</svg>
