<svg width="32" height="32" viewBox="0 0 32 32" fill="none" xmlns="http://www.w3.org/2000/svg">
<g id="icon/patreon.logo">
<path id="Vector" d="M23.4212 3.99994C21.0725 3.03994 18.2787 2.75994 15.555 3.21244C12.625 3.69994 10.0887 4.96244 8.21999 6.86244C6.82999 8.27744 5.14249 11.0312 5.00749 16.1124C4.91999 19.4237 5.55624 23.0424 6.70874 25.7937C7.86124 28.5449 9.32624 29.9999 10.94 29.9999C13.8075 29.9999 15.0937 27.4899 16.3362 25.0624C17.2112 23.3624 18.1062 21.6049 19.53 20.6399C20.2625 20.1399 21.255 19.7649 22.3062 19.3549C25.2887 18.2049 29 16.7724 29 11.6462C29 8.23744 26.9662 5.44994 23.4212 3.99994ZM21.5862 17.4887C20.4262 17.9362 19.33 18.3637 18.4075 18.9887C16.56 20.2387 15.495 22.3212 14.5562 24.1549C13.3337 26.5374 12.5062 27.9999 10.94 27.9999C10.375 27.9999 9.41749 27.0787 8.55374 25.0187C7.50499 22.5187 6.92874 19.2074 7.00749 16.1649C7.09874 12.7074 8.03624 9.90119 9.64624 8.26369C11.9037 5.96744 15.0987 4.99994 18.0712 4.99994C19.642 4.98602 21.2008 5.27285 22.6637 5.84494C24.2887 6.50744 27 8.14244 27 11.6412C27 15.4012 24.4912 16.3749 21.5862 17.4887Z" fill="#343330"/>
</g>
</svg>
