<svg width="32" height="32" viewBox="0 0 32 32" fill="none" xmlns="http://www.w3.org/2000/svg">
<g id="icon/sock">
<path id="Vector" d="M24 2H13C12.4696 2 11.9609 2.21071 11.5858 2.58579C11.2107 2.96086 11 3.46957 11 4V13.5863L6.15628 18.4287C4.80119 19.8152 4.04743 21.6801 4.05853 23.6188C4.06963 25.5575 4.84469 27.4136 6.21557 28.7845C7.58645 30.1553 9.44256 30.9304 11.3812 30.9415C13.3199 30.9526 15.1848 30.1988 16.5713 28.8438L25.125 20.2925C25.4042 20.0138 25.6253 19.6825 25.7755 19.3177C25.9257 18.9529 26.002 18.562 26 18.1675V4C26 3.46957 25.7893 2.96086 25.4142 2.58579C25.0392 2.21071 24.5305 2 24 2ZM24 4V6H13V4H24ZM15.1563 27.4287C14.6603 27.9361 14.0686 28.34 13.4155 28.6171C12.7623 28.8942 12.0607 29.0389 11.3512 29.0429C10.6417 29.047 9.93846 28.9102 9.2822 28.6405C8.62594 28.3709 8.0297 27.9737 7.52801 27.472C7.02632 26.9703 6.62915 26.3741 6.3595 25.7178C6.08984 25.0616 5.95307 24.3583 5.95709 23.6488C5.96112 22.9394 6.10586 22.2377 6.38294 21.5846C6.66002 20.9314 7.06393 20.3397 7.57128 19.8438L12.7075 14.7075C12.8004 14.6146 12.874 14.5042 12.9242 14.3828C12.9744 14.2615 13.0001 14.1314 13 14V8H24V13.0725C22.3351 13.3152 20.813 14.1484 19.7115 15.4202C18.61 16.692 18.0025 18.3175 18 20C17.9955 21.2664 18.3384 22.5098 18.9913 23.595L15.1563 27.4287ZM23.7075 18.875L20.4688 22.1138C20.1585 21.4524 19.9984 20.7305 20 20C20.0013 18.8479 20.3998 17.7314 21.1285 16.839C21.8572 15.9466 22.8714 15.3328 24 15.1012V18.1712C23.9992 18.4352 23.8941 18.6882 23.7075 18.875Z" fill="#343330"/>
</g>
</svg>
