<svg width="32" height="32" viewBox="0 0 32 32" fill="none" xmlns="http://www.w3.org/2000/svg">
<g id="icon/plug">
<path id="Vector" d="M29.7076 8.29245C29.6147 8.19947 29.5044 8.12571 29.383 8.07539C29.2616 8.02506 29.1315 7.99916 29.0001 7.99916C28.8687 7.99916 28.7385 8.02506 28.6171 8.07539C28.4957 8.12571 28.3854 8.19947 28.2926 8.29245L24.0001 12.5862L19.4138 7.99995L23.7076 3.70745C23.8952 3.51981 24.0006 3.26531 24.0006 2.99995C24.0006 2.73458 23.8952 2.48009 23.7076 2.29245C23.5199 2.10481 23.2654 1.99939 23.0001 1.99939C22.7347 1.99939 22.4802 2.10481 22.2926 2.29245L18.0001 6.5862L14.7076 3.29245C14.5199 3.10481 14.2654 2.99939 14.0001 2.99939C13.7347 2.99939 13.4802 3.10481 13.2926 3.29245C13.1049 3.48009 12.9995 3.73458 12.9995 3.99995C12.9995 4.26531 13.1049 4.5198 13.2926 4.70745L14.0863 5.49995L7.46132 12.1249C6.997 12.5892 6.62868 13.1404 6.37739 13.7471C6.1261 14.3537 5.99676 15.0039 5.99676 15.6606C5.99676 16.3172 6.1261 16.9674 6.37739 17.574C6.62868 18.1807 6.997 18.7319 7.46132 19.1962L9.42507 21.1599L3.29257 27.2924C3.19966 27.3854 3.12596 27.4957 3.07567 27.6171C3.02539 27.7384 2.99951 27.8686 2.99951 27.9999C2.99951 28.1313 3.02539 28.2614 3.07567 28.3828C3.12596 28.5042 3.19966 28.6145 3.29257 28.7074C3.48021 28.8951 3.7347 29.0005 4.00007 29.0005C4.13146 29.0005 4.26157 28.9746 4.38296 28.9243C4.50436 28.8741 4.61466 28.8004 4.70757 28.7074L10.8438 22.5712L12.8076 24.5349C13.2719 24.9993 13.8231 25.3676 14.4297 25.6189C15.0364 25.8702 15.6866 25.9995 16.3432 25.9995C16.9998 25.9995 17.65 25.8702 18.2567 25.6189C18.8633 25.3676 19.4145 24.9993 19.8788 24.5349L26.5038 17.9099L27.2963 18.7037C27.3892 18.7966 27.4995 18.8703 27.6209 18.9206C27.7423 18.9709 27.8724 18.9968 28.0038 18.9968C28.1352 18.9968 28.2653 18.9709 28.3867 18.9206C28.5081 18.8703 28.6184 18.7966 28.7113 18.7037C28.8042 18.6108 28.8779 18.5005 28.9282 18.3791C28.9785 18.2577 29.0044 18.1276 29.0044 17.9962C29.0044 17.8648 28.9785 17.7347 28.9282 17.6133C28.8779 17.4919 28.8042 17.3816 28.7113 17.2887L25.4138 13.9999L29.7076 9.70745C29.8005 9.61457 29.8743 9.50428 29.9246 9.38289C29.975 9.26149 30.0009 9.13136 30.0009 8.99995C30.0009 8.86853 29.975 8.7384 29.9246 8.61701C29.8743 8.49561 29.8005 8.38532 29.7076 8.29245ZM18.4651 23.1249C18.1865 23.4037 17.8557 23.6248 17.4916 23.7757C17.1275 23.9265 16.7373 24.0042 16.3432 24.0042C15.9491 24.0042 15.5589 23.9265 15.1948 23.7757C14.8307 23.6248 14.4999 23.4037 14.2213 23.1249L8.87507 17.7787C8.59633 17.5001 8.37521 17.1693 8.22435 16.8052C8.07348 16.4412 7.99583 16.0509 7.99583 15.6568C7.99583 15.2627 8.07348 14.8725 8.22435 14.5084C8.37521 14.1443 8.59633 13.8135 8.87507 13.5349L15.5001 6.90995L25.0863 16.4999L18.4651 23.1249Z" fill="#343330"/>
</g>
</svg>
